<?xml version="1.0" standalone="no"?>
<!DOCTYPE svg PUBLIC "-//W3C//DTD SVG 1.1//EN" "http://www.w3.org/Graphics/SVG/1.1/DTD/svg11.dtd" >
<svg xmlns="http://www.w3.org/2000/svg" xmlns:xlink="http://www.w3.org/1999/xlink" version="1.1">
<metadata>
Created by FontForge 20150824 at Tue Sep 20 08:09:03 2016
 By Everything Fonts
Font software Copyright 1991 Adobe Systems Incorporated. Typeface designs Copyright 1991 The Monotype Corporation. All rights reserved.
</metadata>
<defs>
<font id="ArialRoundedMTProCyr" horiz-adv-x="333" >
  <font-face 
    font-family="ArialRoundedMTProCyr"
    font-weight="400"
    font-stretch="normal"
    units-per-em="1000"
    panose-1="2 15 5 2 2 1 2 2 2 4"
    ascent="738"
    descent="-262"
    x-height="518"
    cap-height="716"
    bbox="-180 -298 1057 936"
    underline-thickness="64"
    underline-position="-231"
    unicode-range="U+0020-FB04"
  />
<missing-glyph horiz-adv-x="500" 
d="M12 0v665h475v-665h-475zM88 618l162 -243l161 243h-323zM60 575v-484l40 61l80 120l41 61zM440 575l-162 -242l162 -243v485zM411 48l-161 242l-162 -242h323z" />
    <glyph glyph-name="f_f" unicode="ff" horiz-adv-x="578" 
d="M51 518h45v49q0 93 36 127t106 34q96 0 96 -42q0 -14 -8.5 -23.5t-20.5 -9.5l-46 5q-41 0 -58.5 -18.5t-17.5 -80.5v-41h55q35 0 46 -14q11 14 44 14h45v49q0 93 36 127t106 34q96 0 96 -42q0 -14 -8.5 -23.5t-20.5 -9.5l-46 5q-41 0 -58.5 -18.5t-17.5 -80.5v-41h55
q52 0 52 -31q0 -33 -52 -33h-55v-395q0 -40 -10 -55.5t-33 -15.5q-25 0 -34.5 15t-9.5 56v395h-47q-31 0 -42 14q-11 -14 -46 -14h-55v-395q0 -40 -10 -55.5t-33 -15.5q-25 0 -34.5 15t-9.5 56v395h-47q-47 0 -47 33q0 31 49 31z" />
    <glyph glyph-name="f_i" unicode="fi" horiz-adv-x="535" 
d="M415 713q20 0 34 -14t14 -34t-14 -34.5t-34 -14.5t-34.5 14.5t-14.5 34.5t14.5 34t34.5 14zM459 459v-400q0 -41 -10.5 -56t-34.5 -15q-21 0 -31.5 14t-10.5 57v400q0 41 9 56t34 15q22 0 33 -14.5t11 -56.5zM97 518v49q0 44 9.5 75t22.5 47.5t34.5 25.5t37.5 11t38 2
q96 0 96 -42q0 -14 -8.5 -23.5t-20.5 -9.5q-4 0 -24 2.5t-23 2.5q-47 0 -61 -23.5t-14 -75.5v-41h54q53 0 53 -31q0 -33 -53 -33h-54v-395q0 -37 -9 -54t-35 -17q-25 0 -34 16.5t-9 54.5v395h-47q-48 0 -48 33q0 31 50 31h45z" />
    <glyph glyph-name="f_l" unicode="fl" horiz-adv-x="535" 
d="M459 656v-597q0 -31 -8 -48t-16 -20t-19 -3q-14 0 -22 3t-15 19.5t-7 48.5v597q0 41 9.5 56.5t33.5 15.5q25 0 34.5 -14.5t9.5 -57.5zM97 518v49q0 44 9.5 75t22.5 47.5t34.5 25.5t37.5 11t38 2q96 0 96 -42q0 -14 -8.5 -23.5t-20.5 -9.5q-4 0 -24 2.5t-23 2.5
q-47 0 -61 -23.5t-14 -75.5v-41h54q53 0 53 -31q0 -33 -53 -33h-54v-395q0 -37 -9 -54t-35 -17q-25 0 -34 16.5t-9 54.5v395h-47q-48 0 -48 33q0 31 50 31h45z" />
    <glyph glyph-name="f_f_i" unicode="ffi" horiz-adv-x="812" 
d="M51 518h45v49q0 93 36 127t106 34q96 0 96 -42q0 -14 -8.5 -23.5t-20.5 -9.5l-46 5q-41 0 -58.5 -18.5t-17.5 -80.5v-41h55q35 0 46 -14q11 14 44 14h45v49q0 93 36 127t106 34q96 0 96 -42q0 -14 -8.5 -23.5t-20.5 -9.5l-46 5q-41 0 -58.5 -18.5t-17.5 -80.5v-41h55
q52 0 52 -31q0 -33 -52 -33h-55v-395q0 -40 -10 -55.5t-33 -15.5q-25 0 -34.5 15t-9.5 56v395h-47q-31 0 -42 14q-11 -14 -46 -14h-55v-395q0 -40 -10 -55.5t-33 -15.5q-25 0 -34.5 15t-9.5 56v395h-47q-47 0 -47 33q0 31 49 31zM692 713q20 0 34 -14t14 -34t-14 -34.5
t-34 -14.5t-34.5 14.5t-14.5 34.5t14.5 34t34.5 14zM736 459v-400q0 -41 -10.5 -56t-34.5 -15q-21 0 -31.5 14t-10.5 57v400q0 41 9 56t34 15q22 0 33 -14.5t11 -56.5z" />
    <glyph glyph-name="f_f_l" unicode="ffl" horiz-adv-x="812" 
d="M51 518h45v49q0 93 36 127t106 34q96 0 96 -42q0 -14 -8.5 -23.5t-20.5 -9.5l-46 5q-41 0 -58.5 -18.5t-17.5 -80.5v-41h55q35 0 46 -14q11 14 44 14h45v49q0 93 36 127t106 34q96 0 96 -42q0 -14 -8.5 -23.5t-20.5 -9.5l-46 5q-41 0 -58.5 -18.5t-17.5 -80.5v-41h55
q52 0 52 -31q0 -33 -52 -33h-55v-395q0 -40 -10 -55.5t-33 -15.5q-25 0 -34.5 15t-9.5 56v395h-47q-31 0 -42 14q-11 -14 -46 -14h-55v-395q0 -40 -10 -55.5t-33 -15.5q-25 0 -34.5 15t-9.5 56v395h-47q-47 0 -47 33q0 31 49 31zM736 656v-597q0 -31 -8 -48t-16 -20t-19 -3
q-14 0 -22 3t-15 19.5t-7 48.5v597q0 41 9.5 56.5t33.5 15.5q25 0 34.5 -14.5t9.5 -57.5z" />
    <glyph glyph-name=".notdef" horiz-adv-x="500" 
d="M12 0v665h475v-665h-475zM88 618l162 -243l161 243h-323zM60 575v-484l40 61l80 120l41 61zM440 575l-162 -242l162 -243v485zM411 48l-161 242l-162 -242h323z" />
    <glyph glyph-name=".null" horiz-adv-x="0" 
 />
    <glyph glyph-name="nonmarkingreturn" 
 />
    <glyph glyph-name="space" unicode=" " horiz-adv-x="282" 
 />
    <glyph glyph-name="exclam" unicode="!" 
d="M133 260l-15 291q-5 108 1 136q8 41 47 41q15 0 29 -9t19 -32q6 -31 1 -136l-15 -291q-1 -22 -2.5 -31.5t-9 -20t-21.5 -10.5t-22 10.5t-9.5 20t-2.5 31.5zM166 98q23 0 39 -16t16 -39t-16.5 -39t-38.5 -16q-23 0 -39 16t-16 39t16 39t39 16z" />
    <glyph glyph-name="quotedbl" unicode="&#x22;" horiz-adv-x="354" 
d="M70 462l-24 137v117h100v-117l-22 -137h-54zM232 462l-24 137v117h100v-117l-23 -137h-53z" />
    <glyph glyph-name="numbersign" unicode="#" horiz-adv-x="552" 
d="M93 196h-34q-17 0 -25 1t-16 9t-8 24q0 14 2.5 22t11 11t14.5 3.5t21 0.5h48l37 180h-85q-18 0 -25.5 1t-15.5 8.5t-8 23.5q0 18 6.5 26.5t15 10t27.5 1.5h99l34 167q4 19 7 26t10.5 12t23.5 5q18 0 26 -8.5t8 -19.5q0 -5 -4 -26l-31 -156h153l34 167q3 15 5 20.5
t6.5 12.5t11.5 8.5t19 1.5q18 0 26 -8.5t8 -19.5q0 -3 -0.5 -5.5t-2 -8.5t-2.5 -12l-31 -156h36q17 0 25.5 -1t16 -8.5t7.5 -23.5q0 -27 -10.5 -32.5t-38.5 -5.5h-51l-36 -180h87q18 0 25.5 -1t15.5 -8t8 -23q0 -19 -6.5 -27.5t-15 -10t-27.5 -1.5h-102l-33 -166
q-5 -26 -12 -34t-30 -8q-18 0 -26 8.5t-8 19.5q0 9 4 26l32 154h-154l-34 -166q-5 -26 -11.5 -34t-29.5 -8q-18 0 -26 8.5t-8 19.5q0 9 4 26zM217 447l-36 -180h153l37 180h-154z" />
    <glyph glyph-name="dollar" unicode="$" horiz-adv-x="563" 
d="M306 657v-251q119 -38 153 -68q59 -51 59 -138q0 -14 -1.5 -29.5t-13 -48t-32 -57.5t-63.5 -47.5t-102 -28.5v-119q0 -34 -6 -44.5t-19 -10.5q-18 0 -22 12t-4 45v116q-58 4 -103 27t-68.5 55t-34.5 61.5t-11 53.5q0 18 13 30t29 12q31 0 42 -37q18 -59 46.5 -92
t86.5 -41v278q-80 21 -122 45q-80 46 -80 153q0 53 22 93t54 61q46 31 126 40v52q0 38 26 38q25 0 25 -37v-53q95 -11 143 -66q45 -52 45 -98q0 -13 -11.5 -26t-30.5 -13q-13 0 -22 6.5t-12 12.5t-8 18q-11 27 -21 43.5t-31.5 32.5t-51.5 20zM254 420l1 239q-15 0 -32.5 -5
t-38.5 -17t-35 -37.5t-14 -61.5q0 -29 10 -50t30 -34t36 -19.5t43 -14.5zM306 321v-266q37 6 63.5 21.5t38.5 31.5t19 36.5t8 29t1 17.5q0 32 -10.5 54.5t-34 37.5t-39 21.5t-46.5 16.5z" />
    <glyph glyph-name="percent" unicode="%" horiz-adv-x="833" 
d="M22 532q0 186 144 186q79 0 112 -51t33 -127q0 -25 -1 -41.5t-8.5 -48.5t-21.5 -52t-43.5 -36t-70.5 -16q-144 0 -144 186zM522 180q0 186 144 186q79 0 112 -51t33 -127q0 -25 -1 -41.5t-8.5 -48.5t-21.5 -52t-43.5 -36t-70.5 -16q-144 0 -144 186zM86 532
q0 -70 18 -104.5t63 -34.5q46 0 63 35.5t17 108.5q0 69 -18.5 101.5t-61.5 32.5q-45 0 -63 -34.5t-18 -104.5zM586 180q0 -70 18 -104.5t63 -34.5q46 0 63 35.5t17 108.5q0 69 -18.5 101.5t-61.5 32.5q-45 0 -63 -34.5t-18 -104.5zM164 23l454 671q20 28 28 32q4 1 9 1
q11 0 18.5 -8t7.5 -18q0 -11 -19 -37l-452 -668q-15 -22 -30 -22q-11 0 -19 8t-8 15q0 12 11 26z" />
    <glyph glyph-name="ampersand" unicode="&#x26;" horiz-adv-x="698" 
d="M554 161q42 -43 94 -88q26 -23 26 -41q0 -20 -13.5 -32t-28.5 -12q-21 0 -70 43q-21 18 -61 58q-24 -28 -46 -47t-65.5 -36.5t-96.5 -17.5q-113 0 -175 65.5t-62 143.5q0 41 14.5 74.5t43.5 59.5t51 40.5t59 35.5q-76 97 -76 159t46.5 112t130.5 50q86 0 129.5 -51
t43.5 -107q0 -97 -150 -177q95 -117 146 -171q3 7 23 51t24 52q14 26 35 26q17 0 29 -11.5t12 -28.5q0 -40 -63 -150zM269 350q-59 -33 -90.5 -64.5t-31.5 -79.5q0 -56 42 -101.5t103 -45.5q82 0 150 89q-35 36 -90 100t-83 102zM302 448q56 31 84.5 58.5t28.5 66.5
q0 36 -25 61.5t-64 25.5t-65 -26t-26 -60q0 -32 25 -70q14 -17 42 -56z" />
    <glyph glyph-name="quotesingle" unicode="'" horiz-adv-x="188" 
d="M66 462l-22 134v120h100v-120l-23 -134h-55z" />
    <glyph glyph-name="parenleft" unicode="(" horiz-adv-x="344" 
d="M73 259q0 214 137 419q34 50 63 50q20 0 20 -9q0 -4 -10 -23q-63 -120 -97 -236q-26 -89 -26 -201q0 -56 6 -104.5t33.5 -137t78.5 -187.5q1 -1 4 -7t6 -11t3 -7q2 -3 2 -6q0 -9 -18 -9q-12 0 -19.5 2.5t-24.5 21t-39 55.5q-58 97 -88.5 188t-30.5 202z" />
    <glyph glyph-name="parenright" unicode=")" horiz-adv-x="344" 
d="M271 259q0 -214 -137 -419q-34 -50 -63 -50q-20 0 -20 9q0 4 10 23q63 120 97 236q26 89 26 201q0 56 -6 104.5t-33.5 137t-78.5 187.5q-1 1 -4 7t-6 11t-3 7q-2 3 -2 6q0 9 18 9q12 0 19.5 -2.5t24.5 -21t39 -55.5q58 -97 88.5 -188t30.5 -202z" />
    <glyph glyph-name="asterisk" unicode="*" horiz-adv-x="406" 
d="M234 714l-9 -118q6 2 40 18.5t40 18.5q26 13 44 13q9 0 19 -8t10 -23q0 -19 -24 -30t-115 -29q62 -69 75 -85.5t13 -26.5q0 -13 -9.5 -22t-22.5 -9q-17 0 -35 26q-33 47 -57 92q-60 -102 -69 -111q-7 -7 -19 -7q-15 0 -24 10t-9 20q0 23 87 113q-6 1 -36 7.5t-34 7.5
q-41 9 -56 19t-15 25q0 14 10 22.5t19 8.5q14 0 125 -50q-11 99 -11 120q0 14 9 23.5t23 9.5q12 0 21.5 -8.5t9.5 -26.5z" />
    <glyph glyph-name="plus" unicode="+" horiz-adv-x="583" 
d="M251 116v196h-196v82h196v196h82v-196h196v-82h-196v-196h-82z" />
    <glyph glyph-name="comma" unicode="," horiz-adv-x="240" 
d="M120 -12q-26 1 -42 16.5t-16 38.5q0 24 17 40.5t41 16.5q29 0 45 -22t16 -60q0 -58 -27 -103t-57 -45q-9 0 -16 8t-7 17q0 11 20 30q25 25 26 63z" />
    <glyph glyph-name="hyphen" unicode="-" 
d="M90 291h153q16 0 24.5 -1t20.5 -4t18 -12t6 -24q0 -12 -4.5 -20t-10.5 -12t-17 -6t-17.5 -2.5t-19.5 -0.5h-153q-16 0 -24.5 1t-20.5 4t-18 12t-6 24q0 12 4.5 20t10.5 12t17 6t17.5 2.5t19.5 0.5z" />
    <glyph glyph-name="period" unicode="." horiz-adv-x="240" 
d="M120 98q23 0 39 -16t16 -39t-16.5 -39t-38.5 -16q-23 0 -39 16t-16 39t16 39t39 16z" />
    <glyph glyph-name="slash" unicode="/" horiz-adv-x="281" 
d="M17 44l181 644q7 26 13.5 33t29.5 7q11 0 20 -8t9 -20q0 -2 -6 -28l-181 -644q-7 -26 -13.5 -33t-29.5 -7q-11 0 -20 7.5t-9 19.5q0 4 6 29z" />
    <glyph glyph-name="zero" unicode="0" horiz-adv-x="563" 
d="M46 352q0 120 18.5 183.5t51.5 104.5q60 76 166 76q108 0 165 -76q70 -94 70 -272q0 -133 -18 -197t-52 -107q-59 -76 -166 -76q-108 0 -165 76q-33 44 -51.5 106t-18.5 182zM135 352q0 -68 6 -117.5t21.5 -92t45.5 -64.5t74 -22t73.5 21.5t45 64t21.5 92.5t6 118
t-6 117.5t-21.5 92t-45 64.5t-73.5 22t-73.5 -21.5t-45 -63.5t-22 -92t-6.5 -119z" />
    <glyph glyph-name="one" unicode="1" horiz-adv-x="563" 
d="M375 650v-595q0 -13 -1 -21t-4.5 -20.5t-13.5 -19t-25 -6.5q-43 0 -43 60v520q-123 -103 -170 -103q-11 0 -21.5 9.5t-10.5 26.5q0 12 8.5 21.5t34.5 21.5q13 6 30.5 16t42.5 27.5t51 43t44 54.5q7 11 11.5 16.5t11.5 10t16 4.5q39 0 39 -66z" />
    <glyph glyph-name="two" unicode="2" horiz-adv-x="563" 
d="M155 79h297q17 0 26 -0.5t22 -4t19 -12t6 -22.5t-5.5 -23t-18.5 -12t-22 -4t-26 -1h-347q-60 0 -60 44q0 72 132 185q30 26 103 84q85 69 114 111t29 90q0 63 -41.5 98.5t-97.5 35.5q-48 0 -88 -26t-54 -77q-8 -32 -17 -46t-31 -14q-12 0 -24.5 9t-12.5 30q0 67 60 129.5
t166 62.5q58 0 102 -16.5t67.5 -39.5t37.5 -53t18 -51t4 -40q0 -41 -13 -76t-46 -71.5t-61 -61t-84 -69.5q-60 -48 -93 -79.5t-42 -44.5t-19 -35z" />
    <glyph glyph-name="three" unicode="3" horiz-adv-x="563" 
d="M382 385q23 -6 39.5 -13.5t42.5 -25.5t40.5 -52.5t14.5 -81.5q0 -92 -60.5 -158t-169.5 -66q-118 0 -176 60q-28 30 -45.5 67.5t-17.5 64.5q0 13 11.5 24t28.5 11t25.5 -10t14.5 -31q6 -19 15.5 -36.5t26 -37.5t43.5 -32t61 -12q69 0 111.5 46.5t42.5 107.5q0 54 -35 96
t-101 42q-5 0 -29.5 -2.5t-28.5 -2.5q-19 0 -28.5 10t-9.5 24q0 37 48 37q47 0 79 13q35 14 53.5 44t18.5 63q0 45 -32 81t-89 36q-47 0 -78.5 -25.5t-47.5 -61.5q-19 -43 -28 -49q-7 -4 -19 -4q-20 0 -28.5 12.5t-8.5 24.5q0 17 11 42.5t33.5 55t67 50t102.5 20.5
q94 0 150 -52.5t56 -129.5q0 -32 -10 -58t-29.5 -44.5t-32 -27t-32.5 -19.5z" />
    <glyph glyph-name="four" unicode="4" horiz-adv-x="563" 
d="M347 169h-259q-52 0 -64 12q-16 16 -16 37q0 10 4.5 18t24.5 35l300 405q29 40 49 40q16 0 25.5 -5.5t13 -17.5t4.5 -21t1 -26v-403h49q17 0 26.5 -1t21 -10t11.5 -26q0 -37 -56 -37h-52v-113q0 -46 -12 -56q-12 -12 -29 -12q-15 0 -24 5.5t-12.5 17.5t-4.5 20.5t-1 24.5
v113zM98 243h249v338z" />
    <glyph glyph-name="five" unicode="5" horiz-adv-x="563" 
d="M194 630l-39 -213q77 48 146 48q94 0 158 -66t64 -163q0 -44 -15.5 -86.5t-45 -79.5t-79 -59.5t-110.5 -22.5q-143 0 -207 129q-14 26 -14 45q0 21 12 31t27 10q27 0 42 -36q13 -30 26.5 -51t45.5 -40.5t75 -19.5q75 0 114.5 53.5t39.5 120.5q0 78 -43.5 122.5
t-106.5 44.5q-35 0 -64 -11.5t-43.5 -22.5t-38.5 -34q-14 -14 -32 -14q-16 0 -28 11.5t-12 26.5q0 5 4 29l48 264q7 41 21 51t54 10h249q17 0 27.5 -1t22 -10.5t11.5 -26.5q0 -18 -11.5 -27.5t-21.5 -10.5t-27 -1h-249z" />
    <glyph glyph-name="six" unicode="6" horiz-adv-x="563" 
d="M130 361q74 94 181 94q94 0 152.5 -65.5t58.5 -159.5q0 -97 -63 -169.5t-170 -72.5q-134 0 -200 116q-47 82 -47 230q0 198 78 298q66 84 182 84q47 0 84.5 -14.5t57.5 -34t33 -43t17 -39t4 -24.5q0 -13 -11 -24.5t-28 -11.5q-30 0 -43 37q-32 88 -115 88q-24 0 -47.5 -8
t-50.5 -34t-44 -68q-21 -52 -29 -179zM293 56q62 0 100.5 50t38.5 121q0 74 -40 117t-99 43q-22 0 -46.5 -8t-48.5 -25t-39.5 -49.5t-15.5 -74.5q0 -70 41.5 -122t108.5 -52z" />
    <glyph glyph-name="seven" unicode="7" horiz-adv-x="563" 
d="M405 631h-313q-54 0 -54 40q0 17 9.5 25.5t18.5 9.5t26 1h338q21 0 31 -0.5t23 -4.5t18.5 -12.5t5.5 -23.5q0 -12 -6 -21.5t-34 -45.5q-62 -78 -104.5 -152.5t-66.5 -148t-35.5 -128t-22.5 -132.5q-7 -50 -45 -50q-45 0 -45 53q0 106 64 269q56 147 192 321z" />
    <glyph glyph-name="eight" unicode="8" horiz-adv-x="563" 
d="M392 385q128 -49 128 -179q0 -90 -63.5 -154t-175.5 -64q-115 0 -176.5 64.5t-61.5 154.5q0 131 128 178q-102 47 -102 145q0 74 56.5 130t153.5 56q106 0 159.5 -57.5t53.5 -128.5q0 -101 -100 -145zM280 348q-65 0 -107.5 -37.5t-42.5 -107.5q0 -71 44.5 -110
t106.5 -39t107 38.5t45 110.5q0 68 -42.5 106.5t-110.5 38.5zM280 652q-54 0 -90 -36t-36 -87t36 -83t91 -32q54 0 90 32t36 83q0 46 -33 84.5t-94 38.5z" />
    <glyph glyph-name="nine" unicode="9" horiz-adv-x="563" 
d="M430 343q-74 -94 -181 -94q-94 0 -152.5 65.5t-58.5 159.5q0 97 63 169.5t170 72.5q134 0 200 -116q47 -82 47 -230q0 -198 -78 -298q-66 -84 -182 -84q-47 0 -84.5 14.5t-57.5 34t-33 43t-17 39t-4 24.5q0 13 11 24.5t28 11.5q30 0 43 -37q32 -88 115 -88q24 0 47.5 8
t50.5 34t44 68q21 52 29 179zM267 648q-62 0 -100.5 -50t-38.5 -121q0 -74 40 -117t99 -43q22 0 46.5 8t48.5 25t39.5 49.5t15.5 74.5q0 70 -41.5 122t-108.5 52z" />
    <glyph glyph-name="colon" unicode=":" horiz-adv-x="240" 
d="M120 530q23 0 39 -16t16 -39t-16.5 -39t-38.5 -16q-23 0 -39 16t-16 39t16 39t39 16zM120 98q23 0 39 -16t16 -39t-16.5 -39t-38.5 -16q-23 0 -39 16t-16 39t16 39t39 16z" />
    <glyph glyph-name="semicolon" unicode=";" horiz-adv-x="240" 
d="M119 530q23 0 39 -16t16 -39t-16 -39t-39 -16t-39 16t-16 39t16 39t39 16zM120 -12q-26 1 -42 16.5t-16 38.5q0 24 17 40.5t41 16.5q29 0 45 -22t16 -60q0 -58 -27 -103t-57 -45q-9 0 -16 8t-7 17q0 11 20 30q25 25 26 63z" />
    <glyph glyph-name="less" unicode="&#x3c;" horiz-adv-x="583" 
d="M55 393l474 202v-87l-375 -156l375 -154v-87l-474 200v82z" />
    <glyph glyph-name="equal" unicode="=" horiz-adv-x="583" 
d="M529 421h-474v82h474v-82zM529 204h-474v82h474v-82z" />
    <glyph glyph-name="greater" unicode="&#x3e;" horiz-adv-x="583" 
d="M529 313l-474 -202v87l375 156l-375 154v87l474 -200v-82z" />
    <glyph glyph-name="question" unicode="?" horiz-adv-x="531" 
d="M48 543q0 17 12 45t36 61t71.5 56t108.5 23q102 0 157 -57.5t55 -133.5q0 -48 -23 -86.5t-76 -89.5q-60 -57 -72.5 -78.5t-18.5 -72.5q-4 -40 -41 -40q-42 0 -42 52q0 59 21.5 96.5t73.5 84.5q35 32 49.5 47t26 37.5t11.5 48.5q0 48 -36 83t-91 35q-99 0 -131 -114
q-5 -13 -8 -19.5t-13 -15t-25 -8.5q-17 0 -31 12t-14 34zM266 98q23 0 39 -16t16 -39t-16.5 -39t-38.5 -16q-23 0 -39 16t-16 39t16 39t39 16z" />
    <glyph glyph-name="at" unicode="@" horiz-adv-x="1010" 
d="M641 439l17 76h87l-70 -328q-15 -65 -15 -76q0 -15 11 -23.5t23 -8.5q21 0 52 19t62 52t53 86.5t22 112.5q0 135 -101 221t-249 86q-183 0 -295 -122.5t-112 -297.5q0 -83 24.5 -149t65 -107.5t96 -69t113.5 -38.5t122 -11q75 0 137.5 15.5t103 40.5t64 47t39.5 45h88
q-27 -54 -77 -97q-142 -123 -354 -123q-128 0 -225 35.5t-154.5 97.5t-86 139t-28.5 167q0 62 14.5 126.5t50.5 133t89 121t138.5 86t190.5 33.5q101 0 182.5 -33t132 -88t77 -122t26.5 -138q0 -110 -53.5 -191t-119.5 -123q-57 -36 -121 -36q-30 0 -50 7.5t-28.5 22.5
t-11 25t-4.5 27q-69 -81 -150 -81q-76 0 -126.5 63.5t-50.5 155.5q0 114 76.5 212.5t176.5 98.5q93 0 148 -89zM330 211q0 -67 32 -104t73 -37q67 0 122.5 74.5t55.5 171.5q0 67 -32.5 103.5t-80.5 36.5q-52 0 -93 -44.5t-59 -99t-18 -101.5z" />
    <glyph glyph-name="A" unicode="A" horiz-adv-x="688" 
d="M501 207h-319l-62 -160q-8 -19 -11 -26t-9.5 -17t-14.5 -13t-20 -3q-19 0 -32.5 13t-13.5 29q0 14 14 50l227 563q19 49 33 67t46 18q31 0 48 -20q11 -12 32 -64l235 -560q15 -37 15 -52q0 -16 -14 -30t-34 -14q-16 0 -26.5 8.5t-15 17.5t-14.5 35zM209 284h263l-134 335
z" />
    <glyph glyph-name="B" unicode="B" horiz-adv-x="688" 
d="M387 0h-223q-54 0 -67 13.5t-13 66.5v556q0 54 13 67t67 13h206q96 0 145 -29q40 -24 62.5 -64t22.5 -88q0 -108 -104 -157q19 -7 30.5 -11.5t34.5 -19t36.5 -31.5t25 -47t11.5 -67q0 -91 -61 -146.5t-186 -55.5zM380 332h-200v-255h200q77 0 117 35q39 33 39 94
q0 38 -16.5 65t-43 39t-49.5 17t-47 5zM180 639v-230h183q63 0 103 30.5t40 85.5q0 24 -7.5 43t-17 31t-27 20t-29.5 12t-34 6t-29.5 2h-26.5h-155z" />
    <glyph glyph-name="C" unicode="C" horiz-adv-x="729" 
d="M677 223q0 -20 -9.5 -48t-31.5 -61t-53.5 -61t-81 -46.5t-107.5 -18.5q-156 0 -237 85q-49 51 -75.5 127t-26.5 158q0 166 93.5 268t240.5 102q73 0 131.5 -26.5t89 -63.5t46 -67.5t15.5 -47.5q0 -16 -10 -29t-29 -13q-10 0 -19 5t-17 15.5t-12 17.5l-12 21
q-27 52 -77 83q-45 28 -102 28q-41 0 -80 -14t-76.5 -45.5t-60.5 -92.5t-23 -145q0 -83 22.5 -143.5t59 -90t73.5 -42.5t77 -13q153 0 208 157q5 13 8.5 20t12.5 14t22 7q16 0 28.5 -11t12.5 -29z" />
    <glyph glyph-name="D" unicode="D" horiz-adv-x="729" 
d="M341 0h-175q-57 0 -69 15t-12 77v544q0 54 13.5 67t67.5 13h174q38 0 63.5 -2t62.5 -10.5t69.5 -29.5t60.5 -54q79 -95 79 -261q0 -217 -126 -307q-73 -52 -208 -52zM181 639v-562h147q72 0 114 14.5t77 56.5q58 69 58 206t-58 212q-32 41 -74.5 57t-121.5 16h-142z" />
    <glyph glyph-name="E" unicode="E" horiz-adv-x="635" 
d="M183 639v-230h306q20 0 30.5 -1t22 -10t11.5 -27q0 -14 -5 -22.5t-16.5 -12t-19.5 -4t-23 -0.5h-306v-255h347q16 0 23.5 -0.5t19.5 -3.5t17.5 -11.5t5.5 -22.5q0 -19 -12 -28t-22.5 -10t-31.5 -1h-363q-34 0 -44.5 2t-21.5 12q-10 9 -12 21t-2 45v556v7q0 41 9 54l4 4
q9 10 21.5 12.5t45.5 2.5h349q16 0 23.5 -0.5t19.5 -3.5t17.5 -11.5t5.5 -22.5q0 -19 -12 -28t-22.5 -10t-31.5 -1h-333z" />
    <glyph glyph-name="F" unicode="F" horiz-adv-x="573" 
d="M180 639v-234h247q20 0 30.5 -1t22 -10t11.5 -27q0 -14 -5.5 -22.5t-16.5 -12t-19 -4t-23 -0.5h-247v-261q0 -51 -13 -64q-15 -15 -35 -15t-36 14q-12 13 -12 65v569q0 54 13 67t67 13h313q16 0 23.5 -0.5t19 -3.5t17 -11.5t5.5 -22.5q0 -19 -11.5 -28t-22 -10t-31.5 -1
h-297z" />
    <glyph glyph-name="G" unicode="G" horiz-adv-x="781" 
d="M628 132v155h-157q-16 0 -24.5 0.5t-20 4t-17 11.5t-5.5 22q0 18 11 27.5t20.5 10.5t25.5 1h180q48 -1 63 -13t15 -56v-157q0 -26 -4 -38.5t-20 -24.5q-7 -7 -37 -24.5t-99.5 -40t-140.5 -22.5q-180 0 -272.5 104t-92.5 263q0 75 21.5 141t64 118.5t113.5 83t163 30.5
q66 0 119.5 -17.5t83 -42t49.5 -53.5t26.5 -49.5t6.5 -31.5q0 -18 -11.5 -30t-35.5 -12q-23 0 -47 43q-12 22 -24.5 38t-35.5 36t-58.5 31t-80.5 11q-122 0 -189 -81t-67 -209q0 -149 79 -228q68 -68 188 -68q110 0 210 67z" />
    <glyph glyph-name="H" unicode="H" horiz-adv-x="729" 
d="M177 414h375v236q0 42 11 60t38 18q23 0 35 -16.5t12 -61.5v-584q0 -44 -10 -61t-37 -17q-25 0 -37 17.5t-12 60.5v271h-375v-270q0 -42 -10.5 -60.5t-38.5 -18.5q-25 0 -36 16.5t-11 62.5v582q0 44 9.5 61.5t37.5 17.5q25 0 37 -17.5t12 -61.5v-235z" />
    <glyph glyph-name="I" unicode="I" horiz-adv-x="292" 
d="M194 649v-582q0 -43 -10 -61t-38 -18q-26 0 -37 17.5t-11 61.5v582q0 43 10 61t38 18q25 0 36.5 -17.5t11.5 -61.5z" />
    <glyph glyph-name="J" unicode="J" horiz-adv-x="531" 
d="M348 218v431q0 42 10 60.5t38 18.5q26 0 37 -18t11 -61v-424q0 -22 -0.5 -36t-4.5 -41.5t-11.5 -46t-23 -42t-37 -37.5t-56 -24t-78.5 -10q-59 0 -102 19.5t-64.5 51.5t-31 64.5t-9.5 67.5q0 20 10 32t18.5 14t16.5 2q16 0 25 -8.5t12.5 -19.5t9.5 -41q3 -13 5 -20
t10.5 -25.5t19.5 -29.5t32 -20.5t47 -9.5q116 0 116 153z" />
    <glyph glyph-name="K" unicode="K" horiz-adv-x="698" 
d="M183 359l354 339q13 12 16 15t10 8.5t11.5 6t12.5 0.5q19 0 31.5 -13t12.5 -28q-2 -24 -28 -48l-230 -212l256 -335q30 -37 30 -60q0 -19 -14.5 -31.5t-34.5 -12.5q-18 0 -29.5 10t-34.5 41l-238 327l-125 -116v-204q0 -32 -14.5 -45t-32.5 -13q-26 0 -37.5 16.5
t-11.5 62.5v582q0 42 9.5 60.5t38.5 18.5q26 0 37 -18t11 -61v-290z" />
    <glyph glyph-name="L" unicode="L" horiz-adv-x="573" 
d="M180 77h303q22 0 32.5 -1t22.5 -10t12 -28q0 -14 -5 -22.5t-18 -11.5t-19.5 -3.5t-24.5 -0.5h-319q-54 0 -67 13t-13 67v569q0 44 9.5 61.5t37.5 17.5q26 0 37.5 -17t11.5 -62v-572z" />
    <glyph glyph-name="M" unicode="M" horiz-adv-x="836" 
d="M76 58v578q0 28 7 46t20.5 24.5t22 8t22.5 1.5q48 0 62 -8.5t29 -53.5l149 -445q20 -59 35 -106q9 29 38 115l148 433q16 47 27 56t56 9q46 0 57 -15t11 -65v-587q0 -61 -46 -61t-46 57v554l-186 -535q-16 -47 -26.5 -61.5t-35.5 -14.5q-27 0 -39 13t-29 63l-184 545
v-550q0 -14 -1 -22.5t-4.5 -21.5t-14 -20t-26.5 -7q-20 0 -31 12t-13 25t-2 33z" />
    <glyph glyph-name="N" unicode="N" horiz-adv-x="729" 
d="M559 142l-3 509q-1 40 6 54q10 23 39 23q20 0 34 -14q13 -12 13 -63v-566q0 -41 -3 -56t-17 -27q-17 -14 -39 -14t-34 11t-36 47l-349 521l4 -502q0 -41 -6 -54q-4 -9 -15.5 -16t-24.5 -7q-20 0 -34 14q-13 12 -13 63v570q0 40 3 53.5t16 25.5q14 14 38 14q20 0 31.5 -11
t34.5 -45z" />
    <glyph glyph-name="O" unicode="O" horiz-adv-x="781" 
d="M730 358q0 -70 -19 -133.5t-57 -118t-105 -86.5t-155 -32q-80 0 -142.5 25t-99 63.5t-60.5 89.5t-32.5 97.5t-8.5 94.5q0 50 9.5 98.5t34 98.5t61.5 87.5t98 61.5t138 24q74 0 133 -23t96.5 -59.5t62.5 -86t35.5 -99.5t10.5 -102zM632 358q0 84 -25.5 145.5t-65.5 91.5
t-77.5 43t-73.5 13q-95 0 -167 -72q-74 -72 -74 -233q0 -127 69.5 -204t171.5 -77q36 0 73.5 13t77.5 43t65.5 91.5t25.5 145.5z" />
    <glyph glyph-name="P" unicode="P" horiz-adv-x="635" 
d="M183 294v-227q0 -39 -7 -55q-4 -9 -16 -16.5t-25 -7.5q-21 0 -36 15q-12 12 -12 64v569q0 56 14.5 68t73.5 12h171q112 0 168 -42q76 -57 76 -166q0 -55 -24.5 -105.5t-72.5 -75.5q-63 -33 -147 -33h-163zM321 639h-138v-268h138q171 0 171 135q0 60 -35 96
q-35 37 -136 37z" />
    <glyph glyph-name="Q" unicode="Q" horiz-adv-x="781" 
d="M630 78q32 -24 83 -52q26 -14 35 -23t9 -21q0 -13 -10.5 -23.5t-22.5 -10.5q-33 0 -154 83q-83 -43 -181 -43q-90 0 -158 33t-105.5 88t-56 117.5t-18.5 131.5q0 50 9.5 98t33.5 98.5t61 88t98 61.5t137 24q80 0 142 -25.5t98.5 -64.5t60 -91t31.5 -98t8 -93
q0 -169 -100 -278zM553 130q79 82 79 229q0 66 -16.5 118t-42 84t-58.5 53t-64 29t-61 8q-24 0 -51 -5.5t-62 -25t-62.5 -50t-46.5 -86t-19 -128.5q0 -81 24.5 -141.5t63 -91t77 -44.5t75.5 -14q57 0 108 26q-20 16 -85 49q-29 13 -29 32q0 12 8.5 22.5t20.5 10.5
q21 0 64 -23.5t77 -51.5z" />
    <glyph glyph-name="R" unicode="R" horiz-adv-x="688" 
d="M182 321v-253q0 -36 -4 -49q-4 -15 -17.5 -23t-27.5 -8q-34 0 -44 31q-3 9 -3 49v568q0 54 13 67t67 13h229q91 0 140 -29q43 -26 67.5 -69.5t24.5 -96.5q0 -49 -19.5 -85.5t-45.5 -56.5q-47 -35 -126 -49q50 -29 76 -63q5 -6 15.5 -20t17.5 -23.5t9 -13.5l65 -109
q33 -55 33 -72q0 -19 -13.5 -30.5t-30.5 -11.5q-20 0 -32.5 12t-37.5 53l-68 108q-36 57 -62.5 90.5t-51 48.5t-42 18.5t-48.5 3.5h-84zM352 642h-170v-244h167q180 0 180 124q0 58 -46 93q-34 27 -131 27z" />
    <glyph glyph-name="S" unicode="S" horiz-adv-x="635" 
d="M586 207q0 -94 -69.5 -157t-194.5 -63q-135 0 -204 70q-29 30 -46.5 69.5t-17.5 72.5q0 16 12 28.5t30 12.5q19 0 27.5 -12t22.5 -51q7 -20 14.5 -33.5t26 -36t51.5 -35t78 -12.5q72 0 125 36t53 98q0 27 -11 48t-25 33.5t-36.5 22.5t-36.5 13.5t-35 8.5
q-104 23 -141 35.5t-69 36.5q-67 54 -67 140q0 94 70.5 145t173.5 51q159 0 218 -102q23 -41 23 -74q0 -17 -12 -32t-31 -15q-20 0 -29.5 12.5t-17.5 35.5q-17 50 -49 73q-40 29 -105 29q-67 0 -108 -33.5t-41 -79.5q0 -24 11 -43.5t24 -31t39 -22t41 -14.5t44 -11
q147 -35 197 -73q31 -23 48 -63.5t17 -76.5z" />
    <glyph glyph-name="T" unicode="T" horiz-adv-x="583" 
d="M339 639v-572q0 -43 -9.5 -61t-38.5 -18q-26 0 -37 17.5t-11 61.5v572h-162q-38 0 -53.5 9t-15.5 29q0 39 69 39h421q69 0 69 -39q0 -38 -69 -38h-163z" />
    <glyph glyph-name="U" unicode="U" horiz-adv-x="729" 
d="M177 648v-380q0 -19 0.5 -31t4 -35.5t10 -39.5t20.5 -36t33.5 -32t50.5 -20.5t70 -8.5q48 0 84 13.5t55 33.5t30 49.5t14 53t3 52.5v381q0 52 13 65q15 15 35 15q22 0 35 -15q13 -13 13 -65v-372q0 -288 -275 -288q-148 0 -220 66.5t-72 220.5v373q0 52 13 65
q15 15 35 15q21 0 35 -15q13 -13 13 -65z" />
    <glyph glyph-name="V" unicode="V" horiz-adv-x="635" 
d="M317 102l201 567q11 33 21 46t32 13q18 0 31.5 -13t13.5 -28q0 -13 -13 -48l-210 -567q-9 -26 -14 -37t-14 -24.5t-20.5 -18t-28.5 -4.5q-32 0 -46 17.5t-32 66.5l-205 562q-14 38 -14 50q0 16 13.5 30t33.5 14q16 0 27 -8.5t15.5 -19t13.5 -34.5z" />
    <glyph glyph-name="W" unicode="W" horiz-adv-x="906" 
d="M663 137l128 525q5 23 9 34.5t14.5 21.5t27.5 10q21 0 33.5 -13.5t12.5 -28.5q0 -6 -1.5 -15.5t-4 -19t-2.5 -10.5l-149 -572q-8 -31 -13 -44.5t-18 -25t-34 -11.5q-16 0 -27 4.5t-18.5 17.5t-11 23t-10.5 34l-146 538l-146 -538q-7 -24 -10.5 -33.5t-11 -23t-18.5 -18
t-27 -4.5q-21 0 -34 11.5t-18 25t-13 44.5l-149 572q-8 40 -8 45q0 15 12.5 28.5t32.5 13.5q25 0 35 -15.5t17 -50.5l128 -525l137 506q6 22 9.5 32.5t11 22.5t19 16.5t29.5 4.5q39 0 52 -15t25 -61z" />
    <glyph glyph-name="X" unicode="X" horiz-adv-x="604" 
d="M252 374l-175 257q-25 37 -25 56q0 17 12.5 29t32.5 12q11 0 20.5 -6t13.5 -11.5t19 -28.5q3 -4 5 -7l150 -231l167 237q15 22 21 29.5t14.5 12.5t19.5 5q15 0 27.5 -9t12.5 -28q0 -18 -25 -53l-181 -258l195 -292q25 -39 25 -57q0 -17 -13 -30t-34 -13q-17 0 -27 10
t-35 48l-167 256l-186 -267q-15 -22 -20.5 -29t-14.5 -12.5t-21 -5.5q-19 0 -30.5 11.5t-11.5 30.5q0 18 26 55z" />
    <glyph glyph-name="Y" unicode="Y" horiz-adv-x="615" 
d="M256 307l-206 320q-26 42 -26 57q0 17 12.5 30.5t34.5 13.5q17 0 26.5 -9.5t30.5 -43.5l179 -283l184 286q21 33 30 41.5t26 8.5q18 0 31 -12t13 -30q0 -16 -25 -54l-214 -325v-240q0 -53 -14 -65q-14 -14 -34 -14q-19 0 -35 14q-13 12 -13 65v240z" />
    <glyph glyph-name="Z" unicode="Z" horiz-adv-x="625" 
d="M466 639h-352q-20 0 -30.5 1t-22 10t-11.5 27q0 14 5 22.5t16.5 12t19.5 4t23 0.5h401q14 0 22.5 -1t21.5 -5t20 -15.5t7 -29.5q0 -21 -27 -55l-425 -533h402h21t18 -2t18 -5.5t10 -11.5t5 -20q0 -14 -5.5 -22.5t-17.5 -11.5t-19.5 -3.5t-22.5 -0.5h-443q-53 0 -67 10
q-21 16 -21 41q0 13 6.5 24t28.5 38z" />
    <glyph glyph-name="bracketleft" unicode="[" horiz-adv-x="344" 
d="M161 648v-780h111q19 0 28 -1t19.5 -8.5t10.5 -23.5t-10.5 -24.5t-20 -9.5t-27.5 -1h-119q-30 0 -40.5 2t-21.5 12q-10 9 -12 21t-2 45v756q0 34 2 44.5t12 21.5q10 10 21.5 12t40.5 2h119q18 0 27.5 -1t20 -9.5t10.5 -24.5q0 -12 -4.5 -19.5t-16 -10t-16.5 -3t-21 -0.5
h-111z" />
    <glyph glyph-name="backslash" unicode="\" horiz-adv-x="281" 
d="M198 28l-181 644q-6 22 -6 28q0 12 9 20t21 8q22 0 28.5 -7.5t13.5 -32.5l181 -644q6 -22 6 -29q0 -11 -9 -19.5t-21 -8.5q-22 0 -28.5 7.5t-13.5 33.5z" />
    <glyph glyph-name="bracketright" unicode="]" horiz-adv-x="344" 
d="M183 -132v780h-111q-19 0 -28 1t-19.5 8.5t-10.5 23.5t10.5 24.5t20 9.5t27.5 1h119q30 0 40.5 -2t21.5 -12q10 -9 12 -21t2 -45v-756q0 -34 -2 -44.5t-12 -21.5q-10 -10 -21.5 -12t-40.5 -2h-119q-18 0 -27.5 1t-20 9.5t-10.5 24.5q0 12 4.5 19.5t16 10t16.5 3t21 0.5
h111z" />
    <glyph glyph-name="asciicircum" unicode="^" horiz-adv-x="469" 
d="M116 337h-90l173 391h71l173 -391h-89l-120 292z" />
    <glyph glyph-name="underscore" unicode="_" horiz-adv-x="500" 
d="M-6 -199v64h512v-64h-512z" />
    <glyph glyph-name="grave" unicode="`" 
d="M214 623q10 -19 10 -26q0 -6 -6 -12t-16 -6q-16 0 -38.5 19.5t-76.5 78.5q-24 26 -24 33q0 8 30 8h24q35 0 45 -6t27 -40z" />
    <glyph glyph-name="a" unicode="a" horiz-adv-x="563" 
d="M415 73q-88 -85 -205 -85q-81 0 -124.5 44t-43.5 104q0 34 12.5 60t29 41t43.5 27t43.5 16t41.5 9q9 2 72 13.5t74 14.5q25 7 49 15q-1 27 -2 41t-7.5 35t-18 31.5t-34.5 18.5t-56 8q-117 0 -146 -72q-6 -15 -9.5 -22t-12 -13.5t-21.5 -6.5q-16 0 -27.5 10.5t-11.5 26.5
q0 11 4.5 26.5t19.5 36t38 37.5t65 29t95 12q58 0 98 -11.5t62 -28.5t33.5 -47.5t14.5 -57.5t3 -69q0 -13 -1.5 -82.5t-1.5 -80.5q0 -49 14 -86q0 -1 3 -9.5t5 -18.5t2 -17q0 -13 -12.5 -23.5t-29.5 -10.5q-16 0 -28 15t-17.5 30t-12.5 40zM408 270q-31 -12 -58 -18
t-78.5 -16t-73.5 -16q-38 -11 -52.5 -33.5t-14.5 -44.5q0 -32 25 -59t74 -27q46 0 90.5 19.5t65.5 55.5q22 37 22 139z" />
    <glyph glyph-name="b" unicode="b" horiz-adv-x="615" 
d="M157 78v-31q0 -59 -42 -59q-18 0 -30 12q-12 10 -12 57v599q0 17 1 26t4.5 21.5t13 18.5t25.5 6q15 0 24.5 -5.5t13 -18.5t4.5 -22t1 -27v-215q6 9 17.5 20.5t34 29t57.5 29t74 11.5q51 0 92 -17.5t66 -44.5t41.5 -63t23 -71t6.5 -70q0 -33 -5.5 -67t-22 -73t-41 -68
t-66.5 -48.5t-96 -19.5q-39 0 -70.5 9t-54.5 26t-34 27.5t-25 27.5zM324 56q61 0 110 50.5t49 156.5q0 87 -42.5 143t-113.5 56q-24 0 -49.5 -8.5t-54 -29t-46.5 -64.5t-18 -106q0 -102 48.5 -150t116.5 -48z" />
    <glyph glyph-name="c" unicode="c" horiz-adv-x="563" 
d="M516 152q0 -14 -12 -38.5t-36 -54t-70.5 -50.5t-104.5 -21q-151 0 -214 111q-37 66 -37 159q0 49 11.5 93.5t38 86.5t77 67t120.5 25q103 0 160 -51.5t57 -95.5q0 -16 -12 -27t-27 -11q-21 0 -42 35q-48 82 -135 82q-73 0 -117 -54t-44 -146q0 -96 42.5 -151t116.5 -55
q91 0 133 74q3 5 9 17t9.5 17.5t9.5 13.5t12.5 11t14.5 3q15 0 27.5 -11t12.5 -29z" />
    <glyph glyph-name="d" unicode="d" horiz-adv-x="614" 
d="M457 78q-14 -17 -25 -27.5t-34 -27.5t-54.5 -26t-70.5 -9q-54 0 -96 19.5t-66.5 48.5t-41 68t-22 73t-5.5 67q0 35 6.5 70t23 71t41.5 63t66 44.5t92 17.5q39 0 74 -11.5t57.5 -29t34 -29t17.5 -20.5v215q0 18 1 27t4.5 22t13 18.5t24.5 5.5q16 0 25.5 -6t13 -18.5
t4.5 -21.5t1 -26v-599q0 -47 -12 -57q-12 -12 -30 -12q-42 0 -42 59v31zM290 56q68 0 116.5 48t48.5 150q0 62 -18 106t-46.5 64.5t-54 29t-49.5 8.5q-71 0 -113.5 -56t-42.5 -143q0 -106 49 -156.5t110 -50.5z" />
    <glyph glyph-name="e" unicode="e" horiz-adv-x="563" 
d="M444 242h-311q2 -97 48 -143.5t114 -46.5q40 0 70 15.5t43 31t33 46.5q17 26 37 26q14 0 23.5 -10t9.5 -23q0 -7 -4 -21t-18.5 -37t-37 -43t-64.5 -34.5t-96 -14.5q-122 0 -184.5 75.5t-62.5 196.5q0 119 62.5 194.5t182.5 75.5q58 0 102.5 -20t68 -48t38.5 -63t19 -59
t4 -42q0 -20 -6.5 -32t-20 -17t-23 -6t-27.5 -1zM134 302h298q-1 20 -5 38.5t-14.5 42.5t-25.5 41.5t-41 29.5t-60 12q-132 0 -152 -164z" />
    <glyph glyph-name="f" unicode="f" horiz-adv-x="302" 
d="M97 518v49q0 44 9.5 75t22.5 47.5t34.5 25.5t37.5 11t38 2q96 0 96 -42q0 -14 -8.5 -23.5t-20.5 -9.5q-4 0 -24 2.5t-23 2.5q-47 0 -61 -23.5t-14 -75.5v-41h54q53 0 53 -31q0 -33 -53 -33h-54v-395q0 -37 -9 -54t-35 -17q-25 0 -34 16.5t-9 54.5v395h-47q-48 0 -48 33
q0 31 50 31h45z" />
    <glyph glyph-name="g" unicode="g" horiz-adv-x="615" 
d="M457 436v40q0 54 42 54q20 0 29.5 -12.5t11 -25.5t1.5 -40v-396q0 -99 -19 -147q-49 -122 -235 -122q-63 0 -110 17t-69 41.5t-32 44.5t-10 33q0 14 11 25.5t29 11.5q15 0 22.5 -7t28.5 -40q37 -58 130 -58q113 0 146 62q14 26 17 54.5t4 101.5q-81 -81 -177 -81
q-60 0 -106 23.5t-69 55t-37 73t-17.5 68t-3.5 48.5q0 69 22 128t75.5 100.5t131.5 41.5q39 0 70.5 -9t54.5 -27.5t33.5 -29t25.5 -28.5zM293 60q64 0 112.5 47.5t48.5 147.5q0 99 -44.5 153t-116.5 54q-24 0 -48 -8t-51 -27.5t-44 -63t-17 -104.5q0 -101 46 -150t114 -49z
" />
    <glyph glyph-name="h" unicode="h" horiz-adv-x="573" 
d="M503 333v-273q0 -43 -10 -57.5t-35 -14.5q-23 0 -32.5 14.5t-9.5 57.5v252q0 71 -16 98q-29 49 -92 49q-38 0 -72 -19.5t-51 -51.5q-9 -16 -13 -28.5t-7.5 -44.5t-3.5 -83v-173q0 -38 -8.5 -54.5t-36.5 -16.5q-15 0 -24 6t-12.5 18.5t-4.5 21.5t-1 26v596q0 23 1.5 35
t11 24.5t29.5 12.5q21 0 31.5 -12t12 -24t1.5 -36v-212q33 41 69.5 63.5t93.5 22.5q88 0 143 -63q36 -42 36 -134z" />
    <glyph glyph-name="i" unicode="i" horiz-adv-x="240" 
d="M164 459v-400q-1 -42 -11.5 -56.5t-32.5 -14.5q-20 0 -30.5 12.5t-12 25t-1.5 33.5v400q0 39 10 55t35 16q21 0 31 -12t11 -23t1 -36zM168 665q0 -20 -14 -34.5t-34 -14.5t-34 14.5t-14 34.5t14 34t34 14t34 -14t14 -34z" />
    <glyph glyph-name="j" unicode="j" horiz-adv-x="240" 
d="M164 459v-487q0 -95 -18 -126q-33 -57 -114 -57q-82 0 -82 47q0 35 39 35q3 0 18.5 -1.5t17.5 -1.5q29 0 40.5 21.5t11.5 80.5v489q0 38 8 54.5t35 16.5q16 0 25.5 -6t13 -18.5t4.5 -21.5t1 -25zM72 665q0 20 14.5 34t34.5 14t34 -14t14 -34t-14 -34.5t-34 -14.5
t-34.5 14.5t-14.5 34.5z" />
    <glyph glyph-name="k" unicode="k" horiz-adv-x="531" 
d="M244 269l-76 -70v-138q0 -14 -0.5 -21.5t-2.5 -19t-6.5 -17.5t-13.5 -10.5t-22 -4.5q-15 0 -24 5t-12.5 18t-4.5 23t-1 30v580q0 19 1 29.5t4.5 25.5t13 22t25.5 7q26 0 34.5 -16.5t8.5 -59.5v-354l208 200q24 24 31.5 29t18.5 5q17 0 29 -12t12 -27t-28 -41l-135 -127
l167 -241q27 -39 27 -56t-14 -28.5t-30 -11.5q-14 0 -24.5 9t-25.5 33z" />
    <glyph glyph-name="l" unicode="l" horiz-adv-x="240" 
d="M164 656v-597q0 -38 -9.5 -54.5t-34.5 -16.5q-15 0 -24.5 5.5t-13 18t-4.5 21.5t-1 26v597q0 41 9 56.5t34 15.5q23 0 33.5 -16t10.5 -56z" />
    <glyph glyph-name="m" unicode="m" horiz-adv-x="833" 
d="M768 356v-296q0 -40 -9 -56t-34 -16q-16 0 -25.5 6t-13 19t-4.5 22t-1 26v266q0 20 -0.5 31.5t-5.5 32t-14 32.5t-27.5 21.5t-45.5 9.5q-30 0 -59.5 -14t-44.5 -40q-23 -39 -23 -99v-241q0 -40 -8.5 -56t-34.5 -16q-24 0 -34 15.5t-10 56.5v277q0 117 -92 117
q-129 0 -129 -185v-209q0 -40 -8.5 -56t-34.5 -16q-24 0 -34 15.5t-10 56.5v399q0 17 0.5 26t4 21.5t12 18t22.5 5.5q26 0 32.5 -15.5t6.5 -68.5q55 84 157 84q114 0 147 -91q58 91 160 91q42 0 82 -17.5t59 -55.5q19 -39 19 -101z" />
    <glyph glyph-name="n" unicode="n" horiz-adv-x="573" 
d="M503 331v-272q0 -48 -12 -59q-14 -12 -31 -12q-18 0 -32 12q-12 11 -12 59v247q0 70 -16 98q-29 50 -91 50q-38 0 -72 -19.5t-52 -52.5q-13 -24 -18.5 -53.5t-5.5 -104.5v-165q0 -47 -13 -59q-14 -12 -31 -12t-31 12q-12 11 -12 59v402q0 46 11 57q14 12 31 12
q26 0 34 -19q9 -16 9 -70q19 25 34.5 40.5t51 32t78.5 16.5q90 0 146 -64q34 -39 34 -135z" />
    <glyph glyph-name="o" unicode="o" horiz-adv-x="573" 
d="M530 259q0 -135 -69 -203t-175 -68q-117 0 -180.5 74.5t-63.5 186.5q0 135 64.5 208t179.5 73q106 0 175 -68t69 -203zM441 259q0 96 -41.5 149.5t-112.5 53.5q-73 0 -114.5 -55t-41.5 -148q0 -94 41.5 -148.5t114.5 -54.5t113.5 55t40.5 148z" />
    <glyph glyph-name="p" unicode="p" horiz-adv-x="615" 
d="M157 440q14 17 25 27.5t34 27.5t54.5 26t70.5 9q54 0 96 -19.5t66.5 -48.5t41 -68t22 -73t5.5 -67q0 -35 -6.5 -70t-23 -71t-41.5 -63t-66 -44.5t-92 -17.5q-39 0 -74 11.5t-57.5 29t-34 29t-17.5 20.5v-215q0 -18 -1 -27t-4.5 -22t-13 -18.5t-24.5 -5.5q-16 0 -25.5 6
t-13 18.5t-4.5 21.5t-1 26v599q0 47 12 57q12 12 30 12q42 0 42 -59v-31zM324 462q-68 0 -116.5 -48t-48.5 -150q0 -62 18 -106t46.5 -64.5t54 -29t49.5 -8.5q71 0 113.5 56t42.5 143q0 106 -49 156.5t-110 50.5z" />
    <glyph glyph-name="q" unicode="q" horiz-adv-x="615" 
d="M457 440v31q0 59 42 59q18 0 30 -12q12 -10 12 -57v-599q0 -17 -1 -26t-4.5 -21.5t-13 -18.5t-25.5 -6q-15 0 -24.5 5.5t-13 18.5t-4.5 22t-1 27v215q-6 -9 -17.5 -20.5t-34 -29t-57.5 -29t-74 -11.5q-51 0 -92 17.5t-66 44.5t-41.5 63t-23 71t-6.5 70q0 33 5.5 67t22 73
t41 68t66.5 48.5t96 19.5q39 0 70.5 -9t54.5 -26t34 -27.5t25 -27.5zM290 462q-61 0 -110 -50.5t-49 -156.5q0 -87 42.5 -143t113.5 -56q24 0 49.5 8.5t54 29t46.5 64.5t18 106q0 102 -48.5 150t-116.5 48z" />
    <glyph glyph-name="r" unicode="r" horiz-adv-x="375" 
d="M77 59v416q0 17 1 26t10 19t27 10q17 0 26 -10t10 -19t1 -26v-40q17 26 26.5 38.5t25 28t33.5 22t41 6.5q36 0 69.5 -16.5t33.5 -42.5q0 -17 -12 -28.5t-23 -11.5q-9 0 -30 7.5t-42 7.5q-34 0 -56.5 -17t-33.5 -49.5t-15.5 -68.5t-4.5 -85v-188q0 -29 -14 -39.5
t-29 -10.5q-19 0 -31 12q-13 11 -13 59z" />
    <glyph glyph-name="s" unicode="s" horiz-adv-x="510" 
d="M467 151q0 -17 -3.5 -34.5t-17.5 -42t-36 -42.5t-64 -31t-97 -13q-109 0 -164 55q-44 44 -44 88q0 14 11 25t27 11q25 0 40 -34q36 -83 136 -83q57 0 89 24.5t32 58.5q0 18 -8 33t-18 23.5t-29.5 16.5t-30.5 11l-33 9q-78 20 -109 32t-54 31q-45 37 -45 93q0 62 50.5 105
t143.5 43q48 0 85.5 -11.5t57.5 -27t33 -34.5t17 -31.5t4 -20.5q0 -6 -2 -13t-11 -15t-24 -8q-13 0 -23 10t-18.5 24.5t-21 29.5t-37 25t-58.5 10q-50 0 -81.5 -19.5t-31.5 -53.5q0 -32 31.5 -52t117.5 -39q29 -6 50 -12t49 -18.5t45 -27.5t29.5 -39.5t12.5 -55.5z" />
    <glyph glyph-name="t" unicode="t" horiz-adv-x="302" 
d="M90 518v88q0 49 7 62q11 20 36 20q16 0 25.5 -6t13 -19.5t4.5 -23t1 -28.5v-93h46q54 0 54 -31q0 -32 -51 -32h-49v-308q0 -46 9 -67t43 -21q4 0 26 3t25 3q13 0 21.5 -8t8.5 -23q0 -43 -98 -43q-35 0 -59.5 10t-36.5 23t-18 37t-7 38.5t-1 40.5v315h-33q-17 0 -27 8.5
t-11 14t-1 9.5q0 31 47 31h25z" />
    <glyph glyph-name="u" unicode="u" horiz-adv-x="573" 
d="M69 182v276q0 39 9.5 55.5t34.5 16.5t34 -16.5t9 -55.5v-242q0 -72 17 -100q32 -52 92 -52q38 0 72.5 20t51.5 52q8 15 12 26.5t7.5 45.5t3.5 88v162q0 39 8.5 55.5t34.5 16.5t35 -16t9 -56v-401q0 -36 -8.5 -52.5t-33.5 -16.5q-26 0 -34 16.5t-8 73.5q-14 -18 -24.5 -29
t-31.5 -27.5t-49.5 -25t-62.5 -8.5q-46 0 -90 19t-63 57q-25 49 -25 118z" />
    <glyph glyph-name="v" unicode="v" horiz-adv-x="521" 
d="M261 99l141 377q9 23 12.5 30.5t12.5 15.5t23 8q19 0 31 -12.5t12 -25.5q0 -15 -13 -46l-158 -394q-10 -25 -15.5 -35.5t-17 -19.5t-28.5 -9t-29 9t-17.5 19.5t-15.5 35.5l-158 394q-13 34 -13 46q0 14 12 26t31 12q13 0 22 -7.5t13.5 -16t12.5 -30.5z" />
    <glyph glyph-name="w" unicode="w" horiz-adv-x="750" 
d="M375 401l-95 -341q-5 -19 -8.5 -28.5t-10.5 -21.5t-17 -17t-25 -5q-19 0 -30.5 9.5t-16 20t-14.5 39.5l-133 393q-10 34 -10 42q0 14 11.5 26t28.5 12q14 0 23.5 -7.5t13.5 -17t11 -30.5l115 -373l101 362q7 24 11.5 35.5t15.5 21t29 9.5q25 0 35.5 -15t20.5 -51
l101 -362l115 373q7 22 11 31t13 16.5t24 7.5q16 0 28 -11.5t12 -26.5q0 -12 -10 -42l-133 -393q-10 -29 -14.5 -39.5t-16 -20t-30.5 -9.5q-15 0 -25 5t-17 17t-10.5 21.5t-8.5 28.5z" />
    <glyph glyph-name="x" unicode="x" horiz-adv-x="510" 
d="M255 211l-136 -188q-25 -35 -49 -35q-18 0 -29.5 11.5t-11.5 25.5q0 15 18 39l155 207l-137 178q-21 28 -21 44q0 13 10.5 25t30.5 12q11 0 20 -5.5t13 -10t16 -21.5l121 -160l119 160q27 37 51 37q17 0 29 -11t12 -24q0 -17 -23 -46l-135 -174l151 -206q22 -29 22 -44
t-12.5 -26t-27.5 -11q-25 0 -52 37z" />
    <glyph glyph-name="y" unicode="y" horiz-adv-x="510" 
d="M210 0l-177 449q-11 26 -11 41t12.5 27.5t30.5 12.5q20 0 29 -12t19 -39l142 -387l147 382q14 36 22 46t26 10t28.5 -12t10.5 -24t-12 -43l-208 -533q-28 -71 -60 -99.5t-92 -28.5q-84 0 -84 45q0 13 9 24t25 11q4 0 22.5 -1.5t21.5 -1.5q28 0 43.5 16.5t28.5 47.5z" />
    <glyph glyph-name="z" unicode="z" horiz-adv-x="510" 
d="M132 68h307q41 0 51 -9q8 -8 8 -23q0 -17 -10.5 -25.5t-20.5 -9.5t-28 -1h-357h-8.5h-11t-11.5 0.5t-12 2t-10 4.5t-9 7t-5.5 10t-2.5 14q0 20 25 48l257 287q46 51 59 77h-239q-23 0 -34.5 0.5t-25.5 3.5t-19.5 10.5t-5.5 19.5q0 16 10 24t19.5 9t27.5 1h303
q20 0 30 -0.5t24 -4t20 -12.5t6 -23q0 -11 -6 -20t-27 -34z" />
    <glyph glyph-name="braceleft" unicode="{" 
d="M109 259q66 -27 84 -79.5t18 -169.5v-43q0 -61 15 -80t56 -20q29 -2 29 -35q0 -25 -9 -33.5t-34 -8.5q-28 0 -50.5 7.5t-37 17.5t-24.5 28.5t-15 32.5t-8 38t-3.5 36t-0.5 35q-1 52 -1.5 73t-3 53t-6.5 43.5t-12.5 27t-21 22t-31.5 11.5q-17 4 -21 13.5t-4 30.5
q0 14 1 20.5t6.5 13.5t17.5 10q16 5 27.5 12t20 14t13.5 23t8 28t4.5 39t2 46.5t0.5 59.5q0 31 1.5 49t5.5 46t13.5 44t24.5 32.5t40.5 24t59.5 7.5q37 0 37 -34q0 -26 -9 -34.5t-32 -8.5q-20 0 -32.5 -8t-18 -24t-7 -31t-1.5 -37v-56t-1 -46.5t-2.5 -42.5t-5 -33.5
t-8.5 -31t-12.5 -24t-18 -23t-24 -18t-30.5 -17.5z" />
    <glyph glyph-name="bar" unicode="|" horiz-adv-x="260" 
d="M92 -161v840q0 18 1 26t9 15.5t24 7.5q29 0 36 -10.5t7 -38.5v-840q0 -17 -1.5 -26t-9.5 -16t-24 -7q-29 0 -35.5 10t-6.5 39z" />
    <glyph glyph-name="braceright" unicode="}" 
d="M225 259q-66 27 -84 79.5t-18 168.5v44q0 60 -15 79t-56 21q-11 0 -20 8.5t-9 26.5q0 25 9 33.5t34 8.5q28 0 50.5 -7.5t37 -17.5t24.5 -28.5t15 -32.5t8 -38t3.5 -36t0.5 -35q1 -52 1.5 -73t3 -53t6.5 -43.5t12.5 -27t21 -22t31.5 -11.5q17 -4 21 -13.5t4 -30.5
q0 -14 -1 -20.5t-6.5 -13.5t-17.5 -10q-16 -5 -27.5 -12t-20 -14t-13.5 -23t-8 -28t-4.5 -39t-2 -46.5t-0.5 -59.5q0 -31 -1.5 -49t-5.5 -46t-13.5 -44t-24.5 -32.5t-40.5 -24t-59.5 -7.5q-37 0 -37 34q0 26 9 34.5t32 8.5q20 0 32.5 8t18 24t7 31t1.5 37v56t1 46.5
t2.5 42.5t5 33.5t8.5 31t12.5 24t18 23t24 18t30.5 17.5z" />
    <glyph glyph-name="asciitilde" unicode="~" horiz-adv-x="583" 
d="M42 272v100q51 59 136 59q51 0 133 -34q47 -20 65 -26t39 -6q28 0 59 16t44 28t23 23v-103q-60 -56 -135 -56q-51 0 -119 30q-77 35 -118 35q-27 0 -53 -11.5t-39.5 -23t-34.5 -31.5z" />
    <glyph glyph-name="uni00A0" unicode="&#xa0;" horiz-adv-x="282" 
 />
    <glyph glyph-name="exclamdown" unicode="&#xa1;" 
d="M200 258l15 -291q5 -108 -1 -136q-8 -41 -47 -41q-15 0 -29 9t-19 32q-6 31 -1 136l15 291q1 22 2.5 31.5t9 20t21.5 10.5t22 -10.5t9.5 -20t2.5 -31.5zM167 420q-23 0 -39 16t-16 39t16 39t39 16t39 -16t16 -39t-16 -39t-39 -16z" />
    <glyph glyph-name="cent" unicode="&#xa2;" horiz-adv-x="563" 
d="M368 442l-116 -383q16 -3 39 -3q82 0 131 76q4 6 11.5 19.5t12 20.5t12.5 13.5t18 6.5q17 0 28.5 -12t11.5 -26q0 -46 -58 -104q-62 -62 -174 -62q-30 0 -52 5l-41 -133q-12 -37 -21 -43q-5 -3 -11 -3q-11 0 -17 7.5t-6 17.5q0 12 8 38l39 129q-141 61 -141 251
q0 110 49 179q19 26 38.5 44t63 34t100.5 16q26 0 48 -4l43 139q14 44 33 44q9 0 16 -6.5t7 -14.5q0 -4 -8 -36l-42 -138q60 -27 88 -68t28 -64q0 -14 -11.5 -25.5t-27.5 -11.5q-22 0 -42 35q-24 42 -57 62zM206 79l114 380q-10 3 -28 3q-66 0 -114.5 -48.5t-48.5 -154.5
q0 -129 77 -180z" />
    <glyph glyph-name="sterling" unicode="&#xa3;" horiz-adv-x="563" 
d="M194 390h117q18 0 27.5 -1t20 -9t10.5 -23t-10 -23t-19.5 -9t-26.5 -1h-104q4 -25 4 -65q0 -87 -48 -170q42 7 78 7q39 0 118 -18q35 -8 60 -8q17 0 67 18q18 6 26 6q16 0 26.5 -11.5t10.5 -27.5q0 -31 -43 -49t-93 -18q-44 0 -118 22q-75 22 -112 22q-35 0 -74 -18
q-44 -20 -56 -20q-13 0 -26.5 12t-13.5 32q0 11 5.5 19t31.5 32q78 78 78 163q0 34 -10 72h-55q-17 0 -26 1t-18.5 9t-9.5 23q0 33 50 33h41q-27 93 -27 132q0 88 60.5 147t160.5 59q102 0 160 -57.5t58 -116.5q0 -18 -13 -30t-30 -12q-33 0 -44 41q-34 107 -129 107
q-59 0 -96 -37.5t-37 -95.5q0 -42 29 -137z" />
    <glyph glyph-name="currency" unicode="&#xa4;" horiz-adv-x="552" 
d="M103 468l-32 34q-22 28 -23 35q0 15 30 40q4 4 16 4q10 0 33 -22l34 -32q22 12 32.5 17t33.5 11t49 6t49 -6t33.5 -11t32.5 -17l34 32q23 22 35 22q13 0 28.5 -16.5t15.5 -29.5q0 -8 -23 -33l-32 -34q34 -58 34 -114q0 -55 -34 -113l32 -34q22 -28 23 -35q0 -15 -30 -40
q-7 -5 -16 -5t-33 23l-34 32q-22 -12 -32.5 -17t-33.5 -11t-49 -6q-56 0 -115 34l-34 -32q-24 -23 -35 -23q-13 0 -28.5 16.5t-15.5 29.5q0 9 23 34l32 34q-34 58 -34 113q0 56 34 114zM149 354q0 -52 37 -89t89 -37q53 0 90.5 37t37.5 89t-37.5 89.5t-90.5 37.5
q-52 0 -89 -37t-37 -90z" />
    <glyph glyph-name="yen" unicode="&#xa5;" horiz-adv-x="552" 
d="M233 159h-153q-17 0 -25 1t-16 8.5t-8 22.5q0 24 12 31t37 7h153v70h-153h-6q-16 0 -23 1t-13.5 8t-6.5 22q0 19 6.5 27.5t14.5 10t28 1.5h117l-164 286q-15 26 -15 40t10.5 23.5t30.5 9.5q21 0 31.5 -9.5t24.5 -34.5l123 -220q24 -42 37 -75q5 12 41 79l115 215
q9 17 14 24t17 14t29 7q16 0 29.5 -7.5t13.5 -23.5q0 -13 -16 -42l-163 -286h118q17 0 25.5 -1t16 -9t7.5 -24q0 -25 -9 -30.5t-34 -5.5h-6h-153v-70h153q24 0 36.5 -6.5t12.5 -28.5q0 -24 -11 -29.5t-38 -5.5h-153v-98q0 -49 -10 -59q-14 -14 -33 -14t-32 13q-12 12 -12 60
v98z" />
    <glyph glyph-name="brokenbar" unicode="&#xa6;" horiz-adv-x="260" 
d="M169 679v-288q0 -17 -1.5 -26t-9.5 -16t-24 -7q-29 0 -35.5 10t-6.5 39v288q0 18 1 26t9 15.5t24 7.5q29 0 36 -10.5t7 -38.5zM169 126v-287q0 -17 -1.5 -26t-9.5 -16t-24 -7q-29 0 -35.5 10t-6.5 39v287q0 18 1 26.5t9 16t24 7.5q29 0 36 -10.5t7 -39.5z" />
    <glyph glyph-name="section" unicode="&#xa7;" horiz-adv-x="563" 
d="M408 84q15 -11 24.5 -19t24.5 -24.5t22.5 -39t7.5 -49.5q0 -73 -57.5 -118t-140.5 -45q-62 0 -108 21.5t-67 52t-30 54t-9 37.5q0 15 12 28t31 13q30 0 46 -43q11 -29 21 -45.5t36 -31.5t66 -15q61 0 88.5 29t27.5 58q0 33 -24 55.5t-94 67.5q-163 103 -188 126
q-55 52 -55 116q0 90 112 140q-68 49 -68 122q0 58 47 106t145 48q49 0 89 -16t62 -40.5t34 -48t12 -42.5q0 -16 -12.5 -27.5t-28.5 -11.5q-12 0 -21 6t-13 13.5t-10 19.5q-34 76 -113 76q-54 0 -79.5 -26.5t-25.5 -54.5q0 -32 22 -53t80 -56q132 -80 182 -116
q65 -46 65 -122q0 -95 -113 -145zM206 412q-17 -7 -27 -12t-27 -16.5t-25.5 -27.5t-8.5 -36q0 -37 37 -67.5t177 -115.5q20 3 32 6.5t31.5 11.5t30 23t10.5 35q0 37 -44 77q-29 25 -186 122z" />
    <glyph glyph-name="dieresis" unicode="&#xa8;" 
d="M131 640q0 -20 -13.5 -33.5t-33.5 -13.5t-33.5 13.5t-13.5 33.5t13.5 33.5t33.5 13.5t33.5 -13.5t13.5 -33.5zM296 640q0 -20 -14 -33.5t-33 -13.5t-33 13.5t-14 33.5t14 33.5t33 13.5t33 -13.5t14 -33.5z" />
    <glyph glyph-name="copyright" unicode="&#xa9;" horiz-adv-x="740" 
d="M488 300l60 -18q-16 -66 -65 -100t-112 -34q-86 0 -140 56.5t-54 154.5q0 96 52.5 151.5t144.5 55.5q60 0 105 -28.5t62 -86.5l-58 -14q-12 29 -31 46q-33 29 -80 29q-65 0 -96.5 -46t-31.5 -109q0 -74 34.5 -112.5t88.5 -38.5q13 0 27.5 3t34 12t36 29.5t23.5 49.5z
M370 728q153 0 261 -107.5t108 -260.5q0 -152 -108 -260.5t-261 -108.5t-261 108t-108 261t108.5 260.5t260.5 107.5zM370 666q-127 0 -217 -89t-90 -217t89.5 -217.5t217.5 -89.5t217.5 89.5t89.5 217.5t-90 217t-217 89z" />
    <glyph glyph-name="ordfeminine" unicode="&#xaa;" horiz-adv-x="365" 
d="M323 594v-97q0 -23 8 -47q7 -21 7 -29q0 -11 -10 -19t-23 -8q-27 0 -40 47q-57 -46 -128 -46q-55 0 -84.5 27.5t-29.5 66.5q0 24 10.5 41.5t23.5 27.5t38.5 18t41.5 11t47 7q46 6 73 18q-1 17 -2.5 25.5t-8 19.5t-21 15.5t-37.5 4.5q-67 0 -85 -33q-1 -2 -2 -5
q-13 -24 -25 -28l-10 -1q-13 0 -21.5 8t-8.5 19t6 24.5t20.5 29.5t46 26.5t74.5 10.5q48 0 77.5 -9.5t42.5 -31t16.5 -41t3.5 -52.5zM257 559q-33 -10 -73 -16q-52 -8 -72 -18t-20 -33q0 -17 15 -30.5t43 -13.5q50 0 82 27q25 21 25 84z" />
    <glyph glyph-name="guillemotleft" unicode="&#xab;" horiz-adv-x="563" 
d="M367 253l100 -165q12 -22 12 -31q0 -12 -9.5 -21t-21.5 -9q-20 0 -41 33l-99 156q-18 29 -18 36q0 10 18 38l100 158q20 31 38 31q14 0 23.5 -9t9.5 -22q0 -8 -14 -32zM153 253l100 -165q12 -22 12 -31q0 -12 -9.5 -21t-21.5 -9q-20 0 -41 33l-99 156q-18 29 -18 36
q0 10 18 38l100 158q20 31 38 31q14 0 23.5 -9t9.5 -22q0 -8 -14 -32z" />
    <glyph glyph-name="logicalnot" unicode="&#xac;" horiz-adv-x="583" 
d="M447 207v214h-392v82h474v-296h-82z" />
    <glyph glyph-name="uni00AD" unicode="&#xad;" 
d="M90 291h153q16 0 24.5 -1t20.5 -4t18 -12t6 -24q0 -12 -4.5 -20t-10.5 -12t-17 -6t-17.5 -2.5t-19.5 -0.5h-153q-16 0 -24.5 1t-20.5 4t-18 12t-6 24q0 12 4.5 20t10.5 12t17 6t17.5 2.5t19.5 0.5z" />
    <glyph glyph-name="registered" unicode="&#xae;" horiz-adv-x="740" 
d="M208 156v396h137q98 0 131 -28q38 -31 38 -79q0 -39 -28.5 -73.5t-84.5 -38.5q21 -8 40 -27t52 -73l48 -77h-78l-35 62q-37 66 -58.5 86t-59.5 20h-38v-168h-64zM272 498v-119h78q96 0 96 60q0 17 -7.5 29t-16.5 17.5t-25 8.5t-25.5 3.5t-26.5 0.5h-73zM370 728
q153 0 261 -107.5t108 -260.5q0 -152 -108 -260.5t-261 -108.5t-261 108t-108 261t108.5 260.5t260.5 107.5zM370 666q-127 0 -217 -89t-90 -217t89.5 -217.5t217.5 -89.5t217.5 89.5t89.5 217.5t-90 217t-217 89z" />
    <glyph glyph-name="macron" unicode="&#xaf;" 
d="M63 672h207q17 0 25.5 -1t16 -9t7.5 -24q0 -19 -6.5 -27.5t-14.5 -10t-28 -1.5h-207q-17 0 -25.5 1t-16 9t-7.5 24q0 19 6.5 27.5t14.5 10t28 1.5z" />
    <glyph glyph-name="degree" unicode="&#xb0;" horiz-adv-x="396" 
d="M63 593q0 56 39.5 95.5t95.5 39.5t95.5 -39.5t39.5 -95.5q0 -57 -39.5 -96.5t-95.5 -39.5t-95.5 39.5t-39.5 96.5zM116 593q0 -34 24 -58.5t58 -24.5t58 24.5t24 58.5t-24 58t-58 24t-58 -24t-24 -58z" />
    <glyph glyph-name="plusminus" unicode="&#xb1;" horiz-adv-x="583" 
d="M529 0h-474v82h474v-82zM251 127v196h-196v82h196v196h82v-196h196v-82h-196v-196h-82z" />
    <glyph glyph-name="two.superior" unicode="&#xb2;" 
d="M134 405h133q49 0 49 -27q0 -26 -37 -26h-216q-41 0 -41 28q0 41 90 103q97 66 115 83t18 45q0 26 -22.5 42.5t-53.5 16.5q-57 0 -75 -40q-11 -26 -17.5 -33t-19.5 -7q-28 0 -28 26q0 38 39 69.5t100 31.5q68 0 104.5 -30t36.5 -75q0 -41 -29 -70q-15 -15 -92 -71.5
t-83 -64.5q11 -1 29 -1z" />
    <glyph glyph-name="three.superior" unicode="&#xb3;" 
d="M245 550q68 -23 68 -87q0 -50 -39 -83.5t-104 -33.5q-72 0 -109 33t-37 68q0 10 9 17t20 7q19 0 30 -24q23 -54 81 -54q35 0 59 20.5t24 48.5q0 27 -19.5 44t-52.5 17l-38 -2q-26 -2 -26 23t35 25q40 0 61.5 15t21.5 37q0 21 -18.5 36t-46.5 15q-15 0 -26 -2.5
t-25.5 -15.5t-26.5 -37q-8 -14 -25 -14q-27 0 -27 25q0 31 37 60t93 29q58 0 93.5 -27t35.5 -69q0 -45 -48 -71z" />
    <glyph glyph-name="acute" unicode="&#xb4;" 
d="M121 623l25 49q17 34 27 40t45 6h24q30 0 30 -8q0 -7 -24 -33q-58 -61 -78.5 -79.5t-36.5 -18.5q-10 0 -16 6t-6 12q0 7 10 26z" />
    <glyph glyph-name="mu" unicode="&#xb5;" horiz-adv-x="552" 
d="M150 60v-219q0 -51 -42 -51q-16 0 -30 12q-12 12 -12 78v578q0 40 7 53q12 19 37 19q17 0 31 -12q12 -12 12 -60v-193q0 -73 8.5 -106t28.5 -55q33 -36 83 -36q69 0 104 58q10 17 15 45t5.5 52t0.5 75v160q0 47 13 59q13 13 31 13q26 0 36 -19q7 -11 7 -52v-402
q0 -16 -1 -24.5t-4.5 -21t-12.5 -18t-24 -5.5t-24 6t-12.5 19t-4.5 22t-1 26q-8 -15 -14.5 -24t-21 -22t-37 -20t-51.5 -7q-28 0 -49.5 6t-36.5 18.5t-23 22t-18 25.5z" />
    <glyph glyph-name="paragraph" unicode="&#xb6;" horiz-adv-x="542" 
d="M198 -199v510q-96 6 -146.5 62.5t-50.5 136.5q0 60 27.5 110t80.5 73t123 23h309v-84h-70v-831h-84v831h-105v-831h-84z" />
    <glyph glyph-name="periodcentered" unicode="&#xb7;" horiz-adv-x="240" 
d="M175 352q0 -23 -16 -39t-39 -16t-39 16t-16 39t16 39t39 16q22 0 38.5 -16.5t16.5 -38.5z" />
    <glyph glyph-name="cedilla" unicode="&#xb8;" 
d="M96 -43q0 10 3.5 21.5t15.5 23.5t31 12q14 0 19.5 -7t6.5 -15.5t1 -32.5q77 -9 77 -68q0 -35 -35.5 -59t-110.5 -24q-62 0 -62 26q0 21 35 21q20 0 32 1t30.5 4t28 11.5t9.5 22.5q0 16 -14.5 25.5t-30.5 9.5q-19 0 -27.5 6t-8.5 22z" />
    <glyph glyph-name="one.superior" unicode="&#xb9;" 
d="M227 677v-291q0 -40 -31 -40q-33 0 -33 45v234q-62 -45 -94 -45q-24 0 -24 24q0 16 29 27q60 22 97 67q13 18 27 18q29 0 29 -39z" />
    <glyph glyph-name="ordmasculine" unicode="&#xba;" horiz-adv-x="365" 
d="M344 561q0 -83 -46 -124.5t-116 -41.5q-77 0 -119.5 45.5t-42.5 115.5q0 80 43 126t119 46q70 0 116 -41.5t46 -125.5zM276 561q0 52 -24.5 82.5t-68.5 30.5q-45 0 -70 -30.5t-25 -82.5t25 -82t70 -30q44 0 68.5 30t24.5 82z" />
    <glyph glyph-name="guillemotright" unicode="&#xbb;" horiz-adv-x="563" 
d="M196 253l-98 163q-14 24 -14 32q0 13 9.5 22t23.5 9q18 0 38 -31l100 -158q18 -28 18 -38q0 -7 -18 -36l-99 -156q-21 -33 -41 -33q-12 0 -21.5 9t-9.5 21q0 9 12 31zM410 253l-98 163q-14 24 -14 32q0 13 9.5 22t23.5 9q18 0 38 -31l100 -158q18 -28 18 -38
q0 -7 -18 -36l-99 -156q-21 -33 -41 -33q-12 0 -21.5 9t-9.5 21q0 9 12 31z" />
    <glyph glyph-name="onequarter" unicode="&#xbc;" horiz-adv-x="833" 
d="M700 83h-147q-12 0 -18.5 0.5t-16.5 3t-14.5 9.5t-4.5 18q0 9 18 30l177 203q20 22 35 22q14 0 21.5 -7.5t8.5 -14.5t1 -19v-195h23q41 0 41 -26q0 -24 -39 -24h-25v-49q0 -40 -30 -40t-30 40v49zM572 133h128v147zM227 677v-291q0 -40 -31 -40q-33 0 -33 45v234
q-63 -45 -94 -45q-9 0 -16.5 6.5t-7.5 17.5q0 16 29 27q59 21 97 67q13 18 27 18q29 0 29 -39zM164 23l454 671q20 28 28 32q4 1 9 1q11 0 18.5 -8t7.5 -18q0 -11 -19 -37l-452 -668q-15 -22 -30 -22q-11 0 -19 8t-8 15q0 12 11 26z" />
    <glyph glyph-name="onehalf" unicode="&#xbd;" horiz-adv-x="833" 
d="M634 53h133q49 0 49 -27q0 -26 -37 -26h-216q-41 0 -41 28q0 42 103 112q77 52 98.5 72.5t21.5 46.5q0 27 -23 43t-53 16q-57 0 -75 -40q-11 -26 -17 -33t-20 -7q-28 0 -28 26q0 35 36.5 68t102.5 33q44 0 74.5 -12t43.5 -31t18 -33.5t5 -28.5q0 -22 -8 -40t-28 -37
t-36 -30.5t-50 -34.5q-66 -45 -82 -64q17 -1 29 -1zM227 677v-291q0 -40 -31 -40q-33 0 -33 45v234q-63 -45 -94 -45q-9 0 -16.5 6.5t-7.5 17.5q0 16 29 27q59 21 97 67q13 18 27 18q29 0 29 -39zM164 23l454 671q20 28 28 32q4 1 9 1q11 0 18.5 -8t7.5 -18q0 -11 -19 -37
l-452 -668q-15 -22 -30 -22q-11 0 -19 8t-8 15q0 12 11 26z" />
    <glyph glyph-name="threequarters" unicode="&#xbe;" horiz-adv-x="833" 
d="M700 83h-147q-12 0 -18.5 0.5t-16.5 3t-14.5 9.5t-4.5 18q0 9 18 30l177 203q20 22 35 22q14 0 21.5 -7.5t8.5 -14.5t1 -19v-195h23q41 0 41 -26q0 -24 -39 -24h-25v-49q0 -40 -30 -40t-30 40v49zM572 133h128v147zM245 550q68 -22 68 -87q0 -47 -37 -82t-106 -35
q-90 0 -129 56q-17 24 -17 45q0 10 8.5 17t20.5 7q13 0 18.5 -5.5t11.5 -18.5q21 -54 81 -54q37 0 60 21t23 48q0 25 -19.5 43t-52.5 18q-3 0 -19 -1t-19 -1q-10 0 -18 6t-8 17q0 25 35 25q23 0 40 5t25 11.5t12.5 15.5t5 13t0.5 7q0 20 -17.5 35.5t-47.5 15.5
q-23 0 -39.5 -9.5t-23 -19t-15.5 -26.5q-7 -14 -25 -14q-14 0 -20.5 8.5t-6.5 16.5q0 28 34 58.5t96 30.5q60 0 94.5 -28t34.5 -68q0 -44 -48 -71zM175 23l455 671q9 13 13.5 19t10.5 10t13 4q11 0 18.5 -8t7.5 -18q0 -11 -19 -37l-453 -668q-14 -22 -29 -22q-12 0 -20 8
t-8 15q0 9 11 26z" />
    <glyph glyph-name="questiondown" unicode="&#xbf;" horiz-adv-x="531" 
d="M483 -25q0 -17 -12 -45t-36 -61t-71.5 -56t-108.5 -23q-102 0 -157 57.5t-55 133.5q0 48 23 86.5t76 89.5q60 57 72.5 78.5t18.5 72.5q4 40 41 40q42 0 42 -52q0 -59 -21.5 -96.5t-73.5 -84.5q-35 -32 -49.5 -47t-26 -37.5t-11.5 -48.5q0 -48 36 -83t91 -35q99 0 131 114
q5 13 8 19.5t13 15t25 8.5q17 0 31 -12t14 -34zM265 420q-23 0 -39 16t-16 39t16 39t39 16t39 -16t16 -39t-16 -39t-39 -16z" />
    <glyph glyph-name="Agrave" unicode="&#xc0;" horiz-adv-x="688" 
d="M501 207h-319l-62 -160q-8 -19 -11 -26t-9.5 -17t-14.5 -13t-20 -3q-19 0 -32.5 13t-13.5 29q0 14 14 50l227 563q19 49 33 67t46 18q31 0 48 -20q11 -12 32 -64l235 -560q15 -37 15 -52q0 -16 -14 -30t-34 -14q-16 0 -26.5 8.5t-15 17.5t-14.5 35zM209 284h263l-134 335
zM407 810q10 -19 10 -26q0 -6 -6 -12t-16 -6q-16 0 -38.5 19.5t-76.5 78.5q-24 26 -24 33q0 8 30 8h24q35 0 45 -6t27 -40z" />
    <glyph glyph-name="Aacute" unicode="&#xc1;" horiz-adv-x="688" 
d="M501 207h-319l-62 -160q-8 -19 -11 -26t-9.5 -17t-14.5 -13t-20 -3q-19 0 -32.5 13t-13.5 29q0 14 14 50l227 563q19 49 33 67t46 18q31 0 48 -20q11 -12 32 -64l235 -560q15 -37 15 -52q0 -16 -14 -30t-34 -14q-16 0 -26.5 8.5t-15 17.5t-14.5 35zM209 284h263l-134 335
zM299 810l25 49q17 34 27 40t45 6h24q30 0 30 -8q0 -7 -24 -33q-58 -61 -78.5 -79.5t-36.5 -18.5q-10 0 -16 6t-6 12q0 7 10 26z" />
    <glyph glyph-name="Acircumflex" unicode="&#xc2;" horiz-adv-x="688" 
d="M501 207h-319l-62 -160q-8 -19 -11 -26t-9.5 -17t-14.5 -13t-20 -3q-19 0 -32.5 13t-13.5 29q0 14 14 50l227 563q19 49 33 67t46 18q31 0 48 -20q11 -12 32 -64l235 -560q15 -37 15 -52q0 -16 -14 -30t-34 -14q-16 0 -26.5 8.5t-15 17.5t-14.5 35zM209 284h263l-134 335
zM345 864l-45 -58q-17 -22 -24.5 -27.5t-25.5 -5.5q-38 0 -42 2t-4 6q0 6 17 26l40 51q29 38 42 46.5t44 8.5q27 0 40 -9.5t41 -45.5l42 -53q15 -18 15 -24q0 -8 -16 -8q-36 0 -43 2q-8 1 -13 5.5t-22 25.5z" />
    <glyph glyph-name="Atilde" unicode="&#xc3;" horiz-adv-x="688" 
d="M501 207h-319l-62 -160q-8 -19 -11 -26t-9.5 -17t-14.5 -13t-20 -3q-19 0 -32.5 13t-13.5 29q0 14 14 50l227 563q19 49 33 67t46 18q31 0 48 -20q11 -12 32 -64l235 -560q15 -37 15 -52q0 -16 -14 -30t-34 -14q-16 0 -26.5 8.5t-15 17.5t-14.5 35zM209 284h263l-134 335
zM223 782q-10 0 -18.5 8.5t-8.5 24.5q0 27 19 49.5t49 22.5q36 0 79 -20q55 -22 73 -22q21 0 30 22q9 23 22 23q9 0 17 -9t8 -23q0 -23 -17.5 -47.5t-54.5 -24.5q-20 0 -78 21q-50 21 -73 21q-8 0 -14 -4.5t-8.5 -9.5t-7.5 -16q-8 -16 -17 -16z" />
    <glyph glyph-name="Adieresis" unicode="&#xc4;" horiz-adv-x="688" 
d="M501 207h-319l-62 -160q-8 -19 -11 -26t-9.5 -17t-14.5 -13t-20 -3q-19 0 -32.5 13t-13.5 29q0 14 14 50l227 563q19 49 33 67t46 18q31 0 48 -20q11 -12 32 -64l235 -560q15 -37 15 -52q0 -16 -14 -30t-34 -14q-16 0 -26.5 8.5t-15 17.5t-14.5 35zM209 284h263l-134 335
zM309 827q0 -19 -13.5 -33t-33.5 -14t-33.5 14t-13.5 33t13.5 33t33.5 14t33.5 -14t13.5 -33zM474 827q0 -19 -14 -33t-33 -14t-33 14t-14 33t14 33t33 14t33 -14t14 -33z" />
    <glyph glyph-name="Aring" unicode="&#xc5;" horiz-adv-x="688" 
d="M501 207h-319l-62 -160q-8 -19 -11 -26t-9.5 -17t-14.5 -13t-20 -3q-19 0 -32.5 13t-13.5 29q0 14 14 50l227 563q19 49 33 67t46 18q31 0 48 -20q11 -12 32 -64l235 -560q15 -37 15 -52q0 -16 -14 -30t-34 -14q-16 0 -26.5 8.5t-15 17.5t-14.5 35zM209 284h263l-134 335
zM437 843q0 -38 -27 -65t-66 -27q-38 0 -65 27t-27 65q0 39 27.5 66t65.5 27t65 -27.5t27 -65.5zM397 843q0 22 -15.5 37.5t-37.5 15.5t-37 -15.5t-15 -37.5t15.5 -37t36.5 -15q22 0 37.5 15t15.5 37z" />
    <glyph glyph-name="AE" unicode="&#xc6;" horiz-adv-x="1000" 
d="M188 202l-69 -150q-19 -42 -28.5 -53t-31.5 -11q-25 0 -35.5 15t-10.5 27q0 13 17 50l274 579q20 43 31 50t58 7h485q15 0 23 -0.5t19.5 -4t17 -12t5.5 -22.5q0 -11 -4.5 -19t-9.5 -11.5t-16 -5.5t-16.5 -2h-18.5h-304v-230h279q15 0 23.5 -0.5t19.5 -4t16.5 -12
t5.5 -22.5q0 -11 -4.5 -19t-9.5 -11.5t-16 -5.5t-16.5 -2h-18.5h-279v-255h315q16 0 23.5 -0.5t19.5 -3.5t17.5 -11.5t5.5 -22.5t-5.5 -22.5t-17 -12t-19.5 -4t-24 -0.5h-330q-54 0 -67.5 13t-13.5 67v122h-290zM223 279h255v362h-89z" />
    <glyph glyph-name="Ccedilla" unicode="&#xc7;" horiz-adv-x="729" 
d="M394 -12l-7 -25q88 -16 88 -77q0 -26 -15.5 -44.5t-34 -27t-45.5 -13.5t-39.5 -5.5t-25.5 -0.5q-61 0 -61 27q0 13 13 17.5t45 6.5q28 1 38.5 1.5t22 4t18.5 10.5q11 11 11 25q0 15 -14.5 27t-27.5 12q-2 0 -9 -1.5t-8 -1.5q-9 0 -18.5 9t-9.5 21q0 8 6.5 14.5t28.5 22.5
q-126 15 -193 84q-49 49 -75.5 125.5t-26.5 158.5q0 166 93.5 268t240.5 102q73 0 131.5 -26.5t89 -63.5t46 -67.5t15.5 -47.5q0 -16 -10 -29t-29 -13q-10 0 -19 5t-17 15.5t-12 17.5l-12 21q-27 52 -77 83q-45 28 -102 28q-41 0 -80 -14t-76.5 -45.5t-60.5 -92.5t-23 -145
q0 -83 22.5 -143.5t59 -90t73.5 -42.5t77 -13q153 0 208 157q5 13 8.5 20t12.5 14t22 7q16 0 28.5 -11t12.5 -28q0 -20 -9 -48t-31 -61.5t-53.5 -61t-81 -46.5t-108.5 -19z" />
    <glyph glyph-name="Egrave" unicode="&#xc8;" horiz-adv-x="635" 
d="M183 639v-230h306q20 0 30.5 -1t22 -10t11.5 -27q0 -14 -5 -22.5t-16.5 -12t-19.5 -4t-23 -0.5h-306v-255h347q16 0 23.5 -0.5t19.5 -3.5t17.5 -11.5t5.5 -22.5q0 -19 -12 -28t-22.5 -10t-31.5 -1h-363q-34 0 -44.5 2t-21.5 12q-10 9 -12 21t-2 45v556v7q0 41 9 54l4 4
q9 10 21.5 12.5t45.5 2.5h349q16 0 23.5 -0.5t19.5 -3.5t17.5 -11.5t5.5 -22.5q0 -19 -12 -28t-22.5 -10t-31.5 -1h-333zM365 810q10 -19 10 -26q0 -6 -6 -12t-16 -6q-16 0 -38.5 19.5t-76.5 78.5q-24 26 -24 33q0 8 30 8h24q35 0 45 -6t27 -40z" />
    <glyph glyph-name="Eacute" unicode="&#xc9;" horiz-adv-x="635" 
d="M183 639v-230h306q20 0 30.5 -1t22 -10t11.5 -27q0 -14 -5 -22.5t-16.5 -12t-19.5 -4t-23 -0.5h-306v-255h347q16 0 23.5 -0.5t19.5 -3.5t17.5 -11.5t5.5 -22.5q0 -19 -12 -28t-22.5 -10t-31.5 -1h-363q-34 0 -44.5 2t-21.5 12q-10 9 -12 21t-2 45v556v7q0 41 9 54l4 4
q9 10 21.5 12.5t45.5 2.5h349q16 0 23.5 -0.5t19.5 -3.5t17.5 -11.5t5.5 -22.5q0 -19 -12 -28t-22.5 -10t-31.5 -1h-333zM272 810l25 49q17 34 27 40t45 6h24q30 0 30 -8q0 -7 -24 -33q-58 -61 -78.5 -79.5t-36.5 -18.5q-10 0 -16 6t-6 12q0 7 10 26z" />
    <glyph glyph-name="Ecircumflex" unicode="&#xca;" horiz-adv-x="635" 
d="M183 639v-230h306q20 0 30.5 -1t22 -10t11.5 -27q0 -14 -5 -22.5t-16.5 -12t-19.5 -4t-23 -0.5h-306v-255h347q16 0 23.5 -0.5t19.5 -3.5t17.5 -11.5t5.5 -22.5q0 -19 -12 -28t-22.5 -10t-31.5 -1h-363q-34 0 -44.5 2t-21.5 12q-10 9 -12 21t-2 45v556v7q0 41 9 54l4 4
q9 10 21.5 12.5t45.5 2.5h349q16 0 23.5 -0.5t19.5 -3.5t17.5 -11.5t5.5 -22.5q0 -19 -12 -28t-22.5 -10t-31.5 -1h-333zM318 864l-45 -58q-17 -22 -24.5 -27.5t-25.5 -5.5q-38 0 -42 2t-4 6q0 6 17 26l40 51q29 38 42 46.5t44 8.5q27 0 40 -9.5t41 -45.5l42 -53
q15 -18 15 -24q0 -8 -16 -8q-36 0 -43 2q-8 1 -13 5.5t-22 25.5z" />
    <glyph glyph-name="Edieresis" unicode="&#xcb;" horiz-adv-x="635" 
d="M183 639v-230h306q20 0 30.5 -1t22 -10t11.5 -27q0 -14 -5 -22.5t-16.5 -12t-19.5 -4t-23 -0.5h-306v-255h347q16 0 23.5 -0.5t19.5 -3.5t17.5 -11.5t5.5 -22.5q0 -19 -12 -28t-22.5 -10t-31.5 -1h-363q-34 0 -44.5 2t-21.5 12q-10 9 -12 21t-2 45v556v7q0 41 9 54l4 4
q9 10 21.5 12.5t45.5 2.5h349q16 0 23.5 -0.5t19.5 -3.5t17.5 -11.5t5.5 -22.5q0 -19 -12 -28t-22.5 -10t-31.5 -1h-333zM282 827q0 -19 -14 -33t-33 -14t-33 14t-14 33t14 33t33 14t33 -14t14 -33zM447 827q0 -19 -13.5 -33t-33.5 -14t-33.5 14t-13.5 33t13.5 33t33.5 14
t33.5 -14t13.5 -33z" />
    <glyph glyph-name="Igrave" unicode="&#xcc;" horiz-adv-x="292" 
d="M194 649v-582q0 -52 -13 -64q-15 -15 -35 -15q-21 0 -35 14q-13 13 -13 65v582q0 52 13 64q15 15 35 15q22 0 35 -15q13 -12 13 -64zM209 810q10 -19 10 -26q0 -6 -6 -12t-16 -6q-16 0 -38.5 19.5t-76.5 78.5q-24 26 -24 33q0 8 30 8h24q35 0 45 -6t27 -40z" />
    <glyph glyph-name="Iacute" unicode="&#xcd;" horiz-adv-x="292" 
d="M194 649v-582q0 -52 -13 -64q-15 -15 -35 -15q-21 0 -35 14q-13 13 -13 65v582q0 52 13 64q15 15 35 15q22 0 35 -15q13 -12 13 -64zM101 810l25 49q17 34 27 40t45 6h24q30 0 30 -8q0 -7 -24 -33q-58 -61 -78.5 -79.5t-36.5 -18.5q-10 0 -16 6t-6 12q0 7 10 26z" />
    <glyph glyph-name="Icircumflex" unicode="&#xce;" horiz-adv-x="292" 
d="M194 649v-582q0 -52 -13 -64q-15 -15 -35 -15q-21 0 -35 14q-13 13 -13 65v582q0 52 13 64q15 15 35 15q22 0 35 -15q13 -12 13 -64zM147 864l-45 -58q-17 -22 -24.5 -27.5t-25.5 -5.5q-38 0 -42 2t-4 6q0 6 17 26l40 51q29 38 42 46.5t44 8.5q27 0 40 -9.5t41 -45.5
l42 -53q15 -18 15 -24q0 -8 -16 -8q-36 0 -43 2q-8 1 -13 5.5t-22 25.5z" />
    <glyph glyph-name="Idieresis" unicode="&#xcf;" horiz-adv-x="292" 
d="M194 649v-582q0 -52 -13 -64q-15 -15 -35 -15q-21 0 -35 14q-13 13 -13 65v582q0 52 13 64q15 15 35 15q22 0 35 -15q13 -12 13 -64zM111 827q0 -19 -13.5 -33t-33.5 -14t-33.5 14t-13.5 33t13.5 33t33.5 14t33.5 -14t13.5 -33zM276 827q0 -19 -14 -33t-33 -14t-33 14
t-14 33t14 33t33 14t33 -14t14 -33z" />
    <glyph glyph-name="Eth" unicode="&#xd0;" horiz-adv-x="729" 
d="M85 326h-31q-17 0 -25 1t-16 8.5t-8 22.5t8 22.5t16 8.5t25 1h31v246q0 54 13.5 67t67.5 13h174q38 0 63.5 -2t62.5 -10.5t69.5 -29.5t60.5 -54q79 -95 79 -261q0 -43 -6.5 -85.5t-24.5 -95.5t-59 -95.5t-100 -63.5q-41 -14 -85 -16.5t-246 -2.5q-48 0 -58.5 17t-10.5 75
v234zM330 326h-149v-249h148q71 0 113 14.5t77 56.5q58 69 58 206t-58 212q-32 41 -74.5 57t-121.5 16h-142v-249h149q17 0 25 -1t16 -8.5t8 -22.5t-8 -22.5t-16 -8.5t-25 -1z" />
    <glyph glyph-name="Ntilde" unicode="&#xd1;" horiz-adv-x="729" 
d="M559 142l-3 509q-1 40 6 54q10 23 39 23q20 0 34 -14q13 -12 13 -63v-566q0 -41 -3 -56t-17 -27q-17 -14 -39 -14t-34 11t-36 47l-349 521l4 -502q0 -41 -6 -54q-4 -9 -15.5 -16t-24.5 -7q-20 0 -34 14q-13 12 -13 63v570q0 40 3 53.5t16 25.5q14 14 38 14q20 0 31.5 -11
t34.5 -45zM243 782q-10 0 -18.5 8.5t-8.5 24.5q0 27 19 49.5t49 22.5q36 0 79 -20q55 -22 73 -22q21 0 30 22q9 23 22 23q9 0 17 -9t8 -23q0 -23 -17.5 -47.5t-54.5 -24.5q-20 0 -78 21q-50 21 -73 21q-8 0 -14 -4.5t-8.5 -9.5t-7.5 -16q-8 -16 -17 -16z" />
    <glyph glyph-name="Ograve" unicode="&#xd2;" horiz-adv-x="781" 
d="M730 358q0 -70 -19 -133.5t-57 -118t-105 -86.5t-155 -32q-80 0 -142.5 25t-99 63.5t-60.5 89.5t-32.5 97.5t-8.5 94.5q0 50 9.5 98.5t34 98.5t61.5 87.5t98 61.5t138 24q74 0 133 -23t96.5 -59.5t62.5 -86t35.5 -99.5t10.5 -102zM632 358q0 84 -25.5 145.5t-65.5 91.5
t-77.5 43t-73.5 13q-95 0 -167 -72q-74 -72 -74 -233q0 -127 69.5 -204t171.5 -77q36 0 73.5 13t77.5 43t65.5 91.5t25.5 145.5zM438 810q10 -19 10 -26q0 -6 -6 -12t-16 -6q-16 0 -38.5 19.5t-76.5 78.5q-24 26 -24 33q0 8 30 8h24q35 0 45 -6t27 -40z" />
    <glyph glyph-name="Oacute" unicode="&#xd3;" horiz-adv-x="781" 
d="M730 358q0 -70 -19 -133.5t-57 -118t-105 -86.5t-155 -32q-80 0 -142.5 25t-99 63.5t-60.5 89.5t-32.5 97.5t-8.5 94.5q0 50 9.5 98.5t34 98.5t61.5 87.5t98 61.5t138 24q74 0 133 -23t96.5 -59.5t62.5 -86t35.5 -99.5t10.5 -102zM632 358q0 84 -25.5 145.5t-65.5 91.5
t-77.5 43t-73.5 13q-95 0 -167 -72q-74 -72 -74 -233q0 -127 69.5 -204t171.5 -77q36 0 73.5 13t77.5 43t65.5 91.5t25.5 145.5zM345 810l25 49q17 34 27 40t45 6h24q30 0 30 -8q0 -7 -24 -33q-58 -61 -78.5 -79.5t-36.5 -18.5q-10 0 -16 6t-6 12q0 7 10 26z" />
    <glyph glyph-name="Ocircumflex" unicode="&#xd4;" horiz-adv-x="781" 
d="M730 358q0 -70 -19 -133.5t-57 -118t-105 -86.5t-155 -32q-80 0 -142.5 25t-99 63.5t-60.5 89.5t-32.5 97.5t-8.5 94.5q0 50 9.5 98.5t34 98.5t61.5 87.5t98 61.5t138 24q74 0 133 -23t96.5 -59.5t62.5 -86t35.5 -99.5t10.5 -102zM632 358q0 84 -25.5 145.5t-65.5 91.5
t-77.5 43t-73.5 13q-95 0 -167 -72q-74 -72 -74 -233q0 -127 69.5 -204t171.5 -77q36 0 73.5 13t77.5 43t65.5 91.5t25.5 145.5zM391 864l-45 -58q-17 -22 -24.5 -27.5t-25.5 -5.5q-38 0 -42 2t-4 6q0 6 17 26l40 51q29 38 42 46.5t44 8.5q27 0 40 -9.5t41 -45.5l42 -53
q15 -18 15 -24q0 -8 -16 -8q-36 0 -43 2q-8 1 -13 5.5t-22 25.5z" />
    <glyph glyph-name="Otilde" unicode="&#xd5;" horiz-adv-x="781" 
d="M730 358q0 -70 -19 -133.5t-57 -118t-105 -86.5t-155 -32q-80 0 -142.5 25t-99 63.5t-60.5 89.5t-32.5 97.5t-8.5 94.5q0 50 9.5 98.5t34 98.5t61.5 87.5t98 61.5t138 24q74 0 133 -23t96.5 -59.5t62.5 -86t35.5 -99.5t10.5 -102zM632 358q0 84 -25.5 145.5t-65.5 91.5
t-77.5 43t-73.5 13q-95 0 -167 -72q-74 -72 -74 -233q0 -127 69.5 -204t171.5 -77q36 0 73.5 13t77.5 43t65.5 91.5t25.5 145.5zM269 782q-10 0 -18.5 8.5t-8.5 24.5q0 27 19 49.5t49 22.5q36 0 79 -20q55 -22 73 -22q21 0 30 22q9 23 22 23q9 0 17 -9t8 -23
q0 -23 -17.5 -47.5t-54.5 -24.5q-20 0 -78 21q-50 21 -73 21q-8 0 -14 -4.5t-8.5 -9.5t-7.5 -16q-8 -16 -17 -16z" />
    <glyph glyph-name="Odieresis" unicode="&#xd6;" horiz-adv-x="781" 
d="M730 358q0 -70 -19 -133.5t-57 -118t-105 -86.5t-155 -32q-80 0 -142.5 25t-99 63.5t-60.5 89.5t-32.5 97.5t-8.5 94.5q0 50 9.5 98.5t34 98.5t61.5 87.5t98 61.5t138 24q74 0 133 -23t96.5 -59.5t62.5 -86t35.5 -99.5t10.5 -102zM632 358q0 84 -25.5 145.5t-65.5 91.5
t-77.5 43t-73.5 13q-95 0 -167 -72q-74 -72 -74 -233q0 -127 69.5 -204t171.5 -77q36 0 73.5 13t77.5 43t65.5 91.5t25.5 145.5zM355 827q0 -19 -13.5 -33t-33.5 -14t-33.5 14t-13.5 33t13.5 33t33.5 14t33.5 -14t13.5 -33zM520 827q0 -19 -14 -33t-33 -14t-33 14t-14 33
t14 33t33 14t33 -14t14 -33z" />
    <glyph glyph-name="multiply" unicode="&#xd7;" horiz-adv-x="583" 
d="M79 200l154 153l-154 154l60 60l153 -154l153 153l59 -59l-153 -153l153 -153l-59 -60l-154 154l-154 -154z" />
    <glyph glyph-name="Oslash" unicode="&#xd8;" horiz-adv-x="781" 
d="M164 65l-47 -52q-14 -16 -20.5 -20.5t-17.5 -4.5q-14 0 -21 9.5t-7 17.5q0 17 14 31l59 65q-73 105 -73 247q0 50 9.5 98.5t34 99t61.5 87.5t98 61t138 24q141 0 224 -78l47 52l15 15t10.5 7.5t13.5 3.5q11 0 19.5 -8.5t8.5 -17.5q0 -14 -14 -33l-59 -64q29 -39 51 -104
t22 -141q0 -51 -9.5 -100t-34 -99t-61.5 -87.5t-97 -61.5t-135 -24q-145 0 -229 77zM592 533l-366 -400q69 -68 164 -68q27 0 56.5 7t63.5 27t60.5 51t44 85t17.5 123q0 105 -40 175zM189 182l365 400q-69 69 -165 69q-29 0 -58.5 -7.5t-63 -28t-59 -52.5t-42.5 -86
t-17 -123q0 -95 40 -172z" />
    <glyph glyph-name="Ugrave" unicode="&#xd9;" horiz-adv-x="729" 
d="M177 648v-380q0 -19 0.5 -31t4 -35.5t10 -39.5t20.5 -36t33.5 -32t50.5 -20.5t70 -8.5q48 0 84 13.5t55 33.5t30 49.5t14 53t3 52.5v381q0 52 13 65q15 15 35 15q22 0 35 -15q13 -13 13 -65v-372q0 -288 -275 -288q-148 0 -220 66.5t-72 220.5v373q0 52 13 65
q15 15 35 15q21 0 35 -15q13 -13 13 -65zM412 810q10 -19 10 -26q0 -6 -6 -12t-16 -6q-16 0 -38.5 19.5t-76.5 78.5q-24 26 -24 33q0 8 30 8h24q35 0 45 -6t27 -40z" />
    <glyph glyph-name="Uacute" unicode="&#xda;" horiz-adv-x="729" 
d="M177 648v-380q0 -19 0.5 -31t4 -35.5t10 -39.5t20.5 -36t33.5 -32t50.5 -20.5t70 -8.5q48 0 84 13.5t55 33.5t30 49.5t14 53t3 52.5v381q0 52 13 65q15 15 35 15q22 0 35 -15q13 -13 13 -65v-372q0 -288 -275 -288q-148 0 -220 66.5t-72 220.5v373q0 52 13 65
q15 15 35 15q21 0 35 -15q13 -13 13 -65zM319 810l25 49q17 34 27 40t45 6h24q30 0 30 -8q0 -7 -24 -33q-58 -61 -78.5 -79.5t-36.5 -18.5q-10 0 -16 6t-6 12q0 7 10 26z" />
    <glyph glyph-name="Ucircumflex" unicode="&#xdb;" horiz-adv-x="729" 
d="M177 648v-380q0 -19 0.5 -31t4 -35.5t10 -39.5t20.5 -36t33.5 -32t50.5 -20.5t70 -8.5q48 0 84 13.5t55 33.5t30 49.5t14 53t3 52.5v381q0 52 13 65q15 15 35 15q22 0 35 -15q13 -13 13 -65v-372q0 -288 -275 -288q-148 0 -220 66.5t-72 220.5v373q0 52 13 65
q15 15 35 15q21 0 35 -15q13 -13 13 -65zM365 864l-45 -58q-17 -22 -24.5 -27.5t-25.5 -5.5q-38 0 -42 2t-4 6q0 6 17 26l40 51q29 38 42 46.5t44 8.5q27 0 40 -9.5t41 -45.5l42 -53q15 -18 15 -24q0 -8 -16 -8q-36 0 -43 2q-8 1 -13 5.5t-22 25.5z" />
    <glyph glyph-name="Udieresis" unicode="&#xdc;" horiz-adv-x="729" 
d="M177 648v-380q0 -19 0.5 -31t4 -35.5t10 -39.5t20.5 -36t33.5 -32t50.5 -20.5t70 -8.5q48 0 84 13.5t55 33.5t30 49.5t14 53t3 52.5v381q0 52 13 65q15 15 35 15q22 0 35 -15q13 -13 13 -65v-372q0 -288 -275 -288q-148 0 -220 66.5t-72 220.5v373q0 52 13 65
q15 15 35 15q21 0 35 -15q13 -13 13 -65zM329 827q0 -19 -13.5 -33t-33.5 -14t-33.5 14t-13.5 33t13.5 33t33.5 14t33.5 -14t13.5 -33zM494 827q0 -19 -14 -33t-33 -14t-33 14t-14 33t14 33t33 14t33 -14t14 -33z" />
    <glyph glyph-name="Yacute" unicode="&#xdd;" horiz-adv-x="615" 
d="M256 307l-206 320q-26 42 -26 57q0 17 12.5 30.5t34.5 13.5q17 0 26.5 -9.5t30.5 -43.5l179 -283l184 286q21 33 30 41.5t26 8.5q18 0 31 -12t13 -30q0 -16 -25 -54l-214 -325v-240q0 -53 -14 -65q-14 -14 -34 -14q-19 0 -35 14q-13 12 -13 65v240zM262 810l25 49
q17 34 27 40t45 6h24q30 0 30 -8q0 -7 -24 -33q-58 -61 -78.5 -79.5t-36.5 -18.5q-10 0 -16 6t-6 12q0 7 10 26z" />
    <glyph glyph-name="Thorn" unicode="&#xde;" horiz-adv-x="635" 
d="M183 147v-80q0 -18 -1 -28t-4.5 -24t-13.5 -20.5t-26 -6.5q-24 0 -39 15q-12 12 -12 64v581q0 53 12 65q15 15 36 15t35 -15q13 -12 13 -64v-80h164q112 0 167 -42q76 -57 76 -166q0 -55 -24.5 -105.5t-72.5 -75.5q-63 -33 -147 -33h-163zM321 492h-138v-268h138
q171 0 171 135q0 59 -35 95q-36 38 -136 38z" />
    <glyph glyph-name="germandbls" unicode="&#xdf;" horiz-adv-x="531" 
d="M140 510v-451q0 -46 -13 -59q-12 -12 -31 -12t-31 12t-12 59v458q0 93 38 141q55 70 160 70q86 0 129 -41t43 -95q0 -44 -44 -115q-38 -60 -38 -82q0 -36 53 -77q67 -52 88 -92t21 -79q0 -66 -45.5 -112.5t-114.5 -46.5q-61 0 -103.5 34t-42.5 63q0 11 10 23.5t29 12.5
q16 0 34 -22q32 -41 69 -41q33 0 56.5 25t23.5 58q0 32 -23 60t-72 66q-39 30 -57 55t-18 54q0 35 44 108q43 70 43 104q0 36 -27 53t-59 17q-29 0 -50 -9.5t-32 -23.5t-18 -35t-8.5 -39t-1.5 -41z" />
    <glyph glyph-name="agrave" unicode="&#xe0;" horiz-adv-x="563" 
d="M415 73q-88 -85 -205 -85q-81 0 -124.5 44t-43.5 104q0 34 12.5 60t29 41t43.5 27t43.5 16t41.5 9q9 2 72 13.5t74 14.5q25 7 49 15q-1 27 -2 41t-7.5 35t-18 31.5t-34.5 18.5t-56 8q-117 0 -146 -72q-6 -15 -9.5 -22t-12 -13.5t-21.5 -6.5q-16 0 -27.5 10.5t-11.5 26.5
q0 11 4.5 26.5t19.5 36t38 37.5t65 29t95 12q58 0 98 -11.5t62 -28.5t33.5 -47.5t14.5 -57.5t3 -69q0 -13 -1.5 -82.5t-1.5 -80.5q0 -49 14 -86q0 -1 3 -9.5t5 -18.5t2 -17q0 -13 -12.5 -23.5t-29.5 -10.5q-16 0 -28 15t-17.5 30t-12.5 40zM408 270q-31 -12 -58 -18
t-78.5 -16t-73.5 -16q-38 -11 -52.5 -33.5t-14.5 -44.5q0 -32 25 -59t74 -27q46 0 90.5 19.5t65.5 55.5q22 37 22 139zM329 623q10 -19 10 -26q0 -6 -6 -12t-16 -6q-16 0 -38.5 19.5t-76.5 78.5q-24 26 -24 33q0 8 30 8h24q35 0 45 -6t27 -40z" />
    <glyph glyph-name="aacute" unicode="&#xe1;" horiz-adv-x="563" 
d="M415 73q-88 -85 -205 -85q-81 0 -124.5 44t-43.5 104q0 34 12.5 60t29 41t43.5 27t43.5 16t41.5 9q9 2 72 13.5t74 14.5q25 7 49 15q-1 27 -2 41t-7.5 35t-18 31.5t-34.5 18.5t-56 8q-117 0 -146 -72q-6 -15 -9.5 -22t-12 -13.5t-21.5 -6.5q-16 0 -27.5 10.5t-11.5 26.5
q0 11 4.5 26.5t19.5 36t38 37.5t65 29t95 12q58 0 98 -11.5t62 -28.5t33.5 -47.5t14.5 -57.5t3 -69q0 -13 -1.5 -82.5t-1.5 -80.5q0 -49 14 -86q0 -1 3 -9.5t5 -18.5t2 -17q0 -13 -12.5 -23.5t-29.5 -10.5q-16 0 -28 15t-17.5 30t-12.5 40zM408 270q-31 -12 -58 -18
t-78.5 -16t-73.5 -16q-38 -11 -52.5 -33.5t-14.5 -44.5q0 -32 25 -59t74 -27q46 0 90.5 19.5t65.5 55.5q22 37 22 139zM236 623l25 49q17 34 27 40t45 6h24q30 0 30 -8q0 -7 -24 -33q-58 -61 -78.5 -79.5t-36.5 -18.5q-10 0 -16 6t-6 12q0 7 10 26z" />
    <glyph glyph-name="acircumflex" unicode="&#xe2;" horiz-adv-x="563" 
d="M415 73q-88 -85 -205 -85q-81 0 -124.5 44t-43.5 104q0 34 12.5 60t29 41t43.5 27t43.5 16t41.5 9q9 2 72 13.5t74 14.5q25 7 49 15q-1 27 -2 41t-7.5 35t-18 31.5t-34.5 18.5t-56 8q-117 0 -146 -72q-6 -15 -9.5 -22t-12 -13.5t-21.5 -6.5q-16 0 -27.5 10.5t-11.5 26.5
q0 11 4.5 26.5t19.5 36t38 37.5t65 29t95 12q58 0 98 -11.5t62 -28.5t33.5 -47.5t14.5 -57.5t3 -69q0 -13 -1.5 -82.5t-1.5 -80.5q0 -49 14 -86q0 -1 3 -9.5t5 -18.5t2 -17q0 -13 -12.5 -23.5t-29.5 -10.5q-16 0 -28 15t-17.5 30t-12.5 40zM408 270q-31 -12 -58 -18
t-78.5 -16t-73.5 -16q-38 -11 -52.5 -33.5t-14.5 -44.5q0 -32 25 -59t74 -27q46 0 90.5 19.5t65.5 55.5q22 37 22 139zM282 677l-45 -58q-17 -22 -24.5 -27.5t-25.5 -5.5q-38 0 -42 2t-4 6q0 6 17 26l40 51q29 38 42 46.5t44 8.5q27 0 40 -9.5t41 -45.5l42 -53
q15 -18 15 -24q0 -8 -16 -8q-36 0 -43 2q-8 1 -13 5.5t-22 25.5z" />
    <glyph glyph-name="atilde" unicode="&#xe3;" horiz-adv-x="563" 
d="M415 73q-88 -85 -205 -85q-81 0 -124.5 44t-43.5 104q0 34 12.5 60t29 41t43.5 27t43.5 16t41.5 9q9 2 72 13.5t74 14.5q25 7 49 15q-1 27 -2 41t-7.5 35t-18 31.5t-34.5 18.5t-56 8q-117 0 -146 -72q-6 -15 -9.5 -22t-12 -13.5t-21.5 -6.5q-16 0 -27.5 10.5t-11.5 26.5
q0 11 4.5 26.5t19.5 36t38 37.5t65 29t95 12q58 0 98 -11.5t62 -28.5t33.5 -47.5t14.5 -57.5t3 -69q0 -13 -1.5 -82.5t-1.5 -80.5q0 -49 14 -86q0 -1 3 -9.5t5 -18.5t2 -17q0 -13 -12.5 -23.5t-29.5 -10.5q-16 0 -28 15t-17.5 30t-12.5 40zM408 270q-31 -12 -58 -18
t-78.5 -16t-73.5 -16q-38 -11 -52.5 -33.5t-14.5 -44.5q0 -32 25 -59t74 -27q46 0 90.5 19.5t65.5 55.5q22 37 22 139zM160 595q-10 0 -18.5 8.5t-8.5 24.5q0 27 19 49.5t49 22.5q36 0 79 -20q55 -22 73 -22q21 0 30 22q9 23 22 23q9 0 17 -9t8 -23q0 -23 -17.5 -47.5
t-54.5 -24.5q-20 0 -78 21q-50 21 -73 21q-8 0 -14 -4.5t-8.5 -9.5t-7.5 -16q-8 -16 -17 -16z" />
    <glyph glyph-name="adieresis" unicode="&#xe4;" horiz-adv-x="563" 
d="M415 73q-88 -85 -205 -85q-81 0 -124.5 44t-43.5 104q0 34 12.5 60t29 41t43.5 27t43.5 16t41.5 9q9 2 72 13.5t74 14.5q25 7 49 15q-1 27 -2 41t-7.5 35t-18 31.5t-34.5 18.5t-56 8q-117 0 -146 -72q-6 -15 -9.5 -22t-12 -13.5t-21.5 -6.5q-16 0 -27.5 10.5t-11.5 26.5
q0 11 4.5 26.5t19.5 36t38 37.5t65 29t95 12q58 0 98 -11.5t62 -28.5t33.5 -47.5t14.5 -57.5t3 -69q0 -13 -1.5 -82.5t-1.5 -80.5q0 -49 14 -86q0 -1 3 -9.5t5 -18.5t2 -17q0 -13 -12.5 -23.5t-29.5 -10.5q-16 0 -28 15t-17.5 30t-12.5 40zM408 270q-31 -12 -58 -18
t-78.5 -16t-73.5 -16q-38 -11 -52.5 -33.5t-14.5 -44.5q0 -32 25 -59t74 -27q46 0 90.5 19.5t65.5 55.5q22 37 22 139zM246 640q0 -20 -14 -33.5t-33 -13.5t-33 13.5t-14 33.5t14 33.5t33 13.5t33 -13.5t14 -33.5zM411 640q0 -20 -13.5 -33.5t-33.5 -13.5t-33.5 13.5
t-13.5 33.5t13.5 33.5t33.5 13.5t33.5 -13.5t13.5 -33.5z" />
    <glyph glyph-name="aring" unicode="&#xe5;" horiz-adv-x="563" 
d="M415 73q-88 -85 -205 -85q-81 0 -124.5 44t-43.5 104q0 34 12.5 60t29 41t43.5 27t43.5 16t41.5 9q9 2 72 13.5t74 14.5q25 7 49 15q-1 27 -2 41t-7.5 35t-18 31.5t-34.5 18.5t-56 8q-117 0 -146 -72q-6 -15 -9.5 -22t-12 -13.5t-21.5 -6.5q-16 0 -27.5 10.5t-11.5 26.5
q0 11 4.5 26.5t19.5 36t38 37.5t65 29t95 12q58 0 98 -11.5t62 -28.5t33.5 -47.5t14.5 -57.5t3 -69q0 -13 -1.5 -82.5t-1.5 -80.5q0 -49 14 -86q0 -1 3 -9.5t5 -18.5t2 -17q0 -13 -12.5 -23.5t-29.5 -10.5q-16 0 -28 15t-17.5 30t-12.5 40zM408 270q-31 -12 -58 -18
t-78.5 -16t-73.5 -16q-38 -11 -52.5 -33.5t-14.5 -44.5q0 -32 25 -59t74 -27q46 0 90.5 19.5t65.5 55.5q22 37 22 139zM374 656q0 -38 -27 -65t-66 -27q-38 0 -65 27t-27 65q0 39 27.5 66t65.5 27t65 -27.5t27 -65.5zM334 656q0 22 -15.5 37.5t-37.5 15.5t-37 -15.5
t-15 -37.5t15.5 -37t36.5 -15q22 0 37.5 15t15.5 37z" />
    <glyph glyph-name="ae" unicode="&#xe6;" horiz-adv-x="896" 
d="M392 325v14q-1 44 -2.5 57t-8.5 24q-26 44 -99 44q-110 0 -138 -76q-5 -14 -9 -21t-13 -14t-23 -7q-18 0 -28.5 12t-10.5 27q0 49 41 89q60 56 176 56q45 0 78 -6.5t52 -20t26.5 -21.5t17.5 -23q68 71 167 71q60 0 106.5 -22.5t73.5 -57.5t40.5 -74.5t13.5 -77.5
q0 -16 -4.5 -27t-10 -17t-18 -8.5t-21 -3t-26.5 -0.5h-296q2 -84 38.5 -137t114.5 -53q37 0 64 10t43.5 29t24 32t15.5 33q11 23 34 23q12 0 22.5 -7.5t10.5 -27.5q0 -51 -57.5 -103.5t-154.5 -52.5q-38 0 -70 7.5t-51 16.5t-36.5 24.5t-24 23.5t-16.5 22q-106 -94 -222 -94
q-86 0 -127.5 44.5t-41.5 100.5q0 45 23 78.5t53 46.5q40 17 126 33q69 11 148 34zM476 301h291q-1 51 -18 86.5t-42 50.5t-45 20.5t-39 5.5q-63 0 -103 -43.5t-44 -119.5zM392 203v62q-64 -17 -147 -32q-116 -18 -116 -94q0 -32 26.5 -60t82.5 -28q73 0 120 50
q34 34 34 102z" />
    <glyph glyph-name="ccedilla" unicode="&#xe7;" horiz-adv-x="563" 
d="M299 -12l-4 -23q41 -3 61 -15q31 -19 31 -58q0 -45 -43.5 -66.5t-99.5 -21.5q-62 0 -62 26q0 9 8 15.5t21 6.5q49 0 65 3q7 1 15.5 3.5t19 12t10.5 23.5q0 10 -8 18.5t-15 12t-9 3.5l-32 -1q-6 0 -14.5 8t-8.5 19q0 10 5 16.5t23 19.5q-78 9 -118.5 37.5t-64.5 71.5
q-37 66 -37 159q0 49 11.5 93.5t38 86.5t77 67t120.5 25q134 0 199 -99q18 -26 18 -48q0 -16 -12 -27t-27 -11q-21 0 -42 35q-48 82 -135 82q-73 0 -117 -54t-44 -146q0 -96 42.5 -151t116.5 -55q91 0 133 74q1 2 7 13t11.5 20.5t7.5 12.5q14 16 29 16t27.5 -11.5
t12.5 -28.5q0 -11 -6 -28.5t-22 -41t-39.5 -43.5t-62.5 -34.5t-87 -16.5z" />
    <glyph glyph-name="egrave" unicode="&#xe8;" horiz-adv-x="563" 
d="M444 242h-311q2 -97 48 -143.5t114 -46.5q40 0 70 15.5t43 31t33 46.5q17 26 37 26q14 0 23.5 -10t9.5 -23q0 -18 -17 -46q-63 -104 -203 -104q-122 0 -184.5 75.5t-62.5 196.5q0 119 62.5 194.5t182.5 75.5q58 0 102.5 -20t68 -48t38.5 -63t19 -59t4 -42q0 -20 -6.5 -32
t-20 -17t-23 -6t-27.5 -1zM134 302h298q-4 60 -26 98q-38 66 -120 66q-86 0 -128 -78q-17 -31 -24 -86zM329 623q10 -19 10 -26q0 -6 -6 -12t-16 -6q-16 0 -38.5 19.5t-76.5 78.5q-24 26 -24 33q0 8 30 8h24q35 0 45 -6t27 -40z" />
    <glyph glyph-name="eacute" unicode="&#xe9;" horiz-adv-x="563" 
d="M444 242h-311q2 -97 48 -143.5t114 -46.5q40 0 70 15.5t43 31t33 46.5q17 26 37 26q14 0 23.5 -10t9.5 -23q0 -18 -17 -46q-63 -104 -203 -104q-122 0 -184.5 75.5t-62.5 196.5q0 119 62.5 194.5t182.5 75.5q58 0 102.5 -20t68 -48t38.5 -63t19 -59t4 -42q0 -20 -6.5 -32
t-20 -17t-23 -6t-27.5 -1zM134 302h298q-4 60 -26 98q-38 66 -120 66q-86 0 -128 -78q-17 -31 -24 -86zM236 623l25 49q17 34 27 40t45 6h24q30 0 30 -8q0 -7 -24 -33q-58 -61 -78.5 -79.5t-36.5 -18.5q-10 0 -16 6t-6 12q0 7 10 26z" />
    <glyph glyph-name="ecircumflex" unicode="&#xea;" horiz-adv-x="563" 
d="M444 242h-311q2 -97 48 -143.5t114 -46.5q40 0 70 15.5t43 31t33 46.5q17 26 37 26q14 0 23.5 -10t9.5 -23q0 -18 -17 -46q-63 -104 -203 -104q-122 0 -184.5 75.5t-62.5 196.5q0 119 62.5 194.5t182.5 75.5q58 0 102.5 -20t68 -48t38.5 -63t19 -59t4 -42q0 -20 -6.5 -32
t-20 -17t-23 -6t-27.5 -1zM134 302h298q-4 60 -26 98q-38 66 -120 66q-86 0 -128 -78q-17 -31 -24 -86zM282 677l-45 -58q-17 -22 -24.5 -27.5t-25.5 -5.5q-38 0 -42 2t-4 6q0 6 17 26l40 51q29 38 42 46.5t44 8.5q27 0 40 -9.5t41 -45.5l42 -53q15 -18 15 -24q0 -8 -16 -8
q-36 0 -43 2q-8 1 -13 5.5t-22 25.5z" />
    <glyph glyph-name="edieresis" unicode="&#xeb;" horiz-adv-x="563" 
d="M444 242h-311q2 -97 48 -143.5t114 -46.5q40 0 70 15.5t43 31t33 46.5q17 26 37 26q14 0 23.5 -10t9.5 -23q0 -18 -17 -46q-63 -104 -203 -104q-122 0 -184.5 75.5t-62.5 196.5q0 119 62.5 194.5t182.5 75.5q58 0 102.5 -20t68 -48t38.5 -63t19 -59t4 -42q0 -20 -6.5 -32
t-20 -17t-23 -6t-27.5 -1zM134 302h298q-4 60 -26 98q-38 66 -120 66q-86 0 -128 -78q-17 -31 -24 -86zM246 640q0 -20 -14 -33.5t-33 -13.5t-33 13.5t-14 33.5t14 33.5t33 13.5t33 -13.5t14 -33.5zM411 640q0 -20 -13.5 -33.5t-33.5 -13.5t-33.5 13.5t-13.5 33.5t13.5 33.5
t33.5 13.5t33.5 -13.5t13.5 -33.5z" />
    <glyph glyph-name="igrave" unicode="&#xec;" horiz-adv-x="240" 
d="M164 459v-400q0 -34 -4 -43q-9 -28 -40 -28q-20 0 -30.5 12.5t-12 25t-1.5 33.5v400q0 45 12 58q13 13 33 13q26 0 37 -20q6 -11 6 -51zM168 623q10 -19 10 -26q0 -6 -6 -12t-16 -6q-16 0 -38.5 19.5t-76.5 78.5q-24 26 -24 33q0 8 30 8h24q35 0 45 -6t27 -40z" />
    <glyph glyph-name="iacute" unicode="&#xed;" horiz-adv-x="240" 
d="M164 459v-400q0 -34 -4 -43q-9 -28 -40 -28q-20 0 -30.5 12.5t-12 25t-1.5 33.5v400q0 45 12 58q13 13 33 13q26 0 37 -20q6 -11 6 -51zM75 623l25 49q17 34 27 40t45 6h24q30 0 30 -8q0 -7 -24 -33q-58 -61 -78.5 -79.5t-36.5 -18.5q-10 0 -16 6t-6 12q0 7 10 26z" />
    <glyph glyph-name="icircumflex" unicode="&#xee;" horiz-adv-x="240" 
d="M164 459v-400q0 -34 -4 -43q-9 -28 -40 -28q-20 0 -30.5 12.5t-12 25t-1.5 33.5v400q0 45 12 58q13 13 33 13q26 0 37 -20q6 -11 6 -51zM121 677l-45 -58q-17 -22 -24.5 -27.5t-25.5 -5.5q-38 0 -42 2t-4 6q0 6 17 26l40 51q29 38 42 46.5t44 8.5q27 0 40 -9.5t41 -45.5
l42 -53q15 -18 15 -24q0 -8 -16 -8q-36 0 -43 2q-8 1 -13 5.5t-22 25.5z" />
    <glyph glyph-name="idieresis" unicode="&#xef;" horiz-adv-x="240" 
d="M164 459v-400q0 -34 -4 -43q-9 -28 -40 -28q-20 0 -30.5 12.5t-12 25t-1.5 33.5v400q0 45 12 58q13 13 33 13q26 0 37 -20q6 -11 6 -51zM85 640q0 -20 -13.5 -33.5t-33.5 -13.5t-33.5 13.5t-13.5 33.5t13.5 33.5t33.5 13.5t33.5 -13.5t13.5 -33.5zM250 640
q0 -20 -14 -33.5t-33 -13.5t-33 13.5t-14 33.5t14 33.5t33 13.5t33 -13.5t14 -33.5z" />
    <glyph glyph-name="eth" unicode="&#xf0;" horiz-adv-x="552" 
d="M317 666l60 28q25 12 32 12q8 0 17 -7t9 -19q0 -9 -4.5 -15.5t-10 -9.5t-20.5 -10l-40 -19q156 -180 156 -372q0 -120 -66 -193t-175 -73q-102 0 -167 63q-72 70 -72 201q0 60 14.5 107.5t37 76.5t52.5 48t58.5 26.5t57.5 7.5q52 0 104 -28q-35 64 -69 104l-90 -42
q-21 -10 -31 -10q-9 0 -18 7t-9 19q0 7 2 11.5t7.5 8.5t10 6.5t16.5 7.5l72 33q-10 10 -40 35q-15 14 -15 30q0 13 9.5 20.5t21.5 7.5q18 0 44 -20zM427 257q0 55 -15.5 95.5t-40.5 60t-49.5 28.5t-49.5 9q-70 0 -107 -52q-40 -55 -40 -150q0 -52 13.5 -90.5t31.5 -57
t41.5 -29.5t37 -13t26.5 -2q24 0 47.5 8.5t48.5 29t40.5 62.5t15.5 101z" />
    <glyph glyph-name="ntilde" unicode="&#xf1;" horiz-adv-x="573" 
d="M503 331v-272q0 -48 -12 -59q-14 -12 -31 -12q-18 0 -32 12q-12 11 -12 59v247q0 70 -16 98q-29 50 -91 50q-38 0 -72 -19.5t-52 -52.5q-13 -24 -18.5 -53.5t-5.5 -104.5v-165q0 -47 -13 -59q-14 -12 -31 -12t-31 12q-12 11 -12 59v402q0 46 11 57q14 12 31 12
q26 0 34 -19q9 -16 9 -70q19 25 34.5 40.5t51 32t78.5 16.5q90 0 146 -64q34 -39 34 -135zM165 595q-10 0 -18.5 8.5t-8.5 24.5q0 27 19 49.5t49 22.5q36 0 79 -20q55 -22 73 -22q21 0 30 22q9 23 22 23q9 0 17 -9t8 -23q0 -23 -17.5 -47.5t-54.5 -24.5q-20 0 -78 21
q-50 21 -73 21q-8 0 -14 -4.5t-8.5 -9.5t-7.5 -16q-8 -16 -17 -16z" />
    <glyph glyph-name="ograve" unicode="&#xf2;" horiz-adv-x="573" 
d="M530 259q0 -135 -69 -203t-175 -68q-117 0 -180.5 74.5t-63.5 186.5q0 135 64.5 208t179.5 73q106 0 175 -68t69 -203zM441 259q0 96 -41.5 149.5t-112.5 53.5q-73 0 -114.5 -55t-41.5 -148q0 -94 41.5 -148.5t114.5 -54.5t113.5 55t40.5 148zM334 623q10 -19 10 -26
q0 -6 -6 -12t-16 -6q-16 0 -38.5 19.5t-76.5 78.5q-24 26 -24 33q0 8 30 8h24q35 0 45 -6t27 -40z" />
    <glyph glyph-name="oacute" unicode="&#xf3;" horiz-adv-x="573" 
d="M530 259q0 -135 -69 -203t-175 -68q-117 0 -180.5 74.5t-63.5 186.5q0 135 64.5 208t179.5 73q106 0 175 -68t69 -203zM441 259q0 96 -41.5 149.5t-112.5 53.5q-73 0 -114.5 -55t-41.5 -148q0 -94 41.5 -148.5t114.5 -54.5t113.5 55t40.5 148zM241 623l25 49q17 34 27 40
t45 6h24q30 0 30 -8q0 -7 -24 -33q-58 -61 -78.5 -79.5t-36.5 -18.5q-10 0 -16 6t-6 12q0 7 10 26z" />
    <glyph glyph-name="ocircumflex" unicode="&#xf4;" horiz-adv-x="573" 
d="M530 259q0 -135 -69 -203t-175 -68q-117 0 -180.5 74.5t-63.5 186.5q0 135 64.5 208t179.5 73q106 0 175 -68t69 -203zM441 259q0 96 -41.5 149.5t-112.5 53.5q-73 0 -114.5 -55t-41.5 -148q0 -94 41.5 -148.5t114.5 -54.5t113.5 55t40.5 148zM287 677l-45 -58
q-17 -22 -24.5 -27.5t-25.5 -5.5q-38 0 -42 2t-4 6q0 6 17 26l40 51q29 38 42 46.5t44 8.5q27 0 40 -9.5t41 -45.5l42 -53q15 -18 15 -24q0 -8 -16 -8q-36 0 -43 2q-8 1 -13 5.5t-22 25.5z" />
    <glyph glyph-name="otilde" unicode="&#xf5;" horiz-adv-x="573" 
d="M530 259q0 -135 -69 -203t-175 -68q-117 0 -180.5 74.5t-63.5 186.5q0 135 64.5 208t179.5 73q106 0 175 -68t69 -203zM441 259q0 96 -41.5 149.5t-112.5 53.5q-73 0 -114.5 -55t-41.5 -148q0 -94 41.5 -148.5t114.5 -54.5t113.5 55t40.5 148zM165 595q-10 0 -18.5 8.5
t-8.5 24.5q0 27 19 49.5t49 22.5q36 0 79 -20q55 -22 73 -22q21 0 30 22q9 23 22 23q9 0 17 -9t8 -23q0 -23 -17.5 -47.5t-54.5 -24.5q-20 0 -78 21q-50 21 -73 21q-8 0 -14 -4.5t-8.5 -9.5t-7.5 -16q-8 -16 -17 -16z" />
    <glyph glyph-name="odieresis" unicode="&#xf6;" horiz-adv-x="573" 
d="M530 259q0 -135 -69 -203t-175 -68q-117 0 -180.5 74.5t-63.5 186.5q0 135 64.5 208t179.5 73q106 0 175 -68t69 -203zM441 259q0 96 -41.5 149.5t-112.5 53.5q-73 0 -114.5 -55t-41.5 -148q0 -94 41.5 -148.5t114.5 -54.5t113.5 55t40.5 148zM251 640q0 -20 -13.5 -33.5
t-33.5 -13.5t-33.5 13.5t-13.5 33.5t13.5 33.5t33.5 13.5t33.5 -13.5t13.5 -33.5zM416 640q0 -20 -14 -33.5t-33 -13.5t-33 13.5t-14 33.5t14 33.5t33 13.5t33 -13.5t14 -33.5z" />
    <glyph glyph-name="divide" unicode="&#xf7;" horiz-adv-x="583" 
d="M529 312h-474v82h474v-82zM241 450v100h101v-100h-101zM241 156v100h101v-100h-101z" />
    <glyph glyph-name="oslash" unicode="&#xf8;" horiz-adv-x="573" 
d="M130 39l-28 -31q-17 -20 -30 -20q-12 0 -21 9.5t-9 20.5q0 10 17 29l31 35q-47 67 -47 172q0 147 78 218q63 58 165 58q93 0 157 -51l27 32q15 19 30 19q13 0 21.5 -9t8.5 -18q0 -13 -16 -31l-31 -35q17 -24 32 -72t15 -104q0 -72 -20.5 -126.5t-55.5 -85.5t-77 -46
t-90 -15q-93 0 -157 51zM422 369l-239 -271q38 -42 104 -42q72 0 113 54.5t41 148.5q0 59 -19 110zM151 150l239 270q-42 42 -104 42q-72 0 -113 -55t-41 -148q0 -61 19 -109z" />
    <glyph glyph-name="ugrave" unicode="&#xf9;" horiz-adv-x="573" 
d="M69 182v276q0 48 12 59q13 13 32 13q17 0 31 -12q12 -12 12 -60v-242q0 -72 17 -100q32 -52 92 -52q38 0 72.5 20t51.5 52q8 15 12 26.5t7.5 45.5t3.5 88v162q0 48 12 59q15 13 31 13q17 0 32 -12q12 -12 12 -60v-401q0 -46 -12 -57q-12 -12 -30 -12q-27 0 -35 19
q-7 16 -7 71q-14 -18 -24.5 -29t-31.5 -27.5t-49.5 -25t-62.5 -8.5q-46 0 -90 19t-63 57q-25 49 -25 118zM334 623q10 -19 10 -26q0 -6 -6 -12t-16 -6q-16 0 -38.5 19.5t-76.5 78.5q-24 26 -24 33q0 8 30 8h24q35 0 45 -6t27 -40z" />
    <glyph glyph-name="uacute" unicode="&#xfa;" horiz-adv-x="573" 
d="M69 182v276q0 48 12 59q13 13 32 13q17 0 31 -12q12 -12 12 -60v-242q0 -72 17 -100q32 -52 92 -52q38 0 72.5 20t51.5 52q8 15 12 26.5t7.5 45.5t3.5 88v162q0 48 12 59q15 13 31 13q17 0 32 -12q12 -12 12 -60v-401q0 -46 -12 -57q-12 -12 -30 -12q-27 0 -35 19
q-7 16 -7 71q-14 -18 -24.5 -29t-31.5 -27.5t-49.5 -25t-62.5 -8.5q-46 0 -90 19t-63 57q-25 49 -25 118zM241 623l25 49q17 34 27 40t45 6h24q30 0 30 -8q0 -7 -24 -33q-58 -61 -78.5 -79.5t-36.5 -18.5q-10 0 -16 6t-6 12q0 7 10 26z" />
    <glyph glyph-name="ucircumflex" unicode="&#xfb;" horiz-adv-x="573" 
d="M69 182v276q0 48 12 59q13 13 32 13q17 0 31 -12q12 -12 12 -60v-242q0 -72 17 -100q32 -52 92 -52q38 0 72.5 20t51.5 52q8 15 12 26.5t7.5 45.5t3.5 88v162q0 48 12 59q15 13 31 13q17 0 32 -12q12 -12 12 -60v-401q0 -46 -12 -57q-12 -12 -30 -12q-27 0 -35 19
q-7 16 -7 71q-14 -18 -24.5 -29t-31.5 -27.5t-49.5 -25t-62.5 -8.5q-46 0 -90 19t-63 57q-25 49 -25 118zM287 677l-45 -58q-17 -22 -24.5 -27.5t-25.5 -5.5q-38 0 -42 2t-4 6q0 6 17 26l40 51q29 38 42 46.5t44 8.5q27 0 40 -9.5t41 -45.5l42 -53q15 -18 15 -24
q0 -8 -16 -8q-36 0 -43 2q-8 1 -13 5.5t-22 25.5z" />
    <glyph glyph-name="udieresis" unicode="&#xfc;" horiz-adv-x="573" 
d="M69 182v276q0 48 12 59q13 13 32 13q17 0 31 -12q12 -12 12 -60v-242q0 -72 17 -100q32 -52 92 -52q38 0 72.5 20t51.5 52q8 15 12 26.5t7.5 45.5t3.5 88v162q0 48 12 59q15 13 31 13q17 0 32 -12q12 -12 12 -60v-401q0 -46 -12 -57q-12 -12 -30 -12q-27 0 -35 19
q-7 16 -7 71q-14 -18 -24.5 -29t-31.5 -27.5t-49.5 -25t-62.5 -8.5q-46 0 -90 19t-63 57q-25 49 -25 118zM251 640q0 -20 -13.5 -33.5t-33.5 -13.5t-33.5 13.5t-13.5 33.5t13.5 33.5t33.5 13.5t33.5 -13.5t13.5 -33.5zM416 640q0 -20 -14 -33.5t-33 -13.5t-33 13.5t-14 33.5
t14 33.5t33 13.5t33 -13.5t14 -33.5z" />
    <glyph glyph-name="yacute" unicode="&#xfd;" horiz-adv-x="510" 
d="M210 0l-177 449q-11 30 -11 41q0 15 12.5 27.5t30.5 12.5q20 0 29 -12t19 -39l142 -387l147 382q14 36 22 46t26 10t28.5 -12t10.5 -24t-12 -43l-208 -533q-28 -71 -60 -99.5t-92 -28.5q-84 0 -84 45q0 13 9 24t25 11q4 0 22.5 -1.5t21.5 -1.5q28 0 43.5 16.5t28.5 47.5z
M210 623l25 49q17 34 27 40t45 6h24q30 0 30 -8q0 -7 -24 -33q-58 -61 -78.5 -79.5t-36.5 -18.5q-10 0 -16 6t-6 12q0 7 10 26z" />
    <glyph glyph-name="thorn" unicode="&#xfe;" horiz-adv-x="615" 
d="M161 54v-191q0 -48 -11 -59q-14 -14 -32 -14q-20 0 -32 14q-12 11 -12 59v792q0 48 11 59q14 14 33 14q18 0 32 -14q11 -11 11 -59v-191q19 20 32.5 31t43.5 23t67 12q106 0 163 -76t57 -191q0 -131 -67.5 -203t-157.5 -72q-35 0 -64 12t-42 23t-32 31zM152 256
q0 -90 32 -139q41 -61 108 -61q61 0 104 53q39 49 39 154q0 102 -41.5 150.5t-97.5 48.5q-62 0 -103 -57t-41 -149z" />
    <glyph glyph-name="ydieresis" unicode="&#xff;" horiz-adv-x="510" 
d="M210 0l-177 449q-11 30 -11 41q0 15 12.5 27.5t30.5 12.5q20 0 29 -12t19 -39l142 -387l147 382q14 36 22 46t26 10t28.5 -12t10.5 -24t-12 -43l-208 -533q-28 -71 -60 -99.5t-92 -28.5q-84 0 -84 45q0 13 9 24t25 11q4 0 22.5 -1.5t21.5 -1.5q28 0 43.5 16.5t28.5 47.5z
M220 640q0 -20 -14 -33.5t-33 -13.5t-33 13.5t-14 33.5t14 33.5t33 13.5t33 -13.5t14 -33.5zM385 640q0 -20 -13.5 -33.5t-33.5 -13.5t-33.5 13.5t-13.5 33.5t13.5 33.5t33.5 13.5t33.5 -13.5t13.5 -33.5z" />
    <glyph glyph-name="Amacron" unicode="&#x100;" horiz-adv-x="688" 
d="M565 49l-64 158h-319l-62 -160q-14 -36 -24 -47.5t-31 -11.5q-18 0 -32 13t-14 29q0 14 14 50l227 563q20 51 34.5 68t44.5 17q29 0 43 -14t37 -70l235 -560q15 -37 15 -52q0 -16 -14 -30t-34 -14q-21 0 -30.5 11t-25.5 50zM338 619l-129 -335h263zM240 858h207
q30 0 39.5 -7.5t9.5 -26.5q0 -26 -9.5 -32.5t-39.5 -6.5h-207q-30 0 -39.5 7.5t-9.5 26.5q0 26 9.5 32.5t39.5 6.5z" />
    <glyph glyph-name="amacron" unicode="&#x101;" horiz-adv-x="563" 
d="M415 73q-86 -85 -205 -85q-76 0 -122 42t-46 106q0 56 32.5 91.5t76.5 47.5q15 4 127 27.5t129 29.5q0 77 -26.5 105.5t-91.5 28.5q-117 0 -146 -72q-11 -26 -20 -34t-23 -8q-16 0 -27.5 11t-11.5 26q0 52 59 96.5t163 44.5q57 0 96 -10.5t61.5 -27t34.5 -46t15.5 -58
t3.5 -72.5l-3 -163q-1 -30 11.5 -79t12.5 -52q0 -13 -12.5 -23.5t-29.5 -10.5q-36 0 -58 85zM408 270q-16 -6 -119 -30t-112 -28q-22 -9 -34 -29.5t-12 -40.5q0 -36 27 -61t72 -25q55 0 104 26q47 25 60.5 64.5t13.5 123.5zM172 683h207q30 0 39.5 -7.5t9.5 -26.5
q0 -26 -9.5 -32.5t-39.5 -6.5h-207q-30 0 -39.5 7.5t-9.5 26.5q0 26 9.5 32.5t39.5 6.5z" />
    <glyph glyph-name="Abreve" unicode="&#x102;" horiz-adv-x="688" 
d="M565 49l-64 158h-319l-62 -160q-14 -36 -24 -47.5t-31 -11.5q-18 0 -32 13t-14 29q0 14 14 50l227 563q20 51 34.5 68t44.5 17q29 0 43 -14t37 -70l235 -560q15 -37 15 -52q0 -16 -14 -30t-34 -14q-21 0 -30.5 11t-25.5 50zM338 619l-129 -335h263zM200 887q0 29 33 29
q19 0 27 -23q18 -58 84 -58q65 0 84 58q8 23 26 23q33 0 33 -30q0 -40 -41.5 -76t-101.5 -36t-102 36.5t-42 76.5z" />
    <glyph glyph-name="abreve" unicode="&#x103;" horiz-adv-x="563" 
d="M415 73q-86 -85 -205 -85q-76 0 -122 42t-46 106q0 56 32.5 91.5t76.5 47.5q15 4 127 27.5t129 29.5q0 77 -26.5 105.5t-91.5 28.5q-117 0 -146 -72q-11 -26 -20 -34t-23 -8q-16 0 -27.5 11t-11.5 26q0 52 59 96.5t163 44.5q57 0 96 -10.5t61.5 -27t34.5 -46t15.5 -58
t3.5 -72.5l-3 -163q-1 -30 11.5 -79t12.5 -52q0 -13 -12.5 -23.5t-29.5 -10.5q-36 0 -58 85zM408 270q-16 -6 -119 -30t-112 -28q-22 -9 -34 -29.5t-12 -40.5q0 -36 27 -61t72 -25q55 0 104 26q47 25 60.5 64.5t13.5 123.5zM138 701q0 29 33 29q19 0 27 -23q18 -58 84 -58
q65 0 84 58q8 23 26 23q33 0 33 -30q0 -40 -41.5 -76t-101.5 -36t-102 36.5t-42 76.5z" />
    <glyph glyph-name="Aogonek" unicode="&#x104;" horiz-adv-x="688" 
d="M636 -10q-8 -34 -8 -51q0 -39 20 -60t52 -21q12 0 25.5 2t22.5 4.5t10 2.5q9 0 15.5 -8.5t6.5 -18.5q0 -24 -37.5 -37t-71.5 -13q-46 0 -76 31t-30 81q0 24 8.5 57t13.5 41q-9 12 -23 48l-64 159h-318l-62 -159q-15 -38 -25.5 -49t-30.5 -11q-18 0 -31.5 13t-13.5 29
q0 17 14 51l226 563q23 57 37 70.5t43 13.5q44 0 68 -57l246 -587q15 -37 15 -52q0 -30 -32 -42zM209 283h263l-135 337z" />
    <glyph glyph-name="aogonek" unicode="&#x105;" horiz-adv-x="563" 
d="M497 -6q-7 -38 -7 -58q0 -34 19.5 -55t52.5 -21q13 0 26 2t21.5 4t9.5 2q23 0 23 -26q0 -22 -38 -34.5t-71 -12.5q-45 0 -75.5 30.5t-30.5 75.5q0 49 19 99q-17 21 -32 73q-85 -85 -204 -85q-78 0 -123 41.5t-45 105.5q0 51 35 95q35 45 176 67q110 18 154 36
q-3 79 -27 106t-91 27q-118 0 -149 -80q-14 -33 -40 -33q-16 0 -27.5 10.5t-11.5 25.5q0 52 59.5 96.5t159.5 44.5q68 0 110.5 -12t65 -40.5t30.5 -65t8 -96.5q0 -21 -1.5 -82.5t-1.5 -81.5q0 -31 11.5 -76t11.5 -54q0 -17 -17 -28zM407 246v24q-27 -11 -79 -22
q-121 -24 -142 -31q-25 -8 -40.5 -28.5t-15.5 -46.5q0 -36 27.5 -61.5t71.5 -25.5q47 0 89.5 19.5t65.5 53.5q23 35 23 118z" />
    <glyph glyph-name="Cacute" unicode="&#x106;" horiz-adv-x="729" 
d="M636 263q16 0 28.5 -11.5t12.5 -28.5q0 -81 -83.5 -158t-199.5 -77q-86 0 -152.5 30t-106.5 81.5t-60 117t-20 141.5q0 165 94 267.5t240 102.5q83 0 147.5 -35t100.5 -91q34 -56 34 -79q0 -18 -10.5 -30t-28.5 -12q-28 0 -57 53q-64 117 -182 117q-106 0 -173 -78
t-67 -219q0 -138 63.5 -213.5t168.5 -75.5q153 0 208 157q15 41 43 41zM358 809l25 49q6 11 9.5 17t6.5 12t7 8.5t5.5 5t8.5 3t8.5 0.5h12h14.5h24q30 0 30 -8q0 -9 -61 -70t-78 -61q-22 0 -22 18q0 7 10 26z" />
    <glyph glyph-name="cacute" unicode="&#x107;" horiz-adv-x="563" 
d="M476 192q16 0 28 -11.5t12 -28.5q0 -52 -66 -108t-157 -56q-123 0 -187 72t-64 198q0 125 64 198.5t183 73.5q96 0 156.5 -51.5t60.5 -95.5q0 -15 -12 -26.5t-27 -11.5q-21 0 -42 35q-49 82 -135 82q-73 0 -117 -54t-44 -146q0 -96 42.5 -151t116.5 -55q92 0 140 86
q18 33 26 41.5t22 8.5zM233 617l25 49q6 11 9.5 17t6.5 12t7 8.5t5.5 5t8.5 3t8.5 0.5h12h14.5h24q30 0 30 -8q0 -9 -61 -70t-78 -61q-22 0 -22 18q0 7 10 26z" />
    <glyph glyph-name="Ccircumflex" unicode="&#x108;" horiz-adv-x="729" 
d="M636 263q16 0 28.5 -11.5t12.5 -28.5q0 -81 -83.5 -158t-199.5 -77q-86 0 -152.5 30t-106.5 81.5t-60 117t-20 141.5q0 165 94 267.5t240 102.5q83 0 147.5 -35t100.5 -91q34 -56 34 -79q0 -18 -10.5 -30t-28.5 -12q-28 0 -57 53q-64 117 -182 117q-106 0 -173 -78
t-67 -219q0 -138 63.5 -213.5t168.5 -75.5q153 0 208 157q15 41 43 41zM440 794l-46 58l-45 -58q-18 -22 -25.5 -27.5t-24.5 -5.5q-33 0 -39.5 1t-6.5 5q0 6 17 28l40 51q30 39 42.5 47t43.5 8q27 0 38.5 -8t42.5 -47l42 -53q15 -18 15 -24q0 -8 -16 -8q-44 0 -50.5 2.5
t-27.5 30.5z" />
    <glyph glyph-name="ccircumflex" unicode="&#x109;" horiz-adv-x="563" 
d="M476 192q16 0 28 -11.5t12 -28.5q0 -52 -66 -108t-157 -56q-123 0 -187 72t-64 198q0 125 64 198.5t183 73.5q96 0 156.5 -51.5t60.5 -95.5q0 -15 -12 -26.5t-27 -11.5q-21 0 -42 35q-49 82 -135 82q-73 0 -117 -54t-44 -146q0 -96 42.5 -151t116.5 -55q92 0 140 86
q18 33 26 41.5t22 8.5zM328 602l-46 58l-45 -58q-18 -22 -25.5 -27.5t-24.5 -5.5q-33 0 -39.5 1t-6.5 5q0 6 17 28l40 51q30 39 42.5 47t43.5 8q27 0 38.5 -8t42.5 -47l42 -53q15 -18 15 -24q0 -8 -16 -8q-44 0 -50.5 2.5t-27.5 30.5z" />
    <glyph glyph-name="Cdotaccent" unicode="&#x10a;" horiz-adv-x="729" 
d="M636 263q16 0 28.5 -11.5t12.5 -28.5q0 -81 -83.5 -158t-199.5 -77q-86 0 -152.5 30t-106.5 81.5t-60 117t-20 141.5q0 165 94 267.5t240 102.5q83 0 147.5 -35t100.5 -91q34 -56 34 -79q0 -18 -10.5 -30t-28.5 -12q-28 0 -57 53q-64 117 -182 117q-106 0 -173 -78
t-67 -219q0 -138 63.5 -213.5t168.5 -75.5q153 0 208 157q15 41 43 41zM386 873q19 0 33 -14t14 -33t-14 -33t-33 -14q-20 0 -33.5 14t-13.5 33t13.5 33t33.5 14z" />
    <glyph glyph-name="cdotaccent" unicode="&#x10b;" horiz-adv-x="563" 
d="M476 192q16 0 28 -11.5t12 -28.5q0 -52 -66 -108t-157 -56q-123 0 -187 72t-64 198q0 125 64 198.5t183 73.5q96 0 156.5 -51.5t60.5 -95.5q0 -15 -12 -26.5t-27 -11.5q-21 0 -42 35q-49 82 -135 82q-73 0 -117 -54t-44 -146q0 -96 42.5 -151t116.5 -55q92 0 140 86
q18 33 26 41.5t22 8.5zM292 687q19 0 33 -14t14 -33t-14 -33t-33 -14q-20 0 -33.5 14t-13.5 33t13.5 33t33.5 14z" />
    <glyph glyph-name="Ccaron" unicode="&#x10c;" horiz-adv-x="729" 
d="M636 263q16 0 28.5 -11.5t12.5 -28.5q0 -81 -83.5 -158t-199.5 -77q-86 0 -152.5 30t-106.5 81.5t-60 117t-20 141.5q0 165 94 267.5t240 102.5q83 0 147.5 -35t100.5 -91q34 -56 34 -79q0 -18 -10.5 -30t-28.5 -12q-28 0 -57 53q-64 117 -182 117q-106 0 -173 -78
t-67 -219q0 -138 63.5 -213.5t168.5 -75.5q153 0 208 157q15 41 43 41zM318 872l46 -58l45 58q16 21 25 26.5t25 6.5h26t13.5 -1t5.5 -2t1 -4q-3 -9 -17 -27l-40 -51q-31 -39 -43 -47.5t-43 -7.5q-28 0 -39 7.5t-42 47.5l-42 53q-15 18 -15 24q0 8 16 8h9q33 0 40 -2.5
t20 -19.5l2 -2t2 -2.5t2.5 -3t2.5 -3.5z" />
    <glyph glyph-name="ccaron" unicode="&#x10d;" horiz-adv-x="563" 
d="M476 192q16 0 28 -11.5t12 -28.5q0 -52 -66 -108t-157 -56q-123 0 -187 72t-64 198q0 125 64 198.5t183 73.5q96 0 156.5 -51.5t60.5 -95.5q0 -15 -12 -26.5t-27 -11.5q-21 0 -42 35q-49 82 -135 82q-73 0 -117 -54t-44 -146q0 -96 42.5 -151t116.5 -55q92 0 140 86
q18 33 26 41.5t22 8.5zM234 680l46 -58l45 58q16 21 25 26.5t25 6.5h26t13.5 -1t5.5 -2t1 -4q-3 -9 -17 -27l-40 -51q-31 -39 -43 -47.5t-43 -7.5q-28 0 -39 7.5t-42 47.5l-42 53q-15 18 -15 24q0 8 16 8h9q33 0 40 -2.5t20 -19.5q6 -7 9 -11z" />
    <glyph glyph-name="Dcaron" unicode="&#x10e;" horiz-adv-x="729" 
d="M341 0h-175q-57 0 -69 14t-12 78v544q0 54 11.5 67t69.5 13h174q64 0 119 -11q97 -20 156.5 -113t59.5 -233q0 -359 -334 -359zM323 639h-142v-562h147q70 0 109 13t68 43t44 69t21.5 76.5t6.5 75.5q0 95 -30.5 163.5t-80.5 95.5q-47 26 -143 26zM242 871l46 -58l45 58
q16 21 25 26.5t25 6.5h26t13.5 -1t5.5 -2t1 -4q-3 -9 -17 -27l-40 -51q-31 -39 -43 -47.5t-43 -7.5q-28 0 -39 7.5t-42 47.5l-42 53q-15 18 -15 24q0 8 16 8h9q33 0 40 -2.5t20 -19.5q6 -7 9 -11z" />
    <glyph glyph-name="dcaron" unicode="&#x10f;" horiz-adv-x="614" 
d="M456 47v31q-78 -90 -186 -90q-105 0 -166.5 78t-61.5 191q0 128 62 200.5t168 72.5q104 0 184 -70v196q0 43 10 57.5t33 14.5t32.5 -15.5t9.5 -56.5v-599q0 -40 -10 -54.5t-33 -14.5q-42 0 -42 59zM288 461q-73 0 -115 -56t-42 -143q0 -95 45 -150t116 -55q70 0 117 52
t47 148t-49 150t-119 54zM651 616q-24 0 -41 15.5t-17 39.5t17 40.5t40 16.5q28 0 45 -21t17 -61q0 -55 -27.5 -101t-56.5 -46q-10 0 -16.5 7t-6.5 17q0 12 13 24q33 30 33 69z" />
    <glyph glyph-name="Dcroat" unicode="&#x110;" horiz-adv-x="729" 
d="M85 92v234h-31q-28 0 -38.5 6.5t-10.5 24.5q0 19 10.5 26t38.5 7h31v246q0 54 13 67t68 13h174q82 0 133.5 -15t98.5 -57q103 -92 103 -285q0 -359 -334 -359h-158q-61 0 -74 6q-15 8 -19.5 21t-4.5 65zM329 326h-148v-246h148q59 0 102 13t77.5 43.5t51.5 87t17 139.5
q0 146 -62.5 209.5t-191.5 63.5h-142v-246h148q29 0 39.5 -6.5t10.5 -25.5t-10.5 -25.5t-39.5 -6.5z" />
    <glyph glyph-name="dcroat" unicode="&#x111;" horiz-adv-x="615" 
d="M455 460v124h-141q-70 0 -70 34q0 18 15 27t55 9h141q0 43 8.5 58.5t33.5 15.5q26 0 35 -15.5t9 -58.5h17q69 0 69 -35t-69 -35h-17v-527q0 -41 -10 -55t-34 -14q-42 0 -42 59v31q-78 -90 -186 -90q-107 0 -167 79t-60 190q0 127 61.5 200t167.5 73q105 0 184 -70z
M288 461q-71 0 -114 -56t-43 -143q0 -95 45 -150t116 -55t117.5 52.5t46.5 148.5t-49 149.5t-119 53.5z" />
    <glyph glyph-name="Emacron" unicode="&#x112;" horiz-adv-x="635" 
d="M516 639h-333v-230h306q37 0 50.5 -9t13.5 -29q0 -13 -3.5 -20t-18 -13t-42.5 -6h-306v-255h347q40 0 53 -9t13 -29q0 -21 -13.5 -30t-52.5 -9h-363q-58 4 -66 11q-10 7 -12 48q-2 15 -2 21v556q0 53 13 66.5t67 13.5h349q39 0 52.5 -9t13.5 -29q0 -21 -13.5 -30
t-52.5 -9zM214 858h207q30 0 39.5 -7.5t9.5 -26.5q0 -26 -9.5 -32.5t-39.5 -6.5h-207q-30 0 -39.5 7.5t-9.5 26.5q0 26 9.5 32.5t39.5 6.5z" />
    <glyph glyph-name="emacron" unicode="&#x113;" horiz-adv-x="563" 
d="M444 242h-311q2 -92 45.5 -141t116.5 -49q57 0 86 23q9 8 29 33t38 44t30 19q14 0 23.5 -10t9.5 -23q0 -18 -14 -42t-40 -49t-70 -42t-96 -17q-117 0 -182 72.5t-65 199.5q0 124 65 197t180 73q109 0 170.5 -70.5t61.5 -161.5q0 -18 -3.5 -28t-21.5 -19t-52 -9zM134 302
h298q-3 78 -42.5 121t-103.5 43q-62 0 -103 -43t-49 -121zM176 683h207q30 0 39.5 -7.5t9.5 -26.5q0 -26 -9.5 -32.5t-39.5 -6.5h-207q-30 0 -39.5 7.5t-9.5 26.5q0 26 9.5 32.5t39.5 6.5z" />
    <glyph glyph-name="Ebreve" unicode="&#x114;" horiz-adv-x="635" 
d="M516 639h-333v-230h306q37 0 50.5 -9t13.5 -29q0 -13 -3.5 -20t-18 -13t-42.5 -6h-306v-255h347q40 0 53 -9t13 -29q0 -21 -13.5 -30t-52.5 -9h-363q-58 4 -66 11q-10 7 -12 48q-2 15 -2 21v556q0 53 13 66.5t67 13.5h349q39 0 52.5 -9t13.5 -29q0 -21 -13.5 -30
t-52.5 -9zM198 876q0 29 33 29q19 0 27 -23q18 -58 84 -58q65 0 84 58q8 23 26 23q33 0 33 -30q0 -40 -41.5 -76t-101.5 -36t-102 36.5t-42 76.5z" />
    <glyph glyph-name="ebreve" unicode="&#x115;" horiz-adv-x="563" 
d="M444 242h-311q2 -92 45.5 -141t116.5 -49q57 0 86 23q9 8 29 33t38 44t30 19q14 0 23.5 -10t9.5 -23q0 -18 -14 -42t-40 -49t-70 -42t-96 -17q-117 0 -182 72.5t-65 199.5q0 124 65 197t180 73q109 0 170.5 -70.5t61.5 -161.5q0 -18 -3.5 -28t-21.5 -19t-52 -9zM134 302
h298q-3 78 -42.5 121t-103.5 43q-62 0 -103 -43t-49 -121zM138 701q0 29 33 29q19 0 27 -23q18 -58 84 -58q65 0 84 58q8 23 26 23q33 0 33 -30q0 -40 -41.5 -76t-101.5 -36t-102 36.5t-42 76.5z" />
    <glyph glyph-name="Edotaccent" unicode="&#x116;" horiz-adv-x="635" 
d="M516 639h-333v-230h306q37 0 50.5 -9t13.5 -29q0 -13 -3.5 -20t-18 -13t-42.5 -6h-306v-255h347q40 0 53 -9t13 -29q0 -21 -13.5 -30t-52.5 -9h-363q-58 4 -66 11q-10 7 -12 48q-2 15 -2 21v556q0 53 13 66.5t67 13.5h349q39 0 52.5 -9t13.5 -29q0 -21 -13.5 -30
t-52.5 -9zM336 873q19 0 33 -14t14 -33t-14 -33t-33 -14q-20 0 -33.5 14t-13.5 33t13.5 33t33.5 14z" />
    <glyph glyph-name="edotaccent" unicode="&#x117;" horiz-adv-x="563" 
d="M444 242h-311q2 -92 45.5 -141t116.5 -49q57 0 86 23q9 8 29 33t38 44t30 19q14 0 23.5 -10t9.5 -23q0 -18 -14 -42t-40 -49t-70 -42t-96 -17q-117 0 -182 72.5t-65 199.5q0 124 65 197t180 73q109 0 170.5 -70.5t61.5 -161.5q0 -18 -3.5 -28t-21.5 -19t-52 -9zM134 302
h298q-3 78 -42.5 121t-103.5 43q-62 0 -103 -43t-49 -121zM281 687q19 0 33 -14t14 -33t-14 -33t-33 -14q-20 0 -33.5 14t-13.5 33t13.5 33t33.5 14z" />
    <glyph glyph-name="Eogonek" unicode="&#x118;" horiz-adv-x="635" 
d="M530 0h-79q-7 -45 -7 -55q0 -36 19.5 -57t52.5 -21q16 0 37 4l21 4q9 0 15.5 -8t6.5 -18q0 -22 -38 -34.5t-73 -12.5q-44 0 -74 31t-30 74q0 44 16 93h-230q-32 0 -47.5 2t-23.5 14.5t-8.5 22t-0.5 41.5v557q0 57 14 68t66 11h349q38 0 52 -9.5t14 -30.5t-14 -30t-52 -9
h-333v-228h306q37 0 50.5 -9t13.5 -29q0 -21 -13 -30t-51 -9h-306v-252h347q38 0 52 -9.5t14 -30.5t-14 -30.5t-52 -9.5z" />
    <glyph glyph-name="eogonek" unicode="&#x119;" horiz-adv-x="563" 
d="M309 -12l-4 -21q-3 -17 -3 -39q0 -33 21 -52.5t52 -19.5q11 0 32 4.5t25 4.5q9 0 15.5 -8t6.5 -19q0 -23 -37 -35t-73 -12q-45 0 -75 31t-30 76q0 41 16 92q-101 11 -156 82.5t-55 187.5q0 123 65 196.5t180 73.5q109 0 170.5 -71t61.5 -161q0 -30 -16.5 -43t-60.5 -13
h-311q0 -86 43 -138t118 -52q44 0 77.5 18.5t64.5 66.5q21 34 42 34q14 0 23.5 -10t9.5 -23q0 -18 -12 -41.5t-35 -47.5t-64 -41.5t-91 -19.5zM134 302h299q-4 77 -44 120.5t-103 43.5q-62 0 -103.5 -43.5t-48.5 -120.5z" />
    <glyph glyph-name="Ecaron" unicode="&#x11a;" horiz-adv-x="635" 
d="M516 639h-333v-230h306q37 0 50.5 -9t13.5 -29q0 -13 -3.5 -20t-18 -13t-42.5 -6h-306v-255h347q40 0 53 -9t13 -29q0 -21 -13.5 -30t-52.5 -9h-363q-58 4 -66 11q-10 7 -12 48q-2 15 -2 21v556q0 53 13 66.5t67 13.5h349q39 0 52.5 -9t13.5 -29q0 -21 -13.5 -30
t-52.5 -9zM271 872l46 -58l45 58q16 21 25 26.5t25 6.5h25.5t13.5 -1t6 -2t1 -4q-3 -9 -17 -27l-40 -51q-31 -39 -43 -47.5t-43 -7.5q-28 0 -39 7.5t-42 47.5l-42 53q-15 18 -15 24q0 8 16 8h9q33 0 40 -2.5t20 -19.5l2 -2t2 -2.5t2.5 -3t2.5 -3.5z" />
    <glyph glyph-name="ecaron" unicode="&#x11b;" horiz-adv-x="563" 
d="M444 242h-311q2 -92 45.5 -141t116.5 -49q57 0 86 23q9 8 29 33t38 44t30 19q14 0 23.5 -10t9.5 -23q0 -18 -14 -42t-40 -49t-70 -42t-96 -17q-117 0 -182 72.5t-65 199.5q0 124 65 197t180 73q109 0 170.5 -70.5t61.5 -161.5q0 -18 -3.5 -28t-21.5 -19t-52 -9zM134 302
h298q-3 78 -42.5 121t-103.5 43q-62 0 -103 -43t-49 -121zM237 680l46 -58l45 58q16 21 25 26.5t25 6.5h25.5t13.5 -1t6 -2t1 -4q-3 -9 -17 -27l-40 -51q-31 -39 -43 -47.5t-43 -7.5q-28 0 -39 7.5t-42 47.5l-42 53q-15 18 -15 24q0 8 16 8h9q33 0 40 -2.5t20 -19.5
q6 -7 9 -11z" />
    <glyph glyph-name="Gcircumflex" unicode="&#x11c;" horiz-adv-x="781" 
d="M628 132v155h-157q-40 0 -53.5 9t-13.5 29q0 39 57 39h180q50 -2 64 -14t14 -55v-157q0 -33 -8 -46q-7 -11 -40.5 -33.5t-104.5 -46.5t-148 -24q-171 0 -268 99.5t-97 267.5t97 270.5t265 102.5q66 0 122.5 -20t90.5 -50.5t53 -63t19 -60.5q0 -42 -47 -42q-23 0 -47 43
q-64 116 -199 116q-117 0 -186.5 -80t-69.5 -210q0 -140 69.5 -218t197.5 -78q110 0 210 67zM458 794l-46 58l-45 -58q-18 -22 -25.5 -27.5t-24.5 -5.5q-33 0 -39.5 1t-6.5 5q0 6 17 28l40 51q30 39 42.5 47t43.5 8q27 0 38.5 -8t42.5 -47l42 -53q15 -18 15 -24q0 -8 -16 -8
q-44 0 -50.5 2.5t-27.5 30.5z" />
    <glyph glyph-name="gcircumflex" unicode="&#x11d;" horiz-adv-x="615" 
d="M457 436v40q0 54 42 54q14 0 21 -3t14 -21t7 -54v-396q0 -84 -15 -139t-80 -92.5t-159 -37.5q-101 0 -161 45t-60 91q0 15 11.5 26t28.5 11q16 0 22 -6t29 -41q36 -58 130 -58q75 0 123 36q44 33 44 158v24q-80 -81 -177 -81q-112 0 -172.5 77t-60.5 191q0 117 62 193.5
t167 76.5q114 0 184 -94zM133 259q0 -94 43.5 -146.5t116.5 -52.5q71 0 116 52t45 143q0 96 -44 151.5t-117 55.5q-72 0 -116 -52.5t-44 -150.5zM354 602l-46 58l-45 -58q-18 -22 -25.5 -27.5t-24.5 -5.5q-33 0 -39.5 1t-6.5 5q0 6 17 28l40 51q30 39 42.5 47t43.5 8
q27 0 38.5 -8t42.5 -47l42 -53q15 -18 15 -24q0 -8 -16 -8q-44 0 -50.5 2.5t-27.5 30.5z" />
    <glyph glyph-name="Gbreve" unicode="&#x11e;" horiz-adv-x="781" 
d="M628 132v155h-157q-40 0 -53.5 9t-13.5 29q0 39 57 39h180q50 -2 64 -14t14 -55v-157q0 -33 -8 -46q-7 -11 -40.5 -33.5t-104.5 -46.5t-148 -24q-171 0 -268 99.5t-97 267.5t97 270.5t265 102.5q66 0 122.5 -20t90.5 -50.5t53 -63t19 -60.5q0 -42 -47 -42q-23 0 -47 43
q-64 116 -199 116q-117 0 -186.5 -80t-69.5 -210q0 -140 69.5 -218t197.5 -78q110 0 210 67zM247 887q0 29 33 29q19 0 27 -23q18 -58 84 -58q65 0 84 58q8 23 26 23q33 0 33 -30q0 -40 -41.5 -76t-101.5 -36t-102 36.5t-42 76.5z" />
    <glyph glyph-name="gbreve" unicode="&#x11f;" horiz-adv-x="615" 
d="M457 436v40q0 54 42 54q14 0 21 -3t14 -21t7 -54v-396q0 -84 -15 -139t-80 -92.5t-159 -37.5q-101 0 -161 45t-60 91q0 15 11.5 26t28.5 11q16 0 22 -6t29 -41q36 -58 130 -58q75 0 123 36q44 33 44 158v24q-80 -81 -177 -81q-112 0 -172.5 77t-60.5 191q0 117 62 193.5
t167 76.5q114 0 184 -94zM133 259q0 -94 43.5 -146.5t116.5 -52.5q71 0 116 52t45 143q0 96 -44 151.5t-117 55.5q-72 0 -116 -52.5t-44 -150.5zM164 684q0 29 33 29q19 0 27 -23q18 -58 84 -58q65 0 84 58q8 23 26 23q33 0 33 -30q0 -40 -41.5 -76t-101.5 -36t-102 36.5
t-42 76.5z" />
    <glyph glyph-name="Gdotaccent" unicode="&#x120;" horiz-adv-x="781" 
d="M628 132v155h-157q-40 0 -53.5 9t-13.5 29q0 39 57 39h180q50 -2 64 -14t14 -55v-157q0 -33 -8 -46q-7 -11 -40.5 -33.5t-104.5 -46.5t-148 -24q-171 0 -268 99.5t-97 267.5t97 270.5t265 102.5q66 0 122.5 -20t90.5 -50.5t53 -63t19 -60.5q0 -42 -47 -42q-23 0 -47 43
q-64 116 -199 116q-117 0 -186.5 -80t-69.5 -210q0 -140 69.5 -218t197.5 -78q110 0 210 67zM415 873q19 0 33 -14t14 -33t-14 -33t-33 -14q-20 0 -33.5 14t-13.5 33t13.5 33t33.5 14z" />
    <glyph glyph-name="gdotaccent" unicode="&#x121;" horiz-adv-x="615" 
d="M457 436v40q0 54 42 54q14 0 21 -3t14 -21t7 -54v-396q0 -84 -15 -139t-80 -92.5t-159 -37.5q-101 0 -161 45t-60 91q0 15 11.5 26t28.5 11q16 0 22 -6t29 -41q36 -58 130 -58q75 0 123 36q44 33 44 158v24q-80 -81 -177 -81q-112 0 -172.5 77t-60.5 191q0 117 62 193.5
t167 76.5q114 0 184 -94zM133 259q0 -94 43.5 -146.5t116.5 -52.5q71 0 116 52t45 143q0 96 -44 151.5t-117 55.5q-72 0 -116 -52.5t-44 -150.5zM283 687q19 0 33 -14t14 -33t-14 -33t-33 -14q-20 0 -33.5 14t-13.5 33t13.5 33t33.5 14z" />
    <glyph glyph-name="Gcommaaccent" unicode="&#x122;" horiz-adv-x="781" 
d="M628 132v155h-157q-40 0 -53.5 9t-13.5 29q0 39 57 39h180q50 -2 64 -14t14 -55v-157q0 -33 -8 -46q-7 -11 -40.5 -33.5t-104.5 -46.5t-148 -24q-171 0 -268 99.5t-97 267.5t97 270.5t265 102.5q66 0 122.5 -20t90.5 -50.5t53 -63t19 -60.5q0 -42 -47 -42q-23 0 -47 43
q-64 116 -199 116q-117 0 -186.5 -80t-69.5 -210q0 -140 69.5 -218t197.5 -78q110 0 210 67zM363 -193q-60 0 -60 27q0 21 37 21q99 0 99 40q0 13 -15 23.5t-35 10.5q-21 0 -27 4t-6 17q0 21 38 21q50 0 83.5 -21.5t33.5 -58.5q0 -38 -39 -61t-109 -23z" />
    <glyph glyph-name="gcommaaccent" unicode="&#x123;" horiz-adv-x="615" 
d="M284 659q21 -1 35.5 -12t14.5 -29t-14.5 -30t-34.5 -12q-54 0 -54 61q0 42 24 75t49 33q21 0 21 -18q0 -9 -12 -18q-28 -22 -29 -50zM457 436v40q0 54 42 54q23 0 32.5 -15.5t9.5 -62.5v-395q0 -112 -25 -161q-56 -109 -230 -109q-100 0 -160 44.5t-60 91.5
q0 15 11.5 25.5t28.5 10.5q20 0 37 -24q33 -50 60 -66t86 -16q39 0 67.5 6t47 20.5t29.5 30t16 44t6.5 53.5t1.5 66q-79 -81 -178 -81q-114 0 -174.5 78.5t-60.5 187.5q0 120 62 196t167 76q114 0 184 -94zM133 259q0 -94 43.5 -146.5t116.5 -52.5q70 0 116 52t46 143
q0 99 -44.5 153t-118.5 54q-71 0 -115 -52.5t-44 -150.5z" />
    <glyph glyph-name="Hcircumflex" unicode="&#x124;" horiz-adv-x="729" 
d="M177 649v-235h375v236q0 28 5.5 45.5t15 23.5t15 7.5t13.5 1.5q30 0 38.5 -18.5t8.5 -59.5v-584q0 -44 -11 -61t-36 -17q-9 0 -14.5 1.5t-15 7.5t-14.5 23.5t-5 45.5v271h-375v-270q0 -44 -11 -61.5t-38 -17.5t-37 16t-10 63v582q0 46 10.5 62.5t36.5 16.5t37.5 -17.5
t11.5 -61.5zM411 794l-46 58l-45 -58q-18 -22 -25.5 -27.5t-24.5 -5.5q-34 0 -40 1t-6 5q0 6 17 28l40 51q30 39 42.5 47t43.5 8q27 0 38.5 -8t42.5 -47l42 -53q15 -18 15 -24q0 -8 -16 -8q-44 0 -50.5 2.5t-27.5 30.5z" />
    <glyph glyph-name="hcircumflex" unicode="&#x125;" horiz-adv-x="573" 
d="M503 333v-273q0 -44 -10.5 -58t-34.5 -14t-33 15.5t-9 56.5v252q0 147 -108 147q-45 0 -82 -25t-51 -65q-14 -36 -14 -137v-173q0 -24 -4.5 -40t-12.5 -22t-14 -7.5t-14 -1.5q-13 0 -20.5 3t-14.5 20t-7 49v596q0 43 10 57.5t32 14.5q10 0 16.5 -2t14 -8t11 -21.5
t3.5 -40.5v-212q66 86 163 86q76 0 127.5 -47.5t51.5 -149.5zM333 805l-46 58l-45 -58q-18 -22 -25.5 -27.5t-24.5 -5.5q-34 0 -40 1t-6 5q0 6 17 28l40 51q30 39 42.5 47t43.5 8q27 0 38.5 -8t42.5 -47l42 -53q15 -18 15 -24q0 -8 -16 -8q-44 0 -50.5 2.5t-27.5 30.5z" />
    <glyph glyph-name="Hbar" unicode="&#x126;" horiz-adv-x="729" 
d="M176 586h378v63q0 46 11 62.5t36 16.5t36 -16.5t11 -62.5v-63q53 -2 53 -32q0 -32 -53 -32v-456q0 -46 -11 -62t-36 -16t-36 16t-11 62v270h-378v-270q0 -45 -11.5 -61.5t-36.5 -16.5t-36 16t-11 62v456q-53 0 -53 32q0 30 53 32v63q0 46 11 62.5t36 16.5t36.5 -16.5
t11.5 -62.5v-63zM554 417v105h-378v-105h378z" />
    <glyph glyph-name="hbar" unicode="&#x127;" horiz-adv-x="573" 
d="M74 60v522q-42 0 -56 6t-14 23t14 23t56 6v16q0 41 9 56.5t33 15.5q25 0 35 -14.5t10 -57.5v-16h112q37 0 49 -7t12 -22t-12 -22t-49 -7h-112v-138q68 86 163 86q83 0 131 -48.5t48 -148.5v-273q0 -42 -9.5 -57t-35.5 -15q-23 0 -32 15t-9 57v252q0 146 -109 146
q-46 0 -82 -25.5t-51 -65.5q-14 -40 -14 -135v-172q0 -42 -11 -57t-34 -15q-22 0 -32 15t-10 57z" />
    <glyph glyph-name="Itilde" unicode="&#x128;" horiz-adv-x="292" 
d="M194 649v-582q0 -48 -12 -63.5t-36 -15.5q-27 0 -37.5 17t-10.5 62v582q0 46 11.5 62.5t36.5 16.5q29 0 38.5 -18.5t9.5 -60.5zM71 827q-11 0 -25.5 -23t-21.5 -23q-27 0 -27 33q0 29 19.5 50.5t48.5 21.5q27 0 87 -21t65 -21q16 0 30 22.5t22 22.5q10 0 17.5 -9t7.5 -23
q0 -28 -20 -50t-52 -22q-8 0 -73 21t-78 21z" />
    <glyph glyph-name="itilde" unicode="&#x129;" horiz-adv-x="240" 
d="M164 459v-400q0 -39 -10 -55t-34 -16q-22 0 -33 14.5t-11 56.5v400q0 24 4 39.5t12 22t14 8t15 1.5q25 0 34 -15t9 -56zM46 623q-11 0 -25.5 -23t-21.5 -23q-27 0 -27 33q0 29 19.5 50.5t48.5 21.5q27 0 87 -21t65 -21q16 0 30 22.5t22 22.5q10 0 17.5 -9t7.5 -23
q0 -28 -20 -50t-52 -22q-8 0 -73 21t-78 21z" />
    <glyph glyph-name="Imacron" unicode="&#x12a;" horiz-adv-x="292" 
d="M194 649v-582q0 -48 -12 -63.5t-36 -15.5q-27 0 -37.5 17t-10.5 62v582q0 46 11.5 62.5t36.5 16.5q29 0 38.5 -18.5t9.5 -60.5zM42 858h207q30 0 39.5 -7.5t9.5 -26.5q0 -26 -9.5 -32.5t-39.5 -6.5h-207q-30 0 -39.5 7.5t-9.5 26.5q0 26 9.5 32.5t39.5 6.5z" />
    <glyph glyph-name="imacron" unicode="&#x12b;" horiz-adv-x="240" 
d="M164 459v-400q0 -39 -10 -55t-34 -16q-22 0 -33 14.5t-11 56.5v400q0 24 4 39.5t12 22t14 8t15 1.5q25 0 34 -15t9 -56zM16 654h207q30 0 39.5 -7.5t9.5 -26.5q0 -26 -9.5 -32.5t-39.5 -6.5h-207q-30 0 -39.5 7.5t-9.5 26.5q0 26 9.5 32.5t39.5 6.5z" />
    <glyph glyph-name="Ibreve" unicode="&#x12c;" horiz-adv-x="292" 
d="M194 649v-582q0 -48 -12 -63.5t-36 -15.5q-27 0 -37.5 17t-10.5 62v582q0 46 11.5 62.5t36.5 16.5q29 0 38.5 -18.5t9.5 -60.5zM2 876q0 29 33 29q19 0 27 -23q18 -58 84 -58q65 0 84 58q8 23 26 23q33 0 33 -30q0 -40 -41.5 -76t-101.5 -36t-102 36.5t-42 76.5z" />
    <glyph glyph-name="ibreve" unicode="&#x12d;" horiz-adv-x="240" 
d="M164 459v-400q0 -39 -10 -55t-34 -16q-22 0 -33 14.5t-11 56.5v400q0 24 4 39.5t12 22t14 8t15 1.5q25 0 34 -15t9 -56zM-23 701q0 29 33 29q19 0 27 -23q18 -58 84 -58q65 0 84 58q8 23 26 23q33 0 33 -30q0 -40 -41.5 -76t-101.5 -36t-102 36.5t-42 76.5z" />
    <glyph glyph-name="Iogonek" unicode="&#x12e;" horiz-adv-x="292" 
d="M167 -7q-7 -35 -7 -56q0 -34 19.5 -54.5t57.5 -20.5q9 0 28 4t22 4q25 0 25 -26q0 -21 -35 -34.5t-71 -13.5q-47 0 -78 28.5t-31 75.5q0 44 18 100q-10 9 -13.5 21t-3.5 46v582q0 46 11.5 62.5t36.5 16.5t36 -16.5t11 -62.5v-582q0 -39 -4.5 -52.5t-21.5 -21.5z" />
    <glyph glyph-name="iogonek" unicode="&#x12f;" horiz-adv-x="240" 
d="M168 665q0 -20 -14 -34.5t-34 -14.5t-34.5 14.5t-14.5 34.5t14.5 34t34.5 14t34 -14t14 -34zM144 -5q-5 -42 -5 -58q0 -38 19.5 -59t50.5 -21q9 0 31 4t27 4q24 0 24 -26q0 -23 -38 -36t-72 -13q-45 0 -75 31.5t-30 76.5q0 60 18 97q-11 9 -14.5 20.5t-3.5 43.5v399
q0 42 10.5 57t33.5 15q43 0 43 -59v-148.5v-121t-0.5 -86t-0.5 -58.5v-25q0 -25 -18 -37z" />
    <glyph glyph-name="Idotaccent" unicode="&#x130;" horiz-adv-x="292" 
d="M194 649v-582q0 -48 -12 -63.5t-36 -15.5q-27 0 -37.5 17t-10.5 62v582q0 46 11.5 62.5t36.5 16.5q29 0 38.5 -18.5t9.5 -60.5zM146 873q19 0 33 -14t14 -33t-14 -33t-33 -14q-20 0 -33.5 14t-13.5 33t13.5 33t33.5 14z" />
    <glyph glyph-name="dotlessi" unicode="&#x131;" horiz-adv-x="240" 
d="M164 459v-400q0 -34 -4 -43q-9 -28 -40 -28q-20 0 -30.5 12.5t-12 25t-1.5 33.5v400q0 45 12 58q13 13 33 13q26 0 37 -20q6 -11 6 -51z" />
    <glyph glyph-name="IJ" unicode="&#x132;" horiz-adv-x="735" 
d="M189 648v-581q0 -46 -11.5 -62.5t-36.5 -16.5t-36 16.5t-11 62.5v581q0 46 11 63t36 17t36.5 -16.5t11.5 -63.5zM560 218v430q0 47 11 63.5t37 16.5q25 0 36 -16.5t11 -63.5v-422q0 -130 -53.5 -184t-156.5 -54q-109 0 -158.5 59.5t-49.5 142.5q0 49 45 49q35 0 44 -49
q13 -72 42.5 -98.5t75.5 -26.5q66 0 91 41t25 112z" />
    <glyph glyph-name="ij" unicode="&#x133;" horiz-adv-x="490" 
d="M169 665q0 -20 -14 -34.5t-34 -14.5t-34 14.5t-14 34.5t14 34t34 14t34 -14t14 -34zM414 665q0 -20 -14.5 -34.5t-34.5 -14.5q-19 0 -33.5 14.5t-14.5 34.5t14.5 34t33.5 14q20 0 34.5 -14t14.5 -34zM165 458v-399q0 -40 -9.5 -55.5t-34.5 -15.5q-24 0 -33.5 15.5
t-9.5 55.5v400q0 41 10 56t33 15t33.5 -15t10.5 -57zM322 -29v488q0 41 10.5 56t33.5 15t33 -14.5t10 -56.5v-488q0 -79 -10 -108q-11 -32 -43 -52t-79 -20q-82 0 -82 45q0 35 39 35q2 0 16.5 -1.5t20.5 -1.5q28 0 39.5 21.5t11.5 81.5z" />
    <glyph glyph-name="Jcircumflex" unicode="&#x134;" horiz-adv-x="531" 
d="M348 218v431q0 45 11.5 62t36.5 17q29 0 38.5 -19t9.5 -60v-424q0 -125 -53 -181t-158 -56q-57 0 -98.5 18t-64.5 48t-33.5 64.5t-10.5 72.5q0 48 45 48q22 0 29 -12t18 -57q22 -105 114 -105q116 0 116 153zM440 805l-46 58l-45 -58q-18 -22 -25.5 -27.5t-24.5 -5.5
q-33 0 -39.5 1t-6.5 5q0 6 17 28l40 51q30 39 42.5 47t43.5 8q27 0 38.5 -8t42.5 -47l42 -53q15 -18 15 -24q0 -8 -16 -8q-44 0 -50.5 2.5t-27.5 30.5z" />
    <glyph glyph-name="jcircumflex" unicode="&#x135;" horiz-adv-x="240" 
d="M164 602l-43 57l-44 -57q-18 -23 -26 -28t-25 -5q-35 0 -41 1t-6 6q0 2 7 12l50 65q31 40 40 46q14 9 46 9q26 0 36.5 -7t44.5 -48l42 -51q15 -20 15 -25q0 -8 -17 -8h-8q-36 -1 -43.5 2.5t-27.5 30.5zM77 -29v488q0 41 10 56t33 15t33.5 -14.5t10.5 -56.5v-488
q0 -79 -10 -108q-11 -32 -43 -52t-79 -20q-82 0 -82 45q0 35 39 35q3 0 17.5 -1.5t19.5 -1.5q28 0 39.5 21t11.5 82z" />
    <glyph glyph-name="Kcommaaccent" unicode="&#x136;" horiz-adv-x="698" 
d="M183 649v-290l354 339l4 4q25 24 35 25q5 1 11 1q18 0 31 -13t13 -28q0 -23 -28 -48l-230 -212l256 -335q30 -41 30 -60t-14.5 -31.5t-34.5 -12.5q-18 0 -29 8.5t-35 42.5l-238 327l-125 -116v-204q0 -58 -47 -58q-28 0 -38.5 16t-10.5 63v582q0 46 11.5 62.5t36.5 16.5
q29 0 38.5 -19t9.5 -60zM309 -193q-60 0 -60 27q0 21 37 21q99 0 99 40q0 13 -15 23.5t-35 10.5q-21 0 -27 4t-6 17q0 21 38 21q50 0 83.5 -21.5t33.5 -58.5q0 -38 -39 -61t-109 -23z" />
    <glyph glyph-name="kcommaaccent" unicode="&#x137;" horiz-adv-x="531" 
d="M404 30l-160 239l-76 -70v-138q0 -44 -10 -58.5t-35 -14.5q-26 0 -34 16.5t-8 59.5v580q0 49 10.5 66.5t33.5 17.5q25 0 34 -15.5t9 -60.5v-354l208 200q24 23 32 28.5t18 5.5q16 0 28.5 -12t12.5 -27q0 -14 -28 -41l-135 -127l167 -241q27 -39 27 -56q0 -15 -14 -27.5
t-30 -12.5q-14 0 -23.5 8t-26.5 34zM230 -193q-60 0 -60 27q0 21 37 21q99 0 99 40q0 13 -15 23.5t-35 10.5q-21 0 -27 4t-6 17q0 21 38 21q50 0 83.5 -21.5t33.5 -58.5q0 -38 -39 -61t-109 -23z" />
    <glyph glyph-name="kgreenlandic" unicode="&#x138;" horiz-adv-x="531" 
d="M244 269l-76 -70v-138q0 -14 -0.5 -21.5t-2.5 -19t-6.5 -17.5t-13.5 -10.5t-22 -4.5q-15 0 -24 5t-12.5 18t-4.5 23t-1 30v382q0 19 1 29.5t4.5 25.5t13 22t25.5 7q26 0 34.5 -16.5t8.5 -59.5v-156l208 198q24 24 31.5 29t18.5 5q17 0 29 -12t12 -27t-28 -41l-135 -125
l167 -241q27 -39 27 -56t-14 -28.5t-30 -11.5q-14 0 -24.5 9t-25.5 33z" />
    <glyph glyph-name="Lacute" unicode="&#x139;" horiz-adv-x="573" 
d="M180 649v-572h303q40 0 53.5 -9.5t13.5 -29.5t-12.5 -29t-54.5 -9h-319q-56 0 -68 12t-12 68v569q0 46 10.5 62.5t36.5 16.5q27 0 38 -16.5t11 -62.5zM191 809l25 49q6 11 9.5 17t6.5 12t7 8.5t5.5 5t8.5 3t8.5 0.5h12h14.5h24q30 0 30 -8q0 -9 -61 -70t-78 -61
q-22 0 -22 18q0 7 10 26z" />
    <glyph glyph-name="lacute" unicode="&#x13a;" horiz-adv-x="240" 
d="M164 656v-597q0 -31 -8 -48t-16 -20t-20 -3q-14 0 -21.5 2.5t-14.5 19t-7 49.5v597q0 41 10 56.5t33 15.5q24 0 34 -15t10 -57zM75 813l25 49q6 11 9.5 17t6.5 12t7 8.5t5.5 5t8.5 3t8.5 0.5h12h14.5h24q30 0 30 -8q0 -9 -61 -70t-78 -61q-22 0 -22 18q0 7 10 26z" />
    <glyph glyph-name="Lcommaaccent" unicode="&#x13b;" horiz-adv-x="573" 
d="M180 649v-572h303q40 0 53.5 -9.5t13.5 -29.5t-12.5 -29t-54.5 -9h-319q-56 0 -68 12t-12 68v569q0 46 10.5 62.5t36.5 16.5q27 0 38 -16.5t11 -62.5zM251 -193q-60 0 -60 27q0 21 37 21q99 0 99 40q0 13 -15 23.5t-35 10.5q-21 0 -27 4t-6 17q0 21 38 21
q50 0 83.5 -21.5t33.5 -58.5q0 -38 -39 -61t-109 -23z" />
    <glyph glyph-name="lcommaaccent" unicode="&#x13c;" horiz-adv-x="240" 
d="M164 656v-597q0 -31 -8 -48t-16 -20t-20 -3q-14 0 -21.5 2.5t-14.5 19t-7 49.5v597q0 41 10 56.5t33 15.5q24 0 34 -15t10 -57zM76 -193q-60 0 -60 27q0 21 37 21q99 0 99 40q0 13 -15 23.5t-35 10.5q-21 0 -27 4t-6 17q0 21 38 21q50 0 83.5 -21.5t33.5 -58.5
q0 -38 -39 -61t-109 -23z" />
    <glyph glyph-name="Lcaron" unicode="&#x13d;" horiz-adv-x="573" 
d="M180 649v-572h303q40 0 53.5 -9.5t13.5 -29.5t-12.5 -29t-54.5 -9h-319q-56 0 -68 12t-12 68v569q0 46 10.5 62.5t36.5 16.5q27 0 38 -16.5t11 -62.5zM307 616q-26 1 -42 16.5t-16 38.5q0 24 17 40.5t41 16.5q61 0 61 -82q0 -56 -26.5 -102t-57.5 -46q-9 0 -16 8t-7 17
q0 4 22.5 34t23.5 59z" />
    <glyph glyph-name="lcaron" unicode="&#x13e;" horiz-adv-x="240" 
d="M163 656v-596q0 -42 -10 -57t-33 -15t-33.5 15t-10.5 57v596q0 42 10.5 57t33.5 15t33 -15t10 -57zM273 616q-24 0 -41 15.5t-17 39.5t17 40.5t40 16.5q28 0 45 -21t17 -61q0 -55 -27.5 -101t-56.5 -46q-9 0 -16 7t-7 17q0 12 13 24q33 30 33 69z" />
    <glyph glyph-name="Ldot" unicode="&#x13f;" horiz-adv-x="573" 
d="M180 649v-572h303q40 0 53.5 -9.5t13.5 -29.5t-12.5 -29t-54.5 -9h-319q-56 0 -68 12t-12 68v569q0 46 10.5 62.5t36.5 16.5q27 0 38 -16.5t11 -62.5zM409 377q0 -20 -14 -34t-33 -14q-20 0 -33.5 14t-13.5 34q0 19 14 33t33 14t33 -14t14 -33z" />
    <glyph glyph-name="ldot" unicode="&#x140;" horiz-adv-x="262" 
d="M163 656v-596q0 -42 -10 -57t-33 -15t-33.5 15t-10.5 57v596q0 42 10.5 57t33.5 15t33 -15t10 -57zM296 365q0 -20 -14 -33.5t-33 -13.5q-20 0 -33.5 13.5t-13.5 33.5q0 19 13.5 33t33.5 14q19 0 33 -14t14 -33z" />
    <glyph glyph-name="Lslash" unicode="&#x141;" horiz-adv-x="573" 
d="M180 408l93 79q24 20 35 20q12 0 21.5 -11t9.5 -20q0 -10 -4.5 -15.5t-21.5 -20.5l-133 -113v-250h303q22 0 32.5 -1t22.5 -10t12 -28q0 -14 -5 -22.5t-18 -11.5t-19.5 -3.5t-24.5 -0.5h-319q-54 0 -67 12.5t-13 67.5v167q-22 -18 -27.5 -22t-14.5 -4q-12 0 -21.5 11
t-9.5 20q0 10 4.5 16t21.5 20l47 40v321q0 52 12 64q15 15 35 15q23 0 36 -15q13 -12 13 -64v-241z" />
    <glyph glyph-name="lslash" unicode="&#x142;" horiz-adv-x="240" 
d="M19 320l45 38v297q0 48 12 59q12 14 32 14t32 -14q11 -10 11 -59v-223q24 20 30.5 24t14.5 4q12 0 20.5 -9t8.5 -21q0 -14 -25 -35l-49 -40v-294q0 -45 -7 -55l-4 -4q-12 -14 -32 -14q-17 0 -32 13q-12 12 -12 60v221q-29 -26 -41 -26t-20.5 8.5t-8.5 20.5q0 10 4.5 15.5
t20.5 19.5z" />
    <glyph glyph-name="Nacute" unicode="&#x143;" horiz-adv-x="729" 
d="M204 672l355 -530l-3 509q0 44 10 60.5t35 16.5q26 0 36.5 -16.5t10.5 -60.5v-566q0 -57 -13.5 -77t-45.5 -20q-22 0 -33 9.5t-37 48.5l-349 521l4 -502q0 -46 -10.5 -61.5t-35.5 -15.5q-28 0 -37.5 17.5t-9.5 59.5v570q0 51 11 72t46 21q20 0 30 -9t36 -47zM354 809
l25 49q6 11 9.5 17t6.5 12t7 8.5t5.5 5t8.5 3t8.5 0.5h12h14.5h24q30 0 30 -8q0 -9 -61 -70t-78 -61q-22 0 -22 18q0 7 10 26z" />
    <glyph glyph-name="nacute" unicode="&#x144;" horiz-adv-x="573" 
d="M503 331v-272q0 -41 -9.5 -56t-33.5 -15q-25 0 -34.5 15t-9.5 56v247q0 80 -27 114t-80 34q-46 0 -83 -27t-52 -67q-13 -36 -13 -136v-165q0 -24 -4 -40t-12 -22t-14 -7.5t-14 -1.5q-24 0 -33.5 15t-9.5 56v402q0 40 8.5 54.5t33.5 14.5t34 -18t9 -71q65 89 164 89
q59 0 107 -30q44 -27 58.5 -65.5t14.5 -103.5zM243 617l25 49q6 11 9.5 17t6.5 12t7 8.5t5.5 5t8.5 3t8.5 0.5h12h14.5h24q30 0 30 -8q0 -9 -61 -70t-78 -61q-22 0 -22 18q0 7 10 26z" />
    <glyph glyph-name="Ncommaaccent" unicode="&#x145;" horiz-adv-x="729" 
d="M204 672l355 -530l-3 509q0 44 10 60.5t35 16.5q26 0 36.5 -16.5t10.5 -60.5v-566q0 -57 -13.5 -77t-45.5 -20q-22 0 -33 9.5t-37 48.5l-349 521l4 -502q0 -45 -11 -61t-35 -16q-28 0 -37.5 17.5t-9.5 59.5v570q0 51 11 72t46 21q20 0 30 -9t36 -47zM301 -193
q-60 0 -60 27q0 21 37 21q99 0 99 40q0 13 -15 23.5t-35 10.5q-21 0 -27 4t-6 17q0 21 38 21q50 0 83.5 -21.5t33.5 -58.5q0 -38 -39 -61t-109 -23z" />
    <glyph glyph-name="ncommaaccent" unicode="&#x146;" horiz-adv-x="573" 
d="M503 331v-272q0 -41 -9.5 -56t-33.5 -15q-25 0 -34.5 15t-9.5 56v247q0 80 -27 114t-80 34q-46 0 -83 -27t-52 -67q-13 -36 -13 -136v-165q0 -24 -4 -40t-12 -22t-14 -7.5t-14 -1.5q-24 0 -33.5 15t-9.5 56v402q0 40 8.5 54.5t33.5 14.5t34 -18t9 -71q65 89 164 89
q59 0 107 -30q44 -27 58.5 -65.5t14.5 -103.5zM244 -193q-60 0 -60 27q0 21 37 21q99 0 99 40q0 13 -15 23.5t-35 10.5q-21 0 -27 4t-6 17q0 21 38 21q50 0 83.5 -21.5t33.5 -58.5q0 -38 -39 -61t-109 -23z" />
    <glyph glyph-name="Ncaron" unicode="&#x147;" horiz-adv-x="729" 
d="M204 672l355 -530l-3 509q0 44 10 60.5t35 16.5q26 0 36.5 -16.5t10.5 -60.5v-566q0 -57 -13.5 -77t-45.5 -20q-22 0 -33 9.5t-37 48.5l-349 521l4 -502q0 -46 -10.5 -61.5t-35.5 -15.5q-28 0 -37.5 17.5t-9.5 59.5v570q0 51 11 72t46 21q20 0 30 -9t36 -47zM326 872
l46 -58l45 58q16 21 25 26.5t25 6.5h26t13.5 -1t5.5 -2t1 -4q-3 -9 -17 -27l-40 -51q-31 -39 -43 -47.5t-43 -7.5q-28 0 -39 7.5t-42 47.5l-42 53q-15 18 -15 24q0 8 16 8h9q33 0 40 -2.5t20 -19.5l2 -2t2 -2.5t2.5 -3t2.5 -3.5z" />
    <glyph glyph-name="ncaron" unicode="&#x148;" horiz-adv-x="573" 
d="M503 331v-272q0 -41 -9.5 -56t-33.5 -15q-25 0 -34.5 15t-9.5 56v247q0 80 -27 114t-80 34q-46 0 -83 -27t-52 -67q-13 -36 -13 -136v-165q0 -24 -4 -40t-12 -22t-14 -7.5t-14 -1.5q-24 0 -33.5 15t-9.5 56v402q0 40 8.5 54.5t33.5 14.5t34 -18t9 -71q65 89 164 89
q59 0 107 -30q44 -27 58.5 -65.5t14.5 -103.5zM243 679l46 -58l45 58q16 21 25 26.5t25 6.5h25.5t13.5 -1t6 -2t1 -4q-3 -9 -17 -27l-40 -51q-31 -39 -43 -47.5t-43 -7.5q-28 0 -39 7.5t-42 47.5l-42 53q-15 18 -15 24q0 8 16 8h9q33 0 40 -2.5t20 -19.5q6 -7 9 -11z" />
    <glyph glyph-name="napostrophe" unicode="&#x149;" horiz-adv-x="687" 
d="M617 331v-272q0 -41 -9.5 -56t-33.5 -15q-25 0 -34.5 15t-9.5 56v247q0 80 -27 114t-80 34q-46 0 -83 -27t-52 -67q-13 -36 -13 -136v-165q0 -24 -4 -40t-12 -22t-14 -7.5t-14 -1.5q-24 0 -33.5 15t-9.5 56v402q0 40 8.5 54.5t33.5 14.5t34 -18t9 -71q65 89 164 89
q59 0 107 -30q44 -27 58.5 -65.5t14.5 -103.5zM87 616q-26 1 -42 16.5t-16 38.5q0 24 17 40.5t41 16.5q61 0 61 -82q0 -56 -26.5 -102t-57.5 -46q-9 0 -16 8t-7 17q0 4 22.5 34t23.5 59z" />
    <glyph glyph-name="Eng" unicode="&#x14a;" horiz-adv-x="746" 
d="M176 671v-44q44 53 100.5 77t139.5 24q128 0 201.5 -93t73.5 -267q0 -180 -65 -280t-180 -100q-52 0 -87 15.5t-35 40.5q0 18 11 31t26 13q12 0 27 -6q42 -17 62 -17q57 0 100 76t43 225q0 139 -54.5 212t-152.5 73q-64 0 -118.5 -31t-73.5 -79q-18 -47 -18 -150v-345
q0 -58 -48 -58q-21 0 -34 15t-13 43v623q0 59 48 59q47 0 47 -57z" />
    <glyph glyph-name="eng" unicode="&#x14b;" horiz-adv-x="573" 
d="M153 482v-37q57 85 174 85q99 0 137.5 -52.5t38.5 -158.5v-346q0 -98 -29 -140t-96 -42q-52 0 -73.5 10.5t-21.5 32.5q0 16 11 27.5t26 11.5q3 0 20 -3t21 -3q34 0 44.5 21t10.5 85v342q0 73 -25 106t-84 33q-63 0 -104 -39t-41 -132v-241q0 -54 -45 -54q-18 0 -30.5 13
t-12.5 41v440q0 48 40 48q16 0 27.5 -11.5t11.5 -36.5z" />
    <glyph glyph-name="Omacron" unicode="&#x14c;" horiz-adv-x="781" 
d="M392 728q158 0 248 -103.5t90 -266.5q0 -164 -89.5 -267t-246.5 -103q-164 0 -253.5 103t-89.5 267q0 165 90 267.5t251 102.5zM390 65q104 0 173 77.5t69 215.5t-70 215.5t-172 77.5t-171.5 -78t-69.5 -227q0 -123 68.5 -202t172.5 -79zM287 858h207q30 0 39.5 -7.5
t9.5 -26.5q0 -26 -9.5 -32.5t-39.5 -6.5h-207q-30 0 -39.5 7.5t-9.5 26.5q0 26 9.5 32.5t39.5 6.5z" />
    <glyph glyph-name="omacron" unicode="&#x14d;" horiz-adv-x="573" 
d="M286 530q112 0 178 -71.5t66 -199.5t-66.5 -199.5t-177.5 -71.5q-112 0 -178 72.5t-66 188.5q0 134 64 207.5t180 73.5zM287 56q72 0 113 54.5t41 148.5q0 95 -41.5 149t-112.5 54q-72 0 -114 -54.5t-42 -148.5t42 -148.5t114 -54.5zM183 672h207q30 0 39.5 -7.5
t9.5 -26.5q0 -26 -9.5 -32.5t-39.5 -6.5h-207q-30 0 -39.5 7.5t-9.5 26.5q0 26 9.5 32.5t39.5 6.5z" />
    <glyph glyph-name="Obreve" unicode="&#x14e;" horiz-adv-x="781" 
d="M392 728q158 0 248 -103.5t90 -266.5q0 -164 -89.5 -267t-246.5 -103q-164 0 -253.5 103t-89.5 267q0 165 90 267.5t251 102.5zM390 65q104 0 173 77.5t69 215.5t-70 215.5t-172 77.5t-171.5 -78t-69.5 -227q0 -123 68.5 -202t172.5 -79zM248 876q0 29 33 29q19 0 27 -23
q18 -58 84 -58q65 0 84 58q8 23 26 23q33 0 33 -30q0 -40 -41.5 -76t-101.5 -36t-102 36.5t-42 76.5z" />
    <glyph glyph-name="obreve" unicode="&#x14f;" horiz-adv-x="573" 
d="M286 530q112 0 178 -71.5t66 -199.5t-66.5 -199.5t-177.5 -71.5q-112 0 -178 72.5t-66 188.5q0 134 64 207.5t180 73.5zM287 56q72 0 113 54.5t41 148.5q0 95 -41.5 149t-112.5 54q-72 0 -114 -54.5t-42 -148.5t42 -148.5t114 -54.5zM143 701q0 29 33 29q19 0 27 -23
q18 -58 84 -58q65 0 84 58q8 23 26 23q33 0 33 -30q0 -40 -41.5 -76t-101.5 -36t-102 36.5t-42 76.5z" />
    <glyph glyph-name="Ohungarumlaut" unicode="&#x150;" horiz-adv-x="781" 
d="M392 728q158 0 248 -103.5t90 -266.5q0 -164 -89.5 -267t-246.5 -103q-164 0 -253.5 103t-89.5 267q0 165 90 267.5t251 102.5zM390 65q104 0 173 77.5t69 215.5t-70 215.5t-172 77.5t-171.5 -78t-69.5 -227q0 -123 68.5 -202t172.5 -79zM456 809l25 49q17 36 26 41t46 5
h24q30 0 30 -8q0 -9 -60 -70t-79 -61q-22 0 -22 18q0 7 10 26zM292 809l25 49q6 11 9.5 17t6.5 12t7 8.5t5.5 5t8.5 3t8.5 0.5h12h14.5h24q30 0 30 -8q0 -9 -60 -70t-79 -61q-22 0 -22 18q0 7 10 26z" />
    <glyph glyph-name="ohungarumlaut" unicode="&#x151;" horiz-adv-x="573" 
d="M286 530q112 0 178 -71.5t66 -199.5t-66.5 -199.5t-177.5 -71.5q-112 0 -178 72.5t-66 188.5q0 134 64 207.5t180 73.5zM287 56q72 0 113 54.5t41 148.5q0 95 -41.5 149t-112.5 54q-72 0 -114 -54.5t-42 -148.5t42 -148.5t114 -54.5zM352 606l25 49q17 36 26 41t46 5h24
q30 0 30 -8q0 -9 -60 -70t-79 -61q-22 0 -22 18q0 7 10 26zM188 606l25 49q6 11 9.5 17t6.5 12t7 8.5t5.5 5t8.5 3t8.5 0.5h12h14.5h24q30 0 30 -8q0 -9 -60 -70t-79 -61q-22 0 -22 18q0 7 10 26z" />
    <glyph glyph-name="OE" unicode="&#x152;" horiz-adv-x="1010" 
d="M628 330v-253h295q21 0 31.5 -1t22.5 -10t12 -28q0 -18 -11.5 -27t-22 -10t-32.5 -1h-341q-18 0 -26.5 7t-10 16.5t-1.5 33.5v34q-15 -19 -26 -31t-36.5 -31.5t-61.5 -30t-81 -10.5q-134 0 -212 99t-78 270q0 174 77.5 272.5t210.5 98.5q45 0 81.5 -10.5t62 -29.5
t37.5 -32t26 -31v18q0 52 7.5 62.5t48.5 10.5h307q22 0 33 -1t23 -10t12 -28q0 -18 -10.5 -27t-21 -10t-30.5 -1h-6h-279v-232h255q16 0 23.5 -0.5t19.5 -3.5t17.5 -11.5t5.5 -22.5q0 -19 -11.5 -28t-22 -10t-32.5 -1h-255zM535 313v103q0 41 -6.5 76.5t-24 74t-56.5 61.5
t-96 23q-42 0 -75.5 -14t-54.5 -34.5t-36.5 -51.5t-22.5 -56t-11 -57.5t-4.5 -47t-0.5 -32.5q0 -122 39 -193q55 -100 167 -100q50 0 92.5 24t64.5 73q25 53 25 151z" />
    <glyph glyph-name="oe" unicode="&#x153;" horiz-adv-x="948" 
d="M825 241h-298q10 -190 151 -190q96 0 142 89q6 11 9 16t10.5 10t17.5 5q14 0 22 -10t8 -23t-9.5 -34.5t-30 -49t-65 -47t-103.5 -19.5q-56 0 -99.5 17.5t-61 35t-35.5 42.5q-80 -95 -194 -95t-178 77t-64 192q0 30 5 61t20.5 71t40.5 69.5t70.5 50.5t104.5 21
q120 0 195 -97q68 97 189 97q63 0 111 -24t73 -61.5t37 -76t12 -75.5q0 -19 -6 -30t-19.5 -15.5t-23.5 -5.5t-31 -1zM526 300h292q-5 69 -28 105q-16 25 -47 42t-70 17q-58 0 -101 -42t-46 -122zM292 56q65 0 108 52t43 150q0 27 -5 55t-19 65t-47 60.5t-82 23.5
q-74 0 -115 -56.5t-41 -146.5q0 -89 41 -146t117 -57z" />
    <glyph glyph-name="Racute" unicode="&#x154;" horiz-adv-x="688" 
d="M266 321h-84v-253q0 -46 -12 -63t-37 -17q-29 0 -38 18.5t-9 61.5v568q0 56 12.5 68t67.5 12h229q118 0 175 -55.5t57 -139.5q0 -158 -191 -191q19 -11 27.5 -16.5t25 -21.5t34.5 -40l31 -42l65 -109q33 -55 33 -72q0 -18 -13 -30t-31 -12q-21 0 -31 9.5t-39 55.5
l-68 108q-37 58 -63 91t-50.5 48t-41.5 18.5t-49 3.5zM352 642h-170v-244h167q180 0 180 124q0 120 -177 120zM299 809l25 49q6 11 9.5 17t6.5 12t7 8.5t5.5 5t8.5 3t8.5 0.5h12h14.5h24q30 0 30 -8q0 -9 -61 -70t-78 -61q-22 0 -22 18q0 7 10 26z" />
    <glyph glyph-name="racute" unicode="&#x155;" horiz-adv-x="375" 
d="M77 59v416q0 32 9 43.5t29 11.5q18 0 27.5 -11t9.5 -44v-40q35 57 62 76t64 19q38 0 70.5 -17.5t32.5 -41.5q0 -16 -11.5 -28t-23.5 -12q-5 0 -30.5 7.5t-41.5 7.5q-57 0 -83.5 -51t-26.5 -169v-188q0 -50 -43 -50q-25 0 -34.5 15t-9.5 56zM159 622l25 49q6 11 9.5 17
t6.5 12t7 8.5t5.5 5t8.5 3t8.5 0.5h12h14.5h24q30 0 30 -8q0 -9 -61 -70t-78 -61q-22 0 -22 18q0 7 10 26z" />
    <glyph glyph-name="Rcommaaccent" unicode="&#x156;" horiz-adv-x="688" 
d="M266 321h-84v-253q0 -46 -12 -63t-37 -17q-29 0 -38 18.5t-9 61.5v568q0 56 12.5 68t67.5 12h229q118 0 175 -55.5t57 -139.5q0 -158 -191 -191q19 -11 27.5 -16.5t25 -21.5t34.5 -40l31 -42l65 -109q33 -55 33 -72q0 -18 -13 -30t-31 -12q-21 0 -31 9.5t-39 55.5
l-68 108q-37 58 -63 91t-50.5 48t-41.5 18.5t-49 3.5zM352 642h-170v-244h167q180 0 180 124q0 120 -177 120zM279 -193q-60 0 -60 27q0 21 37 21q99 0 99 40q0 13 -15 23.5t-35 10.5q-21 0 -27 4t-6 17q0 21 38 21q50 0 83.5 -21.5t33.5 -58.5q0 -38 -39 -61t-109 -23z" />
    <glyph glyph-name="rcommaaccent" unicode="&#x157;" horiz-adv-x="375" 
d="M77 59v416q0 32 9 43.5t29 11.5q18 0 27.5 -11t9.5 -44v-40q35 57 62 76t64 19q38 0 70.5 -17.5t32.5 -41.5q0 -16 -11.5 -28t-23.5 -12q-5 0 -30.5 7.5t-41.5 7.5q-57 0 -83.5 -51t-26.5 -169v-188q0 -50 -43 -50q-25 0 -34.5 15t-9.5 56zM64 -193q-60 0 -60 27
q0 21 37 21q99 0 99 40q0 13 -15 23.5t-35 10.5q-21 0 -27 4t-6 17q0 21 38 21q50 0 83.5 -21.5t33.5 -58.5q0 -38 -39 -61t-109 -23z" />
    <glyph glyph-name="Rcaron" unicode="&#x158;" horiz-adv-x="688" 
d="M266 321h-84v-253q0 -46 -12 -63t-37 -17q-29 0 -38 18.5t-9 61.5v568q0 56 12.5 68t67.5 12h229q118 0 175 -55.5t57 -139.5q0 -158 -191 -191q19 -11 27.5 -16.5t25 -21.5t34.5 -40l31 -42l65 -109q33 -55 33 -72q0 -18 -13 -30t-31 -12q-21 0 -31 9.5t-39 55.5
l-68 108q-37 58 -63 91t-50.5 48t-41.5 18.5t-49 3.5zM352 642h-170v-244h167q180 0 180 124q0 120 -177 120zM268 872l46 -58l45 58q16 21 25 26.5t25 6.5h26t13.5 -1t5.5 -2t1 -4q-3 -9 -17 -27l-40 -51q-31 -39 -43 -47.5t-43 -7.5q-28 0 -39 7.5t-42 47.5l-42 53
q-15 18 -15 24q0 8 16 8h9q33 0 40 -2.5t20 -19.5l2 -2t2 -2.5t2.5 -3t2.5 -3.5z" />
    <glyph glyph-name="rcaron" unicode="&#x159;" horiz-adv-x="375" 
d="M77 59v416q0 32 9 43.5t29 11.5q18 0 27.5 -11t9.5 -44v-40q35 57 62 76t64 19q38 0 70.5 -17.5t32.5 -41.5q0 -16 -11.5 -28t-23.5 -12q-5 0 -30.5 7.5t-41.5 7.5q-57 0 -83.5 -51t-26.5 -169v-188q0 -50 -43 -50q-25 0 -34.5 15t-9.5 56zM183 686l46 -58l45 58
q16 21 25 26.5t25 6.5h25.5t13.5 -1t6 -2t1 -4q-3 -9 -17 -27l-40 -51q-31 -39 -43 -47.5t-43 -7.5q-28 0 -39 7.5t-42 47.5l-42 53q-15 18 -15 24q0 8 16 8h9q33 0 40 -2.5t20 -19.5q6 -7 9 -11z" />
    <glyph glyph-name="Sacute" unicode="&#x15a;" horiz-adv-x="635" 
d="M165 542q0 -21 4.5 -35t20.5 -30t50.5 -30.5t90.5 -28.5q147 -35 201 -81.5t54 -129.5q0 -97 -72 -158.5t-192 -61.5q-128 0 -198 66t-70 146q0 16 12.5 28.5t29.5 12.5q18 0 26.5 -11.5t23.5 -51.5q42 -117 170 -117q75 0 126.5 38t51.5 96q0 48 -33 78t-132 52
q-93 20 -144 41q-45 18 -78.5 61.5t-33.5 105.5q0 90 68 143t176 53q114 0 177.5 -55.5t63.5 -120.5q0 -18 -12.5 -32.5t-30.5 -14.5h-3q-11 0 -16.5 2t-14.5 16.5t-19 44.5q-15 44 -57.5 65.5t-90.5 21.5q-65 0 -107 -32.5t-42 -80.5zM307 809l25 49q6 11 9.5 17t6.5 12
t7 8.5t5.5 5t8.5 3t8.5 0.5h12h14.5h24q30 0 30 -8q0 -9 -61 -70t-78 -61q-22 0 -22 18q0 7 10 26z" />
    <glyph glyph-name="sacute" unicode="&#x15b;" horiz-adv-x="510" 
d="M132 395q0 -35 34.5 -54t128.5 -40q90 -20 131 -56.5t41 -93.5q0 -73 -56.5 -118t-161.5 -45q-98 0 -153 45t-55 98q0 15 11 25.5t27 10.5q25 0 40 -34q36 -83 136 -83q55 0 88 23.5t33 59.5q0 27 -20 50q-12 14 -114 46t-113 37q-36 17 -58 47.5t-22 68.5q0 61 51 104.5
t143 43.5q93 0 145 -41t52 -84q0 -36 -37 -36q-16 0 -23.5 7t-19.5 32q-28 60 -115 60q-51 0 -82 -20t-31 -53zM208 617l25 49q6 11 9.5 17t6.5 12t7 8.5t5.5 5t8.5 3t8.5 0.5h12h14.5h24q30 0 30 -8q0 -9 -61 -70t-78 -61q-22 0 -22 18q0 7 10 26z" />
    <glyph glyph-name="Scircumflex" unicode="&#x15c;" horiz-adv-x="635" 
d="M165 542q0 -21 4.5 -35t20.5 -30t50.5 -30.5t90.5 -28.5q147 -35 201 -81.5t54 -129.5q0 -97 -72 -158.5t-192 -61.5q-128 0 -198 66t-70 146q0 16 12.5 28.5t29.5 12.5q18 0 26.5 -11.5t23.5 -51.5q42 -117 170 -117q75 0 126.5 38t51.5 96q0 48 -33 78t-132 52
q-93 20 -144 41q-45 18 -78.5 61.5t-33.5 105.5q0 90 68 143t176 53q114 0 177.5 -55.5t63.5 -120.5q0 -18 -12.5 -32.5t-30.5 -14.5h-3q-11 0 -16.5 2t-14.5 16.5t-19 44.5q-15 44 -57.5 65.5t-90.5 21.5q-65 0 -107 -32.5t-42 -80.5zM364 794l-46 58l-45 -58
q-18 -22 -25.5 -27.5t-24.5 -5.5q-33 0 -39.5 1t-6.5 5q0 6 17 28l40 51q30 39 42.5 47t43.5 8q27 0 38.5 -8t42.5 -47l42 -53q15 -18 15 -24q0 -8 -16 -8q-44 0 -50.5 2.5t-27.5 30.5z" />
    <glyph glyph-name="scircumflex" unicode="&#x15d;" horiz-adv-x="510" 
d="M132 395q0 -35 34.5 -54t128.5 -40q90 -20 131 -56.5t41 -93.5q0 -73 -56.5 -118t-161.5 -45q-98 0 -153 45t-55 98q0 15 11 25.5t27 10.5q25 0 40 -34q36 -83 136 -83q55 0 88 23.5t33 59.5q0 27 -20 50q-12 14 -114 46t-113 37q-36 17 -58 47.5t-22 68.5q0 61 51 104.5
t143 43.5q93 0 145 -41t52 -84q0 -36 -37 -36q-16 0 -23.5 7t-19.5 32q-28 60 -115 60q-51 0 -82 -20t-31 -53zM302 602l-46 58l-45 -58q-18 -22 -25.5 -27.5t-24.5 -5.5q-33 0 -39.5 1t-6.5 5q0 6 17 28l40 51q30 39 42.5 47t43.5 8q27 0 38.5 -8t42.5 -47l42 -53
q15 -18 15 -24q0 -8 -16 -8q-44 0 -50.5 2.5t-27.5 30.5z" />
    <glyph glyph-name="Scedilla" unicode="&#x15e;" horiz-adv-x="635" 
d="M349 -12q-3 -9 -7 -29q82 -6 82 -68q0 -40 -38.5 -64t-104.5 -24q-65 0 -65 28q0 24 33 24q102 0 102 39q0 21 -39 30.5t-39 19.5q0 9 4 20l10 25q-62 6 -109.5 28.5t-73 54t-38 63.5t-12.5 64q0 16 12.5 28.5t30.5 12.5q27 0 41 -41q24 -71 61.5 -105t115.5 -34t128 38
t50 96q0 59 -39.5 85.5t-139.5 48.5q-126 27 -183.5 71.5t-57.5 132.5q0 89 67.5 142.5t176.5 53.5q113 0 177 -55t64 -121q0 -19 -12.5 -33t-30.5 -14q-32 0 -47 48q-33 102 -155 102q-65 0 -107.5 -32.5t-42.5 -80.5q0 -43 31 -71q23 -21 150.5 -58t136.5 -41
q48 -23 76.5 -67t28.5 -101q0 -87 -64.5 -148t-172.5 -68z" />
    <glyph glyph-name="scedilla" unicode="&#x15f;" horiz-adv-x="510" 
d="M280 -10v-31q78 -10 78 -68q0 -37 -38 -59.5t-107 -22.5q-63 0 -63 25q0 21 36 21h22q31 0 54 11t23 28q0 14 -14.5 24.5t-30.5 10.5h-15q-7 0 -14.5 8t-7.5 19t10 34q-77 6 -124.5 50t-47.5 91q0 15 11.5 25.5t26.5 10.5q13 0 21.5 -6.5t18.5 -28.5q37 -81 136 -81
q55 0 88 23t33 59q0 35 -26.5 56t-92.5 38q-120 31 -164 60.5t-44 94.5q0 60 49.5 104t145.5 44q92 0 144 -41t52 -84q0 -14 -10 -25t-27 -11q-25 0 -38 27q-34 73 -120 73q-50 0 -81.5 -20.5t-31.5 -53.5t32 -52.5t118 -38.5q104 -23 144.5 -59.5t40.5 -91.5
q0 -68 -49.5 -113t-137.5 -50z" />
    <glyph glyph-name="Scaron" unicode="&#x160;" horiz-adv-x="635" 
d="M586 207q0 -94 -69.5 -157t-194.5 -63q-135 0 -204 70q-29 30 -46.5 69.5t-17.5 72.5q0 16 12 28.5t30 12.5q19 0 27.5 -12t22.5 -51q7 -20 14.5 -33.5t26 -36t51.5 -35t78 -12.5q72 0 125 36t53 98q0 27 -11 48t-25 33.5t-36.5 22.5t-36.5 13.5t-35 8.5
q-104 23 -141 35.5t-69 36.5q-67 54 -67 140q0 94 70.5 145t173.5 51q159 0 218 -102q23 -41 23 -74q0 -17 -12 -32t-31 -15q-20 0 -29.5 12.5t-17.5 35.5q-17 50 -49 73q-40 29 -105 29q-67 0 -108 -33.5t-41 -79.5q0 -24 11 -43.5t24 -31t39 -22t41 -14.5t44 -11
q147 -35 197 -73q31 -23 48 -63.5t17 -76.5zM317 815l45 58q14 17 18.5 22t12 8t19.5 3q38 0 42 -2t4 -6q0 -6 -17 -26l-40 -51q-29 -38 -42 -46.5t-44 -8.5q-27 0 -40 9.5t-41 45.5l-42 53q-15 21 -15 24q0 8 16 8q36 0 43 -2q8 -1 13 -5.5t22 -25.5z" />
    <glyph glyph-name="scaron" unicode="&#x161;" horiz-adv-x="510" 
d="M467 151q0 -17 -3.5 -34.5t-17.5 -42t-36 -42.5t-64 -31t-97 -13q-107 0 -164 55q-44 44 -44 88q0 14 11 25t27 11q25 0 40 -34q36 -83 136 -83q57 0 89 24.5t32 58.5q0 18 -8 33t-18 23.5t-29.5 16.5t-30.5 11l-33 9q-78 20 -109 32t-54 31q-45 37 -45 93
q0 36 20.5 69.5t55.5 53.5q45 25 118 25q48 0 85.5 -11.5t57.5 -27t33 -34.5t17 -31.5t4 -20.5q0 -6 -2 -13t-11 -15t-24 -8q-17 0 -24.5 8t-18.5 31q-28 60 -115 60q-50 0 -81.5 -19.5t-31.5 -53.5q0 -32 31.5 -52t117.5 -39q29 -6 50 -12t49 -18.5t45 -27.5t29.5 -39.5
t12.5 -55.5zM255 628l45 58q14 17 18.5 22t12 8t19.5 3q38 0 42 -2t4 -6q0 -6 -17 -26l-40 -51q-29 -38 -42 -46.5t-44 -8.5q-27 0 -40 9.5t-41 45.5l-42 53q-15 21 -15 24q0 8 16 8q36 0 43 -2q8 -1 13 -5.5t22 -25.5z" />
    <glyph glyph-name="Tcedilla" unicode="&#x162;" horiz-adv-x="583" 
d="M502 639h-163v-572q0 -46 -11 -62.5t-37 -16.5q-29 0 -38.5 18.5t-9.5 60.5v572h-162q-40 0 -54.5 9.5t-14.5 28.5q0 20 15 29.5t54 9.5h421q39 0 54 -10t15 -29t-15 -28.5t-54 -9.5zM227 -193q-60 0 -60 27q0 21 37 21q99 0 99 40q0 13 -15 23.5t-35 10.5q-21 0 -27 4
t-6 17q0 21 38 21q50 0 83.5 -21.5t33.5 -58.5q0 -38 -39 -61t-109 -23z" />
    <glyph glyph-name="tcedilla" unicode="&#x163;" horiz-adv-x="302" 
d="M65 518h25v88q0 49 10 65.5t33 16.5q14 0 21.5 -3t15 -21t7.5 -53v-93h46q54 0 54 -31q0 -32 -51 -32h-49v-308q0 -54 11.5 -71t40.5 -17l5 1q6 0 13.5 1l15 2t12.5 1l5 1q30 0 30 -31q0 -43 -98 -43q-28 0 -46.5 4t-37.5 18t-28.5 45.5t-9.5 81.5v315h-33q-39 0 -39 32
q0 31 47 31zM145 -193q-60 0 -60 27q0 21 37 21q99 0 99 40q0 13 -15 23.5t-35 10.5q-21 0 -27 4t-6 17q0 21 38 21q50 0 83.5 -21.5t33.5 -58.5q0 -38 -39 -61t-109 -23z" />
    <glyph glyph-name="Tcaron" unicode="&#x164;" horiz-adv-x="583" 
d="M502 639h-163v-572q0 -46 -11 -62.5t-37 -16.5q-29 0 -38.5 18.5t-9.5 60.5v572h-162q-40 0 -54.5 9.5t-14.5 28.5q0 20 15 29.5t54 9.5h421q39 0 54 -10t15 -29t-15 -28.5t-54 -9.5zM257 869l46 -58l45 58q16 21 25 26.5t25 6.5h25.5t13.5 -1t6 -2t1 -4q-3 -9 -17 -27
l-40 -51q-31 -39 -43 -47.5t-43 -7.5q-28 0 -39 7.5t-42 47.5l-42 53q-15 18 -15 24q0 8 16 8h9q33 0 40 -2.5t20 -19.5q6 -7 9 -11z" />
    <glyph glyph-name="tcaron" unicode="&#x165;" horiz-adv-x="302" 
d="M268 646q-21 0 -36 11t-15 29t14.5 30t35.5 12q53 0 53 -61q0 -40 -23 -74t-49 -34q-21 0 -21 18q0 5 20 28.5t21 40.5zM65 519h25v86q0 50 9 66.5t36 16.5q23 0 32.5 -15.5t9.5 -61.5v-92h46q30 0 42 -7.5t12 -24.5q0 -32 -50 -32h-50v-308q0 -49 11 -67.5t41 -18.5
q6 0 26 2.5t25 2.5q30 0 30 -32q0 -43 -97 -43q-71 0 -97 33.5t-26 115.5v315h-33q-39 0 -39 32t47 32z" />
    <glyph glyph-name="Tbar" unicode="&#x166;" horiz-adv-x="583" 
d="M339 633v-281h110q40 0 54.5 -9.5t14.5 -31.5t-14.5 -31.5t-54.5 -9.5h-110v-203q0 -46 -11 -62.5t-36 -16.5q-26 0 -37 16.5t-11 62.5v203h-110q-40 0 -54.5 9.5t-14.5 31.5t14.5 31.5t54.5 9.5h110v281h-162q-41 0 -55.5 9.5t-14.5 31.5t14.5 32t55.5 10h420
q40 0 54.5 -10t14.5 -32t-14.5 -31.5t-54.5 -9.5h-163z" />
    <glyph glyph-name="tbar" unicode="&#x167;" horiz-adv-x="302" 
d="M177 455v-155h29q39 0 52 -7.5t13 -23.5q0 -18 -13 -25.5t-52 -7.5h-29v-89q0 -49 11 -67.5t41 -18.5q6 0 26 2.5t25 2.5q30 0 30 -32q0 -43 -97 -43q-71 0 -97 33.5t-26 115.5v96q-42 0 -57 8t-15 24q0 17 14.5 24.5t57.5 7.5v155h-33q-39 0 -39 32t47 32h25v86
q0 51 9.5 67t34.5 16q23 0 33 -15.5t10 -61.5v-92h40q30 0 42 -7t12 -25q0 -32 -50 -32h-44z" />
    <glyph glyph-name="Utilde" unicode="&#x168;" horiz-adv-x="729" 
d="M177 648v-380q0 -108 47.5 -155.5t141.5 -47.5q186 0 186 202v381q0 46 11.5 63t36.5 17q26 0 37 -17t11 -63v-372q0 -288 -275 -288q-153 0 -222.5 68.5t-69.5 218.5v373q0 47 11.5 63.5t36.5 16.5q26 0 37 -17t11 -63zM290 827q-11 0 -25.5 -23t-21.5 -23q-27 0 -27 33
q0 29 19.5 50.5t48.5 21.5q27 0 87 -21t65 -21q16 0 30 22.5t22 22.5q10 0 17.5 -9t7.5 -23q0 -28 -20 -50t-52 -22q-8 0 -73 21t-78 21z" />
    <glyph glyph-name="utilde" unicode="&#x169;" horiz-adv-x="573" 
d="M69 182v276q0 43 10 57.5t34 14.5t33.5 -15t9.5 -57v-242q0 -74 25 -113t84 -39q46 0 82 25.5t51 65.5q14 39 14 141v162q0 42 9.5 57t33.5 15q25 0 34.5 -15t9.5 -57v-401q0 -40 -9 -54.5t-33 -14.5q-25 0 -33.5 15.5t-8.5 74.5q-66 -90 -168 -90q-178 0 -178 194z
M212 623q-11 0 -25.5 -23t-21.5 -23q-27 0 -27 33q0 29 19.5 50.5t48.5 21.5q27 0 87 -21t65 -21q16 0 30 22.5t22 22.5q10 0 17.5 -9t7.5 -23q0 -28 -20 -50t-52 -22q-8 0 -73 21t-78 21z" />
    <glyph glyph-name="Umacron" unicode="&#x16a;" horiz-adv-x="729" 
d="M177 648v-380q0 -108 47.5 -155.5t141.5 -47.5q186 0 186 202v381q0 46 11.5 63t36.5 17q26 0 37 -17t11 -63v-372q0 -288 -275 -288q-153 0 -222.5 68.5t-69.5 218.5v373q0 47 11.5 63.5t36.5 16.5q26 0 37 -17t11 -63zM261 858h207q30 0 39.5 -7.5t9.5 -26.5
q0 -26 -9.5 -32.5t-39.5 -6.5h-207q-30 0 -39.5 7.5t-9.5 26.5q0 26 9.5 32.5t39.5 6.5z" />
    <glyph glyph-name="umacron" unicode="&#x16b;" horiz-adv-x="573" 
d="M69 182v276q0 43 10 57.5t34 14.5t33.5 -15t9.5 -57v-242q0 -74 25 -113t84 -39q46 0 82 25.5t51 65.5q14 39 14 141v162q0 42 9.5 57t33.5 15q25 0 34.5 -15t9.5 -57v-401q0 -40 -9 -54.5t-33 -14.5q-25 0 -33.5 15.5t-8.5 74.5q-66 -90 -168 -90q-178 0 -178 194z
M183 654h207q30 0 39.5 -7.5t9.5 -26.5q0 -26 -9.5 -32.5t-39.5 -6.5h-207q-30 0 -39.5 7.5t-9.5 26.5q0 26 9.5 32.5t39.5 6.5z" />
    <glyph glyph-name="Ubreve" unicode="&#x16c;" horiz-adv-x="729" 
d="M177 648v-380q0 -108 47.5 -155.5t141.5 -47.5q186 0 186 202v381q0 46 11.5 63t36.5 17q26 0 37 -17t11 -63v-372q0 -288 -275 -288q-153 0 -222.5 68.5t-69.5 218.5v373q0 47 11.5 63.5t36.5 16.5q26 0 37 -17t11 -63zM221 876q0 29 33 29q19 0 27 -23q18 -58 84 -58
q65 0 84 58q8 23 26 23q33 0 33 -30q0 -40 -41.5 -76t-101.5 -36t-102 36.5t-42 76.5z" />
    <glyph glyph-name="ubreve" unicode="&#x16d;" horiz-adv-x="573" 
d="M69 182v276q0 43 10 57.5t34 14.5t33.5 -15t9.5 -57v-242q0 -74 25 -113t84 -39q46 0 82 25.5t51 65.5q14 39 14 141v162q0 42 9.5 57t33.5 15q25 0 34.5 -15t9.5 -57v-401q0 -40 -9 -54.5t-33 -14.5q-25 0 -33.5 15.5t-8.5 74.5q-66 -90 -168 -90q-178 0 -178 194z
M143 701q0 29 33 29q19 0 27 -23q18 -58 84 -58q65 0 84 58q8 23 26 23q33 0 33 -30q0 -40 -41.5 -76t-101.5 -36t-102 36.5t-42 76.5z" />
    <glyph glyph-name="Uring" unicode="&#x16e;" horiz-adv-x="729" 
d="M177 648v-380q0 -108 47.5 -155.5t141.5 -47.5q186 0 186 202v381q0 46 11.5 63t36.5 17q26 0 37 -17t11 -63v-372q0 -288 -275 -288q-153 0 -222.5 68.5t-69.5 218.5v373q0 47 11.5 63.5t36.5 16.5q26 0 37 -17t11 -63zM365 935q38 0 65 -27.5t27 -65.5t-27 -65t-66 -27
q-38 0 -65 27.5t-27 64.5q0 39 27.5 66t65.5 27zM364 790q22 0 37.5 15t15.5 37t-15.5 37.5t-37.5 15.5q-21 0 -36.5 -15.5t-15.5 -37.5q0 -21 15.5 -36.5t36.5 -15.5z" />
    <glyph glyph-name="uring" unicode="&#x16f;" horiz-adv-x="573" 
d="M69 182v276q0 43 10 57.5t34 14.5t33.5 -15t9.5 -57v-242q0 -74 25 -113t84 -39q46 0 82 25.5t51 65.5q14 39 14 141v162q0 42 9.5 57t33.5 15q25 0 34.5 -15t9.5 -57v-401q0 -40 -9 -54.5t-33 -14.5q-25 0 -33.5 15.5t-8.5 74.5q-66 -90 -168 -90q-178 0 -178 194z
M288 743q38 0 65 -27.5t27 -65.5t-27 -65t-66 -27q-38 0 -65 27.5t-27 64.5q0 39 27.5 66t65.5 27zM287 598q22 0 37.5 15t15.5 37t-15.5 37.5t-37.5 15.5q-21 0 -36.5 -15.5t-15.5 -37.5q0 -21 15.5 -36.5t36.5 -15.5z" />
    <glyph glyph-name="Uhungarumlaut" unicode="&#x170;" horiz-adv-x="729" 
d="M177 648v-380q0 -108 47.5 -155.5t141.5 -47.5q186 0 186 202v381q0 46 11.5 63t36.5 17q26 0 37 -17t11 -63v-372q0 -288 -275 -288q-153 0 -222.5 68.5t-69.5 218.5v373q0 47 11.5 63.5t36.5 16.5q26 0 37 -17t11 -63zM430 809l25 49q17 36 26 41t46 5h24q30 0 30 -8
q0 -9 -60 -70t-79 -61q-22 0 -22 18q0 7 10 26zM266 809l25 49q6 11 9.5 17t6.5 12t7 8.5t5.5 5t8.5 3t8.5 0.5h12h14.5h24q30 0 30 -8q0 -9 -60 -70t-79 -61q-22 0 -22 18q0 7 10 26z" />
    <glyph glyph-name="uhungarumlaut" unicode="&#x171;" horiz-adv-x="573" 
d="M69 182v276q0 43 10 57.5t34 14.5t33.5 -15t9.5 -57v-242q0 -74 25 -113t84 -39q46 0 82 25.5t51 65.5q14 39 14 141v162q0 42 9.5 57t33.5 15q25 0 34.5 -15t9.5 -57v-401q0 -40 -9 -54.5t-33 -14.5q-25 0 -33.5 15.5t-8.5 74.5q-66 -90 -168 -90q-178 0 -178 194z
M352 606l25 49q17 36 26 41t46 5h24q30 0 30 -8q0 -9 -60 -70t-79 -61q-22 0 -22 18q0 7 10 26zM188 606l25 49q6 11 9.5 17t6.5 12t7 8.5t5.5 5t8.5 3t8.5 0.5h12h14.5h24q30 0 30 -8q0 -9 -60 -70t-79 -61q-22 0 -22 18q0 7 10 26z" />
    <glyph glyph-name="Uogonek" unicode="&#x172;" horiz-adv-x="729" 
d="M384 -12q-8 -45 -8 -58q0 -29 20.5 -50.5t51.5 -21.5q9 0 31.5 4.5t26.5 4.5q10 0 16.5 -8.5t6.5 -19.5q0 -23 -37.5 -36t-73.5 -13q-43 0 -73.5 31t-30.5 76q0 33 15 91q-129 10 -188.5 79t-59.5 208v373q0 47 11.5 63.5t36.5 16.5t36.5 -16.5t11.5 -63.5v-380
q0 -114 49 -158.5t140 -44.5q96 0 141 50.5t45 152.5v380q0 47 11.5 63.5t36.5 16.5q26 0 37 -16.5t11 -63.5v-373q0 -281 -264 -287z" />
    <glyph glyph-name="uogonek" unicode="&#x173;" horiz-adv-x="573" 
d="M480 -4q-5 -55 -5 -62q0 -35 19.5 -56t51.5 -21q14 0 27.5 2t21.5 4t9 2q22 0 22 -26q0 -23 -38 -36t-71 -13q-45 0 -75 31t-30 76q0 48 19 99q-11 7 -14.5 22t-3.5 60q-65 -90 -168 -90q-176 0 -176 195v275q0 42 10.5 57t33.5 15t33 -15t10 -57v-247q0 -80 27 -115.5
t83 -35.5q45 0 81 25.5t51 64.5t15 142v166q0 42 10 57t33 15t33 -15t10 -57v-401q0 -54 -19 -61z" />
    <glyph glyph-name="Wcircumflex" unicode="&#x174;" horiz-adv-x="906" 
d="M526 643l137 -506l128 525q9 40 20 53t31 13t33 -13t13 -29q0 -11 -8 -45l-149 -572q-14 -53 -27 -67t-38 -14q-26 0 -39.5 14t-27.5 65l-146 538l-146 -538q-16 -53 -29 -66t-38 -13q-29 0 -40.5 16t-24.5 65l-149 572q-8 43 -8 45q0 16 13.5 29t31.5 13q24 0 33 -12.5
t19 -53.5l128 -525l137 506q13 50 27 63t42 13q38 0 51 -13.5t26 -62.5zM501 794l-46 58l-45 -58q-18 -22 -25.5 -27.5t-24.5 -5.5q-34 0 -40 1t-6 5q0 6 17 28l40 51q30 39 42.5 47t43.5 8q27 0 38.5 -8t42.5 -47l42 -53q15 -18 15 -24q0 -8 -16 -8q-44 0 -50.5 2.5
t-27.5 30.5z" />
    <glyph glyph-name="wcircumflex" unicode="&#x175;" horiz-adv-x="750" 
d="M470 60l-95 341l-95 -341q-13 -45 -26 -58.5t-35 -13.5q-24 0 -35.5 13.5t-25.5 55.5l-133 393q-10 29 -10 42q0 15 11.5 26.5t28.5 11.5t27.5 -10.5t20.5 -44.5l115 -373l101 362q11 41 23 53.5t33 12.5q24 0 35 -14t21 -52l101 -362l115 373q11 36 20.5 45.5t27.5 9.5
q16 0 28 -12t12 -26q0 -10 -10 -42l-133 -393q-14 -44 -26.5 -56.5t-34.5 -12.5q-26 0 -38.5 15.5t-22.5 56.5zM421 602l-46 58l-45 -58q-18 -22 -25.5 -27.5t-24.5 -5.5q-34 0 -40 1t-6 5q0 6 17 28l40 51q30 39 42.5 47t43.5 8q27 0 38.5 -8t42.5 -47l42 -53
q15 -18 15 -24q0 -8 -16 -8q-44 0 -50.5 2.5t-27.5 30.5z" />
    <glyph glyph-name="Ycircumflex" unicode="&#x176;" horiz-adv-x="615" 
d="M256 67v240l-206 320q-26 41 -26 57q0 18 13 31t34 13q17 0 25.5 -8.5t31.5 -44.5l179 -283l184 286q22 34 30.5 42t25.5 8q18 0 31 -12t13 -30q0 -15 -25 -54l-214 -325v-240q0 -46 -11.5 -62.5t-36.5 -16.5q-27 0 -37.5 16t-10.5 63zM354 794l-46 58l-45 -58
q-18 -22 -25.5 -27.5t-24.5 -5.5q-33 0 -39.5 1t-6.5 5q0 6 17 28l40 51q30 39 42.5 47t43.5 8q27 0 38.5 -8t42.5 -47l42 -53q15 -18 15 -24q0 -8 -16 -8q-44 0 -50.5 2.5t-27.5 30.5z" />
    <glyph glyph-name="ycircumflex" unicode="&#x177;" horiz-adv-x="510" 
d="M183 -69l27 69l-177 449q-11 28 -11 41q0 15 12.5 27.5t30.5 12.5q16 0 26.5 -10t21.5 -41l142 -387l147 382q14 36 22 46t26 10q16 0 27.5 -11.5t11.5 -24.5q0 -12 -12 -43l-208 -533q-30 -75 -62.5 -101.5t-89.5 -26.5q-84 0 -84 45q0 15 9.5 25t24.5 10l44 -3
q47 0 72 64zM302 602l-46 58l-45 -58q-18 -22 -25.5 -27.5t-24.5 -5.5q-33 0 -39.5 1t-6.5 5q0 6 17 28l40 51q30 39 42.5 47t43.5 8q27 0 38.5 -8t42.5 -47l42 -53q15 -18 15 -24q0 -8 -16 -8q-44 0 -50.5 2.5t-27.5 30.5z" />
    <glyph glyph-name="Ydieresis" unicode="&#x178;" horiz-adv-x="615" 
d="M256 307l-206 320q-26 42 -26 57q0 17 12.5 30.5t34.5 13.5q17 0 26.5 -9.5t30.5 -43.5l179 -283l184 286q21 33 30 41.5t26 8.5q18 0 31 -12t13 -30q0 -16 -25 -54l-214 -325v-240q0 -53 -14 -65q-14 -14 -34 -14q-19 0 -35 14q-13 12 -13 65v240zM272 827
q0 -19 -14 -33t-33 -14t-33 14t-14 33t14 33t33 14t33 -14t14 -33zM437 827q0 -19 -13.5 -33t-33.5 -14t-33.5 14t-13.5 33t13.5 33t33.5 14t33.5 -14t13.5 -33z" />
    <glyph glyph-name="Zacute" unicode="&#x179;" horiz-adv-x="625" 
d="M47 113l419 526h-352q-37 0 -50.5 9t-13.5 29q0 13 3.5 20t18 13t42.5 6h401q71 0 71 -51q0 -22 -27 -55l-425 -533h402q45 0 58.5 -9t13.5 -30q0 -19 -13.5 -28.5t-51.5 -9.5h-443q-52 0 -70 11.5t-18 39.5q0 14 5 22t30 40zM291 809l25 49q6 11 9.5 17t6.5 12t7 8.5
t5.5 5t8.5 3t8.5 0.5h12h14.5h24q30 0 30 -8q0 -9 -61 -70t-78 -61q-22 0 -22 18q0 7 10 26z" />
    <glyph glyph-name="zacute" unicode="&#x17a;" horiz-adv-x="510" 
d="M436 424l-304 -356h307q35 0 47 -5.5t12 -26.5q0 -18 -11.5 -27t-47.5 -9h-357q-42 0 -56 10t-14 28q0 20 25 48l257 287q50 56 59 77h-239q-56 0 -70.5 7.5t-14.5 26.5q0 11 3 17.5t16 11.5t38 5h303q48 0 64 -9t16 -31q0 -11 -5 -19.5t-28 -34.5zM236 622l25 49
q6 11 9.5 17t6.5 12t7 8.5t5.5 5t8.5 3t8.5 0.5h12h14.5h24q30 0 30 -8q0 -9 -61 -70t-78 -61q-22 0 -22 18q0 7 10 26z" />
    <glyph glyph-name="Zdotaccent" unicode="&#x17b;" horiz-adv-x="625" 
d="M47 113l419 526h-352q-37 0 -50.5 9t-13.5 29q0 13 3.5 20t18 13t42.5 6h401q71 0 71 -51q0 -22 -27 -55l-425 -533h402q45 0 58.5 -9t13.5 -30q0 -19 -13.5 -28.5t-51.5 -9.5h-443q-52 0 -70 11.5t-18 39.5q0 14 5 22t30 40zM313 873q19 0 33 -14t14 -33t-14 -33
t-33 -14q-20 0 -33.5 14t-13.5 33t13.5 33t33.5 14z" />
    <glyph glyph-name="zdotaccent" unicode="&#x17c;" horiz-adv-x="510" 
d="M436 424l-304 -356h307q35 0 47 -5.5t12 -26.5q0 -18 -11.5 -27t-47.5 -9h-357q-42 0 -56 10t-14 28q0 20 25 48l257 287q50 56 59 77h-239q-56 0 -70.5 7.5t-14.5 26.5q0 11 3 17.5t16 11.5t38 5h303q48 0 64 -9t16 -31q0 -11 -5 -19.5t-28 -34.5zM255 687q19 0 33 -14
t14 -33t-14 -33t-33 -14q-20 0 -33.5 14t-13.5 33t13.5 33t33.5 14z" />
    <glyph glyph-name="Zcaron" unicode="&#x17d;" horiz-adv-x="625" 
d="M466 639h-352q-20 0 -30.5 1t-22 10t-11.5 27q0 14 5 22.5t16.5 12t19.5 4t23 0.5h401q14 0 22.5 -1t21.5 -5t20 -15.5t7 -29.5q0 -21 -27 -55l-425 -533h402h21t18 -2t18 -5.5t10 -11.5t5 -20q0 -14 -5.5 -22.5t-17.5 -11.5t-19.5 -3.5t-22.5 -0.5h-443q-53 0 -67 10
q-21 16 -21 41q0 13 6.5 24t28.5 38zM312 815l45 58q14 17 18.5 22t12 8t19.5 3q38 0 42 -2t4 -6q0 -6 -17 -26l-40 -51q-29 -38 -42 -46.5t-44 -8.5q-27 0 -40 9.5t-41 45.5l-42 53q-15 21 -15 24q0 8 16 8q36 0 43 -2q8 -1 13 -5.5t22 -25.5z" />
    <glyph glyph-name="zcaron" unicode="&#x17e;" horiz-adv-x="510" 
d="M132 68h307q41 0 51 -9q8 -8 8 -23q0 -17 -10.5 -25.5t-20.5 -9.5t-28 -1h-357h-8.5h-11t-11.5 0.5t-12 2t-10 4.5t-9 7t-5.5 10t-2.5 14q0 20 25 48l257 287q46 51 59 77h-239q-23 0 -34.5 0.5t-25.5 3.5t-19.5 10.5t-5.5 19.5q0 16 10 24t19.5 9t27.5 1h303
q20 0 30 -0.5t24 -4t20 -12.5t6 -23q0 -11 -6 -20t-27 -34zM255 628l45 58q14 17 18.5 22t12 8t19.5 3q38 0 42 -2t4 -6q0 -6 -17 -26l-40 -51q-29 -38 -42 -46.5t-44 -8.5q-27 0 -40 9.5t-41 45.5l-42 53q-15 21 -15 24q0 8 16 8q36 0 43 -2q8 -1 13 -5.5t22 -25.5z" />
    <glyph glyph-name="florin" unicode="&#x192;" horiz-adv-x="552" 
d="M239 297h-43q-16 0 -24 1t-16.5 8t-8.5 21q0 18 8 26.5t16.5 10t26.5 1.5h52l36 206q4 24 7 37.5t13 37t23 36.5t37 23.5t56 10.5q57 0 85 -14q17 -7 17 -25q0 -9 -4.5 -23t-8.5 -17q-9 -9 -21 -9q-6 0 -9 1q-30 5 -40 5q-34 0 -46.5 -16t-21.5 -62l-34 -191h45
q16 0 24 -1t16.5 -8t8.5 -21q0 -18 -8 -26.5t-16.5 -10t-26.5 -1.5h-55l-69 -393q-11 -65 -39.5 -96t-86.5 -31q-59 0 -86 9q-18 7 -18 27q0 5 1.5 13.5t9.5 21t22 12.5q4 0 19 -3q13 -3 29 -3q19 0 31.5 5t19.5 17.5t9.5 22t6.5 30.5z" />
    <glyph glyph-name="AEacute" unicode="&#x1fc;" horiz-adv-x="1000" 
d="M478 202h-290l-69 -150q-20 -44 -29 -54t-31 -10q-20 0 -33 13t-13 29q0 13 17 50l274 579q21 45 30.5 51t58.5 6h485q38 0 51.5 -9.5t13.5 -29.5t-13 -29t-52 -9h-304v-230h279q38 0 51.5 -9.5t13.5 -29.5t-13 -29t-52 -9h-279v-255h315q40 0 53 -9t13 -29
q0 -13 -2.5 -19.5t-18 -13t-45.5 -6.5h-330q-56 0 -68.5 12.5t-12.5 67.5v122zM389 641l-166 -362h255v362h-89zM560 798l25 49q6 11 9.5 17t6.5 12t7 8.5t5.5 5t8.5 3t8.5 0.5h12h14.5h24q30 0 30 -8q0 -9 -61 -70t-78 -61q-22 0 -22 18q0 7 10 26z" />
    <glyph glyph-name="aeacute" unicode="&#x1fd;" horiz-adv-x="896" 
d="M392 325v14q0 23 -0.5 31.5t-5.5 31t-15.5 33t-33 20t-55.5 9.5q-115 0 -141 -82q-12 -36 -42 -36q-17 0 -28 11.5t-11 27.5q0 59 58 102t159 43q133 0 174 -71q65 71 167 71q105 0 169.5 -69t64.5 -163q0 -36 -17 -46t-63 -10h-296q6 -190 153 -190q51 0 86.5 22
t60.5 82q9 23 34 23q33 0 33 -35q0 -56 -61 -106t-151 -50q-137 0 -198 94q-103 -94 -222 -94q-79 0 -124 41t-45 104q0 42 20.5 75t54.5 49q20 10 126 32.5t149 35.5zM476 301h291q-3 81 -42.5 122t-101.5 41q-63 0 -103 -43.5t-44 -119.5zM392 203v62q-74 -20 -147 -32
q-116 -20 -116 -94q0 -37 29.5 -62.5t79.5 -25.5q61 0 107.5 39t46.5 113zM428 606l25 49q6 11 9.5 17t6.5 12t7 8.5t5.5 5t8.5 3t8.5 0.5h12h14.5h24q30 0 30 -8q0 -9 -61 -70t-78 -61q-22 0 -22 18q0 7 10 26z" />
    <glyph glyph-name="Oslashacute" unicode="&#x1fe;" horiz-adv-x="781" 
d="M164 65l-47 -52q-22 -25 -38 -25q-13 0 -20.5 8.5t-7.5 18.5q0 15 14 31l59 65q-73 101 -73 247q0 165 90 267.5t251 102.5q142 0 224 -78l47 52q24 26 39 26q11 0 19.5 -8.5t8.5 -17.5q0 -17 -14 -33l-59 -64q73 -103 73 -245q0 -165 -88.5 -268.5t-248.5 -103.5
q-143 0 -229 77zM189 182l365 400q-70 69 -165 69q-103 0 -171.5 -77.5t-68.5 -219.5q0 -93 40 -172zM592 533l-366 -400q71 -68 164 -68q104 0 173 77.5t69 215.5q0 105 -40 175zM346 809l25 49q6 11 9.5 17t6.5 12t7 8.5t5.5 5t8.5 3t8.5 0.5h12h14.5h24q30 0 30 -8
q0 -9 -61 -70t-78 -61q-22 0 -22 18q0 7 10 26z" />
    <glyph glyph-name="oslashacute" unicode="&#x1ff;" horiz-adv-x="573" 
d="M130 39l-28 -31q-17 -20 -30 -20q-12 0 -21 9.5t-9 20.5q0 9 17 29l31 35q-47 71 -47 172q0 133 64.5 204.5t178.5 71.5q92 0 157 -51l27 32q16 19 30 19q12 0 21 -8.5t9 -18.5q0 -14 -16 -31l-31 -35q47 -71 47 -176q0 -130 -65.5 -201.5t-177.5 -71.5q-93 0 -157 51z
M151 150l239 270q-41 42 -104 42q-71 0 -112.5 -54.5t-41.5 -148.5q0 -64 19 -109zM422 369l-239 -271q39 -42 104 -42q71 0 112.5 54.5t41.5 148.5q0 62 -19 110zM241 606l25 49q6 11 9.5 17t6.5 12t7 8.5t5.5 5t8.5 3t8.5 0.5h12h14.5h24q30 0 30 -8q0 -9 -61 -70t-78 -61
q-22 0 -22 18q0 7 10 26z" />
    <glyph glyph-name="Scommaaccent" unicode="&#x218;" horiz-adv-x="635" 
d="M165 542q0 -21 4.5 -35t20.5 -30t50.5 -30.5t90.5 -28.5q147 -35 201 -81.5t54 -129.5q0 -97 -72 -158.5t-192 -61.5q-128 0 -198 66t-70 146q0 16 12.5 28.5t29.5 12.5q18 0 26.5 -11.5t23.5 -51.5q42 -117 170 -117q75 0 126.5 38t51.5 96q0 48 -33 78t-132 52
q-93 20 -144 41q-45 18 -78.5 61.5t-33.5 105.5q0 90 68 143t176 53q114 0 177.5 -55.5t63.5 -120.5q0 -18 -12.5 -32.5t-30.5 -14.5h-3q-11 0 -16.5 2t-14.5 16.5t-19 44.5q-15 44 -57.5 65.5t-90.5 21.5q-65 0 -107 -32.5t-42 -80.5zM279 -193q-60 0 -60 27q0 21 37 21
q99 0 99 40q0 13 -15 23.5t-35 10.5q-21 0 -27 4t-6 17q0 21 38 21q50 0 83.5 -21.5t33.5 -58.5q0 -38 -39 -61t-109 -23z" />
    <glyph glyph-name="scommaaccent" unicode="&#x219;" horiz-adv-x="510" 
d="M132 395q0 -35 34.5 -54t128.5 -40q90 -20 131 -56.5t41 -93.5q0 -73 -56.5 -118t-161.5 -45q-98 0 -153 45t-55 98q0 15 11 25.5t27 10.5q25 0 40 -34q36 -83 136 -83q55 0 88 23.5t33 59.5q0 16 -7 29t-14.5 21t-27 16.5t-27.5 11t-33 10.5q-20 6 -53.5 16.5
t-54.5 17.5t-30 11q-36 17 -58 47.5t-22 68.5q0 61 51 104.5t143 43.5q93 0 145 -41t52 -84q0 -36 -37 -36q-16 0 -23.5 7t-19.5 32q-28 60 -115 60q-51 0 -82 -20t-31 -53zM194 -193q-60 0 -60 27q0 21 37 21q99 0 99 40q0 13 -15 23.5t-35 10.5q-21 0 -27 4t-6 17
q0 21 38 21q50 0 83.5 -21.5t33.5 -58.5q0 -38 -39 -61t-109 -23z" />
    <glyph glyph-name="Tcommaaccent" unicode="&#x21a;" horiz-adv-x="583" 
d="M502 639h-163v-572q0 -46 -11 -62.5t-37 -16.5q-29 0 -38.5 18.5t-9.5 60.5v572h-162q-40 0 -54.5 9.5t-14.5 28.5q0 20 15 29.5t54 9.5h421q39 0 54 -10t15 -29t-15 -28.5t-54 -9.5zM227 -193q-60 0 -60 27q0 21 37 21q99 0 99 40q0 13 -15 23.5t-35 10.5q-21 0 -27 4
t-6 17q0 21 38 21q50 0 83.5 -21.5t33.5 -58.5q0 -38 -39 -61t-109 -23z" />
    <glyph glyph-name="tcommaaccent" unicode="&#x21b;" horiz-adv-x="302" 
d="M65 518h25v88q0 49 10 65.5t33 16.5q14 0 21.5 -3t15 -21t7.5 -53v-93h46q54 0 54 -31q0 -32 -51 -32h-49v-308q0 -54 11.5 -71t40.5 -17l5 1q6 0 13.5 1l15 2t12.5 1l5 1q30 0 30 -31q0 -43 -98 -43q-28 0 -46.5 4t-37.5 18t-28.5 45.5t-9.5 81.5v315h-33q-39 0 -39 32
q0 31 47 31zM145 -193q-60 0 -60 27q0 21 37 21q99 0 99 40q0 13 -15 23.5t-35 10.5q-21 0 -27 4t-6 17q0 21 38 21q50 0 83.5 -21.5t33.5 -58.5q0 -38 -39 -61t-109 -23z" />
    <glyph glyph-name="circumflex" unicode="&#x2c6;" 
d="M167 677l-45 -58q-17 -22 -24.5 -27.5t-25.5 -5.5q-38 0 -42 2t-4 6q0 6 17 26l40 51q29 38 42 46.5t44 8.5q27 0 40 -9.5t41 -45.5l42 -53q15 -18 15 -24q0 -8 -16 -8q-36 0 -43 2q-8 1 -13 5.5t-22 25.5z" />
    <glyph glyph-name="caron" unicode="&#x2c7;" 
d="M166 628l45 58q14 17 18.5 22t12 8t19.5 3q38 0 42 -2t4 -6q0 -6 -17 -26l-40 -51q-29 -38 -42 -46.5t-44 -8.5q-27 0 -40 9.5t-41 45.5l-42 53q-15 21 -15 24q0 8 16 8q36 0 43 -2q8 -1 13 -5.5t22 -25.5z" />
    <glyph glyph-name="uni02C9" unicode="&#x2c9;" 
d="M63 672h207q17 0 25.5 -1t16 -9t7.5 -24q0 -19 -6.5 -27.5t-14.5 -10t-28 -1.5h-207q-17 0 -25.5 1t-16 9t-7.5 24q0 19 6.5 27.5t14.5 10t28 1.5z" />
    <glyph glyph-name="breve" unicode="&#x2d8;" 
d="M170 644q24 0 41 6.5t25.5 19t11.5 20.5t6 20q5 22 26 22q11 0 19 -8t8 -19q0 -35 -35 -75t-103 -40q-69 0 -106 39.5t-37 75.5q0 9 8 18t20 9t17.5 -7.5t10.5 -25.5q16 -55 88 -55z" />
    <glyph glyph-name="dotaccent" unicode="&#x2d9;" 
d="M214 640q0 -19 -14 -33t-33 -14t-33 13.5t-14 33.5t14 33.5t33 13.5t33 -14t14 -33z" />
    <glyph glyph-name="ring" unicode="&#x2da;" 
d="M259 656q0 -38 -27 -65t-66 -27q-38 0 -65 27t-27 65q0 39 27.5 66t65.5 27t65 -27.5t27 -65.5zM219 656q0 22 -15.5 37.5t-37.5 15.5t-37 -15.5t-15 -37.5t15.5 -37t36.5 -15q22 0 37.5 15t15.5 37z" />
    <glyph glyph-name="ogonek" unicode="&#x2db;" 
d="M132 11q10 0 18 -7t8 -18q0 -4 -3 -19q-4 -21 -4 -35q0 -31 18.5 -53t53.5 -22q5 0 29 4t28 4q10 0 16.5 -8t6.5 -17q0 -19 -27.5 -31t-49 -14.5t-32.5 -2.5q-48 0 -77 31.5t-29 75.5q0 27 11 77q9 35 33 35z" />
    <glyph glyph-name="tilde" unicode="&#x2dc;" 
d="M45 595q-10 0 -18.5 8.5t-8.5 24.5q0 27 19 49.5t49 22.5q36 0 79 -20q55 -22 73 -22q21 0 30 22q9 23 22 23q9 0 17 -9t8 -23q0 -23 -17.5 -47.5t-54.5 -24.5q-20 0 -78 21q-50 21 -73 21q-8 0 -14 -4.5t-8.5 -9.5t-7.5 -16q-8 -16 -17 -16z" />
    <glyph glyph-name="hungarumlaut" unicode="&#x2dd;" 
d="M232 623l25 49q17 34 27 40t45 6h24q30 0 30 -8q0 -7 -24 -33q-54 -59 -76.5 -78.5t-38.5 -19.5q-10 0 -16 6t-6 12q0 7 10 26zM68 623l25 49q17 34 27 40t45 6h24q30 0 30 -8q0 -7 -24 -33q-54 -59 -76.5 -78.5t-38.5 -19.5q-10 0 -16 6t-6 12q0 7 10 26z" />
    <glyph glyph-name="uni03A9" unicode="&#x3a9;" horiz-adv-x="768" 
d="M550 80h121q52 0 52 -41q0 -39 -52 -39h-239v79q172 96 172 298q0 117 -62 195.5t-158 78.5q-97 0 -158.5 -78t-61.5 -196q0 -204 172 -298v-79h-240q-51 0 -51 41q0 16 12.5 27.5t38.5 11.5h122q-153 126 -153 307q0 146 88 243.5t231 97.5t231 -97.5t88 -243.5
q0 -181 -153 -307z" />
    <glyph glyph-name="uni03BC" unicode="&#x3bc;" horiz-adv-x="552" 
d="M150 60v-219q0 -51 -42 -51q-16 0 -30 12q-12 12 -12 78v578q0 40 7 53q12 19 37 19q17 0 31 -12q12 -12 12 -60v-193q0 -73 8.5 -106t28.5 -55q33 -36 83 -36q69 0 104 58q10 17 15 45t5.5 52t0.5 75v160q0 47 13 59q13 13 31 13q26 0 36 -19q7 -11 7 -52v-402
q0 -16 -1 -24.5t-4.5 -21t-12.5 -18t-24 -5.5t-24 6t-12.5 19t-4.5 22t-1 26q-8 -15 -14.5 -24t-21 -22t-37 -20t-51.5 -7q-28 0 -49.5 6t-36.5 18.5t-23 22t-18 25.5z" />
    <glyph glyph-name="pi" unicode="&#x3c0;" horiz-adv-x="694" 
d="M457 451h-219v-409q0 -54 -44 -54q-18 0 -30.5 13t-12.5 41v409h-96q-43 0 -43 34t43 34h584q44 0 44 -35q0 -33 -44 -33h-96v-409q0 -54 -44 -54q-42 0 -42 54v409z" />
    <glyph glyph-name="afii10023" unicode="&#x401;" horiz-adv-x="635" 
d="M516 639h-333v-230h306q37 0 50.5 -9t13.5 -29q0 -13 -3.5 -20t-18 -13t-42.5 -6h-306v-255h347q40 0 53 -9t13 -29q0 -21 -13.5 -30t-52.5 -9h-363q-58 4 -66 11q-10 7 -12 48q-2 15 -2 21v556q0 53 13 66.5t67 13.5h349q39 0 52.5 -9t13.5 -29q0 -21 -13.5 -30
t-52.5 -9zM235 873q20 0 33.5 -14t13.5 -33t-13.5 -33t-33.5 -14t-33.5 14t-13.5 33t13.5 33t33.5 14zM400 873q20 0 33.5 -14t13.5 -33t-13.5 -33t-33.5 -14t-33.5 14t-13.5 33t13.5 33t33.5 14z" />
    <glyph glyph-name="afii10051" unicode="&#x402;" horiz-adv-x="870" 
d="M557 636h-199v-227q123 48 214 48q114 0 183.5 -70t69.5 -167q0 -94 -61.5 -163t-161.5 -69q-127 0 -127 55q0 17 11.5 28.5t26.5 11.5q5 0 37 -9t45 -9q53 0 92.5 39.5t39.5 112.5q0 76 -47 119.5t-131 43.5q-85 0 -191 -48v-287q0 -57 -48 -57q-47 0 -47 57v591h-199
q-52 0 -52 41q0 16 12.5 27.5t39.5 11.5h493q51 0 51 -41q0 -16 -12.5 -27.5t-38.5 -11.5z" />
    <glyph glyph-name="afii10052" unicode="&#x403;" horiz-adv-x="573" 
d="M475 636h-299v-569q0 -46 -11 -62.5t-36 -16.5q-26 0 -37 16.5t-11 62.5v570q0 55 13 67t67 12h314q37 0 51 -9.5t14 -30.5q0 -40 -65 -40zM282 809l25 49q6 11 9.5 17t6.5 12t7 8.5t5.5 5t8.5 3t8.5 0.5h12h14.5h24q30 0 30 -8q0 -9 -61 -70t-78 -61q-22 0 -22 18
q0 7 10 26z" />
    <glyph glyph-name="afii10053" unicode="&#x404;" horiz-adv-x="729" 
d="M378 330h-224q7 -132 70 -198.5t161 -66.5q153 0 208 157q15 41 43 41q17 0 29 -11.5t12 -27.5q0 -34 -19.5 -74t-54 -76.5t-90 -61t-118.5 -24.5q-114 0 -192.5 51.5t-113 133t-34.5 185.5q0 164 93.5 267t240.5 103q131 0 207 -78q75 -76 75 -128q0 -16 -11 -28.5
t-28 -12.5q-14 0 -27.5 11t-33.5 49q-62 110 -178 110q-94 0 -159 -63.5t-78 -178.5h222q52 0 52 -40q0 -39 -52 -39z" />
    <glyph glyph-name="afii10054" unicode="&#x405;" horiz-adv-x="635" 
d="M165 542q0 -21 4.5 -35t20.5 -30t50.5 -30.5t90.5 -28.5q147 -35 201 -81.5t54 -129.5q0 -97 -72 -158.5t-192 -61.5q-128 0 -198 66t-70 146q0 16 12.5 28.5t29.5 12.5q18 0 26.5 -11.5t23.5 -51.5q42 -117 170 -117q75 0 126.5 38t51.5 96q0 48 -33 78t-132 52
q-93 20 -144 41q-45 18 -78.5 61.5t-33.5 105.5q0 90 68 143t176 53q114 0 177.5 -55.5t63.5 -120.5q0 -18 -12.5 -32.5t-30.5 -14.5h-3q-11 0 -16.5 2t-14.5 16.5t-19 44.5q-15 44 -57.5 65.5t-90.5 21.5q-65 0 -107 -32.5t-42 -80.5z" />
    <glyph glyph-name="afii10055" unicode="&#x406;" horiz-adv-x="292" 
d="M194 649v-582q0 -48 -12 -63.5t-36 -15.5q-27 0 -37.5 17t-10.5 62v582q0 46 11.5 62.5t36.5 16.5q29 0 38.5 -18.5t9.5 -60.5z" />
    <glyph glyph-name="afii10056" unicode="&#x407;" horiz-adv-x="292" 
d="M194 649v-582q0 -48 -12 -63.5t-36 -15.5q-27 0 -37.5 17t-10.5 62v582q0 46 11.5 62.5t36.5 16.5q29 0 38.5 -18.5t9.5 -60.5zM63 873q20 0 33.5 -14t13.5 -33t-13.5 -33t-33.5 -14t-33.5 14t-13.5 33t13.5 33t33.5 14zM228 873q20 0 33.5 -14t13.5 -33t-13.5 -33
t-33.5 -14t-33.5 14t-13.5 33t13.5 33t33.5 14z" />
    <glyph glyph-name="afii10057" unicode="&#x408;" horiz-adv-x="531" 
d="M348 218v431q0 45 11.5 62t36.5 17q29 0 38.5 -19t9.5 -60v-424q0 -125 -53 -181t-158 -56q-57 0 -98.5 18t-64.5 48t-33.5 64.5t-10.5 72.5q0 48 45 48q22 0 29 -12t18 -57q22 -105 114 -105q116 0 116 153z" />
    <glyph glyph-name="afii10058" unicode="&#x409;" horiz-adv-x="1103" 
d="M517 636h-306v-373q0 -195 -42 -235q-41 -40 -101 -40q-95 0 -95 48q0 15 11.5 25t26.5 10q1 0 21.5 -3t25.5 -3q31 0 45 28.5t14 109.5v464q0 49 48 49h398q49 0 49 -49v-257h171q168 0 221 -62t53 -140q0 -65 -35 -118q-34 -53 -82 -71.5t-143 -18.5h-231q-49 0 -49 48
v588zM612 331v-251h189q158 0 158 124q0 77 -44.5 102t-164.5 25h-138z" />
    <glyph glyph-name="afii10059" unicode="&#x40a;" horiz-adv-x="1020" 
d="M529 670v-260h159q102 0 159 -17q56 -17 91.5 -67.5t35.5 -117.5q0 -62 -31 -113.5t-80 -73.5q-48 -21 -155 -21h-190q-53 0 -63 5q-1 1 -5 2.5t-5 2.5t-4 6t-3.5 12.5t-1.5 21.5t-1 33v248h-259v-286q0 -57 -48 -57q-20 0 -33.5 13.5t-13.5 43.5v625q0 58 48 58
q20 0 33.5 -14t13.5 -44v-260h259v260q0 58 48 58q20 0 33 -15t13 -43zM529 331v-251h178q91 0 130 28.5t39 97.5q0 72 -47 98.5t-184 26.5h-116z" />
    <glyph glyph-name="afii10060" unicode="&#x40b;" horiz-adv-x="860" 
d="M559 636h-201v-225q132 46 214 46q126 0 181.5 -66t55.5 -203v-143q0 -57 -48 -57q-21 0 -34 15t-13 42v140q0 103 -34 149t-114 46q-85 0 -208 -46v-289q0 -57 -47 -57t-47 57v591h-200q-52 0 -52 41q0 16 12.5 27.5t39.5 11.5h495q51 0 51 -41q0 -16 -12.5 -27.5
t-38.5 -11.5z" />
    <glyph glyph-name="afii10061" unicode="&#x40c;" horiz-adv-x="584" 
d="M178 669v-267q70 0 95 23.5t67 123.5q23 53 36 77.5t35 49t50.5 32.5t72.5 8q45 0 60 -10.5t15 -30.5q0 -16 -11.5 -27.5t-33.5 -11.5h-26q-43 0 -63.5 -22t-50.5 -95q-29 -76 -52 -105t-68 -48q47 -15 81 -55q31 -43 58 -84l82 -125q34 -52 34 -72q0 -18 -12.5 -30
t-30.5 -12q-21 0 -40 17t-45 59l-80 130q-52 84 -84.5 112t-88.5 29v-288q0 -59 -49 -59q-22 0 -35 15t-13 44v622q0 59 49 59q20 0 34 -14.5t14 -44.5zM275 809l25 49q6 11 9.5 17t6.5 12t7 8.5t5.5 5t8.5 3t8.5 0.5h12h14.5h24q30 0 30 -8q0 -9 -61 -70t-78 -61
q-22 0 -22 18q0 7 10 26z" />
    <glyph glyph-name="afii10062" unicode="&#x40e;" horiz-adv-x="635" 
d="M327 290l177 389q15 32 25 41t28 9t31 -13t13 -29q0 -15 -21 -58l-253 -522q-29 -60 -63 -89.5t-97 -29.5q-44 0 -76.5 12.5t-32.5 39.5q0 15 10 25t22 10q10 0 38 -5t38 -5q57 0 83 56l32 69l-239 439q-22 40 -22 56q0 18 12.5 30.5t32.5 12.5q30 0 54 -44zM193 876
q0 29 33 29q19 0 27 -23q18 -58 84 -58q65 0 84 58q8 23 26 23q33 0 33 -30q0 -40 -41.5 -76t-101.5 -36t-102 36.5t-42 76.5z" />
    <glyph glyph-name="afii10145" unicode="&#x40f;" horiz-adv-x="729" 
d="M600 0h-196v-159q0 -52 -40 -52q-39 0 -39 52v159h-196q-48 0 -48 48v622q0 58 48 58q21 0 34 -15t13 -43v-590h378v590q0 58 48 58q46 0 46 -58v-622q0 -48 -48 -48z" />
    <glyph glyph-name="afii10017" unicode="&#x410;" horiz-adv-x="688" 
d="M565 49l-64 158h-319l-62 -160q-14 -36 -24 -47.5t-31 -11.5q-18 0 -32 13t-14 29q0 14 14 50l227 563q20 51 34.5 68t44.5 17q29 0 43 -14t37 -70l235 -560q15 -37 15 -52q0 -16 -14 -30t-34 -14q-21 0 -30.5 11t-25.5 50zM338 619l-129 -335h263z" />
    <glyph glyph-name="afii10018" unicode="&#x411;" horiz-adv-x="680" 
d="M475 636h-298v-226h196q120 0 189 -57t69 -149t-63 -148t-185 -56h-222q-54 0 -67 13t-13 67v557q0 42 6.5 56.5t21.5 18.5q12 4 128 4h256l28 -6q19 -10 19 -34q0 -21 -13.5 -30.5t-51.5 -9.5zM376 331h-199v-251h199q78 0 118 34.5t40 91.5q0 56 -41 90.5t-117 34.5z
" />
    <glyph glyph-name="afii10019" unicode="&#x412;" horiz-adv-x="688" 
d="M387 0h-223h-6q-48 0 -61 11.5t-13 68.5v556q0 56 12.5 68t67.5 12h206q114 0 172 -47.5t58 -133.5q0 -107 -104 -157q138 -45 138 -176q0 -89 -62 -145.5t-185 -56.5zM335 639h-155v-230h183q71 0 107 32t36 84q0 58 -38.5 86t-132.5 28zM380 332h-200v-255h200
q79 0 117.5 35.5t38.5 93.5q0 60 -42 93t-114 33z" />
    <glyph glyph-name="afii10020" unicode="&#x413;" horiz-adv-x="562" 
d="M475 636h-299v-569q0 -46 -11 -62.5t-36 -16.5q-26 0 -37 16.5t-11 62.5v570q0 55 13 67t67 12h314q37 0 51 -9.5t14 -30.5q0 -40 -65 -40z" />
    <glyph glyph-name="afii10021" unicode="&#x414;" horiz-adv-x="677" 
d="M578 667v-587h16q48 0 48 -44v-164q0 -51 -40 -51q-17 0 -28.5 12.5t-11.5 38.5v128h-482v-128q0 -51 -41 -51q-17 0 -28 13t-11 38v164q0 44 45 44h11q33 61 49 117q16 58 26.5 175.5t10.5 238.5v56q0 49 49 49h338q49 0 49 -49zM483 80v556h-250q0 -367 -80 -556h330z
" />
    <glyph glyph-name="afii10022" unicode="&#x415;" horiz-adv-x="635" 
d="M516 639h-333v-230h306q37 0 50.5 -9t13.5 -29q0 -13 -3.5 -20t-18 -13t-42.5 -6h-306v-255h347q40 0 53 -9t13 -29q0 -21 -13.5 -30t-52.5 -9h-363q-58 4 -66 11q-10 7 -12 48q-2 15 -2 21v556q0 53 13 66.5t67 13.5h349q39 0 52.5 -9t13.5 -29q0 -21 -13.5 -30
t-52.5 -9z" />
    <glyph glyph-name="afii10024" unicode="&#x416;" horiz-adv-x="938" 
d="M517 669v-267q70 0 95 23.5t67 123.5q41 99 76.5 133t117.5 34q44 0 60 -10.5t16 -30.5q0 -16 -12 -27.5t-34 -11.5h-26q-43 0 -64 -22.5t-49 -94.5q-30 -76 -53 -105t-68 -48q51 -16 81 -55q41 -56 59 -84l81 -125q34 -52 34 -72q0 -18 -13 -30t-31 -12
q-21 0 -39.5 16.5t-44.5 59.5l-81 130q-50 84 -83 112.5t-89 28.5v-288q0 -59 -49 -59q-20 0 -34 14.5t-14 44.5v288q-57 0 -87.5 -27.5t-84.5 -113.5l-81 -130q-48 -76 -84 -76q-18 0 -31 12t-13 29q0 21 34 73l82 125q47 71 60 87q29 35 79 52q-46 20 -67 47t-53 108
q-30 76 -52.5 95.5t-61.5 19.5h-26q-22 0 -33.5 11.5t-11.5 27.5q0 20 15.5 30.5t59.5 10.5t73 -8.5t51 -32.5t35.5 -49.5t34.5 -76.5q41 -99 66.5 -122.5t95.5 -24.5v267q0 59 50 59q21 0 34 -15t13 -44z" />
    <glyph glyph-name="afii10025" unicode="&#x417;" horiz-adv-x="624" 
d="M434 376q66 -17 101 -64.5t35 -109.5q0 -89 -69 -151.5t-188 -62.5q-133 0 -198 83q-64 82 -64 128q0 18 13.5 29t32.5 11q15 0 24 -8t21 -34q60 -132 178 -132q69 0 110.5 41t41.5 98q0 59 -45 93t-121 34l-31 -1q-47 -2 -47 41q0 16 11.5 28t32.5 12q10 0 18 -1h15
q59 0 97.5 34.5t38.5 86.5q0 54 -37.5 87t-96.5 33q-119 0 -152 -120q-9 -33 -20.5 -43t-27.5 -10q-18 0 -31 11t-13 29q0 85 75 147.5t172 62.5q98 0 164 -55.5t66 -139.5q0 -102 -106 -157z" />
    <glyph glyph-name="afii10026" unicode="&#x418;" horiz-adv-x="729" 
d="M169 651v-509l356 530q26 39 36.5 47.5t30.5 8.5q35 0 45 -22t10 -71v-570q0 -45 -10.5 -61t-34.5 -16q-26 0 -37 15.5t-10 61.5l4 502l-349 -521q-25 -37 -37.5 -47.5t-32.5 -10.5q-38 0 -48 22t-10 75v566q0 45 10.5 61t34.5 16q25 0 35 -15.5t7 -61.5z" />
    <glyph glyph-name="afii10027" unicode="&#x419;" horiz-adv-x="729" 
d="M173 651l-4 -509l356 530q26 39 36.5 47.5t30.5 8.5q35 0 45 -22t10 -71v-570q0 -45 -10.5 -61t-34.5 -16q-26 0 -37 15.5t-10 61.5l4 502l-349 -521q-25 -37 -37.5 -47.5t-32.5 -10.5q-38 0 -48 22t-10 75v566q0 45 10.5 61t34.5 16q25 0 35.5 -15.5t10.5 -61.5z
M221 868q0 29 33 29q19 0 27 -23q18 -58 84 -58q65 0 84 58q8 23 26 23q33 0 33 -30q0 -40 -41.5 -76t-101.5 -36t-102 36.5t-42 76.5z" />
    <glyph glyph-name="afii10028" unicode="&#x41a;" horiz-adv-x="598" 
d="M178 669v-267q70 0 95 23.5t67 123.5q23 53 36 77.5t35 49t50.5 32.5t72.5 8q45 0 60 -10.5t15 -30.5q0 -16 -11.5 -27.5t-33.5 -11.5h-26q-43 0 -63.5 -22t-50.5 -95q-29 -76 -52 -105t-68 -48q47 -15 81 -55q31 -43 58 -84l82 -125q34 -52 34 -72q0 -18 -12.5 -30
t-30.5 -12q-21 0 -40 17t-45 59l-80 130q-52 84 -84.5 112t-88.5 29v-288q0 -59 -49 -59q-22 0 -35 15t-13 44v622q0 59 49 59q20 0 34 -14.5t14 -44.5z" />
    <glyph glyph-name="afii10029" unicode="&#x41b;" horiz-adv-x="693" 
d="M517 45v591h-306v-373q0 -195 -42 -235q-41 -40 -101 -40q-95 0 -95 48q0 15 11.5 25t26.5 10q1 0 21.5 -3t25.5 -3q31 0 45 28.5t14 109.5v464q0 49 48 49h398q49 0 49 -49v-622q0 -57 -48 -57q-21 0 -34 15t-13 42z" />
    <glyph glyph-name="afii10030" unicode="&#x41c;" horiz-adv-x="836" 
d="M76 58v578q0 28 7 46t20.5 24.5t22 8t22.5 1.5q48 0 62 -8.5t29 -53.5l149 -445q20 -59 35 -106q9 29 38 115l148 433q16 47 27 56t56 9q46 0 57 -15t11 -65v-587q0 -61 -46 -61t-46 57v554l-186 -535q-16 -47 -26.5 -61.5t-35.5 -14.5q-27 0 -39 13t-29 63l-184 545
v-550q0 -14 -1 -22.5t-4.5 -21.5t-14 -20t-26.5 -7q-20 0 -31 12t-13 25t-2 33z" />
    <glyph glyph-name="afii10031" unicode="&#x41d;" horiz-adv-x="729" 
d="M177 649v-235h375v236q0 28 5.5 45.5t15 23.5t15 7.5t13.5 1.5q30 0 38.5 -18.5t8.5 -59.5v-584q0 -44 -11 -61t-36 -17q-9 0 -14.5 1.5t-15 7.5t-14.5 23.5t-5 45.5v271h-375v-270q0 -44 -11 -61.5t-38 -17.5t-37 16t-10 63v582q0 46 10.5 62.5t36.5 16.5t37.5 -17.5
t11.5 -61.5z" />
    <glyph glyph-name="afii10032" unicode="&#x41e;" horiz-adv-x="781" 
d="M392 728q158 0 248 -103.5t90 -266.5q0 -164 -89.5 -267t-246.5 -103q-164 0 -253.5 103t-89.5 267q0 165 90 267.5t251 102.5zM390 65q104 0 173 77.5t69 215.5t-70 215.5t-172 77.5t-171.5 -78t-69.5 -227q0 -123 68.5 -202t172.5 -79z" />
    <glyph glyph-name="afii10033" unicode="&#x41f;" horiz-adv-x="729" 
d="M554 45v591h-378v-591q0 -57 -48 -57q-20 0 -33.5 13.5t-13.5 43.5v622q0 49 48 49h471q48 0 48 -49v-622q0 -57 -48 -57q-46 0 -46 57z" />
    <glyph glyph-name="afii10034" unicode="&#x420;" horiz-adv-x="635" 
d="M346 294h-163v-227q0 -45 -11.5 -62t-36.5 -17q-27 0 -37.5 16.5t-10.5 62.5v569q0 56 14 68t74 12h171q130 0 187 -58t57 -150q0 -98 -63 -156t-181 -58zM321 639h-138v-268h138q171 0 171 135q0 27 -6 47.5t-22.5 41.5t-52.5 32.5t-90 11.5z" />
    <glyph glyph-name="afii10035" unicode="&#x421;" horiz-adv-x="729" 
d="M636 263q16 0 28.5 -11.5t12.5 -28.5q0 -81 -83.5 -158t-199.5 -77q-86 0 -152.5 30t-106.5 81.5t-60 117t-20 141.5q0 165 94 267.5t240 102.5q83 0 147.5 -35t100.5 -91q34 -56 34 -79q0 -18 -10.5 -30t-28.5 -12q-28 0 -57 53q-64 117 -182 117q-106 0 -173 -78
t-67 -219q0 -138 63.5 -213.5t168.5 -75.5q153 0 208 157q15 41 43 41z" />
    <glyph glyph-name="afii10036" unicode="&#x422;" horiz-adv-x="583" 
d="M502 639h-163v-572q0 -46 -11 -62.5t-37 -16.5q-29 0 -38.5 18.5t-9.5 60.5v572h-162q-40 0 -54.5 9.5t-14.5 28.5q0 20 15 29.5t54 9.5h421q39 0 54 -10t15 -29t-15 -28.5t-54 -9.5z" />
    <glyph glyph-name="afii10037" unicode="&#x423;" horiz-adv-x="621" 
d="M327 290l177 389q15 32 25 41t28 9t31 -13t13 -29q0 -15 -21 -58l-253 -522q-29 -60 -63 -89.5t-97 -29.5q-44 0 -76.5 12.5t-32.5 39.5q0 15 10 25t22 10q10 0 38 -5t38 -5q57 0 83 56l32 69l-239 439q-22 40 -22 56q0 18 12.5 30.5t32.5 12.5q30 0 54 -44z" />
    <glyph glyph-name="afii10038" unicode="&#x424;" horiz-adv-x="781" 
d="M343 630v44q0 54 48 54q47 0 47 -54v-44q133 -7 212.5 -82t79.5 -187q0 -110 -78 -185t-214 -84v-50q0 -54 -48 -54q-20 0 -33.5 13t-13.5 41v50q-127 5 -209.5 78.5t-82.5 190.5t83 190.5t209 78.5zM343 172v379q-89 -4 -141.5 -54t-52.5 -136t52.5 -135.5t141.5 -53.5z
M438 551v-377q90 4 142 53.5t52 133.5q0 85 -51 134.5t-143 55.5z" />
    <glyph glyph-name="afii10039" unicode="&#x425;" horiz-adv-x="604" 
d="M46 85l205 289l-175 257q-25 37 -25 56q0 18 12.5 29.5t32.5 11.5q15 0 25.5 -10t32.5 -43l150 -231l167 237q22 31 31 39t24 8q17 0 28.5 -10t11.5 -27q0 -18 -25 -53l-181 -258l195 -292q25 -38 25 -57q0 -18 -13 -30.5t-34 -12.5q-15 0 -26.5 11t-35.5 47l-167 256
l-186 -267q-21 -31 -30.5 -39t-25.5 -8q-19 0 -30.5 11.5t-11.5 30.5t26 55z" />
    <glyph glyph-name="afii10040" unicode="&#x426;" horiz-adv-x="749" 
d="M176 670v-590h378v590q0 58 48 58q19 0 32.5 -14t13.5 -44v-590h18q48 0 48 -49v-191q0 -51 -40 -51q-17 0 -28 13t-11 38v160h-506q-48 0 -48 48v622q0 58 48 58q20 0 33.5 -14t13.5 -44z" />
    <glyph glyph-name="afii10041" unicode="&#x427;" horiz-adv-x="689" 
d="M514 45v244q-128 -48 -223 -48q-74 0 -132 35q-57 34 -76.5 85.5t-19.5 143.5v165q0 58 48 58q20 0 33.5 -14t13.5 -44v-156q0 -111 34.5 -153.5t124.5 -42.5q98 0 197 48v304q0 58 48 58q19 0 32.5 -14t13.5 -44v-625q0 -57 -47 -57t-47 57z" />
    <glyph glyph-name="afii10042" unicode="&#x428;" horiz-adv-x="921" 
d="M176 670v-590h238v590q0 58 47 58t47 -58v-590h238v590q0 58 48 58q20 0 33.5 -14t13.5 -44v-622q0 -48 -49 -48h-663q-48 0 -48 48v622q0 58 48 58q20 0 33.5 -14t13.5 -44z" />
    <glyph glyph-name="afii10043" unicode="&#x429;" horiz-adv-x="940" 
d="M176 670v-590h238v590q0 58 47 58t47 -58v-590h238v590q0 58 48 58q20 0 33.5 -14t13.5 -44v-590h16q49 0 49 -49v-190q0 -52 -41 -52q-39 0 -39 52v159h-697q-48 0 -48 48v622q0 58 48 58q20 0 33.5 -14t13.5 -44z" />
    <glyph glyph-name="afii10044" unicode="&#x42a;" horiz-adv-x="815" 
d="M325 667v-257h171q132 0 203 -46.5t71 -156.5q0 -42 -12.5 -77t-41.5 -65.5t-83.5 -47.5t-130.5 -17h-224q-48 0 -48 48v588h-179q-51 0 -51 40q0 17 12.5 28.5t38.5 11.5h225q49 0 49 -49zM325 331v-250h173q100 0 136.5 33.5t36.5 91.5q0 68 -42 96.5t-154 28.5h-150z
" />
    <glyph glyph-name="afii10045" unicode="&#x42b;" horiz-adv-x="882" 
d="M801 670v-625q0 -57 -48 -57q-46 0 -46 57v625q0 58 48 58q20 0 33 -14.5t13 -43.5zM176 670v-260h171q167 0 220 -62q54 -63 54 -140q0 -91 -61 -149.5t-206 -58.5h-225q-48 0 -48 48v622q0 58 48 58q20 0 33.5 -14t13.5 -44zM176 331v-251h173q102 0 137.5 34t35.5 93
q0 79 -67 109q-34 15 -141 15h-138z" />
    <glyph glyph-name="afii10046" unicode="&#x42c;" horiz-adv-x="666" 
d="M176 670v-260h171q167 0 220 -62q54 -63 54 -140q0 -91 -61 -149.5t-206 -58.5h-225q-48 0 -48 48v622q0 58 48 58q20 0 33.5 -14t13.5 -44zM176 331v-251h173q102 0 137.5 34t35.5 93q0 79 -67 109q-34 15 -141 15h-138z" />
    <glyph glyph-name="afii10047" unicode="&#x42d;" horiz-adv-x="729" 
d="M575 330h-224q-52 0 -52 40q0 39 52 39h221q-12 115 -77 178.5t-159 63.5q-118 0 -178 -110q-19 -34 -32 -47t-29 -13q-17 0 -28 12.5t-11 28.5q0 52 75 128q75 78 207 78q147 0 240.5 -103t93.5 -267q0 -103 -35.5 -185t-113 -133.5t-187.5 -51.5q-60 0 -110.5 19
t-82 47t-53.5 61.5t-31 61.5t-9 48q0 15 12.5 26.5t28.5 11.5q28 0 43 -41q55 -157 208 -157q98 0 161 67t70 198z" />
    <glyph glyph-name="afii10048" unicode="&#x42e;" horiz-adv-x="1011" 
d="M176 670v-278h138q10 152 99.5 244t223.5 92q140 0 231.5 -100t91.5 -266q0 -172 -91 -273t-236 -101q-131 0 -217 86.5t-102 237.5h-138v-267q0 -57 -48 -57q-20 0 -33.5 13.5t-13.5 43.5v625q0 58 48 58q20 0 33.5 -14t13.5 -44zM637 651q-105 0 -166.5 -78t-61.5 -219
q0 -136 62 -212.5t164 -76.5q106 0 166.5 77t60.5 218q0 135 -61 213t-164 78z" />
    <glyph glyph-name="afii10049" unicode="&#x42f;" horiz-adv-x="688" 
d="M506 67v254h-84q-62 0 -103 -33t-101 -128l-68 -108q-27 -43 -38.5 -54t-31.5 -10q-18 0 -31 12t-13 28q0 14 3.5 21.5t29.5 51.5l65 109q48 80 117 121q-190 30 -190 190q0 84 56 139.5t175 55.5h230q54 0 67 -12.5t13 -65.5v-571q0 -46 -11 -62.5t-37 -16.5
q-25 0 -36.5 16.5t-11.5 62.5zM506 396v242h-171q-100 0 -137.5 -33t-37.5 -86q0 -58 40 -90.5t139 -32.5h167z" />
    <glyph glyph-name="afii10065" unicode="&#x430;" horiz-adv-x="563" 
d="M415 73q-86 -85 -205 -85q-76 0 -122 42t-46 106q0 56 32.5 91.5t76.5 47.5q15 4 127 27.5t129 29.5q0 77 -26.5 105.5t-91.5 28.5q-117 0 -146 -72q-11 -26 -20 -34t-23 -8q-16 0 -27.5 11t-11.5 26q0 52 59 96.5t163 44.5q57 0 96 -10.5t61.5 -27t34.5 -46t15.5 -58
t3.5 -72.5l-3 -163q-1 -30 11.5 -79t12.5 -52q0 -13 -12.5 -23.5t-29.5 -10.5q-36 0 -58 85zM408 270q-16 -6 -119 -30t-112 -28q-22 -9 -34 -29.5t-12 -40.5q0 -36 27 -61t72 -25q55 0 104 26q47 25 60.5 64.5t13.5 123.5z" />
    <glyph glyph-name="afii10066" unicode="&#x431;" horiz-adv-x="580" 
d="M124 420q66 99 177 99q106 0 171 -73.5t65 -187.5q0 -116 -63 -193t-176 -77q-164 0 -223 151q-27 69 -27 232q0 119 19.5 184t62.5 102q40 35 94.5 46t165.5 11q36 0 45 3q4 1 21.5 14.5t29.5 13.5q37 0 37 -33q0 -18 -4.5 -30.5t-18 -25.5t-44 -19.5t-77.5 -5.5l-59 1
q-111 1 -152.5 -44t-43.5 -168zM298 55q67 0 108.5 56.5t41.5 149.5q0 90 -41.5 140t-111.5 50q-69 0 -109.5 -55.5t-40.5 -150.5q0 -88 43.5 -139t109.5 -51z" />
    <glyph glyph-name="afii10067" unicode="&#x432;" horiz-adv-x="548" 
d="M415 270q37 -12 61 -46.5t24 -78.5q0 -65 -46.5 -105t-145.5 -40h-186q-27 0 -37.5 11t-10.5 37v422q0 30 9 39.5t39 9.5h154q96 0 148 -31.5t52 -106.5q0 -74 -61 -111zM160 451v-153h95q78 0 105 18.5t27 56.5q0 43 -29 60.5t-100 17.5h-98zM160 230v-162h117
q74 0 103.5 19.5t29.5 61.5q0 47 -35 64t-107 17h-108z" />
    <glyph glyph-name="afii10068" unicode="&#x433;" horiz-adv-x="396" 
d="M340 451h-180v-409q0 -54 -43 -54q-18 0 -30.5 13t-12.5 41v428q0 28 9.5 38.5t38.5 10.5h218q44 0 44 -35q0 -33 -44 -33z" />
    <glyph glyph-name="afii10069" unicode="&#x434;" horiz-adv-x="589" 
d="M497 470v-402h11q45 0 45 -48v-135q0 -45 -34 -45t-34 45v115h-417v-115q0 -45 -35 -45q-33 0 -33 45v135q0 48 46 48q47 72 68 189t21 198q0 37 10 50.5t39 13.5h264q28 0 38.5 -10t10.5 -39zM410 451h-202q-5 -227 -79 -383h281v383z" />
    <glyph glyph-name="afii10070" unicode="&#x435;" horiz-adv-x="563" 
d="M444 242h-311q2 -92 45.5 -141t116.5 -49q57 0 86 23q9 8 29 33t38 44t30 19q14 0 23.5 -10t9.5 -23q0 -18 -14 -42t-40 -49t-70 -42t-96 -17q-117 0 -182 72.5t-65 199.5q0 124 65 197t180 73q109 0 170.5 -70.5t61.5 -161.5q0 -18 -3.5 -28t-21.5 -19t-52 -9zM134 302
h298q-3 78 -42.5 121t-103.5 43q-62 0 -103 -43t-49 -121z" />
    <glyph glyph-name="afii10072" unicode="&#x436;" horiz-adv-x="669" 
d="M282 294v188q0 48 41 48q43 0 43 -48v-188q40 0 60.5 20t46.5 90q13 40 21.5 59.5t23 37t34.5 23.5t52 6q44 0 44 -35t-46 -36q-26 -1 -37 -11t-18 -35q-21 -76 -39.5 -102.5t-58.5 -44.5q59 -15 112 -105l55 -93q19 -33 19 -46t-12 -23.5t-29 -10.5q-28 0 -50 39
l-78 134q-27 47 -48.5 62.5t-51.5 16.5v-204q0 -48 -42 -48t-42 48v204q-31 0 -52 -16t-48 -63l-79 -134q-23 -39 -50 -39q-15 0 -27.5 11t-12.5 24q0 16 18 45l56 93q55 91 112 105q-41 18 -59 44t-40 103q-7 26 -17.5 35.5t-37.5 10.5q-45 1 -45 36t43 35q61 0 84.5 -26
t46.5 -100q15 -50 33.5 -75t33.5 -30t41 -5z" />
    <glyph glyph-name="afii10073" unicode="&#x437;" horiz-adv-x="467" 
d="M350 275q78 -42 78 -130q0 -71 -51 -114t-142 -43q-88 0 -141.5 41.5t-53.5 95.5q0 18 12 30t30 12q23 0 38 -32q39 -80 116 -80q44 0 73 27t29 66q0 37 -26 62t-72 25h-16q-38 0 -38 34q0 30 46 33q40 2 65 21.5t25 56.5t-25 59.5t-64 22.5q-35 0 -56.5 -14.5
t-41.5 -54.5q-14 -29 -33 -29q-18 0 -30 12.5t-12 28.5q0 41 48.5 83t125.5 42q79 0 128 -45t49 -109t-61 -101z" />
    <glyph glyph-name="afii10074" unicode="&#x438;" horiz-adv-x="567" 
d="M160 477v-368l218 389q17 30 52 32q35 0 49 -13t14 -44v-431q0 -54 -44 -54q-42 0 -42 54v365l-219 -386q-12 -22 -21.5 -28t-32.5 -6q-32 0 -46 14t-14 44v432q0 53 44 53q17 0 29.5 -13t12.5 -40z" />
    <glyph glyph-name="afii10075" unicode="&#x439;" horiz-adv-x="552" 
d="M160 477v-368l218 389q17 30 52 32q35 0 49 -13t14 -44v-431q0 -54 -44 -54q-42 0 -42 54v365l-219 -386q-12 -22 -21.5 -28t-32.5 -6q-32 0 -46 14t-14 44v432q0 53 44 53q17 0 29.5 -13t12.5 -40zM132 701q0 29 33 29q19 0 27 -23q18 -58 84 -58q65 0 84 58q8 23 26 23
q33 0 33 -30q0 -40 -41.5 -76t-101.5 -36t-102 36.5t-42 76.5z" />
    <glyph glyph-name="afii10076" unicode="&#x43a;" horiz-adv-x="475" 
d="M160 240v-204q0 -48 -43 -48t-43 48v446q0 48 43 48t43 -48v-188q45 0 65.5 24t48.5 108q18 57 44 80.5t80 23.5q44 0 44 -33q0 -31 -46 -34q-25 -2 -36 -11t-19 -36q-23 -81 -41.5 -107t-56.5 -43q55 -14 111 -105l56 -93q19 -31 19 -46q0 -13 -12 -23.5t-29 -10.5
q-28 0 -50 39l-78 134q-29 47 -50.5 63t-49.5 16z" />
    <glyph glyph-name="afii10077" unicode="&#x43b;" horiz-adv-x="571" 
d="M411 42v409h-222v-312q0 -93 -28.5 -122t-95.5 -29q-65 0 -65 38q0 31 40 30l19 -1q28 -1 36 16t8 80v307q0 61 59 61h276q60 0 60 -61v-416q0 -54 -44 -54q-19 0 -31 13.5t-12 40.5z" />
    <glyph glyph-name="afii10078" unicode="&#x43c;" horiz-adv-x="698" 
d="M542 39v411l-137 -417q-9 -27 -21.5 -36t-34.5 -9q-23 0 -35 9.5t-21 35.5l-136 417v-411q0 -51 -42 -51q-41 0 -41 51v431q0 34 15 47t54 13q41 0 54 -7.5t25 -41.5l130 -377l124 377q10 32 23.5 40.5t49.5 8.5q44 0 60 -12.5t16 -47.5v-431q0 -51 -43 -51q-40 0 -40 51
z" />
    <glyph glyph-name="afii10079" unicode="&#x43d;" horiz-adv-x="567" 
d="M160 477v-177h247v177q0 53 44 53q18 0 30 -13.5t12 -39.5v-435q0 -54 -44 -54q-42 0 -42 54v190h-247v-190q0 -54 -44 -54q-17 0 -29.5 13t-12.5 41v435q0 53 44 53q17 0 29.5 -12.5t12.5 -40.5z" />
    <glyph glyph-name="afii10080" unicode="&#x43e;" horiz-adv-x="573" 
d="M286 530q112 0 178 -71.5t66 -199.5t-66.5 -199.5t-177.5 -71.5q-112 0 -178 72.5t-66 188.5q0 134 64 207.5t180 73.5zM287 56q72 0 113 54.5t41 148.5q0 95 -41.5 149t-112.5 54q-72 0 -114 -54.5t-42 -148.5t42 -148.5t114 -54.5z" />
    <glyph glyph-name="afii10081" unicode="&#x43f;" horiz-adv-x="556" 
d="M396 41v410h-236v-410q0 -53 -43 -53q-17 0 -30 13t-13 40v417q0 61 59 61h290q60 0 60 -61v-417q0 -53 -45 -53q-17 0 -29.5 12.5t-12.5 40.5z" />
    <glyph glyph-name="afii10082" unicode="&#x440;" horiz-adv-x="615" 
d="M157 471v-31q71 90 184 90q109 0 170 -79t61 -197q0 -117 -60 -191.5t-169 -74.5q-114 0 -183 90v-215q0 -43 -10 -58t-33 -15q-14 0 -21.5 3t-15 19.5t-7.5 49.5v599q0 40 10 54.5t32 14.5q42 0 42 -59zM483 255q0 95 -46 151t-113 56q-74 0 -119.5 -52.5t-45.5 -145.5
q0 -100 48 -154t120 -54q70 0 113 55.5t43 143.5z" />
    <glyph glyph-name="afii10083" unicode="&#x441;" horiz-adv-x="563" 
d="M476 192q16 0 28 -11.5t12 -28.5q0 -52 -66 -108t-157 -56q-123 0 -187 72t-64 198q0 125 64 198.5t183 73.5q96 0 156.5 -51.5t60.5 -95.5q0 -15 -12 -26.5t-27 -11.5q-21 0 -42 35q-49 82 -135 82q-73 0 -117 -54t-44 -146q0 -96 42.5 -151t116.5 -55q92 0 140 86
q18 33 26 41.5t22 8.5z" />
    <glyph glyph-name="afii10084" unicode="&#x442;" horiz-adv-x="470" 
d="M414 451h-136v-409q0 -54 -44 -54q-19 0 -31 13.5t-12 40.5v409h-135q-44 0 -44 34t44 34h358q44 0 44 -35q0 -33 -44 -33z" />
    <glyph glyph-name="afii10085" unicode="&#x443;" horiz-adv-x="510" 
d="M183 -69l27 69l-177 449q-11 28 -11 41q0 15 12.5 27.5t30.5 12.5q16 0 26.5 -10t21.5 -41l142 -387l147 382q14 36 22 46t26 10q16 0 27.5 -11.5t11.5 -24.5q0 -12 -12 -43l-208 -533q-30 -75 -62.5 -101.5t-89.5 -26.5q-84 0 -84 45q0 15 9.5 25t24.5 10l44 -3
q47 0 72 64z" />
    <glyph glyph-name="afii10086" unicode="&#x444;" horiz-adv-x="834" 
d="M461 674v-206q56 62 131 62q88 0 144 -75t56 -195t-58 -196t-145 -76q-71 0 -128 57v-202q0 -52 -44 -52q-19 0 -31 13t-12 39v202q-52 -57 -128 -57q-87 0 -145.5 75.5t-58.5 201.5q0 113 56 189t148 76q78 0 128 -62v206q0 54 44 54q18 0 30.5 -13t12.5 -41zM254 462
q-57 0 -89.5 -54t-32.5 -148q0 -103 35.5 -154t92.5 -51q54 0 84 44.5t30 153.5q0 209 -120 209zM579 462q-57 0 -87.5 -46.5t-30.5 -164.5q0 -196 113 -196q56 0 92.5 53.5t36.5 154.5q0 98 -34 148.5t-90 50.5z" />
    <glyph glyph-name="afii10087" unicode="&#x445;" horiz-adv-x="510" 
d="M255 211l-136 -188q-25 -35 -49 -35q-18 0 -29.5 11.5t-11.5 25.5q0 15 18 39l155 207l-137 178q-21 28 -21 44q0 13 10.5 25t30.5 12q11 0 20 -5.5t13 -10t16 -21.5l121 -160l119 160q27 37 51 37q17 0 29 -11t12 -24q0 -17 -23 -46l-135 -174l151 -206q22 -29 22 -44
t-12.5 -26t-27.5 -11q-25 0 -52 37z" />
    <glyph glyph-name="afii10088" unicode="&#x446;" horiz-adv-x="570" 
d="M160 477v-409h236v409q0 53 44 53q19 0 31 -13.5t12 -39.5v-409q57 0 57 -60v-175q0 -42 -35 -42q-33 0 -33 42v167h-339q-59 0 -59 60v417q0 53 44 53q17 0 29.5 -13t12.5 -40z" />
    <glyph glyph-name="afii10089" unicode="&#x447;" horiz-adv-x="542" 
d="M381 277v200q0 53 44 53q17 0 30 -13t13 -40v-435q0 -54 -45 -54q-18 0 -30 14t-12 40v167q-81 -25 -152 -25q-82 0 -131.5 52.5t-49.5 146.5v94q0 53 45 53q17 0 29.5 -12.5t12.5 -40.5v-57q0 -92 24 -130.5t102 -38.5q47 0 120 26z" />
    <glyph glyph-name="afii10090" unicode="&#x448;" horiz-adv-x="812" 
d="M160 477v-409h203v409q0 53 44 53q17 0 29.5 -13t12.5 -40v-409h202v409q0 53 44 53q18 0 30.5 -13t12.5 -40v-417q0 -60 -60 -60h-545q-59 0 -59 60v417q0 53 44 53q17 0 29.5 -13t12.5 -40z" />
    <glyph glyph-name="afii10091" unicode="&#x449;" horiz-adv-x="827" 
d="M160 477v-409h203v409q0 53 44 53q17 0 29.5 -13t12.5 -40v-409h202v409q0 53 44 53q18 0 30.5 -13t12.5 -40v-409q58 0 58 -60v-175q0 -42 -34 -42t-34 42v167h-595q-59 0 -59 60v417q0 53 44 53q17 0 29.5 -13t12.5 -40z" />
    <glyph glyph-name="afii10092" unicode="&#x44a;" horiz-adv-x="638" 
d="M263 458v-145h112q112 0 169.5 -43t57.5 -113q0 -67 -50.5 -112t-155.5 -45h-160q-60 0 -60 60v391h-132q-44 0 -44 34t44 34h160q59 0 59 -61zM263 246v-178h93q50 0 82.5 7t48 21t20.5 28t5 33q0 43 -31.5 66t-112.5 23h-105z" />
    <glyph glyph-name="afii10093" unicode="&#x44b;" horiz-adv-x="727" 
d="M653 477v-435q0 -54 -44 -54q-18 0 -30.5 13t-12.5 41v435q0 53 44 53q18 0 30.5 -13t12.5 -40zM160 477v-164h113q115 0 171 -44t56 -112q0 -67 -50.5 -112t-156.5 -45h-160q-59 0 -59 60v417q0 53 44 53q42 0 42 -53zM160 246v-178h94q92 0 124 23t32 66q0 45 -33 67
t-111 22h-106z" />
    <glyph glyph-name="afii10094" unicode="&#x44c;" horiz-adv-x="536" 
d="M160 477v-164h113q115 0 171 -44t56 -112q0 -67 -50.5 -112t-156.5 -45h-160q-59 0 -59 60v417q0 53 44 53q42 0 42 -53zM160 246v-178h94q92 0 124 23t32 66q0 45 -33 67t-111 22h-106z" />
    <glyph glyph-name="afii10095" unicode="&#x44d;" horiz-adv-x="562" 
d="M430 223h-149q-44 0 -44 34t44 34h149q-9 85 -52 128t-107 43q-89 0 -135 -82q-20 -35 -41 -35q-16 0 -28 11.5t-12 26.5q0 45 61 96t155 51q118 0 183.5 -72.5t65.5 -200.5q0 -124 -65 -196.5t-181 -72.5q-53 0 -98.5 18t-72.5 44.5t-42 53.5t-15 48q0 17 12 28.5
t27 11.5q13 0 22.5 -9t24.5 -37q48 -91 142 -91q134 0 156 168z" />
    <glyph glyph-name="afii10096" unicode="&#x44e;" horiz-adv-x="759" 
d="M160 477v-177h108q12 111 69.5 170.5t150.5 59.5q109 0 168.5 -72t59.5 -197q0 -133 -60 -203t-166 -70q-98 0 -156.5 65t-65.5 179h-108v-190q0 -54 -43 -54q-18 0 -30.5 13t-12.5 41v435q0 53 44 53q17 0 29.5 -12.5t12.5 -40.5zM627 255q0 103 -35 155t-99 52
q-65 0 -101 -50.5t-36 -152.5q0 -96 35.5 -150t97.5 -54q64 0 101 49.5t37 150.5z" />
    <glyph glyph-name="afii10097" unicode="&#x44f;" horiz-adv-x="549" 
d="M194 214q-144 28 -144 153q0 70 48.5 111t136.5 41h181q60 0 60 -61v-416q0 -54 -44 -54q-43 0 -43 54v163h-52q-44 0 -66.5 -11.5t-42.5 -40.5l-93 -126q-24 -32 -53 -32q-17 0 -27.5 10t-10.5 23q0 14 22 45l46 67q44 63 82 74zM389 272v179h-133q-117 0 -117 -87
q0 -47 34 -69.5t118 -22.5h98z" />
    <glyph glyph-name="afii10071" unicode="&#x451;" horiz-adv-x="563" 
d="M444 242h-311q2 -92 45.5 -141t116.5 -49q57 0 86 23q9 8 29 33t38 44t30 19q14 0 23.5 -10t9.5 -23q0 -18 -14 -42t-40 -49t-70 -42t-96 -17q-117 0 -182 72.5t-65 199.5q0 124 65 197t180 73q109 0 170.5 -70.5t61.5 -161.5q0 -18 -3.5 -28t-21.5 -19t-52 -9zM134 302
h298q-3 78 -42.5 121t-103.5 43q-62 0 -103 -43t-49 -121zM198 681q20 0 33.5 -14t13.5 -33t-13.5 -33t-33.5 -14t-33.5 14t-13.5 33t13.5 33t33.5 14zM363 681q20 0 33.5 -14t13.5 -33t-13.5 -33t-33.5 -14t-33.5 14t-13.5 33t13.5 33t33.5 14z" />
    <glyph glyph-name="afii10099" unicode="&#x452;" horiz-adv-x="573" 
d="M161 582v-138q68 86 163 86q83 0 131 -48.5t48 -148.5v-362q0 -79 -10 -108q-10 -32 -42 -52t-79 -20q-82 0 -82 45q0 35 39 35q3 0 17.5 -1.5t19.5 -1.5q28 0 39.5 21t11.5 82v341q0 146 -109 146q-46 0 -82 -25.5t-51 -65.5q-14 -40 -14 -135v-172q0 -42 -11 -57
t-34 -15q-22 0 -32 15t-10 57v522q-42 0 -56 6t-14 23t14 23t56 6v16q0 41 9 56.5t33 15.5q25 0 35 -14.5t10 -57.5v-16h112q37 0 49 -7t12 -22t-12 -22t-49 -7h-112z" />
    <glyph glyph-name="afii10100" unicode="&#x453;" horiz-adv-x="383" 
d="M340 451h-180v-409q0 -54 -43 -54q-18 0 -30.5 13t-12.5 41v428q0 28 9.5 38.5t38.5 10.5h218q44 0 44 -35q0 -33 -44 -33zM177 622l25 49q6 11 9.5 17t6.5 12t7 8.5t5.5 5t8.5 3t8.5 0.5h12h14.5h24q30 0 30 -8q0 -9 -61 -70t-78 -61q-22 0 -22 18q0 7 10 26z" />
    <glyph glyph-name="afii10101" unicode="&#x454;" horiz-adv-x="562" 
d="M281 223h-148q23 -168 156 -168q93 0 141 91q14 28 23.5 37t23.5 9q16 0 28 -11.5t12 -28.5q0 -49 -63.5 -106.5t-159.5 -57.5q-123 0 -187.5 72t-64.5 197q0 124 64.5 198.5t182.5 74.5q97 0 157.5 -51t60.5 -96q0 -15 -12 -26.5t-28 -11.5q-21 0 -41 35q-46 82 -135 82
q-64 0 -106.5 -43t-51.5 -128h148q44 0 44 -35q0 -33 -44 -33z" />
    <glyph glyph-name="afii10102" unicode="&#x455;" horiz-adv-x="510" 
d="M132 395q0 -35 34.5 -54t128.5 -40q90 -20 131 -56.5t41 -93.5q0 -73 -56.5 -118t-161.5 -45q-98 0 -153 45t-55 98q0 15 11 25.5t27 10.5q25 0 40 -34q36 -83 136 -83q55 0 88 23.5t33 59.5q0 27 -20 50q-12 14 -114 46t-113 37q-36 17 -58 47.5t-22 68.5q0 61 51 104.5
t143 43.5q93 0 145 -41t52 -84q0 -36 -37 -36q-16 0 -23.5 7t-19.5 32q-28 60 -115 60q-51 0 -82 -20t-31 -53z" />
    <glyph glyph-name="afii10103" unicode="&#x456;" horiz-adv-x="240" 
d="M120 713q20 0 34 -14t14 -34t-14 -34.5t-34 -14.5t-34 14.5t-14 34.5t14 34t34 14zM164 459v-400q0 -39 -10 -55t-34 -16q-22 0 -33 14.5t-11 56.5v400q0 24 4 39.5t12 22t14 8t15 1.5q25 0 34 -15t9 -56z" />
    <glyph glyph-name="afii10104" unicode="&#x457;" horiz-adv-x="240" 
d="M164 459v-400q0 -39 -10 -55t-34 -16q-22 0 -33 14.5t-11 56.5v400q0 24 4 39.5t12 22t14 8t15 1.5q25 0 34 -15t9 -56zM52 687q20 0 33.5 -14t13.5 -33t-13.5 -33t-33.5 -14t-33.5 14t-13.5 33t13.5 33t33.5 14zM217 687q20 0 33.5 -14t13.5 -33t-13.5 -33t-33.5 -14
t-33.5 14t-13.5 33t13.5 33t33.5 14z" />
    <glyph glyph-name="afii10105" unicode="&#x458;" horiz-adv-x="240" 
d="M121 617q-20 0 -34.5 14.5t-14.5 34.5t14.5 34t34.5 14t34 -14t14 -34t-14 -34.5t-34 -14.5zM164 460v-487q0 -81 -12 -114q-12 -32 -45.5 -50.5t-74.5 -18.5q-82 0 -82 47q0 35 39 35q2 0 18 -1.5t18 -1.5q31 0 41.5 22.5t10.5 79.5v489q0 41 10.5 56t32.5 15t33 -13.5
t11 -57.5z" />
    <glyph glyph-name="afii10106" unicode="&#x459;" horiz-adv-x="873" 
d="M498 458v-145h111q114 0 170.5 -44t56.5 -112q0 -66 -49.5 -111.5t-157.5 -45.5h-159q-59 0 -59 60v391h-222v-312q0 -93 -28.5 -122t-95.5 -29q-65 0 -65 38q0 31 40 30l19 -1q28 -1 36 16t8 80v307q0 61 60 61h265q42 0 56 -14t14 -47zM498 246v-178h92
q85 0 121.5 20.5t36.5 68.5q0 45 -34 67t-112 22h-104z" />
    <glyph glyph-name="afii10107" unicode="&#x45a;" horiz-adv-x="824" 
d="M449 477v-177h121q104 0 161 -41.5t57 -107.5q0 -65 -50.5 -108t-155.5 -43h-160q-60 0 -60 60v172h-202v-190q0 -54 -44 -54q-17 0 -29.5 13t-12.5 41v435q0 53 44 53q17 0 29.5 -12.5t12.5 -40.5v-177h202v177q0 53 44 53q17 0 30 -13t13 -40zM449 232v-164h93
q96 0 126 21.5t30 58.5q0 38 -29 61t-115 23h-105z" />
    <glyph glyph-name="afii10108" unicode="&#x45b;" horiz-adv-x="573" 
d="M74 60v522q-42 0 -56 6t-14 23t14 23t56 6v16q0 41 9 56.5t33 15.5q25 0 35 -14.5t10 -57.5v-16h112q37 0 49 -7t12 -22t-12 -22t-49 -7h-112v-138q68 86 163 86q83 0 131 -48.5t48 -148.5v-273q0 -42 -9.5 -57t-35.5 -15q-23 0 -32 15t-9 57v252q0 146 -109 146
q-46 0 -82 -25.5t-51 -65.5q-14 -40 -14 -135v-172q0 -42 -11 -57t-34 -15q-22 0 -32 15t-10 57z" />
    <glyph glyph-name="afii10109" unicode="&#x45c;" horiz-adv-x="437" 
d="M160 240v-204q0 -48 -43 -48t-43 48v446q0 48 43 48t43 -48v-188q45 0 65.5 24t48.5 108q18 57 44 80.5t80 23.5q44 0 44 -33q0 -31 -46 -34q-25 -2 -36 -11t-19 -36q-23 -81 -41.5 -107t-56.5 -43q55 -14 111 -105l56 -93q19 -31 19 -46q0 -13 -12 -23.5t-29 -10.5
q-28 0 -50 39l-78 134q-29 47 -50.5 63t-49.5 16zM201 622l25 49q6 11 9.5 17t6.5 12t7 8.5t5.5 5t8.5 3t8.5 0.5h12h14.5h24q30 0 30 -8q0 -9 -61 -70t-78 -61q-22 0 -22 18q0 7 10 26z" />
    <glyph glyph-name="afii10110" unicode="&#x45e;" horiz-adv-x="510" 
d="M183 -69l27 69l-177 449q-11 28 -11 41q0 15 12.5 27.5t30.5 12.5q16 0 26.5 -10t21.5 -41l142 -387l147 382q14 36 22 46t26 10q16 0 27.5 -11.5t11.5 -24.5q0 -12 -12 -43l-208 -533q-30 -75 -62.5 -101.5t-89.5 -26.5q-84 0 -84 45q0 15 9.5 25t24.5 10l44 -3
q47 0 72 64zM112 701q0 29 33 29q19 0 27 -23q18 -58 84 -58q65 0 84 58q8 23 26 23q33 0 33 -30q0 -40 -41.5 -76t-101.5 -36t-102 36.5t-42 76.5z" />
    <glyph glyph-name="afii10193" unicode="&#x45f;" horiz-adv-x="556" 
d="M423 0h-111v-167q0 -42 -34 -42t-34 42v167h-111q-59 0 -59 60v417q0 53 44 53q42 0 42 -53v-409h236v409q0 53 44 53q18 0 30.5 -13t12.5 -40v-417q0 -60 -60 -60z" />
    <glyph glyph-name="afii10146" unicode="&#x462;" horiz-adv-x="666" 
d="M69 628h12v42q0 58 48 58q20 0 33.5 -14t13.5 -44v-42h155q16 0 24.5 -1t20.5 -4t18 -12t6 -24q0 -12 -4.5 -20t-10.5 -12t-17 -6t-17.5 -2.5t-19.5 -0.5h-155v-136h171q167 0 220 -62q54 -63 54 -140q0 -91 -61 -149.5t-206 -58.5h-225q-48 0 -48 48v498h-12
q-16 0 -24.5 1t-20.5 4t-18 12t-6 24q0 12 4.5 20t10.5 12t17 6t17.5 2.5t19.5 0.5zM176 331v-251h173q102 0 137.5 34t35.5 93q0 79 -67 109q-34 15 -141 15h-138z" />
    <glyph glyph-name="afii10194" unicode="&#x463;" horiz-adv-x="536" 
d="M45 508h29v155q0 53 44 53q42 0 42 -53v-155h113q48 0 48 -30q0 -31 -48 -31h-113v-134h113q115 0 171 -44t56 -112q0 -67 -50.5 -112t-156.5 -45h-160q-59 0 -59 60v387h-29q-47 0 -47 31q0 30 47 30zM160 246v-178h94q92 0 124 23t32 66q0 45 -33 67t-111 22h-106z" />
    <glyph glyph-name="afii10147" unicode="&#x472;" horiz-adv-x="781" 
d="M630 400q-9 103 -75 177t-167 74q-89 0 -158.5 -67t-77.5 -184q94 70 140 70q23 0 46 -14.5t68 -59.5q40 -42 59 -53.5t38 -11.5q35 0 127 69zM630 316q-90 -70 -142 -70q-23 0 -46 14t-70 60q-42 40 -60 52t-35 12q-38 0 -127 -68q10 -116 75 -183.5t165 -67.5
t165.5 68.5t74.5 182.5zM730 358q0 -70 -19 -133.5t-57 -118t-105 -86.5t-155 -32q-80 0 -142.5 25t-99 63.5t-60.5 89.5t-32.5 97.5t-8.5 94.5q0 50 9.5 98.5t34 98.5t61.5 87.5t98 61.5t138 24q74 0 133 -23t96.5 -59.5t62.5 -86t35.5 -99.5t10.5 -102z" />
    <glyph glyph-name="afii10195" unicode="&#x473;" horiz-adv-x="573" 
d="M440 287q-4 82 -47 128.5t-108 46.5q-63 0 -104.5 -44.5t-48.5 -130.5q56 62 89 62q28 0 75 -54q41 -47 62 -47q30 0 82 39zM439 220q-61 -43 -91 -43q-28 0 -75 54q-41 46 -61 46q-26 0 -79 -57q9 -77 49.5 -120.5t102.5 -43.5q63 0 104 41.5t50 122.5zM530 259
q0 -135 -69 -203t-175 -68q-117 0 -180.5 74.5t-63.5 186.5q0 135 64.5 208t179.5 73q106 0 175 -68t69 -203z" />
    <glyph glyph-name="afii10148" unicode="&#x474;" horiz-adv-x="731" 
d="M317 102l155 450q16 47 30.5 75.5t36 53.5t52.5 36t75 11t60 -10.5t16 -30.5q0 -16 -12 -27.5t-34 -11.5h-26q-41 0 -62 -19.5t-42 -77.5l-173 -479q-9 -26 -14 -37t-14 -24.5t-20.5 -18t-28.5 -4.5q-32 0 -46 17.5t-32 66.5l-207 566q-12 32 -12 46q0 16 13.5 30
t33.5 14q16 0 27 -8.5t15.5 -19t13.5 -34.5z" />
    <glyph glyph-name="afii10196" unicode="&#x475;" horiz-adv-x="545" 
d="M441 378l-129 -326q-17 -42 -29 -53t-32 -11q-23 0 -35 13t-27 51l-158 394q-13 33 -13 46q0 15 12.5 26.5t30.5 11.5t27 -10.5t21 -43.5l142 -377l116 313q20 55 51.5 86.5t87.5 31.5q54 0 54 -35q0 -6 -1 -10.5t-4 -8t-5.5 -6t-8.5 -4.5l-9 -3t-11.5 -3t-12.5 -3
q-39 -10 -67 -79z" />
    <glyph glyph-name="afii10050" unicode="&#x490;" horiz-adv-x="436" 
d="M129 716h204v127q0 52 41 52q16 0 27.5 -12.5t11.5 -39.5v-158q0 -49 -49 -49h-188v-591q0 -57 -48 -57q-20 0 -33.5 13.5t-13.5 43.5v622q0 49 48 49z" />
    <glyph glyph-name="afii10098" unicode="&#x491;" horiz-adv-x="346" 
d="M133 519h127v115q0 44 35 44q33 0 33 -44v-124q0 -32 -14 -45.5t-45 -13.5h-109v-409q0 -54 -43 -54q-18 0 -30.5 13t-12.5 41v416q0 61 59 61z" />
    <glyph glyph-name="uni0492" unicode="&#x492;" horiz-adv-x="562" 
d="M69 415h12v222q0 55 13 67t67 12h314q37 0 51 -9.5t14 -30.5q0 -40 -65 -40h-299v-221h154q16 0 24.5 -1t20.5 -4t18 -12t6 -24q0 -12 -4.5 -20t-10.5 -12t-17 -6t-17.5 -2.5t-19.5 -0.5h-154v-266q0 -46 -11 -62.5t-36 -16.5q-26 0 -37 16.5t-11 62.5v266h-12
q-16 0 -24.5 1t-20.5 4t-18 12t-6 24q0 12 4.5 20t10.5 12t17 6t17.5 2.5t19.5 0.5z" />
    <glyph glyph-name="uni0493" unicode="&#x493;" horiz-adv-x="396" 
d="M273 257h-113v-215q0 -54 -43 -54q-18 0 -30.5 13t-12.5 41v215h-29q-47 0 -47 31q0 30 47 30h29v152q0 28 9.5 38.5t38.5 10.5h218q44 0 44 -35q0 -33 -44 -33h-180v-133h113q48 0 48 -30q0 -31 -48 -31z" />
    <glyph glyph-name="uni0496" unicode="&#x496;" horiz-adv-x="938" 
d="M938 -50v-80q0 -16 -1 -24.5t-4 -20.5t-12 -18t-24 -6q-12 0 -20 4.5t-12 10.5t-6 17t-2.5 17.5t-0.5 19.5v80v15q0 16 2 23h-4q-21 0 -39.5 16.5t-44.5 59.5l-81 130q-50 84 -83 112.5t-89 28.5v-288q0 -59 -49 -59q-20 0 -34 14.5t-14 44.5v288q-57 0 -87.5 -27.5
t-84.5 -113.5l-81 -130q-48 -76 -84 -76q-18 0 -31 12t-13 29q0 21 34 73l82 125q47 71 60 87q29 35 79 52q-46 20 -67 47t-53 108q-30 76 -52.5 95.5t-61.5 19.5h-26q-22 0 -33.5 11.5t-11.5 27.5q0 20 15.5 30.5t59.5 10.5t73 -8.5t51 -32.5t35.5 -49.5t34.5 -76.5
q41 -99 66.5 -122.5t95.5 -24.5v267q0 59 50 59q21 0 34 -15t13 -44v-267q70 0 95 23.5t67 123.5q41 99 76.5 133t117.5 34q44 0 60 -10.5t16 -30.5q0 -16 -12 -27.5t-34 -11.5h-26q-43 0 -64 -22.5t-49 -94.5q-30 -76 -53 -105t-68 -48q51 -16 81 -55q41 -56 59 -84
l81 -125q34 -52 34 -72q0 -5 -2 -11h1q12 0 20 -4.5t12 -10.5t6 -17t2.5 -17.5t0.5 -19.5z" />
    <glyph glyph-name="uni0497" unicode="&#x497;" horiz-adv-x="669" 
d="M672 -50v-80q0 -16 -1 -24.5t-4 -20.5t-12 -18t-24 -6q-12 0 -20 4.5t-12 10.5t-6 17t-2.5 17.5t-0.5 19.5v80q0 30 2 38q-28 2 -48 39l-78 134q-27 47 -48.5 62.5t-51.5 16.5v-204q0 -48 -42 -48t-42 48v204q-31 0 -52 -16t-48 -63l-79 -134q-23 -39 -50 -39
q-15 0 -27.5 11t-12.5 24q0 16 18 45l56 93q55 91 112 105q-41 18 -59 44t-40 103q-7 26 -17.5 35.5t-37.5 10.5q-45 1 -45 36t43 35q61 0 84.5 -26t46.5 -100q15 -50 33.5 -75t33.5 -30t41 -5v188q0 48 41 48q43 0 43 -48v-188q40 0 60.5 20t46.5 90q13 40 21.5 59.5t23 37
t34.5 23.5t52 6q44 0 44 -35t-46 -36q-26 -1 -37 -11t-18 -35q-21 -76 -39.5 -102.5t-58.5 -44.5q59 -15 112 -105l55 -93q19 -33 19 -46v-3q17 -1 26 -13.5t10 -23.5t1 -32z" />
    <glyph glyph-name="uni049A" unicode="&#x49a;" horiz-adv-x="598" 
d="M598 -50v-80q0 -16 -1 -24.5t-4 -20.5t-12 -18t-24 -6q-12 0 -20 4.5t-12 10.5t-6 17t-2.5 17.5t-0.5 19.5v80v15q0 16 2 23h-2q-21 0 -40 17t-45 59l-80 130q-52 84 -84.5 112t-88.5 29v-288q0 -59 -49 -59q-22 0 -35 15t-13 44v622q0 59 49 59q20 0 34 -14.5t14 -44.5
v-267q70 0 95 23.5t67 123.5q23 53 36 77.5t35 49t50.5 32.5t72.5 8q45 0 60 -10.5t15 -30.5q0 -16 -11.5 -27.5t-33.5 -11.5h-26q-43 0 -63.5 -22t-50.5 -95q-29 -76 -52 -105t-68 -48q47 -15 81 -55q31 -43 58 -84l82 -125q34 -52 34 -72q0 -5 -2 -11q19 0 28.5 -12.5
t11 -24t1.5 -32.5z" />
    <glyph glyph-name="uni049B" unicode="&#x49b;" horiz-adv-x="475" 
d="M468 -50v-80q0 -16 -1 -24.5t-4 -20.5t-12 -18t-24 -6q-12 0 -20 4.5t-12 10.5t-6 17t-2.5 17.5t-0.5 19.5v80q0 30 2 38q-28 0 -50 39l-78 134q-29 47 -50.5 63t-49.5 16v-204q0 -48 -43 -48t-43 48v446q0 48 43 48t43 -48v-188q45 0 65.5 24t48.5 108q18 57 44 80.5
t80 23.5q44 0 44 -33q0 -31 -46 -34q-25 -2 -36 -11t-19 -36q-23 -81 -41.5 -107t-56.5 -43q55 -14 111 -105l56 -93q19 -31 19 -46v-3q14 0 22.5 -6t12 -18t4 -20.5t0.5 -24.5z" />
    <glyph glyph-name="uni04A2" unicode="&#x4a2;" horiz-adv-x="729" 
d="M688 -50v-80q0 -16 -1 -24.5t-4 -20.5t-12 -18t-24 -6q-12 0 -20 4.5t-12 10.5t-6 17t-2.5 17.5t-0.5 19.5v80v16q0 16 2 23q-2 -1 -7 -1q-9 0 -14.5 1.5t-15 7.5t-14.5 23.5t-5 45.5v271h-375v-270q0 -44 -11 -61.5t-38 -17.5t-37 16t-10 63v582q0 46 10.5 62.5
t36.5 16.5t37.5 -17.5t11.5 -61.5v-235h375v236q0 27 5 44.5t14 24t15 8t14 1.5q30 0 39 -18.5t9 -59.5v-584q0 -29 -5 -47h4q12 0 20 -4.5t12 -10.5t6 -17t2.5 -17.5t0.5 -19.5z" />
    <glyph glyph-name="uni04A3" unicode="&#x4a3;" horiz-adv-x="567" 
d="M160 477v-177h247v177q0 53 44 53q18 0 30 -13.5t12 -39.5v-435q0 -14 -3 -23q14 0 22.5 -5.5t12 -18t4 -21t0.5 -24.5v-80q0 -16 -1 -24.5t-4 -20.5t-12 -18t-24 -6q-12 0 -20 4.5t-12 10.5t-6 17t-2.5 17.5t-0.5 19.5v95q0 16 2 23q-42 0 -42 54v190h-247v-190
q0 -54 -44 -54q-17 0 -29.5 13t-12.5 41v435q0 53 44 53q17 0 29.5 -12.5t12.5 -40.5z" />
    <glyph glyph-name="uni04AE" unicode="&#x4ae;" horiz-adv-x="615" 
d="M256 67v240l-206 320q-26 41 -26 57q0 18 13 31t34 13q17 0 25.5 -8.5t31.5 -44.5l179 -283l184 286q22 34 30.5 42t25.5 8q18 0 31 -12t13 -30q0 -15 -25 -54l-214 -325v-240q0 -46 -11.5 -62.5t-36.5 -16.5q-27 0 -37.5 16t-10.5 63z" />
    <glyph glyph-name="uni04AF" unicode="&#x4af;" horiz-adv-x="500" 
d="M291 -1v-139q0 -16 -1 -24.5t-4 -20.5t-12 -18t-24 -6q-12 0 -20 4.5t-12 10.5t-6 17t-2.5 17.5t-0.5 19.5v141l-178 445q-13 33 -13 46q0 15 12.5 26.5t30.5 11.5t27 -10.5t21 -43.5l142 -377l141 377q12 34 22 44t26 10q18 0 30.5 -12t12.5 -26t-13 -46z" />
    <glyph glyph-name="uni04B0" unicode="&#x4b0;" horiz-adv-x="615" 
d="M435 167h-83v-100q0 -46 -11.5 -62.5t-36.5 -16.5q-27 0 -37.5 16t-10.5 63v100h-82q-16 0 -24.5 1t-20.5 4t-18 12t-6 24q0 12 4.5 20t10.5 12t17 6t17.5 2.5t19.5 0.5h82v58l-206 320q-26 41 -26 57q0 18 13 31t34 13q17 0 25.5 -8.5t31.5 -44.5l179 -283l184 286
q22 34 30.5 42t25.5 8q18 0 31 -12t13 -30q0 -15 -25 -54l-214 -325v-58h83q16 0 24.5 -1t20.5 -4t18 -12t6 -24q0 -12 -4.5 -20t-10.5 -12t-17 -6t-17.5 -2.5t-19.5 -0.5z" />
    <glyph glyph-name="uni04B1" unicode="&#x4b1;" horiz-adv-x="500" 
d="M365 -87h-74v-53q0 -16 -1 -24.5t-4 -20.5t-12 -18t-24 -6q-12 0 -20 4.5t-12 10.5t-6 17t-2.5 17.5t-0.5 19.5v53h-72q-47 0 -47 31q0 30 47 30h72v27l-178 445q-13 33 -13 46q0 15 12.5 26.5t30.5 11.5t27 -10.5t21 -43.5l142 -377l141 377q12 34 22 44t26 10
q18 0 30.5 -12t12.5 -26t-13 -46l-179 -447v-25h74q48 0 48 -30q0 -31 -48 -31z" />
    <glyph glyph-name="uni04B2" unicode="&#x4b2;" horiz-adv-x="604" 
d="M616 -50v-80q0 -16 -1 -24.5t-4 -20.5t-12 -18t-24 -6q-12 0 -20 4.5t-12 10.5t-6 17t-2.5 17.5t-0.5 19.5v80q0 30 2 38h-3q-15 0 -26.5 11t-35.5 47l-167 256l-186 -267q-21 -31 -30.5 -39t-25.5 -8q-19 0 -30.5 11.5t-11.5 30.5t26 55l205 289l-175 257q-25 37 -25 56
q0 18 12.5 29.5t32.5 11.5q15 0 25.5 -10t32.5 -43l150 -231l167 237q22 31 31 39t24 8q17 0 28.5 -10t11.5 -27q0 -18 -25 -53l-181 -258l195 -292q25 -38 25 -57q0 -4 -2 -12q18 -1 27 -13.5t10 -23.5t1 -32z" />
    <glyph glyph-name="uni04B3" unicode="&#x4b3;" horiz-adv-x="510" 
d="M255 211l-136 -188q-25 -35 -49 -35q-18 0 -29.5 11.5t-11.5 25.5t18 39l155 207l-137 178q-21 28 -21 44q0 13 10.5 25t30.5 12q15 0 24.5 -8t24.5 -29l121 -160l119 160q27 37 51 37q17 0 29 -11t12 -24q0 -17 -23 -46l-135 -174l151 -206q22 -29 22 -44q0 -5 -1 -7
q14 -3 21 -15.5t8 -23t1 -29.5v-80q0 -16 -1 -24.5t-4 -20.5t-12 -18t-24 -6q-12 0 -20 4.5t-12 10.5t-6 17t-2.5 17.5t-0.5 19.5v95q0 16 2 23v1q-18 4 -41 36z" />
    <glyph glyph-name="uni04B6" unicode="&#x4b6;" horiz-adv-x="689" 
d="M648 -50v-80q0 -16 -1 -24.5t-4 -20.5t-12 -18t-24 -6q-12 0 -20 4.5t-12 10.5t-6 17t-2.5 17.5t-0.5 19.5v80q0 31 2 39q-2 -1 -7 -1q-47 0 -47 57v244q-128 -48 -223 -48q-74 0 -132 35q-57 34 -76.5 85.5t-19.5 143.5v165q0 58 48 58q20 0 33.5 -14t13.5 -44v-156
q0 -111 34.5 -153.5t124.5 -42.5q98 0 197 48v304q0 58 48 58q19 0 32.5 -14t13.5 -44v-625q0 -12 -4 -26h3q12 0 20 -4.5t12 -10.5t6 -17t2.5 -17.5t0.5 -19.5z" />
    <glyph glyph-name="uni04B7" unicode="&#x4b7;" horiz-adv-x="542" 
d="M507 -50v-80q0 -16 -1 -24.5t-4 -20.5t-12 -18t-24 -6q-12 0 -20 4.5t-12 10.5t-6 17t-2.5 17.5t-0.5 19.5v95q0 16 2 23h-4q-18 0 -30 14t-12 40v167q-81 -25 -152 -25q-82 0 -131.5 52.5t-49.5 146.5v94q0 53 45 53q17 0 29.5 -12.5t12.5 -40.5v-57q0 -92 24 -130.5
t102 -38.5q47 0 120 26v200q0 53 44 53q17 0 30 -13t13 -40v-435q0 -14 -3 -23h1q12 0 20 -4.5t12 -10.5t6 -17t2.5 -17.5t0.5 -19.5z" />
    <glyph glyph-name="uni04BA" unicode="&#x4ba;" horiz-adv-x="689" 
d="M158 671v-244q128 48 223 48q74 0 132 -35q57 -34 76.5 -85.5t19.5 -143.5v-165q0 -58 -48 -58q-20 0 -33.5 14t-13.5 44v156q0 111 -34.5 153.5t-124.5 42.5q-98 0 -197 -48v-304q0 -58 -48 -58q-19 0 -32.5 14t-13.5 44v625q0 57 47 57t47 -57z" />
    </font>
</defs>
</svg>
