<?xml version="1.0" standalone="no"?>
<!DOCTYPE svg PUBLIC "-//W3C//DTD SVG 1.1//EN" "http://www.w3.org/Graphics/SVG/1.1/DTD/svg11.dtd" >
<svg xmlns="http://www.w3.org/2000/svg" xmlns:xlink="http://www.w3.org/1999/xlink" version="1.1">
<metadata>
Created by FontForge 20150824 at Tue Sep 20 08:13:07 2016
 By Everything Fonts
Font software Copyright 1991 Adobe Systems Incorporated. Typeface designs Copyright 1991 The Monotype Corporation. All rights reserved.
</metadata>
<defs>
<font id="ArialRoundedMTProCyrBold" horiz-adv-x="594" >
  <font-face 
    font-family="ArialRoundedMTProCyrBold"
    font-weight="700"
    font-stretch="normal"
    units-per-em="1000"
    panose-1="2 15 8 2 2 1 2 2 2 4"
    ascent="738"
    descent="-262"
    x-height="518"
    cap-height="716"
    bbox="-174 -297 1185 957"
    underline-thickness="50"
    underline-position="-150"
    unicode-range="U+0020-FB04"
  />
<missing-glyph horiz-adv-x="500" 
d="M12 0v665h475v-665h-475zM88 618l162 -243l161 243h-323zM60 575v-484l40 61l80 120l41 61zM440 575l-162 -242l162 -243v485zM411 48l-161 242l-162 -242h323z" />
    <glyph glyph-name="f_f" unicode="ff" horiz-adv-x="625" 
d="M48 519h36v39q0 94 38.5 132t120.5 38q44 0 82.5 -13.5t38.5 -43.5q0 -18 -10 -29.5t-28 -11.5q-1 0 -21 2t-31 2q-34 0 -48.5 -17.5t-14.5 -66.5v-31h175v39q0 94 37 132t120 38q110 0 110 -55q0 -17 -11 -29t-30 -12q-5 0 -18.5 1t-16.5 1q-16 0 -25.5 -2.5t-19.5 -10
t-15 -25.5t-5 -46v-31h32q76 0 76 -48q0 -49 -76 -49h-32v-329q0 -57 -13 -81t-50 -24t-50 25t-13 80v329h-175v-329q0 -57 -13 -81t-50 -24q-39 0 -51.5 24.5t-12.5 80.5v329h-36q-62 0 -62 49q0 48 62 48z" />
    <glyph glyph-name="f_i" unicode="fi" 
d="M52 519h36v39q0 93 39 131.5t113 38.5q128 0 128 -57q0 -16 -10.5 -29t-28.5 -13q-1 0 -20.5 2.5t-29.5 2.5q-33 0 -48.5 -17t-15.5 -67v-31h32q75 0 75 -49q0 -48 -75 -48h-32v-328q0 -59 -13 -82.5t-50 -23.5q-39 0 -51.5 24t-12.5 82v328h-36q-62 0 -62 49q0 48 62 48
zM524 657q0 -27 -19 -46t-46 -19t-46 19t-19 46q0 26 19 45.5t46 19.5t46 -19.5t19 -45.5zM396 94v331q0 59 13.5 82t49.5 23q39 0 51 -23.5t12 -81.5v-331q0 -59 -13 -82.5t-51 -23.5t-50 24t-12 82z" />
    <glyph glyph-name="f_l" unicode="fl" 
d="M52 519h36v39q0 93 39 131.5t113 38.5q128 0 128 -57q0 -16 -10.5 -29t-28.5 -13q-1 0 -20.5 2.5t-29.5 2.5q-33 0 -48.5 -17t-15.5 -67v-31h32q75 0 75 -49q0 -48 -75 -48h-32v-329q0 -57 -13 -81t-50 -24q-39 0 -51.5 24t-12.5 81v329h-36q-62 0 -62 49q0 48 62 48z
M395 93v530q0 61 14.5 83t48.5 22q63 0 63 -77v-382q0 -203 -2 -229q-2 -21 -18.5 -36.5t-41.5 -15.5q-40 0 -52 24.5t-12 80.5z" />
    <glyph glyph-name="f_f_i" unicode="ffi" horiz-adv-x="885" 
d="M49 519h36v39q0 94 37.5 132t120.5 38q44 0 82.5 -13.5t38.5 -43.5q0 -18 -10 -29.5t-27 -11.5q-2 0 -22.5 2t-29.5 2q-35 0 -49.5 -17.5t-14.5 -66.5v-31h176v39q0 95 36.5 132.5t120.5 37.5q110 0 110 -55q0 -17 -11 -29t-30 -12q-6 0 -20 1t-16 1q-32 0 -48 -16
t-16 -68v-31h31q76 0 76 -48q0 -49 -76 -49h-31v-329q0 -57 -14 -81t-49 -24q-40 0 -51.5 24t-11.5 81v329h-176v-329q0 -57 -13 -81t-50 -24q-39 0 -51 24.5t-12 80.5v329h-37q-62 0 -62 49q0 48 63 48zM821 657q0 -27 -19 -46t-46 -19t-46 19t-19 46q0 26 19 45.5t46 19.5
t46 -19.5t19 -45.5zM693 94v331q0 59 13.5 82t49.5 23q39 0 51 -23.5t12 -81.5v-331q0 -57 -13 -81.5t-50 -24.5q-40 0 -51.5 24t-11.5 82z" />
    <glyph glyph-name="f_f_l" unicode="ffl" horiz-adv-x="865" 
d="M46 519h37v39q0 94 37.5 132t120.5 38q44 0 82.5 -13.5t38.5 -43.5q0 -18 -10 -29.5t-28 -11.5q-1 0 -21 2t-31 2q-34 0 -48.5 -17.5t-14.5 -66.5v-31h175v39q0 95 37 132.5t121 37.5q109 0 109 -55q0 -17 -11 -29t-30 -12q-5 0 -18.5 1t-16.5 1q-16 0 -25.5 -2.5
t-19.5 -10t-15 -25.5t-5 -46v-31h32q76 0 76 -48q0 -49 -76 -49h-32v-329q0 -57 -13 -81t-50 -24t-50 25t-13 80v329h-175v-329q0 -57 -13 -81t-50 -24q-39 0 -51 24.5t-12 80.5v329h-37q-62 0 -62 49q0 48 62 48zM679 94v529q0 61 14.5 83t48.5 22q27 0 45.5 -18.5
t18.5 -58.5v-381q0 -204 -2 -230q-2 -20 -19.5 -36t-41.5 -16q-40 0 -52 24.5t-12 81.5z" />
    <glyph glyph-name=".notdef" horiz-adv-x="500" 
d="M12 0v665h475v-665h-475zM88 618l162 -243l161 243h-323zM60 575v-484l40 61l80 120l41 61zM440 575l-162 -242l162 -243v485zM411 48l-161 242l-162 -242h323z" />
    <glyph glyph-name=".null" horiz-adv-x="0" 
 />
    <glyph glyph-name="nonmarkingreturn" horiz-adv-x="333" 
 />
    <glyph glyph-name="space" unicode=" " horiz-adv-x="297" 
 />
    <glyph glyph-name="exclam" unicode="!" horiz-adv-x="333" 
d="M237 550l-21 -241q-2 -18 -3.5 -28t-6.5 -27t-16 -25.5t-26 -8.5q-44 0 -50 89l-17 235q-3 30 -3 86q0 98 75 98q25 0 40.5 -10.5t21 -30t7 -32.5t1.5 -33q0 -45 -2 -72zM240 62q0 -31 -21.5 -52.5t-51.5 -21.5q-31 0 -52.5 21.5t-21.5 52.5q0 30 21.5 51.5t52.5 21.5
q30 0 51.5 -21.5t21.5 -51.5z" />
    <glyph glyph-name="quotedbl" unicode="&#x22;" horiz-adv-x="479" 
d="M300 461l-26 134v121h150v-121l-23 -134h-101zM81 461l-26 134v121h150v-121l-23 -134h-101z" />
    <glyph glyph-name="numbersign" unicode="#" horiz-adv-x="552" 
d="M97 285l29 145h-28q-34 0 -48 2t-24 12q-18 16 -18 39t17 40q14 14 73 14h49l23 113q9 45 20 61t40 16q23 0 36.5 -12.5t15 -20.5t1.5 -14q0 -11 -8 -51l-18 -92h108l22 113q5 29 9.5 42.5t16.5 24.5t33 11q30 0 41.5 -15.5t11.5 -33.5q0 -21 -6 -50l-19 -92q70 0 70 -53
q0 -15 -8 -29t-19 -18q-19 -7 -64 -7l-29 -145h54q66 0 66 -53q0 -23 -17 -40q-14 -14 -73 -14h-51l-23 -112q-4 -20 -5.5 -27t-6.5 -20t-10 -17.5t-14 -9t-22 -4.5q-30 0 -42 15.5t-12 33.5q0 15 7 50l18 91h-108l-23 -112q-5 -24 -7.5 -33.5t-9 -22.5t-16.5 -17.5
t-26 -4.5q-30 0 -41.5 15.5t-11.5 33.5q0 15 7 50l18 91q-25 0 -40 7q-27 15 -27 47q0 14 8 28t19 19q14 6 62 6zM343 430h-108l-29 -145h109z" />
    <glyph glyph-name="dollar" unicode="$" 
d="M327 628v-203q144 -41 183 -94q41 -57 41 -122q0 -33 -11 -66.5t-35 -67.5t-70 -57.5t-108 -28.5v-122q0 -17 -1.5 -27t-8.5 -19t-21 -9q-15 0 -22 9t-8 19.5t-1 33.5v114q-57 6 -101 26.5t-67 45.5t-37.5 54.5t-18 48t-3.5 31.5q0 23 18 42t48 19q15 0 26 -4.5t18 -15.5
t10.5 -18.5t8.5 -22.5q16 -49 38 -71.5t60 -33.5v227q-35 10 -54.5 16.5t-53.5 23.5t-52.5 37t-33.5 54.5t-15 77.5q0 105 78 158q50 34 131 42v52q0 41 31 41t31 -40v-53q104 -12 155 -70q46 -53 46 -102q0 -20 -17 -39t-45 -19q-18 0 -31 8.5t-18.5 18t-11.5 25.5
q-28 74 -78 81zM265 443v187q-16 -2 -34 -10t-35.5 -30t-17.5 -53q0 -22 7.5 -38.5t23.5 -27.5t26.5 -16t29.5 -12zM327 298v-214q33 6 55.5 21t32 33.5t12.5 31t3 23.5q0 25 -9.5 44t-28.5 31t-31.5 17.5t-33.5 12.5z" />
    <glyph glyph-name="percent" unicode="%" horiz-adv-x="854" 
d="M331 532q0 -79 -29 -122q-43 -63 -124 -63q-45 0 -82 22t-55 62q-18 37 -18 100q0 189 153 189q37 0 65 -10.5t44 -30.5t26.5 -38.5t14 -44t4.5 -37t1 -27.5zM239 537q0 65 -14 93t-48 28q-36 0 -49 -30t-13 -92q0 -65 13 -96t49 -31q37 0 49.5 31.5t12.5 96.5zM831 179
q0 -81 -29 -122q-44 -63 -125 -63q-45 0 -81.5 21.5t-54.5 61.5q-18 38 -18 101q0 188 153 188q44 0 75.5 -17t46.5 -37.5t23 -51.5t9 -46.5t1 -34.5zM739 182q0 65 -14 93.5t-48 28.5q-35 0 -48.5 -30t-13.5 -92q0 -64 13 -95t49 -31q37 0 49.5 31t12.5 95zM190 29l410 661
q9 15 13 20.5t12 10.5t18 5q17 0 24 -10t7 -19q0 -13 -17 -41l-407 -656q-17 -27 -35 -27q-13 0 -24 9t-11 20t10 27z" />
    <glyph glyph-name="ampersand" unicode="&#x26;" horiz-adv-x="760" 
d="M619 169q41 -36 84 -69q30 -23 30 -52q0 -26 -18.5 -43t-39.5 -17t-48 17.5t-88 68.5q-26 -24 -49 -39.5t-71.5 -31t-106.5 -15.5q-69 0 -121.5 22t-79 56t-39 67t-12.5 63q0 43 16.5 79t46.5 62t52 40t54 30q-74 92 -74 159q0 63 50 112.5t150 49.5q53 0 93.5 -16.5
t62 -42t31.5 -51.5t10 -50q0 -32 -13 -60.5t-39 -51.5t-44 -35.5t-48 -30.5q5 -5 42 -49t44 -52q8 -9 37 -38q3 6 19.5 45t20.5 46q18 31 49 31q25 0 41.5 -17t16.5 -37q0 -52 -59 -150zM293 330q-30 -18 -46 -29.5t-35 -38.5t-19 -58q0 -46 36 -81.5t89 -35.5q73 0 136 66
q-59 52 -161 177zM343 463q26 17 37.5 25t27.5 22.5t22.5 28.5t6.5 31q0 28 -21.5 49.5t-56.5 21.5q-37 0 -58.5 -22.5t-21.5 -45.5q0 -20 16 -47q7 -12 48 -63z" />
    <glyph glyph-name="quotesingle" unicode="'" horiz-adv-x="240" 
d="M71 461l-26 134v121h150v-121l-23 -134h-101z" />
    <glyph glyph-name="parenleft" unicode="(" horiz-adv-x="354" 
d="M62 259q0 216 127 408q27 41 43.5 51t50.5 10q22 0 22 -12q0 -5 -22 -52q-40 -85 -67.5 -195t-27.5 -210q0 -101 27.5 -211.5t67.5 -192.5q22 -44 22 -53q0 -12 -22 -12q-34 0 -50 10.5t-44 51.5q-127 192 -127 407z" />
    <glyph glyph-name="parenright" unicode=")" horiz-adv-x="354" 
d="M292 259q0 -216 -127 -408q-27 -41 -43.5 -51t-50.5 -10q-22 0 -22 12q0 5 22 52q40 85 67.5 195t27.5 210q0 101 -27.5 211.5t-67.5 192.5q-22 44 -22 53q0 12 22 12q34 0 50 -10.5t44 -51.5q127 -192 127 -407z" />
    <glyph glyph-name="asterisk" unicode="*" horiz-adv-x="438" 
d="M246 596q5 2 19 9t30.5 15.5t18.5 9.5q54 24 69 24q13 0 26 -11t13 -29q0 -30 -36 -42q-53 -18 -122 -28q99 -93 99 -126q0 -17 -12 -28.5t-30 -11.5q-13 0 -26 11t-19.5 21t-17.5 30q-35 63 -39 71q-6 -9 -25 -47q-34 -67 -55 -79q-8 -6 -21 -6q-19 0 -30.5 12t-11.5 26
q0 27 55 84q23 24 44 43q-25 3 -81 16q-40 8 -59 20t-19 34q0 18 13 29t27 11q13 0 67 -24q12 -5 70 -34q-15 65 -15 123q0 21 11.5 33.5t29.5 12.5t29.5 -13t11.5 -34q0 -19 -14 -122z" />
    <glyph glyph-name="plus" unicode="+" horiz-adv-x="583" 
d="M227 103v186h-186v128h186v186h128v-186h187v-128h-187v-186h-128z" />
    <glyph glyph-name="comma" unicode="," horiz-adv-x="313" 
d="M159 -13q-32 -2 -55.5 20t-23.5 54t23.5 53t53.5 21q35 0 59.5 -27.5t24.5 -81.5q0 -76 -43.5 -130t-82.5 -54q-15 0 -24 10t-9 23q0 19 20 32q15 9 23.5 15t20.5 24t13 41z" />
    <glyph glyph-name="hyphen" unicode="-" horiz-adv-x="333" 
d="M116 312h101q53 0 76 -12t23 -47q0 -31 -20.5 -45t-78.5 -14h-101q-55 0 -77 11.5t-22 46.5q0 31 22 45.5t77 14.5z" />
    <glyph glyph-name="period" unicode="." horiz-adv-x="313" 
d="M230 62q0 -31 -21.5 -52.5t-51.5 -21.5q-31 0 -52.5 21.5t-21.5 52.5q0 30 21.5 51.5t52.5 21.5q30 0 51.5 -21.5t21.5 -51.5z" />
    <glyph glyph-name="slash" unicode="/" horiz-adv-x="281" 
d="M23 87l137 563q10 47 19.5 62.5t37.5 15.5q51 0 51 -42q0 -14 -10 -57l-137 -563q-10 -46 -20.5 -62t-36.5 -16q-51 0 -51 42q0 14 10 57z" />
    <glyph glyph-name="zero" unicode="0" 
d="M547 351q0 -162 -46 -242q-32 -57 -85.5 -89t-117.5 -32q-17 0 -33 1.5t-42.5 9.5t-48.5 21.5t-47 41t-42 64t-28 94t-11 128.5q0 32 1 56t6 65.5t14 72t28 66t44.5 58.5t65.5 38.5t91 15.5q116 0 181 -85q33 -43 51.5 -105t18.5 -179zM412 360q0 131 -25.5 196t-90.5 65
q-36 0 -60 -20.5t-35.5 -60.5t-15.5 -82t-4 -102q0 -61 4 -103.5t15.5 -83.5t35.5 -61.5t60 -20.5t60 19.5t35.5 59.5t16 84.5t4.5 109.5z" />
    <glyph glyph-name="one" unicode="1" 
d="M415 633v-547q0 -98 -66 -98q-67 0 -67 92v431q-125 -95 -166 -95q-22 0 -37.5 15t-15.5 40q0 21 24.5 39.5t58.5 33t77 47.5t71 77q15 23 21 31t16.5 14.5t25.5 6.5q58 0 58 -87z" />
    <glyph glyph-name="two" unicode="2" 
d="M481 0h-339q-35 0 -61 15.5t-26 50.5q0 28 17.5 59.5t54.5 68.5t61 58.5t70 60.5q87 73 119.5 112.5t32.5 87.5q0 51 -34 78.5t-78 27.5q-46 0 -74 -24t-36 -47q-10 -29 -14.5 -40t-13 -25.5t-19.5 -19.5t-27 -5q-23 0 -40.5 15t-17.5 44q0 21 7 46t24.5 53.5t44 51.5
t70.5 38t98 15q90 0 143 -30q46 -26 73 -73t27 -101q0 -62 -37 -120.5t-127 -131.5q-78 -63 -102 -85.5t-54 -64.5h239q18 0 28.5 -1t28.5 -5.5t27.5 -17.5t9.5 -33q0 -58 -75 -58z" />
    <glyph glyph-name="three" unicode="3" 
d="M432 391q115 -63 115 -175q0 -88 -68.5 -158t-187.5 -70q-53 0 -96.5 17t-69.5 41t-44 53t-25 51t-7 36q0 24 17.5 41t44.5 17q26 0 43.5 -25t27 -55t37 -55t72.5 -25q43 0 83 32t40 96q0 55 -30.5 88t-83.5 33q-5 0 -31.5 -2t-30.5 -2q-25 0 -39.5 13.5t-14.5 36.5
q0 53 66 53q43 0 72.5 11t41.5 29t16 31.5t4 27.5q0 39 -26 66t-71 27q-28 0 -48.5 -8t-32 -23t-16.5 -24t-10 -24q-5 -14 -8.5 -21.5t-16 -16.5t-30.5 -9q-26 0 -40.5 16.5t-14.5 39.5q0 54 61 110t167 56q102 0 159 -51.5t57 -125.5q0 -85 -82 -152z" />
    <glyph glyph-name="four" unicode="4" 
d="M350 152h-212q-50 0 -68 3t-33 17q-25 25 -25 57q0 17 8 31t38 54l259 346q20 26 29 36.5t24 19.5t32 9q39 0 54.5 -25t15.5 -91v-348h21q41 0 62 -12t21 -43q0 -28 -21.5 -41t-52.5 -13h-30v-63q0 -55 -14 -78t-47 -23q-35 0 -48 22.5t-13 78.5v63zM140 261h210v285z
" />
    <glyph glyph-name="five" unicode="5" 
d="M230 594l-27 -157q65 37 128 37q89 0 156.5 -64.5t67.5 -167.5q0 -102 -69 -178t-187 -76q-67 0 -118.5 21t-77.5 51.5t-38 58.5t-12 49q0 16 15 34t41 18q35 0 61 -47q25 -45 52.5 -69t73.5 -24q64 0 94 48t30 106q0 72 -37 108t-88 36q-36 0 -65.5 -18t-53.5 -36
t-45 -18q-23 0 -42 17t-19 39q0 7 5 34l41 234q9 51 31 65t69 14h233q45 0 65.5 -13.5t20.5 -43.5q0 -58 -82 -58h-223z" />
    <glyph glyph-name="six" unicode="6" 
d="M181 387q65 77 161 77q97 0 156 -69t59 -163q0 -100 -66.5 -172t-181.5 -72q-124 0 -193.5 90.5t-69.5 254.5q0 194 74 291q35 46 87.5 71t111.5 25q47 0 85 -12.5t60.5 -30.5t37.5 -40.5t20.5 -40.5t5.5 -31q0 -19 -15 -35.5t-38 -16.5q-30 0 -46.5 17.5t-22.5 38
t-27.5 38t-60.5 17.5q-79 0 -112 -86q-19 -50 -25 -151zM313 84q55 0 83 43.5t28 102.5q0 67 -32 104.5t-80 37.5q-41 0 -80.5 -33t-39.5 -102q0 -59 32.5 -106t88.5 -47z" />
    <glyph glyph-name="seven" unicode="7" 
d="M417 594h-262q-81 0 -81 60q0 19 7 31.5t21.5 17t24.5 5.5t28 1h295q27 0 39.5 -0.5t31.5 -3.5t27.5 -9t15 -18t6.5 -30q0 -20 -9.5 -35t-59.5 -79q-72 -92 -112.5 -197t-75.5 -280l-4 -16t-6 -17t-11.5 -19t-18.5 -11.5t-27 -5.5q-12 0 -24.5 3.5t-27 23t-14.5 52.5
q0 69 58 220t179 307z" />
    <glyph glyph-name="eight" unicode="8" 
d="M427 386q123 -50 123 -179q0 -88 -63 -153.5t-189 -65.5q-71 0 -123.5 21t-79.5 56t-39 70t-12 71q0 46 13.5 80.5t38 55t38 28t33.5 16.5q-100 46 -100 147q0 73 58.5 130t166.5 57q59 0 104 -15.5t68.5 -37.5t38 -50t18.5 -48t4 -37q0 -53 -30.5 -91t-67.5 -55z
M296 337q-47 0 -83 -32t-36 -95q0 -61 36.5 -95.5t83.5 -34.5q50 0 85 35.5t35 94.5t-34.5 93t-86.5 34zM296 628q-48 0 -75.5 -29.5t-27.5 -71.5q0 -45 29.5 -71.5t73.5 -26.5t73.5 27t29.5 71q0 41 -28 71t-75 30z" />
    <glyph glyph-name="nine" unicode="9" 
d="M407 321q-65 -77 -161 -77q-97 0 -156 69t-59 163q0 100 66.5 172t181.5 72q124 0 193.5 -90.5t69.5 -254.5q0 -195 -74 -291q-35 -46 -87.5 -71t-111.5 -25q-47 0 -85 12.5t-60.5 30.5t-37.5 40.5t-20.5 40.5t-5.5 31q0 19 15 35.5t38 16.5q24 0 38.5 -11.5t22 -27.5
t16 -32.5t28.5 -28t52 -11.5q79 0 112 86q19 50 25 151zM275 624q-55 0 -83 -43.5t-28 -102.5q0 -67 32 -104.5t80 -37.5q41 0 80.5 33t39.5 102q0 59 -32.5 106t-88.5 47z" />
    <glyph glyph-name="colon" unicode=":" horiz-adv-x="313" 
d="M230 62q0 -31 -21.5 -52.5t-51.5 -21.5q-31 0 -52.5 21.5t-21.5 52.5q0 30 21.5 51.5t52.5 21.5q30 0 51.5 -21.5t21.5 -51.5zM230 457q0 -31 -21.5 -52.5t-51.5 -21.5q-31 0 -52.5 21.5t-21.5 52.5q0 30 21.5 51.5t52.5 21.5q30 0 51.5 -21.5t21.5 -51.5z" />
    <glyph glyph-name="semicolon" unicode=";" horiz-adv-x="313" 
d="M230 457q0 -31 -21.5 -52.5t-51.5 -21.5q-31 0 -52.5 21.5t-21.5 52.5q0 30 21.5 51.5t52.5 21.5q30 0 51.5 -21.5t21.5 -51.5zM159 -13q-32 -2 -55.5 20t-23.5 54t23.5 53t53.5 21q35 0 59.5 -27.5t24.5 -81.5q0 -76 -43.5 -130t-82.5 -54q-15 0 -24 10t-9 23
q0 19 20 32q35 22 46 40q10 18 11 40z" />
    <glyph glyph-name="less" unicode="&#x3c;" horiz-adv-x="583" 
d="M537 626v-138l-343 -135l343 -133v-137l-491 212v117z" />
    <glyph glyph-name="equal" unicode="=" horiz-adv-x="583" 
d="M542 397h-501v128h501v-128zM542 182h-501v128h501v-128z" />
    <glyph glyph-name="greater" unicode="&#x3e;" horiz-adv-x="583" 
d="M46 81v138l343 135l-343 133v137l491 -212v-117z" />
    <glyph glyph-name="question" unicode="?" horiz-adv-x="573" 
d="M44 524q0 16 6 39t24 52.5t44.5 54t73 41.5t104.5 17q106 0 170.5 -57t64.5 -137q0 -54 -26 -89.5t-113 -114.5q-31 -28 -40 -44.5t-17 -55.5q-11 -51 -58 -51q-36 0 -52 28q-8 15 -8 43q0 39 17 73t36 53.5t59 54.5q38 33 53.5 54.5t15.5 46.5q0 37 -28.5 64.5
t-75.5 27.5q-30 0 -52.5 -9t-36 -28t-19.5 -32.5t-14 -36.5q-18 -55 -64 -55q-27 0 -45.5 19.5t-18.5 41.5zM355 62q0 -31 -21.5 -52.5t-52.5 -21.5q-30 0 -51.5 21.5t-21.5 52.5q0 30 21.5 51.5t51.5 21.5q31 0 52.5 -21.5t21.5 -51.5z" />
    <glyph glyph-name="at" unicode="@" horiz-adv-x="979" 
d="M868 9h103q-56 -114 -171 -167t-260 -53q-55 0 -107 6.5t-115.5 27t-114 53.5t-94 93t-63.5 139q-16 63 -16 128q0 70 17.5 137.5t56.5 132.5t95.5 113.5t142 78.5t188.5 30q193 0 304.5 -107.5t111.5 -268.5q0 -63 -23 -125.5t-63.5 -113t-102.5 -82t-134 -31.5
q-26 0 -44 5.5t-27 16.5t-12 17.5t-6 16.5q-56 -56 -133 -56q-86 0 -136.5 59t-50.5 145q0 73 28.5 145.5t91 126t144.5 53.5q87 0 129 -66l12 54h128l-73 -350q-7 -34 -7 -43q0 -24 19 -24q46 0 108 76.5t62 180.5q0 46 -16 91.5t-51 90t-102.5 72t-158.5 27.5
q-97 0 -172 -30t-118.5 -74t-71 -102t-37 -107t-9.5 -96q0 -50 11.5 -96.5t41.5 -93.5t75.5 -81.5t118.5 -56.5t165 -22q232 0 336 130zM340 210q0 -55 18 -82q27 -39 69 -39q40 0 72 27.5t48.5 67.5t24.5 77.5t8 65.5q0 14 -3.5 30.5t-12 37t-28 33.5t-47.5 13
q-52 0 -88 -45t-48.5 -94.5t-12.5 -91.5z" />
    <glyph glyph-name="A" unicode="A" horiz-adv-x="719" 
d="M502 169h-290l-34 -90q-21 -55 -35 -73t-46 -18q-30 0 -49.5 20t-19.5 44q0 25 20 75l184 465q33 85 46 101q7 8 15 14q31 21 63 21q62 0 93 -55q9 -17 33 -80l188 -462q21 -53 21 -77t-20 -45t-51 -21q-32 0 -46.5 18.5t-36.5 74.5zM249 281h215l-109 294z" />
    <glyph glyph-name="B" unicode="B" horiz-adv-x="719" 
d="M384 0h-186q-51 0 -67.5 3t-33.5 18q-15 13 -18 31.5t-3 68.5v473q0 51 3 67.5t18 32.5q14 15 33 18.5t68 3.5h199q104 0 156 -31q39 -23 62 -63t23 -86q0 -108 -107 -157q140 -42 140 -175q0 -62 -32 -109.5t-83 -70.5q-54 -24 -172 -24zM373 313h-153v-201h158
q17 0 25.5 0.5t29.5 3t34 9t27.5 17t22 29t7.5 43.5q0 24 -8 42.5t-23.5 28.5t-29 16.5t-35.5 8.5t-30 2.5t-25 0.5zM220 604v-179h135q20 0 26 0.5t28 2t33 7.5t26 15.5t21.5 26.5t6.5 40q0 21 -6.5 37t-20.5 25t-26.5 14.5t-34.5 7.5t-33.5 2.5t-34.5 0.5h-120z" />
    <glyph glyph-name="C" unicode="C" horiz-adv-x="740" 
d="M689 226q0 -43 -30 -96.5t-81 -89.5q-75 -52 -184 -52q-168 0 -255 103q-89 105 -89 266q0 169 95.5 270t248.5 101q73 0 132 -24t92 -59.5t50.5 -71t17.5 -63.5q0 -21 -16.5 -41.5t-47.5 -20.5q-26 0 -39.5 14.5t-38.5 61.5q-22 41 -63 65t-88 24q-86 0 -141 -65
t-55 -197q0 -136 62 -198q50 -50 130 -50q125 0 169 122q7 20 12.5 31t20 22t34.5 11q25 0 44.5 -17t19.5 -46z" />
    <glyph glyph-name="D" unicode="D" horiz-adv-x="740" 
d="M360 0h-160q-50 0 -70.5 4.5t-36.5 24.5q-10 12 -12 29t-2 63v473q0 51 3 67.5t18 32.5q14 15 33 18.5t67 3.5h157q38 0 64.5 -2.5t66.5 -13t75.5 -36t64.5 -66.5q63 -88 63 -242q0 -189 -107 -286q-76 -70 -224 -70zM223 604v-492h111q22 0 35 0.5t38 5.5t41 13.5
t36 26.5t31.5 43.5t20 65.5t8.5 91q0 132 -62 198q-27 28 -60 38t-103 10h-96z" />
    <glyph glyph-name="E" unicode="E" horiz-adv-x="667" 
d="M223 604v-175h277q58 0 73 -15q18 -18 18 -40q0 -23 -17 -40t-74 -17h-277v-205h313q53 0 66 -6q29 -13 29 -49q0 -29 -22 -45q-16 -12 -73 -12h-336q-52 0 -68 3t-32 18q-15 14 -18 32t-3 68v473q0 52 3 68t18 32q15 15 32.5 18.5t67.5 3.5h325q25 0 35.5 -0.5t22 -4
t18.5 -10.5q17 -17 17 -41t-17 -41q-10 -10 -25.5 -12.5t-50.5 -2.5h-302z" />
    <glyph glyph-name="F" unicode="F" horiz-adv-x="604" 
d="M219 604v-183h216q58 0 73 -16q17 -17 17 -39q0 -28 -18 -41q-19 -16 -72 -16h-216v-201v-13.5v-15.5t-0.5 -15.5t-2 -16.5t-4 -14.5t-6 -14.5t-9 -12t-12.5 -10t-16.5 -5.5t-21.5 -2.5q-21 0 -36 8.5t-22 18t-10.5 30.5t-3.5 30v33v486q0 52 3 68t18 32q15 15 32.5 18.5
t67.5 3.5h285q35 0 50.5 -2.5t25.5 -12.5q17 -17 17 -41t-17 -41q-10 -10 -25.5 -12.5t-50.5 -2.5h-262z" />
    <glyph glyph-name="G" unicode="G" horiz-adv-x="792" 
d="M597 154v109h-99q-62 0 -77 15q-16 18 -16 41q0 56 72 56h157q57 0 78 -19t21 -79v-104q0 -41 -4.5 -59.5t-20.5 -31.5q-44 -34 -119.5 -64t-170.5 -30q-93 0 -164.5 29t-115.5 80t-66.5 117t-22.5 144q0 74 21 138.5t64 117.5t117 83.5t171 30.5q69 0 123 -17t84 -41
t49.5 -53t25.5 -48.5t6 -32.5q0 -25 -20 -44.5t-49 -19.5q-26 0 -39.5 12t-35.5 47q-51 82 -156 82q-108 0 -161 -73t-53 -176q0 -138 66 -204q57 -57 151 -57q88 0 184 51z" />
    <glyph glyph-name="H" unicode="H" horiz-adv-x="760" 
d="M223 432h314v176q0 66 15 93t56 27q39 0 56 -26t17 -94v-500q0 -66 -14 -93t-58 -27q-38 0 -55 26t-17 94v212h-314v-212q0 -66 -14.5 -93t-56.5 -27q-39 0 -56 26t-17 94v500q0 66 15 93t57 27q38 0 55 -26t17 -94v-176z" />
    <glyph glyph-name="I" unicode="I" horiz-adv-x="313" 
d="M228 608v-500q0 -34 -0.5 -46t-4.5 -27t-13 -25q-22 -22 -53 -22q-30 0 -54 22q-10 9 -14 24.5t-4.5 27.5t-0.5 46v500q0 32 0.5 45.5t5 28t13.5 23.5q23 23 53 23q31 0 53 -22q10 -10 14 -25t4.5 -27t0.5 -46z" />
    <glyph glyph-name="J" unicode="J" horiz-adv-x="573" 
d="M349 244v364q0 30 0.5 44t5.5 30t14 25q23 21 52 21t52 -21q14 -13 17 -34t3 -65v-343q0 -41 -2 -68t-17 -72.5t-44 -74.5q-62 -62 -176 -62q-61 0 -107 19.5t-69.5 45.5t-38 61t-17.5 58t-3 44q0 23 8.5 39t22 21.5t22 7.5t15.5 2q9 0 17 -2t13.5 -4.5t10.5 -9t8 -10.5
t6.5 -15t5.5 -16t6 -20.5t6 -21.5q5 -17 9.5 -27.5t14.5 -25.5t27 -23t41 -8q97 0 97 141z" />
    <glyph glyph-name="K" unicode="K" horiz-adv-x="740" 
d="M223 389l286 297q14 14 21.5 21t22 14t30.5 7q32 0 51 -19.5t19 -41.5q0 -32 -34 -65l-176 -167l204 -291q42 -62 42 -95q0 -26 -18.5 -43.5t-51.5 -17.5q-14 0 -27 4.5t-20.5 8.5t-18 16.5t-13.5 16.5t-14 21t-12 19l-171 264l-120 -114v-148q0 -43 -18 -65
q-19 -23 -53 -23q-20 0 -38.5 10.5t-24.5 25.5q-10 24 -10 84v500q0 30 0.5 44t5.5 30t14 25q23 21 52 21q31 0 52 -21q14 -14 17 -34.5t3 -64.5v-219z" />
    <glyph glyph-name="L" unicode="L" horiz-adv-x="604" 
d="M219 112h269q26 0 37.5 -0.5t23.5 -4t19 -11.5q19 -17 19 -39q0 -23 -18 -41q-11 -11 -27 -13.5t-54 -2.5h-291q-53 0 -68.5 3t-31.5 18q-15 15 -18.5 32.5t-3.5 67.5v487q0 32 0.5 45.5t5 28t13.5 23.5q23 23 53 23t54 -22q12 -11 15 -28.5t3 -56.5v-13v-496z" />
    <glyph glyph-name="M" unicode="M" horiz-adv-x="833" 
d="M206 564v-464q0 -61 -14 -86.5t-54 -25.5q-37 0 -52 24.5t-15 87.5v519q0 59 21.5 78t69.5 19h44q58 0 74 -16t33 -80l104 -392l103 392q17 64 33 80t74 16h44q51 0 71 -21t20 -76v-519q0 -62 -13.5 -87t-53.5 -25q-36 0 -52 25t-16 87v464l-113 -456q-19 -73 -38 -96.5
t-59 -23.5q-37 0 -58 22t-40 98z" />
    <glyph glyph-name="N" unicode="N" horiz-adv-x="760" 
d="M545 219v425q0 44 17 62q22 22 50 22q29 0 50 -21q12 -12 15 -31t3 -62v-479v-17v-21t-1 -20.5t-3.5 -22.5t-6.5 -20t-10.5 -19t-15 -13.5t-21.5 -10.5t-28 -3q-33 0 -51.5 16.5t-55.5 72.5l-272 413v-389q0 -32 -0.5 -43.5t-4 -25.5t-12.5 -23q-21 -21 -50 -21
q-30 0 -50 21q-12 13 -15 32t-3 60v484q0 62 4.5 83t24.5 39q24 21 57 21q37 0 61 -29q1 -2 40 -58z" />
    <glyph glyph-name="O" unicode="O" horiz-adv-x="792" 
d="M393 728q83 0 148 -25t102.5 -63t61.5 -89t32.5 -97.5t8.5 -94.5q0 -52 -9.5 -101t-34.5 -99t-63 -87t-100.5 -60.5t-141.5 -23.5t-141.5 23t-101 60t-63.5 86.5t-35 98t-10 99.5q0 164 88 268.5t259 104.5zM396 613q-21 0 -42.5 -4t-52 -19.5t-53 -41.5t-39 -75
t-16.5 -115q0 -97 35 -159q25 -45 70 -70.5t97 -25.5q19 0 39.5 3.5t51.5 19.5t54.5 41.5t41 75t17.5 115.5q0 112 -51 183.5t-152 71.5z" />
    <glyph glyph-name="P" unicode="P" horiz-adv-x="667" 
d="M223 279v-171q0 -74 -18 -96q-22 -24 -55 -24q-20 0 -37.5 10t-24.5 25q-9 22 -9 85v486q0 50 3 67.5t19 34.5q18 20 81 20h175q99 0 147 -19q39 -15 65.5 -42t37 -57.5t14 -51.5t3.5 -41q0 -150 -122 -203q-53 -23 -145 -23h-134zM322 604h-99v-213h99q22 0 33.5 0.5
t38.5 6t42 15.5t28 32t13 53q0 61 -48 90q-27 16 -107 16z" />
    <glyph glyph-name="Q" unicode="Q" horiz-adv-x="792" 
d="M655 89q22 -15 83 -49q30 -17 39 -28.5t9 -25.5q0 -21 -15 -36.5t-33 -15.5q-41 0 -167 90q-71 -36 -174 -36q-79 0 -141.5 23.5t-101 60t-64 86.5t-35 98t-9.5 99q0 164 87.5 268.5t259.5 104.5q82 0 146.5 -24.5t102.5 -61.5t62 -88t33 -98t9 -97q0 -171 -91 -270z
M541 168q58 67 58 190q0 132 -64 198q-55 57 -144 57q-16 0 -34 -3t-49.5 -17.5t-55 -39.5t-41.5 -75.5t-18 -119.5q0 -97 35 -159q26 -46 70.5 -71t96.5 -25q37 0 75 15q-30 22 -62 36q-30 13 -42.5 25t-12.5 27q0 11 11 23.5t26 12.5q45 0 151 -74z" />
    <glyph glyph-name="R" unicode="R" horiz-adv-x="719" 
d="M222 306v-198q0 -68 -13 -90q-17 -30 -61 -30q-20 0 -34 8t-21 17.5t-10.5 28.5t-4 31t-0.5 35v486q0 51 3 67.5t18 32.5q14 15 33.5 18.5t66.5 3.5h203q112 0 165 -31q94 -55 94 -167q0 -44 -15.5 -79t-34.5 -54t-48.5 -33.5t-45.5 -19t-38 -9.5q73 -41 135 -145
q60 -100 60 -132q0 -22 -19.5 -40t-51.5 -18q-17 0 -29.5 5t-26 21t-20.5 26.5t-25 39.5l-59 97q-51 83 -84.5 106t-85.5 23h-51zM357 604h-135v-195h130q23 0 38.5 1t41.5 6t41.5 15t28 30.5t12.5 48.5q0 56 -47 81q-24 13 -110 13z" />
    <glyph glyph-name="S" unicode="S" horiz-adv-x="667" 
d="M622 215q0 -98 -74.5 -162.5t-208.5 -64.5q-70 0 -124.5 18.5t-84 44t-48 57t-24 53.5t-5.5 38q0 24 18 43.5t48 19.5q19 0 32.5 -10.5t20 -23t20.5 -44.5q37 -90 142 -90q58 0 102 27t44 78q0 23 -10 40.5t-23.5 28.5t-40 21t-44.5 14.5t-53 12.5q-75 18 -110.5 32.5
t-61.5 34.5q-70 56 -70 145q0 91 72 145.5t197 54.5q75 0 129.5 -21.5t79.5 -52.5t36 -56.5t11 -44.5q0 -23 -18 -45t-48 -22q-26 0 -40 14.5t-31 50.5q-7 14 -13 22.5t-20.5 22.5t-38.5 21.5t-56 7.5q-50 0 -87.5 -22t-37.5 -62q0 -18 10 -33t22 -24t37.5 -18.5t39.5 -13
l46 -11.5q85 -20 127 -37t72 -41q66 -52 66 -148z" />
    <glyph glyph-name="T" unicode="T" horiz-adv-x="625" 
d="M385 604v-496q0 -44 -3.5 -65t-17.5 -34q-23 -21 -51 -21q-30 0 -53 21q-9 9 -13.5 25.5t-5 28.5t-0.5 45v496h-132h-13h-12.5h-10.5t-10 0.5t-8.5 1t-8.5 2t-7 3t-7 3.5t-5 5q-18 18 -18 41q0 22 17 41q3 3 5.5 5t6.5 3.5t7 3t8.5 2t9 1t10.5 0.5h10.5h12.5h13h407h13
h12.5h10.5t10 -0.5t8.5 -1t8.5 -2t7 -3t7 -3.5t5 -5q18 -18 18 -41q0 -22 -17 -41q-3 -3 -5.5 -5t-6.5 -3.5t-7 -3t-8.5 -2t-9 -1t-10.5 -0.5h-10.5h-12.5h-13h-131z" />
    <glyph glyph-name="U" unicode="U" horiz-adv-x="760" 
d="M223 608v-320q0 -27 1 -44.5t9.5 -47t24 -47.5t47.5 -32t77 -14q44 0 75 14t46 32t23.5 47t9.5 46t1 43v323q0 34 0.5 46t4.5 27t13 24q23 23 53 23t54 -22q13 -14 16 -33.5t3 -64.5v-312q0 -27 -0.5 -44.5t-6 -53.5t-16 -60t-31.5 -55t-51 -50t-77 -32t-107 -13
q-94 0 -163 23.5t-112 93.5q-38 63 -38 191v312q0 32 0.5 45.5t5 28t13.5 23.5q23 23 53 23q32 0 54 -22q3 -3 5.5 -6.5t4 -6.5t3 -7.5l2.5 -7.5t1.5 -9.5t1 -9.5t0.5 -11.5v-11.5v-13.5v-14.5z" />
    <glyph glyph-name="V" unicode="V" horiz-adv-x="688" 
d="M346 153l163 483q12 36 18.5 51.5t22.5 28t40 12.5q28 0 48 -20t20 -44q0 -20 -20 -73l-172 -468q-33 -88 -56.5 -111.5t-65.5 -23.5q-43 0 -67 23.5t-56 111.5l-170 464q-21 56 -21 74q0 25 20 46t51 21q25 0 41 -13t22 -28t20 -54z" />
    <glyph glyph-name="W" unicode="W" horiz-adv-x="938" 
d="M469 542l-117 -430q-9 -35 -14.5 -51.5t-17 -36.5t-29 -28t-42.5 -8t-42 8t-28.5 28.5t-16.5 38t-14 53.5l-119 482q-11 33 -11 66q0 24 19 44t48 20q38 0 52 -23t25 -76l95 -418l105 391q20 75 39 98q8 10 27 19t41 9q20 0 39.5 -8.5t28.5 -19.5q18 -22 39 -98l105 -391
l95 418q14 69 33 84t43 15q30 0 49 -20t19 -45q0 -21 -11 -65l-119 -482q-9 -37 -14.5 -53.5t-16.5 -37.5t-28 -29t-42 -8t-42.5 8t-29 28.5t-17 36.5t-15.5 51z" />
    <glyph glyph-name="X" unicode="X" horiz-adv-x="604" 
d="M215 369l-138 212q-38 57 -38 90q0 26 18.5 41.5t45.5 15.5t44 -17.5t48 -66.5l108 -174l114 174q38 58 52 71t41 13q26 0 43.5 -16.5t17.5 -39.5q0 -29 -38 -88l-141 -211l152 -234q38 -58 38 -89q0 -25 -17 -43.5t-49 -18.5q-28 0 -43.5 15t-46.5 64l-126 198
l-135 -204q-22 -33 -30.5 -44.5t-22.5 -20t-35 -8.5q-12 0 -23 3.5t-22 18t-11 38.5q0 38 36 90z" />
    <glyph glyph-name="Y" unicode="Y" horiz-adv-x="625" 
d="M239 303l-175 271q-43 66 -43 92t20 44t48 18q27 0 42 -15.5t48 -68.5l134 -217l135 217q21 33 31 47t26 25.5t35 11.5q27 0 45.5 -18t18.5 -43q0 -24 -42 -89l-179 -275v-195q0 -66 -15.5 -93t-56.5 -27t-56.5 27.5t-15.5 92.5v195z" />
    <glyph glyph-name="Z" unicode="Z" horiz-adv-x="646" 
d="M428 604h-292q-49 0 -67 10q-25 14 -25 46q0 24 16 40q10 11 26 13.5t50 2.5h367q17 0 26 -0.5t24.5 -4.5t23.5 -11.5t14.5 -22.5t6.5 -37q0 -30 -12.5 -51t-54.5 -72l-343 -405h353q61 0 76 -16q17 -19 17 -40q0 -24 -16 -40t-77 -16h-405q-69 0 -90 10q-15 7 -27.5 26
t-12.5 41q0 20 8 33t45 57z" />
    <glyph glyph-name="bracketleft" unicode="[" horiz-adv-x="354" 
d="M197 624v-708h60q56 0 70 -14q16 -16 16 -38q0 -23 -16 -38q-14 -14 -70 -14h-74q-42 0 -57.5 3t-31.5 18q-15 14 -18 32t-3 69v673q0 52 3 68t18 32q14 15 30.5 18t58.5 3h74q56 0 70 -14q16 -16 16 -38t-16 -38q-14 -14 -70 -14h-60z" />
    <glyph glyph-name="backslash" unicode="\" horiz-adv-x="281" 
d="M160 66l-137 563q-10 45 -10 57q0 17 11 29q13 13 39 13q27 0 37 -15.5t21 -62.5l137 -563q10 -44 10 -57q0 -3 -0.5 -6t-3 -10t-7 -12.5t-15 -9.5t-24.5 -4q-27 0 -37.5 15.5t-20.5 62.5z" />
    <glyph glyph-name="bracketright" unicode="]" horiz-adv-x="354" 
d="M157 -84v708h-60q-56 0 -70 14q-16 16 -16 38q0 23 16 38q16 14 70 14h74q42 0 57.5 -3t31.5 -18q15 -14 18 -32t3 -69v-673q0 -52 -3 -68t-18 -32q-14 -15 -30.5 -18t-58.5 -3h-74q-56 0 -70 14q-16 16 -16 38t16 38q14 14 70 14h60z" />
    <glyph glyph-name="asciicircum" unicode="^" horiz-adv-x="583" 
d="M56 338l183 390h109l179 -390h-139l-96 239l-96 -239h-140z" />
    <glyph glyph-name="underscore" unicode="_" horiz-adv-x="500" 
d="M-6 -125v50h512v-50h-512z" />
    <glyph glyph-name="grave" unicode="`" horiz-adv-x="333" 
d="M225 632q17 -31 17 -36q0 -12 -19 -12q-10 0 -18.5 1t-15 2t-14.5 5.5t-12 6.5t-14 10t-13.5 11t-17 14.5t-18.5 16.5q-60 53 -60 63q0 7 24 7h49q32 0 43 -2t23.5 -13t27.5 -40z" />
    <glyph glyph-name="a" unicode="a" 
d="M406 63q-97 -75 -187 -75q-93 0 -136 46.5t-43 104.5q0 61 38.5 95.5t91.5 48.5q31 8 102.5 23t123.5 30q-1 20 -2 30t-6 26.5t-14.5 25t-28 15t-44.5 6.5q-91 0 -119 -51q-11 -20 -16.5 -28.5t-17.5 -16.5t-29 -8q-20 0 -37.5 13.5t-17.5 36.5q0 34 23 64t52 47
q58 34 158 34q118 0 173.5 -42t55.5 -140v-174q0 -23 13 -76t13 -57q0 -21 -18.5 -37t-42.5 -16q-40 0 -85 75zM397 232v24q-30 -12 -81 -22q-82 -16 -112.5 -33.5t-30.5 -52.5q0 -26 21 -49.5t66 -23.5q64 0 100.5 41t36.5 116z" />
    <glyph glyph-name="b" unicode="b" horiz-adv-x="625" 
d="M190 77v-13q0 -76 -66 -76q-36 0 -51.5 23t-15.5 81v525q0 66 16.5 88.5t49.5 22.5q19 0 32.5 -6.5t20 -14.5t10 -25t4 -28t0.5 -33v-173q23 24 39 37.5t54 29t82 15.5q109 0 165.5 -76.5t56.5 -187.5q0 -119 -58.5 -198.5t-164.5 -79.5q-35 0 -64 8t-50.5 24t-33 27.5
t-26.5 29.5zM328 90q46 0 81 36q43 45 43 136q0 81 -35 123.5t-88 42.5q-60 0 -96 -47.5t-36 -127.5q0 -81 38.5 -122t92.5 -41z" />
    <glyph glyph-name="c" unicode="c" 
d="M547 153q0 -22 -14 -48.5t-41 -53.5t-75.5 -45t-108.5 -18q-66 0 -115.5 19.5t-77 48.5t-45 67.5t-22.5 69.5t-5 63q0 50 14 96.5t43.5 87.5t83.5 65.5t126 24.5q102 0 166 -52.5t64 -102.5q0 -25 -18 -41t-41 -16q-29 0 -46 25q-28 43 -54.5 64t-71.5 21
q-48 0 -79.5 -29t-42.5 -65.5t-11 -76.5q0 -24 5.5 -50t18.5 -54.5t41.5 -47t67.5 -18.5q38 0 66.5 17.5t42.5 39.5q3 4 7 11q22 35 33 45.5t32 10.5q26 0 41.5 -19.5t15.5 -38.5z" />
    <glyph glyph-name="d" unicode="d" horiz-adv-x="625" 
d="M433 64v13q-21 -25 -36.5 -40t-53.5 -32t-84 -17q-106 0 -164.5 79.5t-58.5 198.5q0 111 56.5 187.5t165.5 76.5q45 0 83 -16t53.5 -29t38.5 -37v173q0 22 0.5 33t4 28t10 25t20 14.5t32.5 6.5q33 0 49.5 -23t16.5 -88v-525q0 -58 -15 -81t-52 -23q-66 0 -66 76zM295 90
q54 0 92.5 41t38.5 122q0 80 -36 128t-96 48q-53 0 -88 -43t-35 -124q0 -91 43 -136q35 -36 81 -36z" />
    <glyph glyph-name="e" unicode="e" 
d="M441 226h-262q1 -41 14 -71.5t33.5 -46.5t42 -24t44.5 -8q67 0 126 59q21 21 33 28.5t28 7.5q18 0 31 -11t13 -28q0 -18 -13 -41t-38.5 -46.5t-72 -40t-104.5 -16.5q-70 0 -122.5 23t-80 54t-44.5 72t-21 69t-4 53q0 116 66 193.5t195 77.5q55 0 99 -16.5t70.5 -41.5
t44.5 -56.5t25 -59t7 -51.5q0 -23 -8 -38.5t-17.5 -23.5t-27.5 -12t-28.5 -4.5t-28.5 -0.5zM179 302h243q-6 74 -40.5 105t-80.5 31q-56 0 -86 -40t-36 -96z" />
    <glyph glyph-name="f" unicode="f" horiz-adv-x="333" 
d="M89 518v39q0 38 5 64t20.5 53t50.5 40.5t88 13.5q71 0 99 -14.5t28 -42.5q0 -17 -11.5 -31t-32.5 -14q-4 0 -26 3t-25 3q-22 0 -36 -7t-19.5 -21t-6.5 -24.5t-1 -29.5v-32h34q75 0 75 -47q0 -23 -14 -34.5t-26.5 -13t-34.5 -1.5h-34v-324v-18q0 -92 -66 -92
q-19 0 -31.5 6.5t-19.5 16t-10.5 25.5t-4.5 29t-1 33v324h-37q-61 0 -61 49q0 21 17 34t50 13h31z" />
    <glyph glyph-name="g" unicode="g" horiz-adv-x="625" 
d="M434 439v18q0 42 20.5 57.5t42.5 15.5q28 0 45.5 -23.5t17.5 -89.5v-358q0 -148 -55 -203q-66 -66 -206 -66q-119 0 -180.5 43t-61.5 88q0 26 17.5 41t39.5 15q21 0 33.5 -10t35.5 -39q36 -46 107 -46q92 0 118 48q12 21 15 47t4 89v22q-12 -17 -21 -26.5t-30 -26.5
t-50.5 -26t-65.5 -9q-72 0 -123.5 39t-74.5 99t-23 134q0 121 61.5 189.5t158.5 68.5q36 0 66.5 -9t52.5 -26.5t32 -28t24 -27.5zM298 102q16 0 34 5t41.5 19.5t38.5 49t15 84.5q0 77 -34.5 122.5t-93.5 45.5q-38 0 -64.5 -17t-38.5 -45t-17 -53.5t-5 -51.5q0 -54 16 -90
t41 -49t39 -16.5t28 -3.5z" />
    <glyph glyph-name="h" unicode="h" horiz-adv-x="604" 
d="M541 324v-243q0 -17 -1.5 -28t-7 -28.5t-20.5 -27t-39 -9.5q-19 0 -32 7t-19 16t-9.5 24t-4 23.5t-0.5 22.5v213q0 19 -0.5 31t-5.5 33.5t-13.5 34.5t-27 23t-44.5 10q-31 0 -58 -16t-40 -40q-20 -37 -20 -125v-154q0 -22 -1.5 -35t-7 -31.5t-20.5 -27.5t-38 -9
q-19 0 -32 7t-19.5 16t-10 25.5t-4 26t-0.5 26.5v529q0 61 12.5 85.5t52.5 24.5q35 0 51.5 -24.5t16.5 -96.5v-158q70 81 163 81q179 0 179 -206z" />
    <glyph glyph-name="i" unicode="i" horiz-adv-x="271" 
d="M202 421v-323q0 -60 -14.5 -85t-51.5 -25q-35 0 -51 23.5t-16 86.5v322q0 61 14.5 85.5t51.5 24.5q19 0 31.5 -6.5t19.5 -15t10.5 -24.5t4.5 -29t1 -34zM200 657q0 -27 -19 -46t-45 -19q-27 0 -46 19t-19 46q0 26 19 45.5t46 19.5q26 0 45 -19.5t19 -45.5z" />
    <glyph glyph-name="j" unicode="j" horiz-adv-x="271" 
d="M71 2v418q0 23 0.5 34.5t3.5 29t10 25.5t19.5 14.5t31.5 6.5q40 0 53 -25t13 -85v-418v-30q0 -36 -4 -62t-18 -56.5t-46.5 -47t-83.5 -16.5q-123 0 -123 65q0 23 13.5 38.5t36.5 15.5q4 0 25 -1.5t24 -1.5q24 0 34.5 18t10.5 78zM200 657q0 -27 -19 -46t-45 -19
q-27 0 -46 19t-19 46q0 26 19 45.5t46 19.5q26 0 45 -19.5t19 -45.5z" />
    <glyph glyph-name="k" unicode="k" horiz-adv-x="573" 
d="M283 242l-73 -68v-65q0 -66 -12.5 -93.5t-54.5 -27.5q-39 0 -52.5 24.5t-13.5 89.5v510q0 28 1.5 43.5t7.5 35t21 28.5t40 9q39 0 51 -27t12 -86v-293l151 156q31 33 45 42.5t32 9.5q27 0 43 -17t16 -36q0 -30 -55 -81l-70 -65l136 -215q29 -46 29 -67t-15.5 -41
t-47.5 -20q-24 0 -39.5 14.5t-34.5 46.5z" />
    <glyph glyph-name="l" unicode="l" horiz-adv-x="271" 
d="M202 618v-520q0 -61 -14.5 -85.5t-51.5 -24.5q-35 0 -51 23.5t-16 86.5v520q0 61 14.5 85.5t51.5 24.5q36 0 51.5 -24t15.5 -86z" />
    <glyph glyph-name="m" unicode="m" horiz-adv-x="885" 
d="M824 332v-230q0 -63 -14.5 -88.5t-51.5 -25.5q-36 0 -51.5 25.5t-15.5 88.5v195q0 26 -0.5 39t-4.5 33.5t-11.5 30.5t-22.5 18t-37 8q-59 0 -82 -41t-23 -135v-148q0 -66 -15.5 -90t-51.5 -24q-23 0 -37.5 9t-20.5 29t-7 34.5t-1 41.5v183q0 34 -0.5 46.5t-4 36.5
t-10.5 33t-21.5 17t-36.5 8q-32 0 -54 -12t-32.5 -27t-16 -42.5t-6.5 -44.5t-1 -47v-151q0 -64 -14.5 -89t-50.5 -25q-37 0 -52.5 25.5t-15.5 88.5v323q0 59 14.5 82t48.5 23q64 0 64 -82q67 82 161 82q99 0 147 -82q68 82 159 82q169 0 169 -198z" />
    <glyph glyph-name="n" unicode="n" horiz-adv-x="604" 
d="M539 317v-219q0 -59 -13 -84.5t-53 -25.5q-37 0 -52 25.5t-15 84.5v192q0 21 -0.5 32.5t-5 34t-13.5 35.5t-27 23.5t-44 10.5q-31 0 -58 -16t-40 -41q-12 -23 -16.5 -48t-4.5 -85v-138q0 -58 -13.5 -84t-52.5 -26q-37 0 -52 25.5t-15 84.5v329q0 55 12.5 79t50.5 24
q21 0 35 -8.5t19 -25t6.5 -28t1.5 -28.5q70 90 172 90q100 0 150 -75q28 -43 28 -138z" />
    <glyph glyph-name="o" unicode="o" horiz-adv-x="604" 
d="M568 259q0 -117 -71 -194t-192 -77q-72 0 -126.5 24.5t-84 65.5t-44 86.5t-14.5 94.5q0 114 68.5 192.5t197.5 78.5t197.5 -79t68.5 -192zM433 259q0 82 -35.5 127t-95.5 45t-95.5 -45.5t-35.5 -126.5q0 -82 35.5 -127t95.5 -45t95.5 45t35.5 127z" />
    <glyph glyph-name="p" unicode="p" horiz-adv-x="625" 
d="M188 441q22 26 37.5 40.5t53 31.5t83.5 17q106 0 164.5 -79t58.5 -198q0 -111 -56.5 -188t-165.5 -77q-44 0 -82 16t-54 29.5t-39 37.5v-174q0 -22 -0.5 -33t-4 -28t-10 -25t-19.5 -14.5t-32 -6.5q-33 0 -50 23t-17 88v526q0 58 15 80.5t52 22.5q66 0 66 -75v-14z
M327 428q-54 0 -92.5 -41t-38.5 -122q0 -80 35.5 -127.5t96.5 -47.5q52 0 87 42.5t35 123.5q0 91 -43 136q-34 36 -80 36z" />
    <glyph glyph-name="q" unicode="q" horiz-adv-x="625" 
d="M439 441v14q0 75 66 75q38 0 52.5 -23.5t14.5 -79.5v-526q0 -65 -17 -88t-50 -23q-19 0 -32 6.5t-19.5 14.5t-10 25t-4 28t-0.5 33v174q-23 -24 -39 -37.5t-54 -29.5t-82 -16q-109 0 -165.5 77t-56.5 188q0 119 58.5 198t164.5 79q46 0 83.5 -17t53 -31.5t37.5 -40.5z
M300 428q-46 0 -80 -36q-43 -45 -43 -136q0 -81 35 -123.5t87 -42.5q61 0 96.5 47.5t35.5 127.5q0 81 -38.5 122t-92.5 41z" />
    <glyph glyph-name="r" unicode="r" horiz-adv-x="438" 
d="M68 98v342q0 90 66 90q61 0 64 -83q14 26 24.5 40t34.5 28.5t56 14.5q34 0 77.5 -19t43.5 -57q0 -25 -16.5 -40.5t-35.5 -15.5q-11 0 -39 8.5t-47 8.5q-31 0 -51 -18t-29 -54t-12 -72.5t-3 -90.5v-77q0 -63 -12.5 -89t-53.5 -26q-38 0 -52.5 24t-14.5 86z" />
    <glyph glyph-name="s" unicode="s" horiz-adv-x="542" 
d="M498 162q0 -89 -64 -131.5t-168 -42.5q-53 0 -95 11.5t-65 28t-38.5 37.5t-20.5 37t-5 29q0 22 15.5 37.5t38.5 15.5q21 0 33.5 -11.5t21.5 -27.5t20.5 -32t38.5 -27.5t67 -11.5t65 18t25 45q0 32 -33 50.5t-80 29t-93.5 24.5t-79.5 47.5t-33 86.5q0 20 8 42.5t28.5 50
t66 45t109.5 17.5q100 0 156 -40.5t56 -81.5q0 -21 -14 -37t-41 -16q-12 0 -19.5 2t-21.5 13t-31 32q-33 42 -91 42q-29 0 -56.5 -12t-27.5 -41q0 -27 29 -41.5t118 -36.5q181 -44 181 -151z" />
    <glyph glyph-name="t" unicode="t" horiz-adv-x="354" 
d="M91 518v80q0 63 10 82q7 12 22.5 21.5t33.5 9.5q17 0 33 -9t23 -22q11 -20 11 -71v-91h26q45 0 59 -8q22 -11 22 -39q0 -49 -82 -49h-25v-246v-8q0 -22 0.5 -32t4.5 -23t14 -18t26 -5q15 0 33 4t27 4q21 0 33 -13.5t12 -31.5q0 -22 -16.5 -36.5t-43.5 -20t-44 -7
t-34 -1.5q-42 0 -70.5 11.5t-43 26t-22 42t-8.5 46t-1 52.5v256h-18q-20 0 -33.5 6t-18 16t-6 15.5t-1.5 10.5q0 48 62 48h15z" />
    <glyph glyph-name="u" unicode="u" horiz-adv-x="604" 
d="M65 186v234q0 60 12.5 85t53.5 25q37 0 52 -26t15 -87v-183q0 -80 23 -110.5t67 -30.5q31 0 59 16t41 41q18 34 18 137v133q0 59 13.5 84.5t53.5 25.5q37 0 51.5 -24.5t14.5 -85.5v-329q0 -25 -1 -37t-6 -30.5t-19 -27t-36 -8.5q-38 0 -50 25.5t-12 66.5
q-13 -17 -23.5 -28t-32.5 -28.5t-52.5 -26.5t-67.5 -9q-46 0 -88.5 19.5t-60.5 56.5q-25 49 -25 122z" />
    <glyph glyph-name="v" unicode="v" horiz-adv-x="542" 
d="M271 143l116 317q9 25 15.5 37.5t19 22.5t31.5 10q28 0 45 -18.5t17 -37.5t-20 -67l-129 -317q-24 -63 -40 -80q-20 -22 -55 -22q-21 0 -34.5 5.5t-25 21.5t-18 29.5t-19.5 45.5l-127 314q-20 48 -20 68t18 39t46 19q21 0 35 -11.5t20 -25.5t17 -46z" />
    <glyph glyph-name="w" unicode="w" horiz-adv-x="813" 
d="M239 149l79 276q18 64 33.5 84.5t54.5 20.5q37 0 53 -21t35 -84l80 -276l87 298q10 32 15 45.5t19 25.5t36 12q24 0 41.5 -17t17.5 -39q0 -17 -15 -62l-109 -319q-22 -64 -39 -84.5t-53 -20.5q-41 0 -59 25.5t-34 83.5l-75 260l-74 -260q-10 -35 -15 -49.5t-15.5 -31.5
t-25 -22.5t-36.5 -5.5q-37 0 -54 20t-39 85l-109 319q-15 43 -15 62q0 21 17 38.5t42 17.5q13 0 23.5 -4.5t16 -9.5t12 -19.5t8.5 -21t9 -28.5z" />
    <glyph glyph-name="x" unicode="x" horiz-adv-x="521" 
d="M260 184l-98 -141q-21 -30 -36.5 -42.5t-38.5 -12.5q-26 0 -43 15.5t-17 35.5q0 23 27 61l121 173l-107 144q-28 37 -28 60t17 38t44 15q23 0 38.5 -13t35.5 -42l85 -118l85 118q21 30 36.5 42.5t39.5 12.5q26 0 43 -15t17 -35q0 -24 -29 -63l-107 -144l120 -173
q29 -42 29 -60q0 -23 -18 -37.5t-39 -14.5q-20 0 -37.5 10.5t-41.5 44.5z" />
    <glyph glyph-name="y" unicode="y" horiz-adv-x="542" 
d="M204 1l-163 413q-15 40 -15 55q0 23 18.5 42t45.5 19t42 -18t27 -53l113 -328l107 304q21 60 33.5 77.5t42.5 17.5q29 0 44 -19t15 -37q0 -23 -16 -64l-174 -455q-17 -46 -29.5 -70.5t-34.5 -49.5t-54.5 -35t-79.5 -10q-24 0 -41 2t-36 7.5t-29 18t-10 31.5t13 32.5
t35 13.5q3 0 22.5 -1.5t22.5 -1.5q37 0 54.5 18t34.5 61z" />
    <glyph glyph-name="z" unicode="z" horiz-adv-x="521" 
d="M186 102h239h24.5t21.5 -2.5t21.5 -7.5t12.5 -15t6 -25q0 -16 -6.5 -26.5t-12.5 -15.5t-22.5 -7.5t-21.5 -2.5h-23h-311q-61 0 -82 15.5t-21 44.5q0 15 9 29.5t35 42.5q179 195 237 265q10 11 16 22h-197q-18 0 -29 1t-25.5 5.5t-21.5 15t-7 27.5q0 29 19.5 39.5
t63.5 10.5h251q52 0 67.5 -1.5t26.5 -8.5q27 -17 27 -49q0 -17 -7.5 -29t-44.5 -53z" />
    <glyph glyph-name="braceleft" unicode="{" horiz-adv-x="385" 
d="M172 259q57 -36 72 -80.5t18 -141.5q2 -70 3.5 -83.5t7.5 -23.5q7 -12 15.5 -15.5t31.5 -6.5q15 -2 29 -15.5t14 -40.5q0 -62 -71 -62q-79 0 -122 53q-21 25 -27.5 63t-6.5 101q0 60 -2 86t-14 53t-38 43q-22 14 -31 21t-15.5 18.5t-6.5 28.5q0 27 10 39t43 33
q35 22 44.5 56.5t9.5 105.5q0 115 17 156q14 34 50 57.5t86 23.5q74 0 74 -59q0 -19 -4.5 -31t-15.5 -18t-19.5 -8.5t-24.5 -4.5t-24.5 -16.5t-9.5 -26t-2 -33.5q-4 -115 -8.5 -148t-22.5 -66q-19 -33 -60 -58z" />
    <glyph glyph-name="bar" unicode="|" horiz-adv-x="281" 
d="M86 -119v756q0 50 11 70.5t43 20.5q29 0 42 -19t13 -72v-756q0 -50 -11.5 -70.5t-42.5 -20.5q-30 0 -42.5 19.5t-12.5 71.5z" />
    <glyph glyph-name="braceright" unicode="}" horiz-adv-x="385" 
d="M213 259q-57 36 -71.5 79.5t-18.5 142.5q-4 94 -8 102q-1 2 -3 5q-8 12 -16 15.5t-31 6.5q-15 2 -29 15.5t-14 40.5q0 62 71 62q77 0 122 -53q21 -25 27.5 -63t6.5 -101q0 -87 8.5 -123t45.5 -59q32 -19 42.5 -31.5t10.5 -36.5q0 -27 -10 -39t-43 -33
q-35 -22 -44.5 -56.5t-9.5 -105.5q0 -115 -17 -156q-14 -34 -50 -57.5t-86 -23.5q-74 0 -74 59q0 19 4.5 31t15.5 18t19.5 8.5t24.5 4.5t24.5 16.5t9.5 26t2 33.5q4 118 8 150t23 64q19 33 60 58z" />
    <glyph glyph-name="asciitilde" unicode="~" horiz-adv-x="583" 
d="M32 254v126q61 67 145 67q25 0 49 -5t42.5 -11.5t71.5 -27.5q53 -22 77 -22q69 0 134 70v-131q-9 -10 -25 -22.5t-51 -27.5t-70 -15q-46 0 -122 34q-75 32 -117 32q-69 0 -134 -67z" />
    <glyph glyph-name="uni00A0" unicode="&#xa0;" horiz-adv-x="297" 
 />
    <glyph glyph-name="exclamdown" unicode="&#xa1;" horiz-adv-x="333" 
d="M240 457q0 -31 -21.5 -52.5t-51.5 -21.5q-31 0 -52.5 21.5t-21.5 52.5q0 30 21.5 51.5t52.5 21.5q30 0 51.5 -21.5t21.5 -51.5zM96 -32l21 241q6 90 52 90q44 0 50 -90l17 -235q3 -27 3 -86q0 -98 -75 -98q-20 0 -34 8t-21 18.5t-10.5 27.5t-4 27t-0.5 25q0 46 2 72z" />
    <glyph glyph-name="cent" unicode="&#xa2;" 
d="M379 410l-100 -320q24 -3 31 -3q36 0 64.5 17t43.5 40q33 51 43 59q12 8 29 8q25 0 41 -19t16 -39q0 -21 -13.5 -47.5t-40.5 -53.5t-76 -45.5t-111 -18.5q-26 0 -58 5l-44 -138q-5 -15 -8.5 -22.5t-11 -14.5t-18.5 -7q-12 0 -20.5 8t-8.5 20t10 42l41 128
q-46 20 -77.5 53t-44.5 71t-18 66t-5 55q0 127 70 203q67 73 196 73q23 0 43 -2l47 147q12 38 36 38q29 0 29 -29q0 -7 -5 -26l-46 -143q62 -23 94.5 -64.5t32.5 -73.5q0 -23 -17.5 -39.5t-41.5 -16.5q-28 0 -53 34q-20 28 -27 36.5t-22 18.5zM224 123l96 306q-3 0 -7 0.5
t-6.5 1t-4.5 0.5q-16 0 -34.5 -7t-40.5 -24t-36 -54t-14 -89q0 -93 47 -134z" />
    <glyph glyph-name="sterling" unicode="&#xa3;" 
d="M242 402h73q18 0 28.5 -1t25.5 -4.5t22 -14t7 -26.5q0 -13 -5.5 -22.5t-12 -14t-19.5 -6.5t-20.5 -2.5t-21.5 -0.5h-59q2 -49 -17 -89t-84 -113q62 15 111 15q14 0 88 -7t86 -7q25 0 56 10t42 10q19 0 36.5 -16.5t17.5 -42.5t-21.5 -44t-52 -25t-51 -10t-31.5 -3
q-41 0 -121.5 21.5t-106.5 21.5q-29 0 -84 -21q-52 -22 -67 -22q-19 0 -36.5 15t-17.5 44q0 16 7 26.5t29 30.5t37 37q54 60 54 125q0 16 -5 44h-42q-36 0 -54 8.5t-18 36.5q0 47 62 47h29q-25 82 -25 119q0 96 65 151.5t161 55.5q67 0 116.5 -20.5t72 -45.5t35.5 -57
t14.5 -45.5t1.5 -21.5q0 -23 -18.5 -41.5t-45.5 -18.5q-17 0 -29 6t-19.5 18.5t-10.5 19t-7 20.5q-28 90 -101 90q-46 0 -74 -30.5t-28 -75.5q0 -36 28 -124z" />
    <glyph glyph-name="currency" unicode="&#xa4;" horiz-adv-x="552" 
d="M86 458q-15 14 -21.5 21.5t-12 20t-5.5 26.5q0 25 15.5 41.5t40.5 16.5q13 0 25 -5.5t19.5 -12t23.5 -21.5q54 27 105 27t105 -27q16 15 23.5 21.5t19.5 12t25 5.5q25 0 40.5 -16.5t15.5 -41.5q0 -20 -9 -33.5t-30 -34.5q26 -50 26 -102t-26 -102q15 -14 21.5 -21.5
t12 -20t5.5 -26.5q0 -24 -16 -41t-40 -17q-13 0 -25.5 6t-19.5 12t-23 21q-54 -27 -105 -27t-105 27q-21 -21 -35 -30t-33 -9q-24 0 -40 16.5t-16 41.5q0 20 9 33.5t30 34.5q-26 50 -26 102t26 102zM177 356q0 -41 29 -70t70 -29t70 29t29 70t-29 70t-70 29
q-40 0 -69.5 -29.5t-29.5 -69.5z" />
    <glyph glyph-name="yen" unicode="&#xa5;" horiz-adv-x="625" 
d="M250 217v70h-98q-17 0 -27 1t-24.5 4.5t-22 14t-7.5 26.5t7.5 26t22 13.5t24.5 4.5t27 1h50l-146 229q-28 44 -28 65q0 26 15.5 41t38.5 15q25 0 39 -13.5t38 -50.5l158 -247l141 233q2 3 12.5 21t12.5 21q24 36 60 36q23 0 38.5 -14t15.5 -40q0 -22 -25 -64l-141 -232
h50q17 0 27 -1t24.5 -4.5t22 -13.5t7.5 -26t-7.5 -26.5t-22 -14t-24.5 -4.5t-27 -1h-98v-70h98q17 0 27 -1t24.5 -4.5t22 -14t7.5 -26.5t-7.5 -26t-22 -13.5t-24.5 -4.5t-27 -1h-98v-27q0 -19 -0.5 -29t-3.5 -28t-9.5 -28t-20.5 -18t-33 -8q-23 0 -37.5 10.5t-20 30.5t-7 34
t-1.5 36v27h-98q-17 0 -27 1t-24.5 4.5t-22 13.5t-7.5 26t7.5 26.5t22 14t24.5 4.5t27 1h98z" />
    <glyph glyph-name="brokenbar" unicode="&#xa6;" horiz-adv-x="281" 
d="M86 -119v204q0 35 2 49.5t12 24.5q17 17 40 17q24 0 41 -17q14 -14 14 -74v-204q0 -59 -14 -74q-19 -17 -41 -17q-33 0 -47 28q-7 16 -7 63zM86 433v204q0 24 0.5 34.5t3.5 21.5t10 18q17 17 40 17q24 0 41 -17q14 -14 14 -74v-204q0 -59 -14 -74q-19 -17 -40 -17
q-24 0 -41 17q-14 15 -14 74z" />
    <glyph glyph-name="section" unicode="&#xa7;" 
d="M458 91q65 -57 65 -129q0 -74 -60 -123t-151 -49q-67 0 -117 20t-74.5 49.5t-36 56t-11.5 46.5t16.5 40t45.5 20q23 0 35 -12.5t36 -55.5q12 -21 20 -31.5t29.5 -22t50.5 -11.5q44 0 66 23t22 48q0 26 -22.5 45.5t-96.5 66.5q-101 60 -127 79q-24 17 -30.5 21.5t-27 22.5
t-28 30.5t-15.5 34t-8 45.5q0 93 102 146q-57 50 -57 116q0 61 51 111t157 50q96 0 156 -46.5t60 -93.5q0 -23 -18 -37.5t-37 -14.5q-18 0 -29 8.5t-34 34.5q-24 28 -42 39t-51 11q-42 0 -62.5 -19t-20.5 -40q0 -14 5.5 -25.5t20 -23t23.5 -17t32 -18.5q170 -94 202 -124
q58 -53 58 -122q0 -95 -97 -149zM208 397q-57 -36 -57 -75q0 -18 12.5 -34t42.5 -37q11 -8 78 -48.5t89 -51.5q58 42 58 74q0 35 -48 68q-20 13 -62.5 38.5t-75.5 44.5t-37 21z" />
    <glyph glyph-name="dieresis" unicode="&#xa8;" horiz-adv-x="333" 
d="M127 650q0 -23 -16 -39t-39 -16t-39 16t-16 39t16 39t39 16q22 0 38.5 -16.5t16.5 -38.5zM316 650q0 -23 -16 -39t-39 -16t-39 16t-16 39q0 22 16 38.5t39 16.5t39 -16t16 -39z" />
    <glyph glyph-name="copyright" unicode="&#xa9;" horiz-adv-x="740" 
d="M461 299l78 -27q-20 -67 -64.5 -97t-99.5 -30q-75 0 -132 50.5t-57 155.5q0 95 50 152.5t140 57.5q119 0 163 -118l-79 -19q-25 68 -87 68q-31 0 -52.5 -14t-31 -37t-13.5 -44t-4 -43q0 -72 28 -105.5t67 -33.5q71 0 94 84zM370 728q156 0 265 -110t109 -264t-110 -264
t-264 -110q-155 0 -264.5 109.5t-109.5 264.5q0 154 109.5 264t264.5 110zM370 654q-125 0 -212.5 -88t-87.5 -212t88 -212t212 -88t212 88t88 212t-87.5 212t-212.5 88z" />
    <glyph glyph-name="ordfeminine" unicode="&#xaa;" horiz-adv-x="375" 
d="M256 437q-63 -42 -119 -42q-60 0 -90 28.5t-30 67.5q0 38 26 61t62 30q105 21 140 30q-1 16 -3.5 24t-15 16t-36.5 8q-26 0 -43 -6.5t-22 -13t-13 -19.5q-13 -22 -38 -22q-16 0 -29 10t-13 26q0 7 2 16t12 23.5t25.5 25.5t46 19.5t70.5 8.5q93 0 123.5 -32t30.5 -100
q0 -7 -1 -43.5t-1 -42.5q0 -21 11 -53q6 -18 6 -25q0 -15 -14 -26t-31 -11q-26 0 -56 42zM246 550q-104 -23 -112 -27q-19 -11 -19 -27q0 -14 12 -25.5t37 -11.5q24 0 46 11.5t30 32.5q6 15 6 47z" />
    <glyph glyph-name="guillemotleft" unicode="&#xab;" 
d="M400 256l93 -148q14 -19 14 -35q0 -18 -13.5 -30t-29.5 -12q-11 0 -18 2.5t-18.5 13t-24.5 30.5l-86 131q-21 33 -21 48q0 18 21 49l90 135q27 40 53 40q17 0 31.5 -11.5t14.5 -31.5q0 -13 -17 -40zM176 256l93 -148q14 -19 14 -35q0 -18 -13.5 -30t-29.5 -12
q-11 0 -18 2.5t-18.5 13t-24.5 30.5l-86 131q-21 33 -21 48q0 18 21 49l90 135q27 40 53 40q17 0 31.5 -11.5t14.5 -31.5q0 -13 -17 -40z" />
    <glyph glyph-name="logicalnot" unicode="&#xac;" horiz-adv-x="583" 
d="M414 183v214h-373v128h501v-342h-128z" />
    <glyph glyph-name="uni00AD" unicode="&#xad;" horiz-adv-x="333" 
d="M116 312h101q37 0 53 -2.5t27 -13.5q19 -19 19 -43q0 -25 -19 -44q-10 -10 -26.5 -12.5t-53.5 -2.5h-101q-26 0 -37.5 0.5t-23 4t-19.5 10.5q-19 19 -19 43q0 25 19 44q11 11 27 13.5t53 2.5z" />
    <glyph glyph-name="registered" unicode="&#xae;" horiz-adv-x="740" 
d="M201 154v397h81q115 0 146 -3.5t53 -20.5q42 -33 42 -88q0 -38 -26 -70.5t-81 -40.5q26 -11 40.5 -28t43.5 -66l47 -80h-100l-33 64q-33 64 -55.5 81.5t-56.5 17.5h-20v-163h-81zM282 488v-108h32q69 0 84 4q39 11 39 50q0 29 -23 42q-14 9 -31 10.5t-69 1.5h-32z
M370 728q156 0 265 -110t109 -264t-110 -264t-264 -110q-155 0 -264.5 109.5t-109.5 264.5q0 154 109 264t265 110zM371 655q-126 0 -214 -88.5t-88 -212.5q0 -125 88.5 -213t213.5 -88q124 0 212 88t88 213q0 124 -87.5 212.5t-212.5 88.5z" />
    <glyph glyph-name="macron" unicode="&#xaf;" horiz-adv-x="333" 
d="M287 615h-213q-58 0 -76.5 7.5t-18.5 28.5t18 28t77 7h213q73 0 73 -35q0 -10 -3.5 -16.5t-20.5 -13t-49 -6.5z" />
    <glyph glyph-name="degree" unicode="&#xb0;" horiz-adv-x="396" 
d="M42 572q0 65 45.5 110.5t110.5 45.5q64 0 110 -46t46 -110t-46 -110t-110 -46t-110 45.5t-46 110.5zM123 572q0 -31 22 -53t53 -22t53 22t22 53t-22 53t-53 22t-53 -22t-22 -53z" />
    <glyph glyph-name="plusminus" unicode="&#xb1;" horiz-adv-x="583" 
d="M542 0h-501v128h501v-128zM227 174v186h-186v128h186v186h128v-186h187v-128h-187v-186h-128z" />
    <glyph glyph-name="two.superior" unicode="&#xb2;" horiz-adv-x="354" 
d="M148 424h127q60 0 60 -35t-49 -35h-201q-57 0 -57 39q0 23 25 49.5t115 89.5q40 27 55 42.5t15 37.5q0 20 -17.5 32.5t-42.5 12.5q-23 0 -39 -12.5t-23.5 -27t-19.5 -27t-27 -12.5q-17 0 -28.5 9.5t-11.5 25.5q0 41 41 74t108 33q74 0 112 -30.5t38 -76.5q0 -34 -21 -62
t-98 -79q-45 -30 -61 -48z" />
    <glyph glyph-name="three.superior" unicode="&#xb3;" horiz-adv-x="354" 
d="M270 552q61 -30 61 -85q0 -49 -44.5 -84.5t-112.5 -35.5q-64 0 -106.5 34t-42.5 71q0 14 12.5 24.5t30.5 10.5q25 0 38 -31q21 -48 68 -48q26 0 46.5 15.5t20.5 41.5q0 24 -17 37.5t-44 13.5q-9 0 -23 -1t-16 -1q-37 0 -37 31q0 33 43 33h20q21 0 38.5 11t17.5 31
q0 16 -14.5 27.5t-37.5 11.5q-20 0 -34 -10t-20.5 -21.5t-17 -21.5t-23.5 -10q-17 0 -27.5 10t-10.5 24q0 33 40.5 61.5t99.5 28.5q61 0 97.5 -26.5t36.5 -68.5q0 -41 -42 -73z" />
    <glyph glyph-name="acute" unicode="&#xb4;" horiz-adv-x="333" 
d="M112 632l18 34q21 40 36 47.5t58 7.5h49q24 0 24 -7q0 -10 -60 -63q-5 -5 -18.5 -16.5t-17 -14.5t-13.5 -11t-14 -10t-12 -6.5t-14.5 -5.5t-15 -2t-18.5 -1q-19 0 -19 12q0 5 17 36z" />
    <glyph glyph-name="mu" unicode="&#xb5;" horiz-adv-x="615" 
d="M206 70v-170q0 -28 -0.5 -40.5t-4.5 -27t-13 -22.5q-22 -20 -47 -20q-27 0 -49 19q-19 19 -19 91v520q0 59 11 81q6 11 21.5 20t34.5 9q27 0 48 -19q12 -12 15 -31t3 -60v-136q0 -63 8 -102q6 -29 30.5 -56.5t62.5 -27.5q52 0 81 52q19 35 19 132v138q0 28 0.5 41
t4.5 27.5t13 22.5q21 19 48 19q17 0 33 -9t23 -21q11 -19 11 -80v-329q0 -55 -11 -75q-6 -10 -20.5 -19t-31.5 -9q-57 0 -62 70q-20 -37 -49 -54q-28 -16 -54 -16q-23 0 -40.5 7t-30.5 22t-19 24.5t-16 28.5z" />
    <glyph glyph-name="paragraph" unicode="&#xb6;" horiz-adv-x="563" 
d="M306 -197h-109v511q-49 4 -86 21t-56.5 38.5t-31.5 49t-15.5 48t-3.5 40.5q0 49 20 96.5t60 71.5q41 25 75.5 31t105.5 6h292v-109h-56v-804h-109v804h-86v-804z" />
    <glyph glyph-name="periodcentered" unicode="&#xb7;" horiz-adv-x="313" 
d="M230 354q0 -31 -21.5 -52.5t-51.5 -21.5q-31 0 -52.5 21.5t-21.5 52.5q0 30 21.5 51.5t52.5 21.5q30 0 51.5 -21.5t21.5 -51.5z" />
    <glyph glyph-name="cedilla" unicode="&#xb8;" horiz-adv-x="333" 
d="M105 -47q2 10 5 16t19.5 13t45.5 7q58 0 93.5 -31.5t35.5 -67.5q0 -33 -35 -61.5t-119 -28.5q-98 0 -98 31q0 10 7 17.5t18 7.5q2 0 33 -2t37 -2q29 0 49.5 10t20.5 30q0 5 -2 9.5t-6.5 11t-16.5 10.5t-29 4q-4 0 -20 -2.5t-19 -2.5q-9 0 -14.5 7.5t-5.5 17.5q0 4 1 6z
" />
    <glyph glyph-name="one.superior" unicode="&#xb9;" horiz-adv-x="354" 
d="M162 401v199q-67 -42 -92 -42q-14 0 -25.5 9.5t-11.5 22.5q0 22 32 34q75 28 110 74q16 22 38 22q40 0 40 -50v-269q0 -54 -45 -54q-46 0 -46 54z" />
    <glyph glyph-name="ordmasculine" unicode="&#xba;" horiz-adv-x="385" 
d="M369 561q0 -71 -46.5 -118.5t-127.5 -47.5q-90 0 -134 49.5t-44 116.5q0 72 46.5 119.5t129.5 47.5q86 0 131 -49t45 -118zM271 561q0 45 -21 70t-57 25t-57 -25t-21 -70t21 -69.5t57 -24.5t57 25t21 69z" />
    <glyph glyph-name="guillemotright" unicode="&#xbb;" 
d="M194 255l-93 148q-14 19 -14 35q0 18 13.5 30t29.5 12q11 0 18 -2.5t18.5 -13t24.5 -30.5l86 -131q21 -33 21 -48q0 -18 -21 -49l-90 -135q-27 -40 -53 -40q-17 0 -31.5 11.5t-14.5 31.5q0 13 17 40zM418 255l-93 148q-14 19 -14 35q0 18 13.5 30t29.5 12q11 0 18 -2.5
t18.5 -13t24.5 -30.5l86 -131q21 -33 21 -48q0 -18 -21 -49l-90 -135q-27 -40 -53 -40q-17 0 -31.5 11.5t-14.5 31.5q0 13 17 40z" />
    <glyph glyph-name="onequarter" unicode="&#xbc;" horiz-adv-x="854" 
d="M253 670v-267q0 -56 -46 -56t-46 53v199q-63 -42 -92 -42q-15 0 -25.5 9.5t-10.5 23.5t8 20.5t43 20.5q38 16 56 31q10 8 24 24t25.5 25t23.5 9q40 0 40 -50zM195 29l410 661q13 22 21 29t22 7q31 0 31 -29q-2 -14 -17 -41l-407 -656q-17 -27 -35 -27q-13 0 -24 9t-11 20
t10 27zM690 51v24h-119q-44 0 -62 9.5t-18 35.5q0 15 28 46l153 169q31 34 55 34t35.5 -14t11.5 -49v-163q36 0 49 -8.5t13 -25.5q0 -34 -50 -34h-12v-24q0 -32 -10 -44.5t-32 -12.5q-42 0 -42 57zM587 143h103v116z" />
    <glyph glyph-name="onehalf" unicode="&#xbd;" horiz-adv-x="854" 
d="M253 670v-267q0 -56 -46 -56t-46 53v199q-63 -42 -92 -42q-15 0 -25.5 9.5t-10.5 23.5t8 20.5t43 20.5q38 16 56 31q10 8 24 24t25.5 25t23.5 9q40 0 40 -50zM187 31l410 661q13 22 21 29t22 7q31 0 31 -29q-2 -14 -17 -41l-407 -656q-17 -27 -35 -27q-13 0 -24 9t-11 20
t10 27zM633 71h127q60 0 60 -35q0 -36 -50 -36h-200q-57 0 -57 40q0 42 108 117q65 46 83 63.5t18 38.5q0 20 -17.5 32.5t-42.5 12.5q-47 0 -59 -31q-12 -29 -20.5 -39t-28.5 -10q-18 0 -29 9.5t-11 26.5q0 41 40.5 74t112.5 33q69 0 107.5 -31t38.5 -76q0 -34 -23.5 -63.5
t-85.5 -71.5t-71 -54z" />
    <glyph glyph-name="threequarters" unicode="&#xbe;" horiz-adv-x="854" 
d="M213 29l410 661q13 22 21 29t22 7q31 0 31 -29q0 -12 -17 -41l-407 -656q-17 -27 -35 -27q-13 0 -24 9t-11 20t10 27zM690 51v24h-119q-35 0 -47 2.5t-23 14.5q-10 11 -10 28q0 15 28 46l153 169q31 34 55 34t35.5 -14t11.5 -49v-163q36 0 49 -8.5t13 -25.5
q0 -34 -50 -34h-12v-24q0 -32 -10 -44.5t-32 -12.5q-42 0 -42 57zM587 143h103v116zM270 552q61 -30 61 -85q0 -49 -44.5 -84.5t-112.5 -35.5q-64 0 -106.5 34t-42.5 71q0 14 12.5 24.5t30.5 10.5q25 0 38 -31q21 -48 68 -48q26 0 46.5 15.5t20.5 41.5q0 24 -17 37.5
t-44 13.5q-9 0 -23 -1t-16 -1q-37 0 -37 31q0 33 43 33h20q21 0 38.5 11t17.5 31q0 16 -14.5 27.5t-37.5 11.5q-20 0 -34 -10t-20.5 -21.5t-17 -21.5t-23.5 -10q-17 0 -27.5 10t-10.5 24q0 33 40.5 61.5t99.5 28.5q61 0 97.5 -26.5t36.5 -68.5q0 -41 -42 -73z" />
    <glyph glyph-name="questiondown" unicode="&#xbf;" horiz-adv-x="573" 
d="M529 -6q0 -16 -6 -39t-24 -52.5t-44.5 -54t-73 -41.5t-104.5 -17q-106 0 -170.5 57t-64.5 137q0 54 26 89.5t113 114.5q31 29 40 45.5t17 54.5q11 51 58 51q36 0 52 -28q8 -15 8 -43q0 -39 -17 -73t-36 -53.5t-59 -54.5q-38 -33 -53.5 -54.5t-15.5 -46.5
q0 -37 28.5 -64.5t75.5 -27.5q30 0 52.5 9t36 28t19.5 32.5t14 36.5q18 55 64 55q27 0 45.5 -19.5t18.5 -41.5zM218 456q0 31 21.5 52.5t52.5 21.5q30 0 51.5 -21.5t21.5 -52.5q0 -30 -21.5 -51.5t-51.5 -21.5q-31 0 -52.5 21.5t-21.5 51.5z" />
    <glyph glyph-name="Agrave" unicode="&#xc0;" horiz-adv-x="719" 
d="M502 169h-290l-34 -90q-21 -55 -35 -73t-46 -18q-30 0 -49.5 20t-19.5 44q0 25 20 75l184 465q33 85 46 101q7 8 15 14q31 21 63 21q62 0 93 -55q9 -17 33 -80l188 -462q21 -53 21 -77t-20 -45t-51 -21q-32 0 -46.5 18.5t-36.5 74.5zM249 281h215l-109 294zM438 811
q17 -31 17 -36q0 -12 -19 -12q-10 0 -18.5 1t-15 2t-14.5 5.5t-12 6.5t-14 10t-13.5 11t-17 14.5t-18.5 16.5q-60 52 -60 63q0 7 24 7h49q32 0 43 -2t23.5 -13t27.5 -40z" />
    <glyph glyph-name="Aacute" unicode="&#xc1;" horiz-adv-x="719" 
d="M502 169h-290l-34 -90q-21 -55 -35 -73t-46 -18q-30 0 -49.5 20t-19.5 44q0 25 20 75l184 465q33 85 46 101q7 8 15 14q31 21 63 21q62 0 93 -55q9 -17 33 -80l188 -462q21 -53 21 -77t-20 -45t-51 -21q-32 0 -46.5 18.5t-36.5 74.5zM249 281h215l-109 294zM305 811
l18 34q21 40 36 47.5t58 7.5h49q24 0 24 -7q0 -11 -60 -63q-5 -5 -18.5 -16.5t-17 -14.5t-13.5 -11t-14 -10t-12 -6.5t-14.5 -5.5t-15 -2t-18.5 -1q-19 0 -19 12q0 5 17 36z" />
    <glyph glyph-name="Acircumflex" unicode="&#xc2;" horiz-adv-x="719" 
d="M502 169h-290l-34 -90q-21 -55 -35 -73t-46 -18q-30 0 -49.5 20t-19.5 44q0 25 20 75l184 465q33 85 46 101q7 8 15 14q31 21 63 21q62 0 93 -55q9 -17 33 -80l188 -462q21 -53 21 -77t-20 -45t-51 -21q-32 0 -46.5 18.5t-36.5 74.5zM249 281h215l-109 294zM360 857
l-49 -57q-23 -28 -31 -31q-8 -4 -39 -4h-24q-20 0 -20 7q0 6 15 24l54 65q25 30 36.5 37.5t42.5 7.5h28q30 0 41 -7t38 -38l56 -66q14 -17 14 -23q0 -7 -21 -7h-20q-39 0 -49 9z" />
    <glyph glyph-name="Atilde" unicode="&#xc3;" horiz-adv-x="719" 
d="M502 169h-290l-34 -90q-21 -55 -35 -73t-46 -18q-30 0 -49.5 20t-19.5 44q0 25 20 75l184 465q33 85 46 101q7 8 15 14q31 21 63 21q62 0 93 -55q9 -17 33 -80l188 -462q21 -53 21 -77t-20 -45t-51 -21q-32 0 -46.5 18.5t-36.5 74.5zM249 281h215l-109 294zM222 757
q-28 0 -28 37q0 36 22.5 67t58.5 31q37 0 80 -23q65 -28 79 -28q17 0 24.5 8t13.5 31t25 23q11 0 19.5 -10t8.5 -24q0 -31 -21 -65.5t-62 -34.5q-36 0 -84 24q-55 26 -77 26q-14 0 -21 -9t-14 -30q-8 -23 -24 -23z" />
    <glyph glyph-name="Adieresis" unicode="&#xc4;" horiz-adv-x="719" 
d="M502 169h-290l-34 -90q-21 -55 -35 -73t-46 -18q-30 0 -49.5 20t-19.5 44q0 25 20 75l184 465q33 85 46 101q7 8 15 14q31 21 63 21q62 0 93 -55q9 -17 33 -80l188 -462q21 -53 21 -77t-20 -45t-51 -21q-32 0 -46.5 18.5t-36.5 74.5zM249 281h215l-109 294zM320 829
q0 -23 -16 -39t-39 -16t-39 16t-16 39t16 39t39 16t39 -16t16 -39zM509 829q0 -23 -16 -39t-39 -16t-39 16t-16 39t16.5 39t38.5 16q23 0 39 -16t16 -39z" />
    <glyph glyph-name="Aring" unicode="&#xc5;" horiz-adv-x="719" 
d="M502 169h-290l-34 -90q-21 -55 -35 -73t-46 -18q-30 0 -49.5 20t-19.5 44q0 25 20 75l184 465q33 85 46 101q7 8 15 14q31 21 63 21q62 0 93 -55q9 -17 33 -80l188 -462q21 -53 21 -77t-20 -45t-51 -21q-32 0 -46.5 18.5t-36.5 74.5zM249 281h215l-109 294zM460 843
q0 -41 -29.5 -70.5t-70.5 -29.5q-42 0 -71.5 29.5t-29.5 70.5q0 42 29.5 71.5t71.5 29.5q41 0 70.5 -29.5t29.5 -71.5zM409 843q0 21 -14.5 35.5t-34.5 14.5q-21 0 -35.5 -14.5t-14.5 -35.5q0 -20 14.5 -34.5t35.5 -14.5q20 0 34.5 14.5t14.5 34.5z" />
    <glyph glyph-name="AE" unicode="&#xc6;" horiz-adv-x="990" 
d="M194 172l-43 -101q-11 -25 -18.5 -39t-27.5 -29t-46 -15q-12 0 -24 3t-25 18t-13 40q0 18 19 59l240 521q20 44 27 55t20 20q12 9 27 10.5t61 1.5h461q34 0 50 -2.5t26 -13.5q17 -17 17 -40q0 -20 -16 -40q-16 -16 -77 -16h-259v-175h234q61 0 75 -15q16 -18 16 -41
q0 -24 -16 -40t-75 -16h-234v-205h268h6q23 0 33 -0.5t21.5 -4t17.5 -10.5q17 -19 17 -40q0 -24 -17 -41q-14 -16 -78 -16h-291q-52 0 -68 3t-31 18q-22 22 -22 64v87h-255zM241 287h208v323h-66z" />
    <glyph glyph-name="Ccedilla" unicode="&#xc7;" horiz-adv-x="740" 
d="M398 -12l-3 -11q15 -3 24 -5t25.5 -8.5t26.5 -14.5t18 -23.5t8 -34.5q0 -46 -45 -72.5t-108 -26.5q-80 0 -106 13q-11 5 -11 19q0 29 40 29q5 0 34 -2t34 -2q72 0 72 42q0 16 -14.5 27t-37.5 11q-3 0 -23 -3t-23 -3q-8 0 -15.5 7.5t-7.5 18.5q0 16 23 25q29 12 57 14
q-148 10 -227 103q-89 105 -89 266q0 169 95.5 270t248.5 101q73 0 132 -24t92 -59.5t50.5 -71t17.5 -63.5q0 -21 -16.5 -41.5t-47.5 -20.5q-26 0 -39.5 14.5t-38.5 61.5q-22 41 -63 65t-88 24q-86 0 -141 -65t-55 -197q0 -136 62 -198q50 -50 130 -50q125 0 169 122
q7 20 12.5 31t20 22t34.5 11q25 0 44.5 -17t19.5 -46q0 -44 -29.5 -96.5t-81.5 -89.5q-75 -52 -180 -52z" />
    <glyph glyph-name="Egrave" unicode="&#xc8;" horiz-adv-x="667" 
d="M223 604v-175h277q58 0 73 -15q18 -18 18 -40q0 -23 -17 -40t-74 -17h-277v-205h313q53 0 66 -6q29 -13 29 -49q0 -29 -22 -45q-16 -12 -73 -12h-336q-52 0 -68 3t-32 18q-15 14 -18 32t-3 68v473q0 52 3 68t18 32q15 15 32.5 18.5t67.5 3.5h325q25 0 35.5 -0.5t22 -4
t18.5 -10.5q17 -17 17 -41t-17 -41q-10 -10 -25.5 -12.5t-50.5 -2.5h-302zM412 811q17 -31 17 -36q0 -12 -19 -12q-10 0 -18.5 1t-15 2t-14.5 5.5t-12 6.5t-14 10t-13.5 11t-17 14.5t-18.5 16.5q-60 52 -60 63q0 7 24 7h49q32 0 43 -2t23.5 -13t27.5 -40z" />
    <glyph glyph-name="Eacute" unicode="&#xc9;" horiz-adv-x="667" 
d="M223 604v-175h277q58 0 73 -15q18 -18 18 -40q0 -23 -17 -40t-74 -17h-277v-205h313q53 0 66 -6q29 -13 29 -49q0 -29 -22 -45q-16 -12 -73 -12h-336q-52 0 -68 3t-32 18q-15 14 -18 32t-3 68v473q0 52 3 68t18 32q15 15 32.5 18.5t67.5 3.5h325q25 0 35.5 -0.5t22 -4
t18.5 -10.5q17 -17 17 -41t-17 -41q-10 -10 -25.5 -12.5t-50.5 -2.5h-302zM279 811l18 34q21 40 36 47.5t58 7.5h49q24 0 24 -7q0 -11 -60 -63q-5 -5 -18.5 -16.5t-17 -14.5t-13.5 -11t-14 -10t-12 -6.5t-14.5 -5.5t-15 -2t-18.5 -1q-19 0 -19 12q0 5 17 36z" />
    <glyph glyph-name="Ecircumflex" unicode="&#xca;" horiz-adv-x="667" 
d="M223 604v-175h277q58 0 73 -15q18 -18 18 -40q0 -23 -17 -40t-74 -17h-277v-205h313q53 0 66 -6q29 -13 29 -49q0 -29 -22 -45q-16 -12 -73 -12h-336q-52 0 -68 3t-32 18q-15 14 -18 32t-3 68v473q0 52 3 68t18 32q15 15 32.5 18.5t67.5 3.5h325q25 0 35.5 -0.5t22 -4
t18.5 -10.5q17 -17 17 -41t-17 -41q-10 -10 -25.5 -12.5t-50.5 -2.5h-302zM334 857l-49 -57q-23 -28 -31 -31q-8 -4 -39 -4h-24q-20 0 -20 7q0 6 15 24l54 65q25 30 36.5 37.5t42.5 7.5h28q30 0 41 -7t38 -38l56 -66q14 -17 14 -23q0 -7 -21 -7h-20q-39 0 -49 9z" />
    <glyph glyph-name="Edieresis" unicode="&#xcb;" horiz-adv-x="667" 
d="M223 604v-175h277q58 0 73 -15q18 -18 18 -40q0 -23 -17 -40t-74 -17h-277v-205h313q53 0 66 -6q29 -13 29 -49q0 -29 -22 -45q-16 -12 -73 -12h-336q-52 0 -68 3t-32 18q-15 14 -18 32t-3 68v473q0 52 3 68t18 32q15 15 32.5 18.5t67.5 3.5h325q25 0 35.5 -0.5t22 -4
t18.5 -10.5q17 -17 17 -41t-17 -41q-10 -10 -25.5 -12.5t-50.5 -2.5h-302zM294 829q0 -23 -16 -39t-39 -16t-39 16t-16 39t16 39t39 16t39 -16t16 -39zM483 829q0 -23 -16 -39t-39 -16t-39 16t-16 39t16.5 39t38.5 16q23 0 39 -16t16 -39z" />
    <glyph glyph-name="Igrave" unicode="&#xcc;" horiz-adv-x="313" 
d="M228 608v-500q-1 -66 -14 -93t-57 -27q-30 0 -54 22q-10 9 -14 24.5t-4.5 27.5t-0.5 46v500q0 66 15 93t57 27q31 0 53 -22q10 -10 14 -25t4.5 -27t0.5 -46zM235 811q17 -31 17 -36q0 -12 -19 -12q-10 0 -18.5 1t-15 2t-14.5 5.5t-12 6.5t-14 10t-13.5 11t-17 14.5
t-18.5 16.5q-60 52 -60 63q0 7 24 7h49q32 0 43 -2t23.5 -13t27.5 -40z" />
    <glyph glyph-name="Iacute" unicode="&#xcd;" horiz-adv-x="313" 
d="M228 608v-500q0 -65 -14 -92.5t-57 -27.5q-30 0 -54 22q-10 9 -14 24.5t-4.5 27.5t-0.5 46v500q0 66 15 93t57 27q31 0 53 -22q10 -10 14 -25t4.5 -27t0.5 -46zM102 811l18 34q21 40 36 47.5t58 7.5h49q24 0 24 -7q0 -11 -60 -63q-5 -5 -18.5 -16.5t-17 -14.5t-13.5 -11
t-14 -10t-12 -6.5t-14.5 -5.5t-15 -2t-18.5 -1q-19 0 -19 12q0 5 17 36z" />
    <glyph glyph-name="Icircumflex" unicode="&#xce;" horiz-adv-x="313" 
d="M228 608v-500q0 -65 -14 -92.5t-57 -27.5q-30 0 -54 22q-10 9 -14 24.5t-4.5 27.5t-0.5 46v500q0 66 15 93t57 27q31 0 53 -22q10 -10 14 -25t4.5 -27t0.5 -46zM157 857l-49 -57q-27 -32 -36.5 -35.5t-33.5 0.5h-24q-20 0 -20 7q0 6 15 24l54 65q25 30 36.5 37.5
t42.5 7.5h28q30 0 41 -7t38 -38l56 -66q14 -17 14 -23q0 -7 -21 -7h-20q-39 0 -49 9z" />
    <glyph glyph-name="Idieresis" unicode="&#xcf;" horiz-adv-x="313" 
d="M228 608v-500q0 -65 -14 -92.5t-57 -27.5q-30 0 -54 22q-10 9 -14 24.5t-4.5 27.5t-0.5 46v500q0 66 15 93t57 27q31 0 53 -22q10 -10 14 -25t4.5 -27t0.5 -46zM117 829q0 -23 -16 -39t-39 -16t-39 16t-16 39t16 39t39 16q22 0 38.5 -16t16.5 -39zM306 829q0 -23 -16 -39
t-39 -16t-39 16t-16 39t16 39t39 16t39 -16t16 -39z" />
    <glyph glyph-name="Eth" unicode="&#xd0;" horiz-adv-x="740" 
d="M79 312h-21q-58 0 -58 46q0 45 58 45h21v191q0 82 21.5 102t99.5 20h157q38 0 64.5 -2.5t66.5 -13t75.5 -36t64.5 -66.5q63 -88 63 -242q0 -189 -107 -286q-76 -70 -224 -70h-160h-15q-24 0 -34.5 0.5t-25.5 3.5t-21 10.5t-13.5 21t-9.5 34.5t-2 51v191zM223 404h83
q28 0 40.5 -1.5t24.5 -12t12 -32.5t-12 -32.5t-25 -12t-40 -1.5h-83v-200h111q22 0 35 0.5t38 5.5t41 13.5t36 26.5t31.5 43.5t20 65.5t8.5 91q0 132 -62 198q-27 28 -60 38t-103 10h-96v-200z" />
    <glyph glyph-name="Ntilde" unicode="&#xd1;" horiz-adv-x="760" 
d="M545 219v425q0 84 67 84q36 0 52 -24.5t16 -89.5v-479v-26q0 -24 -2.5 -41.5t-10.5 -37.5t-26.5 -31t-46.5 -11q-33 0 -51.5 16.5t-55.5 72.5l-272 413v-389q0 -62 -12.5 -87.5t-54.5 -25.5q-36 0 -52 24.5t-16 88.5v484q0 62 4.5 83t24.5 39q24 21 57 21q12 0 22 -3
t16.5 -5.5t15.5 -13t12.5 -15t16 -23.5t18.5 -27zM253 757q-28 0 -28 37q0 36 22.5 67t58.5 31q26 0 80 -23q56 -28 79 -28q17 0 24.5 8t13.5 31t25 23q11 0 19.5 -10t8.5 -24q0 -31 -21 -65.5t-62 -34.5q-35 0 -85.5 25t-75.5 25q-12 0 -20 -9.5t-11.5 -21.5t-10.5 -21.5
t-17 -9.5z" />
    <glyph glyph-name="Ograve" unicode="&#xd2;" horiz-adv-x="792" 
d="M393 728q83 0 148 -25t102.5 -63t61.5 -89t32.5 -97.5t8.5 -94.5q0 -52 -9.5 -101t-34.5 -99t-63 -87t-100.5 -60.5t-141.5 -23.5t-141.5 23t-101 60t-63.5 86.5t-35 98t-10 99.5q0 164 88 268.5t259 104.5zM396 613q-21 0 -42.5 -4t-52 -19.5t-53 -41.5t-39 -75
t-16.5 -115q0 -110 53 -182.5t149 -72.5q19 0 39.5 3.5t51.5 19.5t54.5 41.5t41 75t17.5 115.5q0 112 -51 183.5t-152 71.5zM455 811q17 -31 17 -36q0 -12 -19 -12q-10 0 -18.5 1t-15 2t-14.5 5.5t-12 6.5t-14 10t-13.5 11t-17 14.5t-18.5 16.5q-60 52 -60 63q0 7 24 7h49
q32 0 43 -2t23.5 -13t27.5 -40z" />
    <glyph glyph-name="Oacute" unicode="&#xd3;" horiz-adv-x="792" 
d="M393 728q83 0 148 -25t102.5 -63t61.5 -89t32.5 -97.5t8.5 -94.5q0 -52 -9.5 -101t-34.5 -99t-63 -87t-100.5 -60.5t-141.5 -23.5t-141.5 23t-101 60t-63.5 86.5t-35 98t-10 99.5q0 164 88 268.5t259 104.5zM396 613q-21 0 -42.5 -4t-52 -19.5t-53 -41.5t-39 -75
t-16.5 -115q0 -110 53 -182.5t149 -72.5q19 0 39.5 3.5t51.5 19.5t54.5 41.5t41 75t17.5 115.5q0 112 -51 183.5t-152 71.5zM342 811l18 34q21 40 36 47.5t58 7.5h49q24 0 24 -7q0 -11 -60 -63q-5 -5 -18.5 -16.5t-17 -14.5t-13.5 -11t-14 -10t-12 -6.5t-14.5 -5.5t-15 -2
t-18.5 -1q-19 0 -19 12q0 5 17 36z" />
    <glyph glyph-name="Ocircumflex" unicode="&#xd4;" horiz-adv-x="792" 
d="M393 728q83 0 148 -25t102.5 -63t61.5 -89t32.5 -97.5t8.5 -94.5q0 -52 -9.5 -101t-34.5 -99t-63 -87t-100.5 -60.5t-141.5 -23.5t-141.5 23t-101 60t-63.5 86.5t-35 98t-10 99.5q0 164 88 268.5t259 104.5zM396 613q-21 0 -42.5 -4t-52 -19.5t-53 -41.5t-39 -75
t-16.5 -115q0 -110 53 -182.5t149 -72.5q19 0 39.5 3.5t51.5 19.5t54.5 41.5t41 75t17.5 115.5q0 112 -51 183.5t-152 71.5zM397 857l-49 -57q-27 -32 -36.5 -35.5t-33.5 0.5h-24q-20 0 -20 7q0 6 15 24l54 65q25 30 36.5 37.5t42.5 7.5h28q30 0 41 -7t38 -38l56 -66
q14 -17 14 -23q0 -7 -21 -7h-20q-39 0 -49 9z" />
    <glyph glyph-name="Otilde" unicode="&#xd5;" horiz-adv-x="792" 
d="M393 728q83 0 148 -25t102.5 -63t61.5 -89t32.5 -97.5t8.5 -94.5q0 -52 -9.5 -101t-34.5 -99t-63 -87t-100.5 -60.5t-141.5 -23.5t-141.5 23t-101 60t-63.5 86.5t-35 98t-10 99.5q0 164 88 268.5t259 104.5zM396 613q-21 0 -42.5 -4t-52 -19.5t-53 -41.5t-39 -75
t-16.5 -115q0 -110 53 -182.5t149 -72.5q19 0 39.5 3.5t51.5 19.5t54.5 41.5t41 75t17.5 115.5q0 112 -51 183.5t-152 71.5zM259 757q-28 0 -28 37q0 36 22.5 67t58.5 31q26 0 80 -23q56 -28 79 -28q17 0 24.5 8t13.5 31t25 23q11 0 19.5 -10t8.5 -24q0 -31 -21 -65.5
t-62 -34.5q-35 0 -85.5 25t-75.5 25q-12 0 -20 -9.5t-11.5 -21.5t-10.5 -21.5t-17 -9.5z" />
    <glyph glyph-name="Odieresis" unicode="&#xd6;" horiz-adv-x="792" 
d="M393 728q83 0 148 -25t102.5 -63t61.5 -89t32.5 -97.5t8.5 -94.5q0 -52 -9.5 -101t-34.5 -99t-63 -87t-100.5 -60.5t-141.5 -23.5t-141.5 23t-101 60t-63.5 86.5t-35 98t-10 99.5q0 164 88 268.5t259 104.5zM396 613q-21 0 -42.5 -4t-52 -19.5t-53 -41.5t-39 -75
t-16.5 -115q0 -110 53 -182.5t149 -72.5q19 0 39.5 3.5t51.5 19.5t54.5 41.5t41 75t17.5 115.5q0 112 -51 183.5t-152 71.5zM357 829q0 -23 -16 -39t-39 -16t-39 16t-16 39t16 39t39 16q22 0 38.5 -16t16.5 -39zM546 829q0 -23 -16 -39t-39 -16t-39 16t-16 39t16 39t39 16
t39 -16t16 -39z" />
    <glyph glyph-name="multiply" unicode="&#xd7;" horiz-adv-x="583" 
d="M54 205l148 147l-149 149l91 90l148 -148l148 148l89 -89l-148 -148l149 -148l-91 -91l-149 149l-147 -148z" />
    <glyph glyph-name="Oslash" unicode="&#xd8;" horiz-adv-x="792" 
d="M619 660l13 13q34 34 49 45t33 11q20 0 28.5 -12.5t8.5 -22.5q0 -11 -2 -18.5t-13 -23t-34 -38.5l-20 -20q64 -96 64 -230q0 -54 -9.5 -104t-34.5 -100.5t-63.5 -87.5t-100.5 -60.5t-141 -23.5q-138 0 -224 68l-12 -13q-31 -34 -46 -44.5t-35 -10.5q-16 0 -25 12t-9 28
q0 30 47 77l18 18q-65 94 -65 232q0 164 88 268.5t259 104.5q139 0 226 -68zM213 231l315 333q-53 49 -133 49q-84 0 -137 -55q-65 -67 -65 -199q0 -72 20 -128zM579 484l-314 -331q55 -50 130 -50q18 0 38.5 3.5t52 19t55 41t41 75.5t17.5 117q0 74 -20 125z" />
    <glyph glyph-name="Ugrave" unicode="&#xd9;" horiz-adv-x="760" 
d="M223 608v-320q0 -27 1 -44.5t9.5 -47t24 -47.5t47.5 -32t77 -14q44 0 75 14t46 32t23.5 47t9.5 46t1 43v323q0 65 13.5 92.5t57.5 27.5q39 0 56 -26t17 -94v-312q0 -27 -0.5 -44.5t-6 -53.5t-16 -60t-31.5 -55t-51 -50t-77 -32t-107 -13q-94 0 -163 23.5t-112 93.5
q-38 63 -38 191v312q0 66 14.5 93t57.5 27q32 0 54 -22q3 -3 5.5 -6.5t4 -6.5t3 -7.5l2.5 -7.5t1.5 -9.5t1 -9.5t0.5 -11.5v-11.5v-13.5v-14.5zM439 811q17 -31 17 -36q0 -12 -19 -12q-10 0 -18.5 1t-15 2t-14.5 5.5t-12 6.5t-14 10t-13.5 11t-17 14.5t-18.5 16.5
q-60 52 -60 63q0 7 24 7h49q32 0 43 -2t23.5 -13t27.5 -40z" />
    <glyph glyph-name="Uacute" unicode="&#xda;" horiz-adv-x="760" 
d="M223 608v-320q0 -27 1 -44.5t9.5 -47t24 -47.5t47.5 -32t77 -14q44 0 75 14t46 32t23.5 47t9.5 46t1 43v323q0 65 13.5 92.5t57.5 27.5q39 0 56 -26t17 -94v-312q0 -27 -0.5 -44.5t-6 -53.5t-16 -60t-31.5 -55t-51 -50t-77 -32t-107 -13q-94 0 -163 23.5t-112 93.5
q-38 63 -38 191v312q0 66 14.5 93t57.5 27q32 0 54 -22q3 -3 5.5 -6.5t4 -6.5t3 -7.5l2.5 -7.5t1.5 -9.5t1 -9.5t0.5 -11.5v-11.5v-13.5v-14.5zM326 811l18 34q21 40 36 47.5t58 7.5h49q24 0 24 -7q0 -11 -60 -63q-5 -5 -18.5 -16.5t-17 -14.5t-13.5 -11t-14 -10t-12 -6.5
t-14.5 -5.5t-15 -2t-18.5 -1q-19 0 -19 12q0 5 17 36z" />
    <glyph glyph-name="Ucircumflex" unicode="&#xdb;" horiz-adv-x="760" 
d="M223 608v-320q0 -27 1 -44.5t9.5 -47t24 -47.5t47.5 -32t77 -14q44 0 75 14t46 32t23.5 47t9.5 46t1 43v323q0 65 13.5 92.5t57.5 27.5q39 0 56 -26t17 -94v-312q0 -27 -0.5 -44.5t-6 -53.5t-16 -60t-31.5 -55t-51 -50t-77 -32t-107 -13q-94 0 -163 23.5t-112 93.5
q-38 63 -38 191v312q0 66 14.5 93t57.5 27q32 0 54 -22q3 -3 5.5 -6.5t4 -6.5t3 -7.5l2.5 -7.5t1.5 -9.5t1 -9.5t0.5 -11.5v-11.5v-13.5v-14.5zM381 857l-49 -57q-27 -32 -36.5 -35.5t-33.5 0.5h-24q-20 0 -20 7q0 6 15 24l54 65q25 30 36.5 37.5t42.5 7.5h28q30 0 41 -7
t38 -38l56 -66q14 -17 14 -23q0 -7 -21 -7h-20q-39 0 -49 9z" />
    <glyph glyph-name="Udieresis" unicode="&#xdc;" horiz-adv-x="760" 
d="M223 608v-320q0 -27 1 -44.5t9.5 -47t24 -47.5t47.5 -32t77 -14q44 0 75 14t46 32t23.5 47t9.5 46t1 43v323q0 65 13.5 92.5t57.5 27.5q39 0 56 -26t17 -94v-312q0 -27 -0.5 -44.5t-6 -53.5t-16 -60t-31.5 -55t-51 -50t-77 -32t-107 -13q-94 0 -163 23.5t-112 93.5
q-38 63 -38 191v312q0 66 14.5 93t57.5 27q32 0 54 -22q3 -3 5.5 -6.5t4 -6.5t3 -7.5l2.5 -7.5t1.5 -9.5t1 -9.5t0.5 -11.5v-11.5v-13.5v-14.5zM341 829q0 -23 -16 -39t-39 -16t-39 16t-16 39t16 39t39 16q22 0 38.5 -16t16.5 -39zM530 829q0 -23 -16 -39t-39 -16t-39 16
t-16 39t16 39t39 16t39 -16t16 -39z" />
    <glyph glyph-name="Yacute" unicode="&#xdd;" horiz-adv-x="625" 
d="M239 303l-175 271q-43 66 -43 92t20 44t48 18q27 0 42 -15.5t48 -68.5l134 -217l135 217q21 33 31 47t26 25.5t35 11.5q27 0 45.5 -18t18.5 -43q0 -24 -42 -89l-179 -275v-195q0 -66 -15.5 -93t-56.5 -27t-56.5 27.5t-15.5 92.5v195zM258 811l18 34q21 40 36 47.5t58 7.5
h49q24 0 24 -7q0 -11 -60 -63q-5 -5 -18.5 -16.5t-17 -14.5t-13.5 -11t-14 -10t-12 -6.5t-14.5 -5.5t-15 -2t-18.5 -1q-19 0 -19 12q0 5 17 36z" />
    <glyph glyph-name="Thorn" unicode="&#xde;" horiz-adv-x="667" 
d="M223 140v-32q0 -66 -13 -93t-59 -27q-45 0 -58.5 26.5t-13.5 93.5v500q0 66 14 93t58 27q43 0 57.5 -27t14.5 -93v-32h134q99 0 147 -19q39 -15 65 -42t37 -57.5t14.5 -51t3.5 -40.5q0 -226 -267 -226h-134zM322 464h-99v-212h99q23 0 33.5 0.5t38 5.5t42.5 15t28 32
t13 53q0 62 -41.5 84t-113.5 22z" />
    <glyph glyph-name="germandbls" unicode="&#xdf;" 
d="M189 495v-399q0 -58 -13 -83t-52 -25q-36 0 -50.5 25t-14.5 83v389q0 66 13 109.5t47 78.5q53 55 162 55q102 0 148 -43.5t46 -99.5q0 -47 -38 -107q-32 -51 -32 -75q0 -15 8 -27t45 -49q60 -62 81 -94.5t21 -82.5q0 -67 -47 -114.5t-121 -47.5q-67 0 -114 36t-47 71
q0 18 14.5 33.5t38.5 15.5q12 0 20 -5.5t25 -24.5q25 -30 52 -30q25 0 42.5 18.5t17.5 42.5q0 25 -19.5 49t-62.5 61q-85 70 -85 121q0 36 37 102q35 63 35 94q0 30 -21 45t-48 15q-30 0 -49.5 -13.5t-27 -38t-9.5 -42.5t-2 -43z" />
    <glyph glyph-name="agrave" unicode="&#xe0;" 
d="M406 63q-97 -75 -187 -75q-93 0 -136 46.5t-43 104.5q0 61 38.5 95.5t91.5 48.5q31 8 102.5 23t123.5 30q-1 20 -2 30t-6 26.5t-14.5 25t-28 15t-44.5 6.5q-91 0 -119 -51q-11 -20 -16.5 -28.5t-17.5 -16.5t-29 -8q-20 0 -37.5 13.5t-17.5 36.5q0 34 23 64t52 47
q58 34 158 34q137 0 184.5 -48.5t47.5 -149.5v-15l-3 -125v-18q0 -23 13 -76t13 -57q0 -21 -18.5 -37t-42.5 -16q-40 0 -85 75zM397 256q-30 -12 -81 -22q-82 -16 -112.5 -33.5t-30.5 -52.5q0 -26 21 -49.5t66 -23.5q64 0 100.5 41t36.5 116v24zM356 632q17 -31 17 -36
q0 -12 -19 -12q-10 0 -18.5 1t-15 2t-14.5 5.5t-12 6.5t-14 10t-13.5 11t-17 14.5t-18.5 16.5q-60 53 -60 63q0 7 24 7h49q32 0 43 -2t23.5 -13t27.5 -40z" />
    <glyph glyph-name="aacute" unicode="&#xe1;" 
d="M406 63q-97 -75 -187 -75q-93 0 -136 46.5t-43 104.5q0 61 38.5 95.5t91.5 48.5q31 8 102.5 23t123.5 30q-1 20 -2 30t-6 26.5t-14.5 25t-28 15t-44.5 6.5q-91 0 -119 -51q-11 -20 -16.5 -28.5t-17.5 -16.5t-29 -8q-20 0 -37.5 13.5t-17.5 36.5q0 34 23 64t52 47
q58 34 158 34q137 0 184.5 -48.5t47.5 -149.5v-15l-3 -125v-18q0 -23 13 -76t13 -57q0 -21 -18.5 -37t-42.5 -16q-40 0 -85 75zM397 256q-30 -12 -81 -22q-82 -16 -112.5 -33.5t-30.5 -52.5q0 -26 21 -49.5t66 -23.5q64 0 100.5 41t36.5 116v24zM243 632l18 34
q21 40 36 47.5t58 7.5h49q24 0 24 -7q0 -10 -60 -63q-5 -5 -18.5 -16.5t-17 -14.5t-13.5 -11t-14 -10t-12 -6.5t-14.5 -5.5t-15 -2t-18.5 -1q-19 0 -19 12q0 5 17 36z" />
    <glyph glyph-name="acircumflex" unicode="&#xe2;" 
d="M406 63q-97 -75 -187 -75q-93 0 -136 46.5t-43 104.5q0 61 38.5 95.5t91.5 48.5q31 8 102.5 23t123.5 30q-1 20 -2 30t-6 26.5t-14.5 25t-28 15t-44.5 6.5q-91 0 -119 -51q-11 -20 -16.5 -28.5t-17.5 -16.5t-29 -8q-20 0 -37.5 13.5t-17.5 36.5q0 34 23 64t52 47
q58 34 158 34q137 0 184.5 -48.5t47.5 -149.5v-15l-3 -125v-18q0 -23 13 -76t13 -57q0 -21 -18.5 -37t-42.5 -16q-40 0 -85 75zM397 256q-30 -12 -81 -22q-82 -16 -112.5 -33.5t-30.5 -52.5q0 -26 21 -49.5t66 -23.5q64 0 100.5 41t36.5 116v24zM298 678l-49 -57
q-27 -32 -36.5 -35.5t-33.5 0.5h-24q-20 0 -20 7q0 6 15 24l54 65q25 30 36.5 37.5t42.5 7.5h28q30 0 41 -7t38 -38l56 -66q14 -17 14 -23q0 -7 -21 -7h-20q-39 0 -49 9z" />
    <glyph glyph-name="atilde" unicode="&#xe3;" 
d="M406 63q-97 -75 -187 -75q-93 0 -136 46.5t-43 104.5q0 61 38.5 95.5t91.5 48.5q31 8 102.5 23t123.5 30q-1 20 -2 30t-6 26.5t-14.5 25t-28 15t-44.5 6.5q-91 0 -119 -51q-11 -20 -16.5 -28.5t-17.5 -16.5t-29 -8q-20 0 -37.5 13.5t-17.5 36.5q0 34 23 64t52 47
q58 34 158 34q137 0 184.5 -48.5t47.5 -149.5v-15l-3 -125v-18q0 -23 13 -76t13 -57q0 -21 -18.5 -37t-42.5 -16q-40 0 -85 75zM397 256q-30 -12 -81 -22q-82 -16 -112.5 -33.5t-30.5 -52.5q0 -26 21 -49.5t66 -23.5q64 0 100.5 41t36.5 116v24zM160 578q-28 0 -28 37
q0 36 22.5 67t58.5 31q26 0 80 -23q56 -28 79 -28q17 0 24.5 8t13.5 31t25 23q11 0 19.5 -10t8.5 -24q0 -31 -21 -65.5t-62 -34.5q-35 0 -85.5 25t-75.5 25q-12 0 -20 -9.5t-11.5 -21.5t-10.5 -21.5t-17 -9.5z" />
    <glyph glyph-name="adieresis" unicode="&#xe4;" 
d="M406 63q-97 -75 -187 -75q-93 0 -136 46.5t-43 104.5q0 61 38.5 95.5t91.5 48.5q31 8 102.5 23t123.5 30q-1 20 -2 30t-6 26.5t-14.5 25t-28 15t-44.5 6.5q-91 0 -119 -51q-11 -20 -16.5 -28.5t-17.5 -16.5t-29 -8q-20 0 -37.5 13.5t-17.5 36.5q0 34 23 64t52 47
q58 34 158 34q137 0 184.5 -48.5t47.5 -149.5v-15l-3 -125v-18q0 -23 13 -76t13 -57q0 -21 -18.5 -37t-42.5 -16q-40 0 -85 75zM397 256q-30 -12 -81 -22q-82 -16 -112.5 -33.5t-30.5 -52.5q0 -26 21 -49.5t66 -23.5q64 0 100.5 41t36.5 116v24zM258 650q0 -23 -16 -39
t-39 -16t-39 16t-16 39t16 39t39 16t39 -16.5t16 -38.5zM447 650q0 -23 -16 -39t-39 -16t-39 16t-16 39q0 22 16.5 38.5t38.5 16.5q23 0 39 -16t16 -39z" />
    <glyph glyph-name="aring" unicode="&#xe5;" 
d="M406 63q-97 -75 -187 -75q-93 0 -136 46.5t-43 104.5q0 61 38.5 95.5t91.5 48.5q31 8 102.5 23t123.5 30q-1 20 -2 30t-6 26.5t-14.5 25t-28 15t-44.5 6.5q-91 0 -119 -51q-11 -20 -16.5 -28.5t-17.5 -16.5t-29 -8q-20 0 -37.5 13.5t-17.5 36.5q0 34 23 64t52 47
q58 34 158 34q137 0 184.5 -48.5t47.5 -149.5v-15l-3 -125v-18q0 -23 13 -76t13 -57q0 -21 -18.5 -37t-42.5 -16q-40 0 -85 75zM397 256q-30 -12 -81 -22q-82 -16 -112.5 -33.5t-30.5 -52.5q0 -26 21 -49.5t66 -23.5q64 0 100.5 41t36.5 116v24zM398 664q0 -41 -29.5 -70.5
t-70.5 -29.5q-42 0 -71.5 29.5t-29.5 70.5q0 42 29.5 71.5t71.5 29.5q41 0 70.5 -29.5t29.5 -71.5zM347 664q0 21 -14.5 35.5t-34.5 14.5q-21 0 -35.5 -14.5t-14.5 -35.5q0 -20 14.5 -34.5t35.5 -14.5q20 0 34.5 14.5t14.5 34.5z" />
    <glyph glyph-name="ae" unicode="&#xe6;" horiz-adv-x="927" 
d="M196 288l128 27q51 10 68 20q0 50 -9 69q-8 18 -34.5 26.5t-52.5 8.5q-50 0 -77.5 -18t-34 -39t-23 -39t-46.5 -18q-27 0 -40 16t-13 37q0 12 2.5 25.5t16 38t36.5 42.5t70.5 32t111.5 14q52 0 91 -11.5t52 -21t28 -24.5q36 28 72 42.5t92 14.5q71 0 123.5 -25.5
t78 -63.5t37 -72t11.5 -61q0 -54 -26 -67.5t-95 -13.5h-245q2 -71 36.5 -110t93.5 -39q78 0 129 60q21 25 32 32t25 7q19 0 32.5 -13t13.5 -32q0 -7 -5 -21.5t-20 -36.5t-38.5 -40.5t-66.5 -32t-97 -13.5q-63 0 -110 15.5t-65 30.5t-37 38q-101 -84 -220 -84q-52 0 -90 16
t-56 41t-25.5 47.5t-7.5 44.5q0 117 154 151zM518 303h240q-4 62 -33 99t-86 37q-58 0 -89.5 -41.5t-31.5 -94.5zM392 219v36q-38 -12 -123 -30q-94 -20 -94 -78q0 -27 21 -50t66 -23q58 0 94 38t36 107z" />
    <glyph glyph-name="ccedilla" unicode="&#xe7;" 
d="M320 -12l-2 -10q14 -1 28 -4.5t32.5 -11.5t30 -25t11.5 -41q0 -40 -42.5 -68t-118.5 -28q-92 0 -92 34q0 10 6.5 16.5t16.5 6.5l28 -2q27 -2 33 -2q84 0 84 42q0 17 -15 26.5t-31 9.5q-4 0 -15 -1t-21 -2l-10 -1q-9 0 -15.5 7t-8 13t-1.5 9q0 23 69 33q-60 3 -105.5 23
t-71 48.5t-41.5 66t-21 68t-5 61.5q0 50 14 96.5t43.5 87.5t83.5 65.5t126 24.5q102 0 166 -52.5t64 -102.5q0 -25 -18 -41t-41 -16q-29 0 -46 25q-28 43 -54.5 64t-71.5 21q-48 0 -79.5 -29t-42.5 -65.5t-11 -76.5q0 -24 5.5 -50t18.5 -54.5t41.5 -47t67.5 -18.5
q38 0 66.5 17.5t42.5 39.5q3 4 7 11q22 35 33 45.5t32 10.5q26 0 41.5 -19.5t15.5 -38.5q0 -22 -13 -47.5t-38.5 -51.5t-71.5 -44.5t-104 -21.5z" />
    <glyph glyph-name="egrave" unicode="&#xe8;" 
d="M441 226h-262q1 -41 14 -71.5t33.5 -46.5t42 -24t44.5 -8q67 0 126 59q21 21 33 28.5t28 7.5q18 0 31 -11t13 -28q0 -18 -13 -41t-38.5 -46.5t-72 -40t-104.5 -16.5q-70 0 -122.5 23t-80 54t-44.5 72t-21 69t-4 53q0 116 66 193.5t195 77.5q55 0 99 -16.5t70.5 -41.5
t44.5 -56.5t25 -59t7 -51.5q0 -23 -8 -38.5t-17.5 -23.5t-27.5 -12t-28.5 -4.5t-28.5 -0.5zM179 302h243q-6 74 -40.5 105t-80.5 31q-56 0 -86 -40t-36 -96zM356 632q17 -31 17 -36q0 -12 -19 -12q-10 0 -18.5 1t-15 2t-14.5 5.5t-12 6.5t-14 10t-13.5 11t-17 14.5
t-18.5 16.5q-60 53 -60 63q0 7 24 7h49q32 0 43 -2t23.5 -13t27.5 -40z" />
    <glyph glyph-name="eacute" unicode="&#xe9;" 
d="M441 226h-262q1 -41 14 -71.5t33.5 -46.5t42 -24t44.5 -8q67 0 126 59q21 21 33 28.5t28 7.5q18 0 31 -11t13 -28q0 -18 -13 -41t-38.5 -46.5t-72 -40t-104.5 -16.5q-70 0 -122.5 23t-80 54t-44.5 72t-21 69t-4 53q0 116 66 193.5t195 77.5q55 0 99 -16.5t70.5 -41.5
t44.5 -56.5t25 -59t7 -51.5q0 -23 -8 -38.5t-17.5 -23.5t-27.5 -12t-28.5 -4.5t-28.5 -0.5zM179 302h243q-6 74 -40.5 105t-80.5 31q-56 0 -86 -40t-36 -96zM243 632l18 34q21 40 36 47.5t58 7.5h49q24 0 24 -7q0 -10 -60 -63q-5 -5 -18.5 -16.5t-17 -14.5t-13.5 -11
t-14 -10t-12 -6.5t-14.5 -5.5t-15 -2t-18.5 -1q-19 0 -19 12q0 5 17 36z" />
    <glyph glyph-name="ecircumflex" unicode="&#xea;" 
d="M441 226h-262q1 -41 14 -71.5t33.5 -46.5t42 -24t44.5 -8q67 0 126 59q21 21 33 28.5t28 7.5q18 0 31 -11t13 -28q0 -18 -13 -41t-38.5 -46.5t-72 -40t-104.5 -16.5q-70 0 -122.5 23t-80 54t-44.5 72t-21 69t-4 53q0 116 66 193.5t195 77.5q55 0 99 -16.5t70.5 -41.5
t44.5 -56.5t25 -59t7 -51.5q0 -23 -8 -38.5t-17.5 -23.5t-27.5 -12t-28.5 -4.5t-28.5 -0.5zM179 302h243q-6 74 -40.5 105t-80.5 31q-56 0 -86 -40t-36 -96zM298 678l-49 -57q-27 -32 -36.5 -35.5t-33.5 0.5h-24q-20 0 -20 7q0 6 15 24l54 65q25 30 36.5 37.5t42.5 7.5h28
q30 0 41 -7t38 -38l56 -66q14 -17 14 -23q0 -7 -21 -7h-20q-39 0 -49 9z" />
    <glyph glyph-name="edieresis" unicode="&#xeb;" 
d="M441 226h-262q1 -41 14 -71.5t33.5 -46.5t42 -24t44.5 -8q67 0 126 59q21 21 33 28.5t28 7.5q18 0 31 -11t13 -28q0 -18 -13 -41t-38.5 -46.5t-72 -40t-104.5 -16.5q-70 0 -122.5 23t-80 54t-44.5 72t-21 69t-4 53q0 116 66 193.5t195 77.5q55 0 99 -16.5t70.5 -41.5
t44.5 -56.5t25 -59t7 -51.5q0 -23 -8 -38.5t-17.5 -23.5t-27.5 -12t-28.5 -4.5t-28.5 -0.5zM179 302h243q-6 74 -40.5 105t-80.5 31q-56 0 -86 -40t-36 -96zM258 650q0 -23 -16 -39t-39 -16t-39 16t-16 39t16 39t39 16t39 -16.5t16 -38.5zM447 650q0 -23 -16 -39t-39 -16
t-39 16t-16 39q0 22 16.5 38.5t38.5 16.5q23 0 39 -16t16 -39z" />
    <glyph glyph-name="igrave" unicode="&#xec;" horiz-adv-x="271" 
d="M202 421v-323q0 -60 -14.5 -85t-51.5 -25q-35 0 -51 23.5t-16 86.5v322q0 61 14.5 85.5t51.5 24.5q19 0 31.5 -6.5t19.5 -15t10.5 -24.5t4.5 -29t1 -34zM194 632q17 -31 17 -36q0 -12 -19 -12q-10 0 -18.5 1t-15 2t-14.5 5.5t-12 6.5t-14 10t-13.5 11t-17 14.5
t-18.5 16.5q-60 53 -60 63q0 7 24 7h49q32 0 43 -2t23.5 -13t27.5 -40z" />
    <glyph glyph-name="iacute" unicode="&#xed;" horiz-adv-x="271" 
d="M202 421v-323q0 -60 -14.5 -85t-51.5 -25q-35 0 -51 23.5t-16 86.5v322q0 61 14.5 85.5t51.5 24.5q19 0 31.5 -6.5t19.5 -15t10.5 -24.5t4.5 -29t1 -34zM81 632l18 34q21 40 36 47.5t58 7.5h49q24 0 24 -7q0 -10 -60 -63q-5 -5 -18.5 -16.5t-17 -14.5t-13.5 -11t-14 -10
t-12 -6.5t-14.5 -5.5t-15 -2t-18.5 -1q-19 0 -19 12q0 5 17 36z" />
    <glyph glyph-name="icircumflex" unicode="&#xee;" horiz-adv-x="271" 
d="M202 421v-323q0 -60 -14.5 -85t-51.5 -25q-35 0 -51 23.5t-16 86.5v322q0 61 14.5 85.5t51.5 24.5q19 0 31.5 -6.5t19.5 -15t10.5 -24.5t4.5 -29t1 -34zM136 678l-49 -57q-27 -32 -36.5 -35.5t-33.5 0.5h-24q-20 0 -20 7q0 6 15 24l54 65q25 30 36.5 37.5t42.5 7.5h28
q30 0 41 -7t38 -38l56 -66q14 -17 14 -23q0 -7 -21 -7h-20q-39 0 -49 9z" />
    <glyph glyph-name="idieresis" unicode="&#xef;" horiz-adv-x="271" 
d="M202 421v-323q0 -60 -14.5 -85t-51.5 -25q-35 0 -51 23.5t-16 86.5v322q0 61 14.5 85.5t51.5 24.5q19 0 31.5 -6.5t19.5 -15t10.5 -24.5t4.5 -29t1 -34zM96 650q0 -23 -16 -39t-39 -16t-39 16t-16 39t16 39t39 16t39 -16.5t16 -38.5zM285 650q0 -23 -16 -39t-39 -16
t-39 16t-16 39q0 22 16.5 38.5t38.5 16.5q23 0 39 -16t16 -39z" />
    <glyph glyph-name="eth" unicode="&#xf0;" horiz-adv-x="604" 
d="M286 584l-44 -24q-40 -22 -53 -22q-14 0 -22.5 12t-8.5 23q0 15 11 24t39 25l22 12q-27 24 -27 48q0 17 13.5 31.5t35.5 14.5q15 0 27.5 -5t28.5 -15.5t26 -15.5l26 14q39 21 53 21t22.5 -11.5t8.5 -23.5q0 -14 -11 -23.5t-44 -27.5q180 -172 180 -381q0 -122 -73.5 -197
t-194.5 -75q-125 0 -195.5 78t-70.5 193q0 65 24 117t62 81.5t80.5 45t85.5 15.5q29 0 66 -13q-28 41 -67 79zM170 254q0 -88 40 -127.5t91 -39.5q21 0 42.5 8t43 25.5t34.5 52t13 81.5q0 79 -36.5 122t-95.5 43t-95.5 -45t-36.5 -120z" />
    <glyph glyph-name="ntilde" unicode="&#xf1;" horiz-adv-x="604" 
d="M539 317v-219q0 -59 -13 -84.5t-53 -25.5q-37 0 -52 25.5t-15 84.5v192q0 21 -0.5 32.5t-5 34t-13.5 35.5t-27 23.5t-44 10.5q-31 0 -58 -16t-40 -41q-12 -23 -16.5 -48t-4.5 -85v-138q0 -58 -13.5 -84t-52.5 -26q-37 0 -52 25.5t-15 84.5v329q0 55 12.5 79t50.5 24
q21 0 35 -8.5t19 -25t6.5 -28t1.5 -28.5q70 90 172 90q100 0 150 -75q28 -43 28 -138zM165 578q-28 0 -28 37q0 36 22.5 67t58.5 31q26 0 80 -23q56 -28 79 -28q17 0 24.5 8t13.5 31t25 23q11 0 19.5 -10t8.5 -24q0 -31 -21 -65.5t-62 -34.5q-35 0 -85.5 25t-75.5 25
q-12 0 -20 -9.5t-11.5 -21.5t-10.5 -21.5t-17 -9.5z" />
    <glyph glyph-name="ograve" unicode="&#xf2;" horiz-adv-x="604" 
d="M568 259q0 -117 -71 -194t-192 -77q-72 0 -126.5 24.5t-84 65.5t-44 86.5t-14.5 94.5q0 114 68.5 192.5t197.5 78.5t197.5 -79t68.5 -192zM433 259q0 82 -35.5 127t-95.5 45t-95.5 -45.5t-35.5 -126.5q0 -82 35.5 -127t95.5 -45t95.5 45t35.5 127zM361 632q17 -31 17 -36
q0 -12 -19 -12q-10 0 -18.5 1t-15 2t-14.5 5.5t-12 6.5t-14 10t-13.5 11t-17 14.5t-18.5 16.5q-60 53 -60 63q0 7 24 7h49q32 0 43 -2t23.5 -13t27.5 -40z" />
    <glyph glyph-name="oacute" unicode="&#xf3;" horiz-adv-x="604" 
d="M568 259q0 -117 -71 -194t-192 -77q-72 0 -126.5 24.5t-84 65.5t-44 86.5t-14.5 94.5q0 114 68.5 192.5t197.5 78.5t197.5 -79t68.5 -192zM433 259q0 82 -35.5 127t-95.5 45t-95.5 -45.5t-35.5 -126.5q0 -82 35.5 -127t95.5 -45t95.5 45t35.5 127zM248 632l18 34
q21 40 36 47.5t58 7.5h49q24 0 24 -7q0 -10 -60 -63q-5 -5 -18.5 -16.5t-17 -14.5t-13.5 -11t-14 -10t-12 -6.5t-14.5 -5.5t-15 -2t-18.5 -1q-19 0 -19 12q0 5 17 36z" />
    <glyph glyph-name="ocircumflex" unicode="&#xf4;" horiz-adv-x="604" 
d="M568 259q0 -117 -71 -194t-192 -77q-72 0 -126.5 24.5t-84 65.5t-44 86.5t-14.5 94.5q0 114 68.5 192.5t197.5 78.5t197.5 -79t68.5 -192zM433 259q0 82 -35.5 127t-95.5 45t-95.5 -45.5t-35.5 -126.5q0 -82 35.5 -127t95.5 -45t95.5 45t35.5 127zM303 678l-49 -57
q-27 -32 -36.5 -35.5t-33.5 0.5h-24q-20 0 -20 7q0 6 15 24l54 65q25 30 36.5 37.5t42.5 7.5h28q30 0 41 -7t38 -38l56 -66q14 -17 14 -23q0 -7 -21 -7h-20q-39 0 -49 9z" />
    <glyph glyph-name="otilde" unicode="&#xf5;" horiz-adv-x="604" 
d="M568 259q0 -117 -71 -194t-192 -77q-72 0 -126.5 24.5t-84 65.5t-44 86.5t-14.5 94.5q0 114 68.5 192.5t197.5 78.5t197.5 -79t68.5 -192zM433 259q0 82 -35.5 127t-95.5 45t-95.5 -45.5t-35.5 -126.5q0 -82 35.5 -127t95.5 -45t95.5 45t35.5 127zM165 578q-28 0 -28 37
q0 36 22.5 67t58.5 31q26 0 80 -23q56 -28 79 -28q17 0 24.5 8t13.5 31t25 23q11 0 19.5 -10t8.5 -24q0 -31 -21 -65.5t-62 -34.5q-35 0 -85.5 25t-75.5 25q-12 0 -20 -9.5t-11.5 -21.5t-10.5 -21.5t-17 -9.5z" />
    <glyph glyph-name="odieresis" unicode="&#xf6;" horiz-adv-x="604" 
d="M568 259q0 -117 -71 -194t-192 -77q-72 0 -126.5 24.5t-84 65.5t-44 86.5t-14.5 94.5q0 114 68.5 192.5t197.5 78.5t197.5 -79t68.5 -192zM433 259q0 82 -35.5 127t-95.5 45t-95.5 -45.5t-35.5 -126.5q0 -82 35.5 -127t95.5 -45t95.5 45t35.5 127zM263 650q0 -23 -16 -39
t-39 -16t-39 16t-16 39t16 39t39 16q22 0 38.5 -16.5t16.5 -38.5zM452 650q0 -23 -16 -39t-39 -16t-39 16t-16 39q0 22 16 38.5t39 16.5t39 -16t16 -39z" />
    <glyph glyph-name="divide" unicode="&#xf7;" horiz-adv-x="583" 
d="M542 289h-501v128h501v-128zM355 478h-128v125h128v-125zM355 103h-128v125h128v-125z" />
    <glyph glyph-name="oslash" unicode="&#xf8;" horiz-adv-x="604" 
d="M132 41l-18 -18q-26 -26 -35 -32.5t-21 -6.5q-13 0 -21.5 9.5t-8.5 23.5q0 20 34 54l22 22q-48 68 -48 169q0 112 69 190t195 78q102 0 171 -52l25 25q30 30 48 30q12 0 22 -9t10 -23q0 -20 -31 -49l-26 -25q49 -73 49 -170q0 -113 -69.5 -191t-194.5 -78q-102 0 -172 53
zM424 332l-210 -209q34 -36 88 -36q60 0 95.5 45t35.5 127q0 28 -9 73zM180 188l208 208q-35 35 -86 35q-61 0 -96 -46t-35 -125q0 -45 9 -72z" />
    <glyph glyph-name="ugrave" unicode="&#xf9;" horiz-adv-x="604" 
d="M65 186v234q0 60 12.5 85t53.5 25q37 0 52 -26t15 -87v-183q0 -80 23 -110.5t67 -30.5q31 0 59 16t41 41q18 34 18 137v133q0 59 13.5 84.5t53.5 25.5q37 0 51.5 -24.5t14.5 -85.5v-329q0 -25 -1 -37t-6 -30.5t-19 -27t-36 -8.5q-38 0 -50 25.5t-12 66.5
q-13 -17 -23.5 -28t-32.5 -28.5t-52.5 -26.5t-67.5 -9q-46 0 -88.5 19.5t-60.5 56.5q-25 49 -25 122zM361 632q17 -31 17 -36q0 -12 -19 -12q-10 0 -18.5 1t-15 2t-14.5 5.5t-12 6.5t-14 10t-13.5 11t-17 14.5t-18.5 16.5q-60 53 -60 63q0 7 24 7h49q32 0 43 -2t23.5 -13
t27.5 -40z" />
    <glyph glyph-name="uacute" unicode="&#xfa;" horiz-adv-x="604" 
d="M65 186v234q0 60 12.5 85t53.5 25q37 0 52 -26t15 -87v-183q0 -80 23 -110.5t67 -30.5q31 0 59 16t41 41q18 34 18 137v133q0 59 13.5 84.5t53.5 25.5q37 0 51.5 -24.5t14.5 -85.5v-329q0 -25 -1 -37t-6 -30.5t-19 -27t-36 -8.5q-38 0 -50 25.5t-12 66.5
q-13 -17 -23.5 -28t-32.5 -28.5t-52.5 -26.5t-67.5 -9q-46 0 -88.5 19.5t-60.5 56.5q-25 49 -25 122zM248 632l18 34q21 40 36 47.5t58 7.5h49q24 0 24 -7q0 -10 -60 -63q-5 -5 -18.5 -16.5t-17 -14.5t-13.5 -11t-14 -10t-12 -6.5t-14.5 -5.5t-15 -2t-18.5 -1q-19 0 -19 12
q0 5 17 36z" />
    <glyph glyph-name="ucircumflex" unicode="&#xfb;" horiz-adv-x="604" 
d="M65 186v234q0 60 12.5 85t53.5 25q37 0 52 -26t15 -87v-183q0 -80 23 -110.5t67 -30.5q31 0 59 16t41 41q18 34 18 137v133q0 59 13.5 84.5t53.5 25.5q37 0 51.5 -24.5t14.5 -85.5v-329q0 -25 -1 -37t-6 -30.5t-19 -27t-36 -8.5q-38 0 -50 25.5t-12 66.5
q-13 -17 -23.5 -28t-32.5 -28.5t-52.5 -26.5t-67.5 -9q-46 0 -88.5 19.5t-60.5 56.5q-25 49 -25 122zM303 678l-49 -57q-27 -32 -36.5 -35.5t-33.5 0.5h-24q-20 0 -20 7q0 6 15 24l54 65q25 30 36.5 37.5t42.5 7.5h28q30 0 41 -7t38 -38l56 -66q14 -17 14 -23q0 -7 -21 -7
h-20q-39 0 -49 9z" />
    <glyph glyph-name="udieresis" unicode="&#xfc;" horiz-adv-x="604" 
d="M65 186v234q0 60 12.5 85t53.5 25q37 0 52 -26t15 -87v-183q0 -80 23 -110.5t67 -30.5q31 0 59 16t41 41q18 34 18 137v133q0 59 13.5 84.5t53.5 25.5q37 0 51.5 -24.5t14.5 -85.5v-329q0 -25 -1 -37t-6 -30.5t-19 -27t-36 -8.5q-38 0 -50 25.5t-12 66.5
q-13 -17 -23.5 -28t-32.5 -28.5t-52.5 -26.5t-67.5 -9q-46 0 -88.5 19.5t-60.5 56.5q-25 49 -25 122zM263 650q0 -23 -16 -39t-39 -16t-39 16t-16 39t16 39t39 16q22 0 38.5 -16.5t16.5 -38.5zM452 650q0 -23 -16 -39t-39 -16t-39 16t-16 39q0 22 16 38.5t39 16.5t39 -16
t16 -39z" />
    <glyph glyph-name="yacute" unicode="&#xfd;" horiz-adv-x="542" 
d="M204 1l-163 413q-15 40 -15 55q0 23 18.5 42t45.5 19t42 -18t27 -53l113 -328l107 304q21 60 33.5 77.5t42.5 17.5q29 0 44 -19t15 -37q0 -23 -16 -64l-174 -455q-17 -46 -29.5 -70.5t-34.5 -49.5t-54.5 -35t-79.5 -10q-24 0 -41 2t-36 7.5t-29 18t-10 31.5t13 32.5
t35 13.5q3 0 22.5 -1.5t22.5 -1.5q37 0 54.5 18t34.5 61zM217 632l18 34q21 40 36 47.5t58 7.5h49q24 0 24 -7q0 -10 -60 -63q-5 -5 -18.5 -16.5t-17 -14.5t-13.5 -11t-14 -10t-12 -6.5t-14.5 -5.5t-15 -2t-18.5 -1q-19 0 -19 12q0 5 17 36z" />
    <glyph glyph-name="thorn" unicode="&#xfe;" horiz-adv-x="625" 
d="M189 653v-212q21 25 36.5 40t53 32t83.5 17q106 0 164.5 -79t58.5 -198q0 -111 -56 -188t-166 -77q-44 0 -82 16t-54 30t-38 37v-174q0 -22 -0.5 -33t-4 -28t-10 -25t-20 -14.5t-32.5 -6.5q-34 0 -50 22.5t-16 88.5v724q0 57 14 80t53 23q66 0 66 -75zM327 428
q-54 0 -92.5 -41t-38.5 -122q0 -80 35.5 -127.5t96.5 -47.5q53 0 87.5 42.5t34.5 123.5q0 91 -43 136q-34 36 -80 36z" />
    <glyph glyph-name="ydieresis" unicode="&#xff;" horiz-adv-x="542" 
d="M204 1l-163 413q-15 40 -15 55q0 23 18.5 42t45.5 19t42 -18t27 -53l113 -328l107 304q21 60 33.5 77.5t42.5 17.5q29 0 44 -19t15 -37q0 -23 -16 -64l-174 -455q-17 -46 -29.5 -70.5t-34.5 -49.5t-54.5 -35t-79.5 -10q-24 0 -41 2t-36 7.5t-29 18t-10 31.5t13 32.5
t35 13.5q3 0 22.5 -1.5t22.5 -1.5q37 0 54.5 18t34.5 61zM232 650q0 -23 -16 -39t-39 -16t-39 16t-16 39t16 39t39 16t39 -16.5t16 -38.5zM421 650q0 -23 -16 -39t-39 -16t-39 16t-16 39q0 22 16.5 38.5t38.5 16.5q23 0 39 -16t16 -39z" />
    <glyph glyph-name="Amacron" unicode="&#x100;" horiz-adv-x="719" 
d="M537 81l-35 88h-290l-34 -90q-23 -59 -36.5 -75t-44.5 -16q-29 0 -49 19.5t-20 44.5q0 24 20 75l184 465q31 83 53 109.5t71 26.5q72 0 102 -74l212 -523q21 -53 21 -77q0 -25 -21 -45.5t-50 -20.5q-32 0 -46 16.5t-37 76.5zM355 575l-106 -294h215zM475 808h-213
q-58 0 -76.5 7.5t-18.5 28.5t18 28t77 7h213q73 0 73 -35q0 -10 -3.5 -16.5t-20.5 -13t-49 -6.5z" />
    <glyph glyph-name="amacron" unicode="&#x101;" 
d="M406 63q-94 -75 -187 -75q-84 0 -131.5 43t-47.5 108q0 45 19 75.5t58.5 48t77 27t100 22t101.5 24.5q0 58 -22.5 80.5t-72.5 22.5q-92 0 -119 -51q-17 -31 -29 -42t-34 -11t-38.5 14.5t-16.5 35.5q0 56 60 100.5t173 44.5q128 0 180 -44t52 -169l-3 -125q0 -44 13 -94
t13 -57q0 -21 -18.5 -37t-42.5 -16q-40 0 -85 75zM397 256q-32 -13 -99 -26q-70 -14 -97.5 -31t-27.5 -51q0 -31 23.5 -52t63.5 -21q44 0 81 24t46.5 54.5t9.5 102.5zM415 613h-213q-58 0 -76.5 7.5t-18.5 28.5t18 28t77 7h213q73 0 73 -35q0 -10 -3.5 -16.5t-20.5 -13
t-49 -6.5z" />
    <glyph glyph-name="Abreve" unicode="&#x102;" horiz-adv-x="719" 
d="M537 81l-35 88h-290l-34 -90q-23 -59 -36.5 -75t-44.5 -16q-29 0 -49 19.5t-20 44.5q0 24 20 75l184 465q31 83 53 109.5t71 26.5q72 0 102 -74l212 -523q21 -53 21 -77q0 -25 -21 -45.5t-50 -20.5q-32 0 -46 16.5t-37 76.5zM355 575l-106 -294h215zM236 948q22 0 31 -39
q20 -62 93 -62q78 0 94 75q6 26 28 26q12 0 20.5 -10t8.5 -23q0 -49 -43 -92t-107 -43q-67 0 -111 43t-44 92q0 12 9 22.5t21 10.5z" />
    <glyph glyph-name="abreve" unicode="&#x103;" 
d="M406 63q-94 -75 -187 -75q-84 0 -131.5 43t-47.5 108q0 45 19 75.5t58.5 48t77 27t100 22t101.5 24.5q0 58 -22.5 80.5t-72.5 22.5q-92 0 -119 -51q-17 -31 -29 -42t-34 -11t-38.5 14.5t-16.5 35.5q0 56 60 100.5t173 44.5q128 0 180 -44t52 -169l-3 -125q0 -44 13 -94
t13 -57q0 -21 -18.5 -37t-42.5 -16q-40 0 -85 75zM397 256q-32 -13 -99 -26q-70 -14 -97.5 -31t-27.5 -51q0 -31 23.5 -52t63.5 -21q44 0 81 24t46.5 54.5t9.5 102.5zM174 756q22 0 31 -39q20 -62 93 -62q78 0 94 75q6 26 28 26q12 0 20.5 -10t8.5 -23q0 -49 -43 -92
t-107 -43q-67 0 -111 43t-44 92q0 12 9 22.5t21 10.5z" />
    <glyph glyph-name="Aogonek" unicode="&#x104;" horiz-adv-x="719" 
d="M653 -4q-7 -31 -7 -57q0 -33 18.5 -53.5t48.5 -20.5q10 0 36 6.5t32 6.5q28 0 28 -32q0 -28 -43.5 -42t-85.5 -14q-47 0 -80.5 30t-33.5 86q0 35 14 94q-17 11 -43 80l-35 89h-291l-34 -89q-24 -62 -36.5 -77t-43.5 -15q-29 0 -49.5 20.5t-20.5 43.5q0 22 21 74l183 467
q25 64 36 85t35.5 35.5t53.5 14.5q75 0 109 -91l204 -506q22 -57 22 -77q0 -37 -38 -58zM249 281h214l-108 294z" />
    <glyph glyph-name="aogonek" unicode="&#x105;" 
d="M507 -9q-5 -33 -5 -51q0 -34 18.5 -54.5t48.5 -20.5q10 0 36 6.5t31 6.5q29 0 29 -32q0 -28 -44 -42t-86 -14q-48 0 -81 31t-33 85q0 47 19 110q-18 20 -34 47q-94 -76 -188 -76q-82 0 -130 42.5t-48 107.5q0 49 27.5 85t68.5 50q13 4 126 30.5t135 33.5q-1 61 -24 81.5
t-72 20.5q-50 0 -79 -14.5t-46 -46.5q-22 -43 -57 -43q-22 0 -39 15t-17 36q0 57 61 101t174 44q123 0 176.5 -43t53.5 -162q0 -20 -1 -77.5t-1 -75.5q0 -20 13 -71t13 -60q0 -37 -45 -50zM397 256q-37 -14 -82 -22q-88 -16 -114.5 -34.5t-26.5 -51.5q0 -31 23 -52t63 -21
q69 0 103.5 42.5t34.5 115.5q0 12 -1 23z" />
    <glyph glyph-name="Cacute" unicode="&#x106;" horiz-adv-x="740" 
d="M625 289q26 0 45 -18t19 -45q0 -38 -19.5 -78.5t-55 -76.5t-93.5 -59.5t-127 -23.5q-167 0 -255.5 104t-88.5 265q0 166 95.5 268.5t248.5 102.5q124 0 208 -71.5t84 -146.5q0 -24 -18 -43t-46 -19q-25 0 -38.5 13.5t-38.5 59.5q-24 44 -64 68t-88 24q-91 0 -143.5 -68.5
t-52.5 -193.5q0 -123 51 -185.5t141 -62.5q125 0 169 122q14 38 29 51t38 13zM327 824l18 34q21 39 35 47t59 8h49q24 0 24 -7q0 -8 -51 -55q-58 -52 -76.5 -63.5t-55.5 -11.5q-19 0 -19 12q0 4 17 36z" />
    <glyph glyph-name="cacute" unicode="&#x107;" 
d="M490 211q24 0 40.5 -18.5t16.5 -39.5q0 -58 -68 -111.5t-171 -53.5q-128 0 -196.5 73t-68.5 195q0 123 71 198.5t196 75.5q95 0 162.5 -50.5t67.5 -104.5q0 -24 -17.5 -40.5t-41.5 -16.5q-30 0 -46 25q-35 52 -62 68.5t-64 16.5q-62 0 -97.5 -48t-35.5 -123t36.5 -122.5
t96.5 -47.5q72 0 114 66q22 35 35 46.5t32 11.5zM258 632l18 34q21 39 35 47t59 8h49q24 0 24 -7q0 -8 -51 -55q-58 -52 -76.5 -63.5t-55.5 -11.5q-19 0 -19 12q0 4 17 36z" />
    <glyph glyph-name="Ccircumflex" unicode="&#x108;" horiz-adv-x="740" 
d="M625 289q26 0 45 -18t19 -45q0 -38 -19.5 -78.5t-55 -76.5t-93.5 -59.5t-127 -23.5q-167 0 -255.5 104t-88.5 265q0 166 95.5 268.5t248.5 102.5q124 0 208 -71.5t84 -146.5q0 -24 -18 -43t-46 -19q-25 0 -38.5 13.5t-38.5 59.5q-24 44 -64 68t-88 24q-91 0 -143.5 -68.5
t-52.5 -193.5q0 -123 51 -185.5t141 -62.5q125 0 169 122q14 38 29 51t38 13zM455 783l-72 83l-49 -57q-4 -5 -9 -11t-7 -8.5t-5.5 -6.5t-5.5 -4.5t-6.5 -3t-8.5 -1.5t-12 0t-16 0h-24q-20 0 -20 7q0 6 15 24l54 65q26 32 37.5 38.5t41.5 6.5h28q29 0 41 -7t38 -38l56 -66
q14 -17 14 -23q0 -7 -21 -7h-20q-42 0 -49 9z" />
    <glyph glyph-name="ccircumflex" unicode="&#x109;" 
d="M490 211q24 0 40.5 -18.5t16.5 -39.5q0 -58 -68 -111.5t-171 -53.5q-128 0 -196.5 73t-68.5 195q0 123 71 198.5t196 75.5q95 0 162.5 -50.5t67.5 -104.5q0 -24 -17.5 -40.5t-41.5 -16.5q-30 0 -46 25q-35 52 -62 68.5t-64 16.5q-62 0 -97.5 -48t-35.5 -123t36.5 -122.5
t96.5 -47.5q72 0 114 66q22 35 35 46.5t32 11.5zM384 583l-72 83l-49 -57q-4 -5 -9 -11t-7 -8.5t-5.5 -6.5t-5.5 -4.5t-6.5 -3t-8.5 -1.5t-12 0t-16 0h-24q-20 0 -20 7q0 6 15 24l54 65q26 32 37.5 38.5t41.5 6.5h28q29 0 41 -7t38 -38l56 -66q14 -17 14 -23q0 -7 -21 -7
h-20q-41 0 -49 9z" />
    <glyph glyph-name="Cdotaccent" unicode="&#x10a;" horiz-adv-x="740" 
d="M625 289q26 0 45 -18t19 -45q0 -38 -19.5 -78.5t-55 -76.5t-93.5 -59.5t-127 -23.5q-167 0 -255.5 104t-88.5 265q0 166 95.5 268.5t248.5 102.5q124 0 208 -71.5t84 -146.5q0 -24 -18 -43t-46 -19q-25 0 -38.5 13.5t-38.5 59.5q-24 44 -64 68t-88 24q-91 0 -143.5 -68.5
t-52.5 -193.5q0 -123 51 -185.5t141 -62.5q125 0 169 122q14 38 29 51t38 13zM390 897q22 0 38.5 -16.5t16.5 -38.5q0 -23 -16.5 -39t-38.5 -16q-23 0 -39 16t-16 39t16 39t39 16z" />
    <glyph glyph-name="cdotaccent" unicode="&#x10b;" 
d="M490 211q24 0 40.5 -18.5t16.5 -39.5q0 -58 -68 -111.5t-171 -53.5q-128 0 -196.5 73t-68.5 195q0 123 71 198.5t196 75.5q95 0 162.5 -50.5t67.5 -104.5q0 -24 -17.5 -40.5t-41.5 -16.5q-30 0 -46 25q-35 52 -62 68.5t-64 16.5q-62 0 -97.5 -48t-35.5 -123t36.5 -122.5
t96.5 -47.5q72 0 114 66q22 35 35 46.5t32 11.5zM297 705q22 0 38.5 -16.5t16.5 -38.5q0 -23 -16.5 -39t-38.5 -16q-23 0 -39 16t-16 39t16 39t39 16z" />
    <glyph glyph-name="Ccaron" unicode="&#x10c;" horiz-adv-x="740" 
d="M625 289q26 0 45 -18t19 -45q0 -38 -19.5 -78.5t-55 -76.5t-93.5 -59.5t-127 -23.5q-167 0 -255.5 104t-88.5 265q0 166 95.5 268.5t248.5 102.5q124 0 208 -71.5t84 -146.5q0 -24 -18 -43t-46 -19q-25 0 -38.5 13.5t-38.5 59.5q-24 44 -64 68t-88 24q-91 0 -143.5 -68.5
t-52.5 -193.5q0 -123 51 -185.5t141 -62.5q125 0 169 122q14 38 29 51t38 13zM314 910l72 -83l49 57q5 6 12 15t9.5 10.5t6 5t10.5 3.5t11.5 0.5t20.5 0.5h24q20 0 20 -7q0 -6 -15 -24l-54 -65q-27 -32 -37.5 -38.5t-41.5 -6.5h-28q-32 0 -41 5.5t-38 39.5l-56 66
q-14 17 -14 23q0 7 21 7h20q41 0 49 -9z" />
    <glyph glyph-name="ccaron" unicode="&#x10d;" 
d="M490 211q24 0 40.5 -18.5t16.5 -39.5q0 -58 -68 -111.5t-171 -53.5q-128 0 -196.5 73t-68.5 195q0 123 71 198.5t196 75.5q95 0 162.5 -50.5t67.5 -104.5q0 -24 -17.5 -40.5t-41.5 -16.5q-30 0 -46 25q-35 52 -62 68.5t-64 16.5q-62 0 -97.5 -48t-35.5 -123t36.5 -122.5
t96.5 -47.5q72 0 114 66q22 35 35 46.5t32 11.5zM229 718l72 -83l49 57q5 6 12 15t9.5 10.5t6 5t10.5 3.5t11.5 0.5t20.5 0.5h24q20 0 20 -7q0 -6 -15 -24l-54 -65q-27 -32 -37.5 -38.5t-41.5 -6.5h-28q-32 0 -41 5.5t-38 39.5l-56 66q-14 17 -14 23q0 7 21 7h20q42 0 49 -9
z" />
    <glyph glyph-name="Dcaron" unicode="&#x10e;" horiz-adv-x="740" 
d="M360 0h-160q-81 0 -101 19.5t-20 101.5v473q0 84 18.5 103t102.5 19h157q334 0 334 -360q0 -168 -81 -262t-250 -94zM319 604h-96v-492h111q35 0 58.5 3t55 16.5t50.5 38t32.5 72.5t13.5 116q0 101 -32 156t-69.5 72.5t-123.5 17.5zM247 910l72 -83l49 57q5 6 12 15
t9.5 10.5t6 5t10.5 3.5t11.5 0.5t20.5 0.5h24q20 0 20 -7q0 -6 -15 -24l-54 -65q-27 -32 -37.5 -38.5t-41.5 -6.5h-28q-32 0 -41 5.5t-38 39.5l-56 66q-14 17 -14 23q0 7 21 7h20q42 0 49 -9z" />
    <glyph glyph-name="dcaron" unicode="&#x10f;" horiz-adv-x="760" 
d="M433 64v13q-69 -89 -174 -89q-102 0 -162.5 77t-60.5 201q0 117 59.5 190.5t162.5 73.5q102 0 175 -82v173q0 48 9.5 72t22 29.5t35.5 5.5q39 0 52.5 -25t13.5 -86v-525q0 -62 -14.5 -83t-52.5 -21q-66 0 -66 76zM171 262q0 -86 36 -129t88 -43q58 0 94.5 43.5
t36.5 119.5q0 80 -36 128t-96 48q-55 0 -89 -45t-34 -122zM678 581l-7 -1q-28 0 -50 22t-22 53t22.5 52t54.5 21q37 0 60 -28.5t23 -80.5q0 -71 -42.5 -127.5t-82.5 -56.5q-15 0 -24 9.5t-9 23.5q0 22 25 35q49 27 52 78z" />
    <glyph glyph-name="Dcroat" unicode="&#x110;" horiz-adv-x="740" 
d="M79 121v191h-21q-58 0 -58 46q0 45 58 45h21v191q0 84 18.5 103t102.5 19h157q334 0 334 -360q0 -168 -81 -262t-250 -94h-160q-81 0 -101 19.5t-20 101.5zM223 604v-200h83q44 0 60.5 -8.5t16.5 -37.5q0 -12 -1.5 -18.5t-8.5 -13.5t-23.5 -10.5t-43.5 -3.5h-83v-200h111
q35 0 58.5 3t55 16.5t50.5 38t32.5 72.5t13.5 116q0 101 -32 156t-69.5 72.5t-123.5 17.5h-96z" />
    <glyph glyph-name="dcroat" unicode="&#x111;" horiz-adv-x="625" 
d="M565 655q73 0 73 -35q0 -10 -3.5 -16.5t-20.5 -13t-49 -6.5v-493q0 -60 -14 -81.5t-52 -21.5q-66 0 -66 75v14q-68 -89 -174 -89q-105 0 -164 78t-59 194q0 126 60 198t163 72q101 0 174 -82v136h-81q-58 0 -76.5 7.5t-18.5 28.5t18 28t77 7h81q6 73 64 73q61 0 68 -73z
M293 90q59 0 95.5 44t36.5 122q0 80 -36 126.5t-96 46.5q-55 0 -88.5 -45t-33.5 -127q0 -80 35.5 -123.5t86.5 -43.5z" />
    <glyph glyph-name="Emacron" unicode="&#x112;" horiz-adv-x="667" 
d="M525 604h-302v-175h277q48 0 69.5 -12t21.5 -43q0 -57 -91 -57h-277v-205h313q56 0 75.5 -12.5t19.5 -42.5q0 -34 -22.5 -45.5t-72.5 -11.5h-336q-76 0 -90 11q-2 2 -7 5.5t-7 5.5t-5.5 7t-5 12t-3.5 17.5t-2.5 26t-0.5 36.5v473q0 78 11 89q1 1 8 9.5t11 10t15 6t29.5 6
t46.5 1.5h325q52 0 72.5 -12t20.5 -44q0 -35 -22 -45.5t-71 -10.5zM475 808h-213q-58 0 -76.5 7.5t-18.5 28.5t18 28t77 7h213q73 0 73 -35q0 -10 -3.5 -16.5t-20.5 -13t-49 -6.5z" />
    <glyph glyph-name="emacron" unicode="&#x113;" 
d="M441 226h-262q2 -72 39.5 -111t94.5 -39q67 0 126 59q23 23 34.5 29.5t26.5 6.5q18 0 31 -11.5t13 -27.5q0 -49 -65 -96.5t-163 -47.5q-132 0 -202 74t-70 197q0 122 70 196.5t191 74.5q112 0 179 -69t67 -156q0 -39 -23.5 -59t-86.5 -20zM179 302h243q-3 64 -36 100
t-85 36q-106 0 -122 -136zM418 613h-213q-58 0 -76.5 7.5t-18.5 28.5t18 28t77 7h213q73 0 73 -35q0 -10 -3.5 -16.5t-20.5 -13t-49 -6.5z" />
    <glyph glyph-name="Ebreve" unicode="&#x114;" horiz-adv-x="667" 
d="M525 604h-302v-175h277q48 0 69.5 -12t21.5 -43q0 -57 -91 -57h-277v-205h313q56 0 75.5 -12.5t19.5 -42.5q0 -34 -22.5 -45.5t-72.5 -11.5h-336q-76 0 -90 11q-2 2 -7 5.5t-7 5.5t-5.5 7t-5 12t-3.5 17.5t-2.5 26t-0.5 36.5v473q0 78 11 89q1 1 8 9.5t11 10t15 6t29.5 6
t46.5 1.5h325q52 0 72.5 -12t20.5 -44q0 -35 -22 -45.5t-71 -10.5zM236 946q22 0 31 -39q20 -62 93 -62q78 0 94 75q6 26 28 26q12 0 20.5 -10t8.5 -23q0 -49 -43 -92t-107 -43q-67 0 -111 43t-44 92q0 12 9 22.5t21 10.5z" />
    <glyph glyph-name="ebreve" unicode="&#x115;" 
d="M441 226h-262q2 -72 39.5 -111t94.5 -39q67 0 126 59q23 23 34.5 29.5t26.5 6.5q18 0 31 -11.5t13 -27.5q0 -49 -65 -96.5t-163 -47.5q-132 0 -202 74t-70 197q0 122 70 196.5t191 74.5q112 0 179 -69t67 -156q0 -39 -23.5 -59t-86.5 -20zM179 302h243q-3 64 -36 100
t-85 36q-106 0 -122 -136zM187 756q22 0 31 -39q20 -62 93 -62q77 0 94 75q6 26 28 26q12 0 20.5 -10t8.5 -23q0 -49 -43 -92t-107 -43q-67 0 -111 43t-44 92q0 12 9 22.5t21 10.5z" />
    <glyph glyph-name="Edotaccent" unicode="&#x116;" horiz-adv-x="667" 
d="M525 604h-302v-175h277q48 0 69.5 -12t21.5 -43q0 -57 -91 -57h-277v-205h313q56 0 75.5 -12.5t19.5 -42.5q0 -34 -22.5 -45.5t-72.5 -11.5h-336q-76 0 -90 11q-2 2 -7 5.5t-7 5.5t-5.5 7t-5 12t-3.5 17.5t-2.5 26t-0.5 36.5v473q0 78 11 89q1 1 8 9.5t11 10t15 6t29.5 6
t46.5 1.5h325q52 0 72.5 -12t20.5 -44q0 -35 -22 -45.5t-71 -10.5zM334 897q22 0 38.5 -16.5t16.5 -38.5q0 -23 -16.5 -39t-38.5 -16q-23 0 -39 16t-16 39t16 39t39 16z" />
    <glyph glyph-name="edotaccent" unicode="&#x117;" 
d="M441 226h-262q2 -72 39.5 -111t94.5 -39q67 0 126 59q23 23 34.5 29.5t26.5 6.5q18 0 31 -11.5t13 -27.5q0 -49 -65 -96.5t-163 -47.5q-132 0 -202 74t-70 197q0 122 70 196.5t191 74.5q112 0 179 -69t67 -156q0 -39 -23.5 -59t-86.5 -20zM179 302h243q-3 64 -36 100
t-85 36q-106 0 -122 -136zM306 705q22 0 38.5 -16.5t16.5 -38.5q0 -23 -16.5 -39t-38.5 -16q-23 0 -39 16t-16 39t16 39t39 16z" />
    <glyph glyph-name="Eogonek" unicode="&#x118;" horiz-adv-x="667" 
d="M536 0h-59q-8 -35 -8 -61q0 -33 18.5 -53.5t49.5 -20.5q9 0 35.5 6.5t31.5 6.5q28 0 28 -32q0 -28 -43.5 -42t-85.5 -14q-47 0 -80.5 30t-33.5 86q0 36 14 94h-203h-7q-30 0 -42.5 0.5t-29.5 4t-22 10.5t-11.5 21.5t-7.5 34t-1 51.5v472q0 66 9 85q10 22 30 29.5t82 7.5
h325q54 0 73.5 -13t19.5 -43t-19.5 -43t-73.5 -13h-302v-176h277q52 0 71 -12.5t19 -41.5t-19 -42t-71 -13h-277v-205h313q54 0 74.5 -13t20.5 -44t-20 -44t-75 -13z" />
    <glyph glyph-name="eogonek" unicode="&#x119;" 
d="M323 -12q-6 -27 -6 -48q0 -34 18.5 -54.5t49.5 -20.5q9 0 35.5 6.5t31.5 6.5q28 0 28 -32q0 -28 -43.5 -42t-85.5 -14q-46 0 -80 30t-34 86q0 36 13 88q-106 20 -156 91.5t-50 173.5q0 122 70 196.5t191 74.5q111 0 178.5 -69t67.5 -156q0 -42 -24 -60.5t-86 -18.5h-261
q0 -68 37.5 -109t95.5 -41q66 0 125 59q36 36 62 36q18 0 30.5 -11.5t12.5 -27.5q0 -48 -62 -94.5t-158 -49.5zM180 302h241q-2 64 -35 100t-86 36q-50 0 -82.5 -35.5t-37.5 -100.5z" />
    <glyph glyph-name="Ecaron" unicode="&#x11a;" horiz-adv-x="667" 
d="M525 604h-302v-175h277q48 0 69.5 -12t21.5 -43q0 -57 -91 -57h-277v-205h313q56 0 75.5 -12.5t19.5 -42.5q0 -34 -22.5 -45.5t-72.5 -11.5h-336q-76 0 -90 11q-2 2 -7 5.5t-7 5.5t-5.5 7t-5 12t-3.5 17.5t-2.5 26t-0.5 36.5v473q0 78 11 89q1 1 8 9.5t11 10t15 6t29.5 6
t46.5 1.5h325q52 0 72.5 -12t20.5 -44q0 -35 -22 -45.5t-71 -10.5zM286 910l72 -83l49 57q5 6 12 15t9.5 10.5t6 5t10.5 3.5t11.5 0.5t20.5 0.5h24q20 0 20 -7q0 -6 -15 -24l-54 -65q-27 -32 -37.5 -38.5t-41.5 -6.5h-28q-32 0 -41 5.5t-38 39.5l-56 66q-14 17 -14 23
q0 7 21 7h20q41 0 49 -9z" />
    <glyph glyph-name="ecaron" unicode="&#x11b;" 
d="M441 226h-262q2 -72 39.5 -111t94.5 -39q67 0 126 59q23 23 34.5 29.5t26.5 6.5q18 0 31 -11.5t13 -27.5q0 -49 -65 -96.5t-163 -47.5q-132 0 -202 74t-70 197q0 122 70 196.5t191 74.5q112 0 179 -69t67 -156q0 -39 -23.5 -59t-86.5 -20zM179 302h243q-3 64 -36 100
t-85 36q-106 0 -122 -136zM233 718l72 -83l49 57q5 6 12 15t9.5 10.5t6 5t10.5 3.5t11.5 0.5t20.5 0.5h24q20 0 20 -7q0 -6 -15 -24l-54 -65q-27 -32 -37.5 -38.5t-41.5 -6.5h-28q-32 0 -41 5.5t-38 39.5l-56 66q-14 17 -14 23q0 7 21 7h20q41 0 49 -9z" />
    <glyph glyph-name="Gcircumflex" unicode="&#x11c;" horiz-adv-x="792" 
d="M597 154v109h-99q-35 0 -56 5.5t-28 17t-8 16.5t-1 17q0 56 72 56h157q62 0 80.5 -21t18.5 -77v-104q0 -61 -16 -83q-20 -27 -113 -64.5t-186 -37.5q-173 0 -271 100.5t-98 269.5t99 269.5t274 100.5q130 0 209 -62t79 -130q0 -25 -20.5 -44.5t-48.5 -19.5
q-25 0 -38.5 11t-36.5 48q-51 82 -156 82q-101 0 -157.5 -68.5t-56.5 -180.5q0 -126 57.5 -193.5t159.5 -67.5q91 0 184 51zM485 783l-72 83l-49 -57q-4 -5 -9 -11t-7 -8.5t-5.5 -6.5t-5.5 -4.5t-6.5 -3t-8.5 -1.5t-12 0t-16 0h-24q-20 0 -20 7q0 6 15 24l54 65
q26 32 37.5 38.5t41.5 6.5h28q29 0 41 -7t38 -38l56 -66q14 -17 14 -23q0 -7 -21 -7h-20q-42 0 -49 9z" />
    <glyph glyph-name="gcircumflex" unicode="&#x11d;" horiz-adv-x="625" 
d="M434 439v18q0 35 17.5 54t45.5 19q31 0 47 -23t16 -90v-358q0 -153 -63.5 -211t-197.5 -58q-108 0 -175 40.5t-67 90.5q0 24 16.5 40t40.5 16q22 0 33 -10q3 -2 16 -18.5t26.5 -29.5t41 -25t59.5 -12q94 0 122 55q15 29 15 151q-61 -88 -167 -88q-101 0 -161 76t-60 196
q0 118 61 188t159 70q108 0 175 -91zM174 261q0 -77 33.5 -118t93.5 -41q54 0 90 41.5t36 116.5q0 77 -34.5 122.5t-93.5 45.5q-58 0 -91.5 -43.5t-33.5 -123.5zM392 595l-72 83l-49 -57q-4 -5 -9 -11t-7 -8.5t-5.5 -6.5t-5.5 -4.5t-6.5 -3t-8.5 -1.5t-12 0t-16 0h-24
q-20 0 -20 7q0 6 15 24l54 65q26 32 37.5 38.5t41.5 6.5h28q29 0 41 -7t38 -38l56 -66q14 -17 14 -23q0 -7 -21 -7h-20q-41 0 -49 9z" />
    <glyph glyph-name="Gbreve" unicode="&#x11e;" horiz-adv-x="792" 
d="M597 154v109h-99q-35 0 -56 5.5t-28 17t-8 16.5t-1 17q0 56 72 56h157q62 0 80.5 -21t18.5 -77v-104q0 -61 -16 -83q-20 -27 -113 -64.5t-186 -37.5q-173 0 -271 100.5t-98 269.5t99 269.5t274 100.5q130 0 209 -62t79 -130q0 -25 -20.5 -44.5t-48.5 -19.5
q-25 0 -38.5 11t-36.5 48q-51 82 -156 82q-101 0 -157.5 -68.5t-56.5 -180.5q0 -126 57.5 -193.5t159.5 -67.5q91 0 184 51zM273 948q22 0 31 -39q20 -62 93 -62q77 0 94 75q6 26 28 26q12 0 20.5 -10t8.5 -23q0 -49 -43 -92t-107 -43q-67 0 -111 43t-44 92q0 12 9 22.5
t21 10.5z" />
    <glyph glyph-name="gbreve" unicode="&#x11f;" horiz-adv-x="625" 
d="M434 439v18q0 35 17.5 54t45.5 19q31 0 47 -23t16 -90v-358q0 -153 -63.5 -211t-197.5 -58q-108 0 -175 40.5t-67 90.5q0 24 16.5 40t40.5 16q22 0 33 -10q3 -2 16 -18.5t26.5 -29.5t41 -25t59.5 -12q94 0 122 55q15 29 15 151q-61 -88 -167 -88q-101 0 -161 76t-60 196
q0 118 61 188t159 70q108 0 175 -91zM174 261q0 -77 33.5 -118t93.5 -41q54 0 90 41.5t36 116.5q0 77 -34.5 122.5t-93.5 45.5q-58 0 -91.5 -43.5t-33.5 -123.5zM190 756q22 0 31 -39q20 -62 93 -62q78 0 94 75q6 26 28 26q12 0 20.5 -10t8.5 -23q0 -49 -43 -92t-107 -43
q-67 0 -111 43t-44 92q0 12 9 22.5t21 10.5z" />
    <glyph glyph-name="Gdotaccent" unicode="&#x120;" horiz-adv-x="792" 
d="M597 154v109h-99q-35 0 -56 5.5t-28 17t-8 16.5t-1 17q0 56 72 56h157q62 0 80.5 -21t18.5 -77v-104q0 -61 -16 -83q-20 -27 -113 -64.5t-186 -37.5q-173 0 -271 100.5t-98 269.5t99 269.5t274 100.5q130 0 209 -62t79 -130q0 -25 -20.5 -44.5t-48.5 -19.5
q-25 0 -38.5 11t-36.5 48q-51 82 -156 82q-101 0 -157.5 -68.5t-56.5 -180.5q0 -126 57.5 -193.5t159.5 -67.5q91 0 184 51zM425 897q22 0 38.5 -16.5t16.5 -38.5q0 -23 -16.5 -39t-38.5 -16q-23 0 -39 16t-16 39t16 39t39 16z" />
    <glyph glyph-name="gdotaccent" unicode="&#x121;" horiz-adv-x="625" 
d="M434 439v18q0 35 17.5 54t45.5 19q31 0 47 -23t16 -90v-358q0 -153 -63.5 -211t-197.5 -58q-108 0 -175 40.5t-67 90.5q0 24 16.5 40t40.5 16q22 0 33 -10q3 -2 16 -18.5t26.5 -29.5t41 -25t59.5 -12q94 0 122 55q15 29 15 151q-61 -88 -167 -88q-101 0 -161 76t-60 196
q0 118 61 188t159 70q108 0 175 -91zM174 261q0 -77 33.5 -118t93.5 -41q54 0 90 41.5t36 116.5q0 77 -34.5 122.5t-93.5 45.5q-58 0 -91.5 -43.5t-33.5 -123.5zM313 705q22 0 38.5 -16.5t16.5 -38.5q0 -23 -16.5 -39t-38.5 -16q-23 0 -39 16t-16 39t16 39t39 16z" />
    <glyph glyph-name="Gcommaaccent" unicode="&#x122;" horiz-adv-x="792" 
d="M417 -12q100 -25 100 -98q0 -44 -43.5 -72t-110.5 -28q-116 0 -116 33q0 30 39 30q1 0 31.5 -2t36.5 -2q73 0 73 42q0 16 -14.5 27t-37.5 11q-8 0 -25 -3t-21 -3q-9 0 -16 7.5t-7 18.5q0 29 81 39q-164 12 -251.5 111t-87.5 258q0 170 99 270.5t275 100.5
q132 0 209.5 -62.5t77.5 -128.5q0 -26 -20 -45.5t-48 -19.5q-26 0 -38 9.5t-37 49.5q-52 82 -155 82q-101 0 -158.5 -68.5t-57.5 -180.5q0 -125 58 -193t161 -68q88 0 183 51v110h-100q-55 0 -74 13t-19 42q0 56 73 56h157q57 0 77.5 -20.5t20.5 -78.5v-104q0 -54 -10 -73
q-17 -35 -110.5 -73t-194.5 -38z" />
    <glyph glyph-name="gcommaaccent" unicode="&#x123;" horiz-adv-x="625" 
d="M284 656q27 0 43 -13.5t16 -31.5q0 -19 -17 -32t-41 -13q-28 0 -45 17.5t-17 49.5q0 44 32 78t62 34q24 0 24 -20q0 -9 -28 -29t-29 -40zM435 439v18q0 35 17 54t45 19q36 0 49.5 -23t13.5 -90v-358q0 -155 -63 -211.5t-204 -56.5q-104 0 -170 40.5t-66 90.5
q0 24 16.5 39.5t40.5 15.5q30 0 60 -37q27 -34 49.5 -45.5t67.5 -11.5q101 0 124 64q12 35 13 141q-60 -88 -168 -88q-101 0 -160.5 76t-59.5 196q0 118 61 188t158 70q109 0 176 -91zM174 261q0 -79 35 -120t94 -41q49 0 87 41t38 119q0 79 -35.5 124t-93.5 45
q-56 0 -90.5 -43t-34.5 -125z" />
    <glyph glyph-name="Hcircumflex" unicode="&#x124;" horiz-adv-x="760" 
d="M223 608v-176h314v176q0 61 13.5 90.5t57.5 29.5q45 0 59 -27.5t14 -92.5v-500q0 -32 -2 -49.5t-8.5 -36t-21.5 -26.5t-40 -8q-45 0 -58.5 28t-13.5 92v212h-314v-212q0 -63 -13 -91.5t-58 -28.5q-46 0 -59.5 27.5t-13.5 92.5v500q0 62 13.5 91t58.5 29q44 0 58 -28
t14 -92zM447 783l-72 83l-49 -57q-4 -5 -9 -11t-7 -8.5t-5.5 -6.5t-5.5 -4.5t-6.5 -3t-8.5 -1.5t-12 0t-16 0h-24q-20 0 -20 7q0 6 15 24l54 65q26 32 37.5 38.5t41.5 6.5h28q29 0 41 -7t38 -38l56 -66q14 -17 14 -23q0 -7 -21 -7h-20q-42 0 -49 9z" />
    <glyph glyph-name="hcircumflex" unicode="&#x125;" horiz-adv-x="604" 
d="M541 324v-243q0 -93 -68 -93q-33 0 -49 20.5t-16 72.5v213q0 72 -23 102t-68 30q-64 0 -91 -44t-27 -137v-154q0 -60 -16 -81.5t-51 -21.5q-34 0 -50 21t-16 80v529q0 67 15 88.5t50 21.5q42 0 55 -27.5t13 -93.5v-158q67 81 163 81q84 0 131.5 -51t47.5 -155zM353 787
l-72 83l-49 -57q-4 -5 -9 -11t-7 -8.5t-5.5 -6.5t-5.5 -4.5t-6.5 -3t-8.5 -1.5t-12 0t-16 0h-24q-20 0 -20 7q0 6 15 24l54 65q26 32 37.5 38.5t41.5 6.5h28q29 0 41 -7t38 -38l56 -66q14 -17 14 -23q0 -7 -21 -7h-20q-42 0 -49 9z" />
    <glyph glyph-name="Hbar" unicode="&#x126;" horiz-adv-x="760" 
d="M224 620h313v10q0 98 72 98t72 -98v-10q33 0 52 -12.5t19 -33.5q0 -42 -71 -45v-421q0 -24 -1 -39t-5 -32.5t-11.5 -26.5t-21 -15.5t-33.5 -6.5q-45 0 -58.5 27t-13.5 93v212h-313v-212q0 -62 -13.5 -91t-58.5 -29t-58.5 27t-13.5 93v421q-34 1 -53 14.5t-19 30.5
q0 19 18.5 32.5t53.5 13.5v10q0 98 72 98t72 -98v-10zM537 529h-313v-97h313v97z" />
    <glyph glyph-name="hbar" unicode="&#x127;" horiz-adv-x="604" 
d="M66 655q4 73 65 73q63 0 67 -73h100q75 0 75 -35q0 -36 -64 -36h-111v-135q68 81 164 81q81 0 130 -50t49 -156v-242q0 -49 -16 -71.5t-52 -22.5q-35 0 -50 22.5t-15 71.5v211q0 72 -22 102.5t-70 30.5q-62 0 -90 -43.5t-28 -137.5v-155q0 -57 -15 -79.5t-51 -22.5
q-41 0 -54 24.5t-13 77.5v494q-74 0 -74 36q0 35 75 35z" />
    <glyph glyph-name="Itilde" unicode="&#x128;" horiz-adv-x="313" 
d="M228 608v-500q0 -26 -1 -41t-4.5 -32.5t-11 -26t-21 -14.5t-33.5 -6q-46 0 -59.5 28t-13.5 92v500q0 64 13.5 92t58.5 28q44 0 58 -28t14 -92zM78 832q-14 0 -23.5 -15.5t-18 -31t-17.5 -15.5q-28 0 -28 37q0 38 23.5 68t57.5 30q36 0 80 -23q65 -28 79 -28
q17 0 24.5 7.5t13.5 30.5q6 24 25 24q11 0 19.5 -10t8.5 -24q0 -36 -23 -68t-60 -32q-23 0 -87 25t-74 25z" />
    <glyph glyph-name="itilde" unicode="&#x129;" horiz-adv-x="271" 
d="M202 421v-323q0 -58 -13.5 -84t-52.5 -26t-53 26t-14 84v322q0 62 15 86t51 24q40 0 53.5 -25.5t13.5 -83.5zM57 640q-14 0 -23.5 -15.5t-18 -31t-17.5 -15.5q-28 0 -28 37q0 38 23.5 68t57.5 30q36 0 80 -23q65 -28 79 -28q17 0 24.5 7.5t13.5 30.5q6 24 25 24
q11 0 19.5 -10t8.5 -24q0 -36 -23 -68t-60 -32q-23 0 -87 25t-74 25z" />
    <glyph glyph-name="Imacron" unicode="&#x12a;" horiz-adv-x="313" 
d="M266 808h-213q-58 0 -76.5 7.5t-18.5 28.5t18 28t77 7h213q73 0 73 -35q0 -10 -3.5 -16.5t-20.5 -13t-49 -6.5zM228 608v-500q0 -26 -1 -41t-4.5 -32.5t-11 -26t-21 -14.5t-33.5 -6q-46 0 -59.5 28t-13.5 92v500q0 64 13.5 92t58.5 28q44 0 58 -28t14 -92z" />
    <glyph glyph-name="imacron" unicode="&#x12b;" horiz-adv-x="271" 
d="M202 421v-323q0 -58 -13.5 -84t-52.5 -26t-53 26t-14 84v322q0 62 15 86t51 24q40 0 53.5 -25.5t13.5 -83.5zM254 613h-213q-58 0 -76.5 7.5t-18.5 28.5t18 28t77 7h213q73 0 73 -35q0 -10 -3.5 -16.5t-20.5 -13t-49 -6.5z" />
    <glyph glyph-name="Ibreve" unicode="&#x12c;" horiz-adv-x="313" 
d="M228 608v-500q0 -26 -1 -41t-4.5 -32.5t-11 -26t-21 -14.5t-33.5 -6q-46 0 -59.5 28t-13.5 92v500q0 64 13.5 92t58.5 28q44 0 58 -28t14 -92zM34 945q22 0 31 -39q20 -62 93 -62q78 0 94 75q6 26 28 26q12 0 20.5 -10t8.5 -23q0 -49 -43 -92t-107 -43q-67 0 -111 43
t-44 92q0 12 9 22.5t21 10.5z" />
    <glyph glyph-name="ibreve" unicode="&#x12d;" horiz-adv-x="271" 
d="M202 421v-323q0 -58 -13.5 -84t-52.5 -26t-53 26t-14 84v322q0 62 15 86t51 24q40 0 53.5 -25.5t13.5 -83.5zM16 756q22 0 31 -39q20 -62 93 -62q78 0 94 75q6 26 28 26q12 0 20.5 -10t8.5 -23q0 -49 -43 -92t-107 -43q-67 0 -111 43t-44 92q0 12 9 22.5t21 10.5z" />
    <glyph glyph-name="Iogonek" unicode="&#x12e;" horiz-adv-x="313" 
d="M189 -4q-6 -32 -6 -57q0 -33 18 -53.5t49 -20.5q9 0 35.5 6.5t31.5 6.5q28 0 28 -32q0 -28 -43.5 -42t-85.5 -14q-47 0 -80.5 30t-33.5 86q0 33 14 94q-21 14 -26.5 33t-5.5 75v500q0 67 16.5 93.5t55.5 26.5q44 0 58.5 -28t14.5 -92v-500q0 -57 -7.5 -77.5t-32.5 -34.5z
" />
    <glyph glyph-name="iogonek" unicode="&#x12f;" horiz-adv-x="271" 
d="M201 657q0 -27 -19.5 -46t-45.5 -19q-27 0 -46 19t-19 46q0 26 19 45.5t46 19.5t46 -19t19 -46zM167 -4q-7 -29 -7 -56q0 -34 18 -54.5t50 -20.5q9 0 35 6.5t31 6.5q29 0 29 -32q0 -29 -43.5 -42.5t-86.5 -13.5q-48 0 -80.5 30.5t-32.5 84.5q0 36 15 95q-17 14 -21.5 30
t-4.5 68v322q0 61 15 85.5t51 24.5q67 0 67 -91l-1 -392q-5 -36 -34 -51z" />
    <glyph glyph-name="Idotaccent" unicode="&#x130;" horiz-adv-x="313" 
d="M155 897q22 0 38.5 -16.5t16.5 -38.5q0 -23 -16.5 -39t-38.5 -16q-23 0 -39 16t-16 39t16 39t39 16zM228 608v-500q0 -34 -0.5 -46t-4.5 -27t-13 -25q-22 -22 -53 -22q-30 0 -54 22q-10 9 -14 24.5t-4.5 27.5t-0.5 46v500q0 32 0.5 45.5t5 28t13.5 23.5q23 23 53 23
q31 0 53 -22q10 -10 14 -25t4.5 -27t0.5 -46z" />
    <glyph glyph-name="dotlessi" unicode="&#x131;" horiz-adv-x="271" 
d="M202 421v-323q0 -60 -14.5 -85t-51.5 -25q-35 0 -51 23.5t-16 86.5v322q0 61 14.5 85.5t51.5 24.5q19 0 31.5 -6.5t19.5 -15t10.5 -24.5t4.5 -29t1 -34z" />
    <glyph glyph-name="IJ" unicode="&#x132;" horiz-adv-x="862" 
d="M228 608v-500q0 -26 -1 -41t-4.5 -32.5t-11 -26t-21 -14.5t-33.5 -6q-46 0 -59.5 28t-13.5 92v500q0 64 13.5 92t58.5 28q44 0 58 -28t14 -92zM638 244v364q0 66 15.5 93t56.5 27q44 0 58 -28.5t14 -91.5v-343q0 -151 -61.5 -214t-177.5 -63q-114 0 -174.5 64t-60.5 164
q0 34 19.5 52t48.5 18t41 -15.5t25 -60.5q9 -31 13.5 -43.5t15.5 -31t27.5 -25.5t42.5 -7q97 0 97 141z" />
    <glyph glyph-name="ij" unicode="&#x133;" horiz-adv-x="552" 
d="M136 722q26 0 45 -19.5t19 -45.5q0 -27 -19 -46t-45 -19q-27 0 -46 19t-19 46t19 46t46 19zM202 421v-323q0 -58 -13.5 -84t-52.5 -26t-53 26t-14 84v322q0 62 15 86t51 24q40 0 53.5 -25.5t13.5 -83.5zM413 722q26 0 45 -19.5t19 -45.5q0 -27 -19 -46t-45 -19
q-27 0 -46 19t-19 46t19 46t46 19zM348 2v418q0 60 12.5 85t52.5 25q39 0 52.5 -25t13.5 -85v-418q0 -37 -0.5 -54.5t-4.5 -47.5t-13.5 -45.5t-26 -33t-43.5 -24.5t-64 -7q-123 0 -123 65q0 23 14 38.5t36 15.5l49 -3q25 0 35 19t10 77z" />
    <glyph glyph-name="Jcircumflex" unicode="&#x134;" horiz-adv-x="573" 
d="M349 244v364q0 66 15.5 93t56.5 27q43 0 57.5 -28.5t14.5 -91.5v-343q0 -151 -61.5 -214t-177.5 -63q-114 0 -174.5 64t-60.5 164q0 34 19.5 52t48.5 18t41 -15.5t25 -60.5q9 -31 13.5 -43.5t15.5 -31t27.5 -25.5t42.5 -7q97 0 97 141zM494 787l-72 83l-49 -57
q-4 -5 -9 -11t-7 -8.5t-5.5 -6.5t-5.5 -4.5t-6.5 -3t-8.5 -1.5t-12 0t-16 0h-24q-20 0 -20 7q0 6 15 24l54 65q26 32 37.5 38.5t41.5 6.5h28q29 0 41 -7t38 -38l56 -66q14 -17 14 -23q0 -7 -21 -7h-20q-41 0 -49 9z" />
    <glyph glyph-name="jcircumflex" unicode="&#x135;" horiz-adv-x="271" 
d="M70 0v420q0 61 14 85.5t52 24.5q41 0 54 -25.5t13 -84.5v-420q0 -119 -34 -164t-119 -45q-123 0 -123 63q0 24 14 39t36 15q5 0 23 -1.5t26 -1.5q24 0 34 19t10 76zM208 595l-72 83l-49 -57q-4 -5 -9 -11t-7 -8.5t-5.5 -6.5t-5.5 -4.5t-6.5 -3t-8.5 -1.5t-12 0t-16 0h-24
q-20 0 -20 7q0 6 15 24l54 65q26 32 37.5 38.5t41.5 6.5h28q29 0 41 -7t38 -38l56 -66q14 -17 14 -23q0 -7 -21 -7h-20q-41 0 -49 9z" />
    <glyph glyph-name="Kcommaaccent" unicode="&#x136;" horiz-adv-x="740" 
d="M223 608v-219l286 297q41 42 74 42q29 0 49.5 -19t20.5 -42q0 -32 -34 -65l-176 -167l204 -291q42 -64 42 -95q0 -27 -19 -44t-51 -17q-50 0 -76 39l-200 311l-120 -114v-148q0 -88 -71 -88q-40 0 -56.5 25t-16.5 95v500q0 66 16.5 93t55.5 27q43 0 57.5 -28t14.5 -92z
M381 -53q54 0 92 -30t38 -68q0 -39 -40.5 -64.5t-115.5 -25.5q-97 0 -97 32q0 24 25 24q10 0 33.5 -2t36.5 -2q32 0 51 11t19 29q0 35 -55 35q-9 0 -22.5 -2.5t-14.5 -2.5q-9 0 -15 7.5t-6 16.5q0 42 71 42z" />
    <glyph glyph-name="kcommaaccent" unicode="&#x137;" horiz-adv-x="573" 
d="M400 49l-117 193l-73 -68v-65q0 -26 -0.5 -40t-4 -32t-10.5 -27t-20 -15.5t-32 -6.5q-41 0 -53.5 26t-12.5 88v510q0 70 17 93t53 23q40 0 51.5 -26t11.5 -87v-293l151 156q36 37 47 44.5t30 7.5q25 0 42 -16t17 -37q0 -30 -55 -81l-70 -65l136 -215q29 -47 29 -67
q0 -24 -17.5 -42.5t-45.5 -18.5q-23 0 -38 13t-36 48zM275 -52q54 0 92 -30t38 -68q0 -39 -40.5 -64.5t-115.5 -25.5q-97 0 -97 32q0 24 25 24q10 0 33.5 -2t36.5 -2q32 0 51 11t19 29q0 35 -55 35q-9 0 -22.5 -2.5t-14.5 -2.5q-9 0 -15 7.5t-6 16.5q0 42 71 42z" />
    <glyph glyph-name="kgreenlandic" unicode="&#x138;" horiz-adv-x="573" 
d="M400 49l-117 193l-73 -69v-64q0 -64 -12 -92.5t-55 -28.5q-41 0 -53.5 26t-12.5 88v312q0 66 16 91t51 25t50.5 -22.5t15.5 -90.5v-95l151 157q25 27 41 38.5t22.5 12.5t25.5 1q10 0 28.5 -16.5t18.5 -37.5q0 -30 -55 -81l-70 -65l136 -215q29 -47 29 -67
q0 -25 -17.5 -43t-45.5 -18q-21 0 -36.5 12.5t-37.5 48.5z" />
    <glyph glyph-name="Lacute" unicode="&#x139;" horiz-adv-x="604" 
d="M219 608v-496h269q34 0 52 -2.5t32.5 -15t14.5 -37.5q0 -35 -23 -46t-76 -11h-291q-77 0 -90 11q-3 3 -10 9.5t-9.5 10.5t-6 14.5t-5 29t-1.5 46.5v487q0 62 14 91t58 29q45 0 58.5 -28t13.5 -92zM164 824l18 34q21 39 35 47t59 8h49q24 0 24 -7q0 -8 -51 -55
q-58 -52 -76.5 -63.5t-55.5 -11.5q-19 0 -19 12q0 4 17 36z" />
    <glyph glyph-name="lacute" unicode="&#x13a;" horiz-adv-x="271" 
d="M202 618v-520q0 -58 -13.5 -84t-52.5 -26t-53 26t-14 84v520q0 60 13.5 85t52.5 25q42 0 54.5 -26t12.5 -84zM81 813l18 34q21 39 35 47t59 8h49q24 0 24 -7q0 -9 -51 -55q-58 -52 -76.5 -63.5t-55.5 -11.5q-19 0 -19 12q0 4 17 36z" />
    <glyph glyph-name="Lcommaaccent" unicode="&#x13b;" horiz-adv-x="604" 
d="M219 608v-496h269q34 0 52 -2.5t32.5 -15t14.5 -37.5q0 -35 -23 -46t-76 -11h-291q-77 0 -90 11q-3 3 -10 9.5t-9.5 10.5t-6 14.5t-5 29t-1.5 46.5v487q0 62 14 91t58 29q45 0 58.5 -28t13.5 -92zM328 -53q54 0 92 -30t38 -68q0 -39 -40.5 -64.5t-115.5 -25.5
q-97 0 -97 32q0 24 25 24q10 0 33.5 -2t36.5 -2q32 0 51 11t19 29q0 35 -55 35q-9 0 -22.5 -2.5t-14.5 -2.5q-9 0 -15 7.5t-6 16.5q0 42 71 42z" />
    <glyph glyph-name="lcommaaccent" unicode="&#x13c;" horiz-adv-x="271" 
d="M202 618v-520q0 -58 -13.5 -84t-52.5 -26t-53 26t-14 84v520q0 60 13.5 85t52.5 25q42 0 54.5 -26t12.5 -84zM122 -52q54 0 92 -30t38 -68q0 -39 -40.5 -64.5t-115.5 -25.5q-97 0 -97 32q0 24 25 24q10 0 33.5 -2t36.5 -2q32 0 51 11t19 29q0 35 -55 35q-9 0 -22.5 -2.5
t-14.5 -2.5q-9 0 -15 7.5t-6 16.5q0 42 71 42z" />
    <glyph glyph-name="Lcaron" unicode="&#x13d;" horiz-adv-x="604" 
d="M219 608v-496h269q34 0 52 -2.5t32.5 -15t14.5 -37.5q0 -35 -23 -46t-76 -11h-291q-77 0 -90 11q-3 3 -10 9.5t-9.5 10.5t-6 14.5t-5 29t-1.5 46.5v487q0 62 14 91t58 29q45 0 58.5 -28t13.5 -92zM359 581l-7 -1q-28 0 -50 22t-22 53t22.5 52t54.5 21q37 0 60 -28.5
t23 -80.5q0 -71 -42.5 -127.5t-82.5 -56.5q-15 0 -24 9.5t-9 23.5q0 22 25 35q49 27 52 78z" />
    <glyph glyph-name="lcaron" unicode="&#x13e;" horiz-adv-x="398" 
d="M202 618v-520q0 -58 -13.5 -84t-52.5 -26t-53 26t-14 84v520q0 60 13.5 85t52.5 25q42 0 54.5 -26t12.5 -84zM318 581l-7 -1q-28 0 -50 22t-22 53t22.5 52t54.5 21q37 0 60 -28.5t23 -80.5q0 -71 -42.5 -127.5t-82.5 -56.5q-15 0 -24 9.5t-9 23.5q0 22 25 35q49 27 52 78
z" />
    <glyph glyph-name="Ldot" unicode="&#x13f;" horiz-adv-x="604" 
d="M219 608v-496h269q34 0 52 -2.5t32.5 -15t14.5 -37.5q0 -35 -23 -46t-76 -11h-291q-77 0 -90 11q-3 3 -10 9.5t-9.5 10.5t-6 14.5t-5 29t-1.5 46.5v487q0 62 14 91t58 29q45 0 58.5 -28t13.5 -92zM454 349q0 -29 -20.5 -49t-48.5 -20t-48 20t-20 49q0 28 20 48t48 20
t48.5 -20t20.5 -48z" />
    <glyph glyph-name="ldot" unicode="&#x140;" horiz-adv-x="479" 
d="M205 618v-520q0 -58 -13.5 -84t-52.5 -26t-53 26t-14 84v520q0 60 13.5 85t52.5 25q42 0 54.5 -26t12.5 -84zM408 349q0 -29 -20.5 -49t-48.5 -20t-48 20t-20 49q0 28 20 48t48 20t48.5 -20t20.5 -48z" />
    <glyph glyph-name="Lslash" unicode="&#x141;" horiz-adv-x="604" 
d="M219 449l57 49q37 32 56 32q18 0 31.5 -15.5t13.5 -30.5t-8 -24.5t-34 -31.5l-116 -98v-218h269q53 0 76 -12t23 -43t-22 -44t-77 -13h-291q-45 0 -68.5 4t-36 20t-15 35t-2.5 62v89q-14 -12 -31 -12q-19 0 -32.5 15.5t-13.5 31.5q0 13 8 22.5t35 32.5l34 29v279
q0 66 15 93t57 27q30 0 54 -22q12 -11 15 -28.5t3 -56.5v-13v-159z" />
    <glyph glyph-name="lslash" unicode="&#x142;" horiz-adv-x="271" 
d="M236 397l-34 -29v-270q0 -61 -14.5 -85.5t-51.5 -24.5q-35 0 -51 23.5t-16 86.5v159q-23 -18 -36 -18q-11 0 -22 9t-11 23q0 18 30 43l5 5l34 29v270q0 61 14.5 85.5t51.5 24.5q36 0 51.5 -24t15.5 -86v-158q22 17 36 17q13 0 23 -9t10 -23q0 -13 -6.5 -21.5t-28.5 -26.5
z" />
    <glyph glyph-name="Nacute" unicode="&#x143;" horiz-adv-x="760" 
d="M267 641l278 -422v425q0 84 67 84q42 0 55 -26.5t13 -87.5v-479q0 -28 -0.5 -37t-2 -32.5t-7 -32.5t-14.5 -22t-24.5 -18t-37.5 -5q-33 0 -50.5 15t-56.5 74l-272 413v-389q0 -30 -1.5 -46t-7.5 -34t-20.5 -25.5t-37.5 -7.5q-41 0 -54.5 26t-13.5 87v484q0 65 5 88
q5 22 28.5 38.5t52.5 16.5q30 0 45.5 -13.5t55.5 -73.5zM325 824l18 34q21 39 35 47t59 8h49q24 0 24 -7q0 -8 -51 -55q-58 -52 -76.5 -63.5t-55.5 -11.5q-19 0 -19 12q0 4 17 36z" />
    <glyph glyph-name="nacute" unicode="&#x144;" horiz-adv-x="604" 
d="M539 317v-219q0 -59 -13.5 -84.5t-52.5 -25.5t-53 25.5t-14 84.5v192q0 76 -22.5 106t-67.5 30q-38 0 -67 -21.5t-41 -55.5q-11 -30 -11 -113v-138q0 -59 -14.5 -84.5t-51.5 -25.5q-40 0 -53.5 26t-13.5 84v329q0 59 14 81t49 22q62 0 62 -90q67 90 172 90q96 0 142 -64
q23 -31 29.5 -65t6.5 -84zM289 632l18 34q21 39 35 47t59 8h49q24 0 24 -7q0 -8 -51 -55q-58 -52 -76.5 -63.5t-55.5 -11.5q-19 0 -19 12q0 4 17 36z" />
    <glyph glyph-name="Ncommaaccent" unicode="&#x145;" horiz-adv-x="760" 
d="M267 641l278 -422v425q0 84 67 84q42 0 55 -26.5t13 -87.5v-479q0 -28 -0.5 -37t-2 -32.5t-7 -32.5t-14.5 -22t-24.5 -18t-37.5 -5q-33 0 -50.5 15t-56.5 74l-272 413v-389q0 -30 -1.5 -46t-7.5 -34t-20.5 -25.5t-37.5 -7.5q-41 0 -54.5 26t-13.5 87v484q0 65 5 88
q5 22 28.5 38.5t52.5 16.5q30 0 45.5 -13.5t55.5 -73.5zM377 -53q54 0 92 -30t38 -68q0 -39 -40.5 -64.5t-115.5 -25.5q-97 0 -97 32q0 24 25 24q10 0 33.5 -2t36.5 -2q32 0 51 11t19 29q0 35 -55 35q-9 0 -22.5 -2.5t-14.5 -2.5q-9 0 -15 7.5t-6 16.5q0 42 71 42z" />
    <glyph glyph-name="ncommaaccent" unicode="&#x146;" horiz-adv-x="604" 
d="M539 317v-219q0 -59 -13.5 -84.5t-52.5 -25.5t-53 25.5t-14 84.5v192q0 76 -22.5 106t-67.5 30q-38 0 -67 -21.5t-41 -55.5q-11 -30 -11 -113v-138q0 -59 -14.5 -84.5t-51.5 -25.5q-40 0 -53.5 26t-13.5 84v329q0 59 14 81t49 22q62 0 62 -90q67 90 172 90q96 0 142 -64
q23 -31 29.5 -65t6.5 -84zM304 -52q54 0 92 -30t38 -68q0 -39 -40.5 -64.5t-115.5 -25.5q-97 0 -97 32q0 24 25 24q10 0 33.5 -2t36.5 -2q32 0 51 11t19 29q0 35 -55 35q-9 0 -22.5 -2.5t-14.5 -2.5q-9 0 -15 7.5t-6 16.5q0 42 71 42z" />
    <glyph glyph-name="Ncaron" unicode="&#x147;" horiz-adv-x="760" 
d="M267 641l278 -422v425q0 84 67 84q42 0 55 -26.5t13 -87.5v-479q0 -28 -0.5 -37t-2 -32.5t-7 -32.5t-14.5 -22t-24.5 -18t-37.5 -5q-33 0 -50.5 15t-56.5 74l-272 413v-389q0 -30 -1.5 -46t-7.5 -34t-20.5 -25.5t-37.5 -7.5q-41 0 -54.5 26t-13.5 87v484q0 65 5 88
q5 22 28.5 38.5t52.5 16.5q30 0 45.5 -13.5t55.5 -73.5zM307 910l72 -83l49 57q5 6 12 15t9.5 10.5t6 5t10.5 3.5t11.5 0.5t20.5 0.5h24q20 0 20 -7q0 -6 -15 -24l-54 -65q-27 -32 -37.5 -38.5t-41.5 -6.5h-28q-32 0 -41 5.5t-38 39.5l-56 66q-14 17 -14 23q0 7 21 7h20
q42 0 49 -9z" />
    <glyph glyph-name="ncaron" unicode="&#x148;" horiz-adv-x="604" 
d="M539 317v-219q0 -59 -13.5 -84.5t-52.5 -25.5t-53 25.5t-14 84.5v192q0 76 -22.5 106t-67.5 30q-38 0 -67 -21.5t-41 -55.5q-11 -30 -11 -113v-138q0 -59 -14.5 -84.5t-51.5 -25.5q-40 0 -53.5 26t-13.5 84v329q0 59 14 81t49 22q62 0 62 -90q67 90 172 90q96 0 142 -64
q23 -31 29.5 -65t6.5 -84zM258 718l72 -83l49 57q5 6 12 15t9.5 10.5t6 5t10.5 3.5t11.5 0.5t20.5 0.5h24q20 0 20 -7q0 -6 -15 -24l-54 -65q-27 -32 -37.5 -38.5t-41.5 -6.5h-28q-32 0 -41 5.5t-38 39.5l-56 66q-14 17 -14 23q0 7 21 7h20q41 0 49 -9z" />
    <glyph glyph-name="napostrophe" unicode="&#x149;" horiz-adv-x="698" 
d="M633 317v-219q0 -59 -13.5 -84.5t-52.5 -25.5t-53 25.5t-14 84.5v192q0 76 -22.5 106t-67.5 30q-38 0 -67 -21.5t-41 -55.5q-11 -30 -11 -113v-138q0 -59 -14.5 -84.5t-51.5 -25.5q-40 0 -53.5 26t-13.5 84v329q0 59 14 81t49 22q62 0 62 -90q67 90 172 90q96 0 142 -64
q23 -31 29.5 -65t6.5 -84zM40 581l-7 -1q-28 0 -50 22t-22 53t22.5 52t54.5 21q37 0 60 -28.5t23 -80.5q0 -71 -42.5 -127.5t-82.5 -56.5q-15 0 -24 9.5t-9 23.5q0 22 25 35q49 27 52 78z" />
    <glyph glyph-name="Eng" unicode="&#x14a;" horiz-adv-x="760" 
d="M224 641v-27q87 114 230 114q127 0 192 -92.5t65 -298.5q0 -179 -64 -264t-172 -85q-71 0 -116.5 18.5t-45.5 57.5q0 23 16 39.5t37 16.5q14 0 41.5 -8.5t40.5 -8.5q116 0 116 223q0 38 -0.5 59t-3.5 56t-9.5 55.5t-19 45.5t-30 38.5t-45 23t-62.5 9.5q-58 0 -100 -33
t-56 -71.5t-14 -117.5v-315q0 -46 -21 -67t-52 -21q-32 0 -51.5 22.5t-19.5 65.5v565q0 45 21 66t52 21t51 -23t20 -64z" />
    <glyph glyph-name="eng" unicode="&#x14b;" horiz-adv-x="604" 
d="M540 317v-317q0 -118 -32.5 -163.5t-125.5 -45.5q-118 0 -118 63q0 24 14 39t36 15q4 0 22.5 -1.5t26.5 -1.5q28 0 36 23t8 72v291q0 74 -22.5 104.5t-68.5 30.5q-65 0 -92 -46t-27 -144v-138q0 -61 -14.5 -85.5t-51.5 -24.5q-41 0 -54 25.5t-13 84.5v329q0 60 14.5 81.5
t48.5 21.5q62 0 62 -91q67 91 173 91q178 0 178 -213z" />
    <glyph glyph-name="Omacron" unicode="&#x14c;" horiz-adv-x="792" 
d="M46 355q0 171 92.5 272t254.5 101q169 0 261 -101t92 -268t-91 -269t-258 -102t-259 100.5t-92 266.5zM599 358q0 118 -54 186.5t-149 68.5q-92 0 -147.5 -66t-55.5 -189t56.5 -189t145.5 -66t146.5 66t57.5 189zM513 808h-213q-58 0 -76.5 7.5t-18.5 28.5t18 28t77 7
h213q73 0 73 -35q0 -10 -3.5 -16.5t-20.5 -13t-49 -6.5z" />
    <glyph glyph-name="omacron" unicode="&#x14d;" horiz-adv-x="604" 
d="M302 530q122 0 194 -76t72 -195t-72.5 -195t-190.5 -76q-126 0 -197.5 75.5t-71.5 195.5q0 119 72 195t194 76zM302 87q60 0 95.5 46t35.5 126t-35.5 126t-95.5 46t-95.5 -46t-35.5 -126t35.5 -126t95.5 -46zM416 613h-213q-58 0 -76.5 7.5t-18.5 28.5t18 28t77 7h213
q73 0 73 -35q0 -10 -3.5 -16.5t-20.5 -13t-49 -6.5z" />
    <glyph glyph-name="Obreve" unicode="&#x14e;" horiz-adv-x="792" 
d="M46 355q0 171 92.5 272t254.5 101q169 0 261 -101t92 -268t-91 -269t-258 -102t-259 100.5t-92 266.5zM599 358q0 118 -54 186.5t-149 68.5q-92 0 -147.5 -66t-55.5 -189t56.5 -189t145.5 -66t146.5 66t57.5 189zM272 945q22 0 31 -39q20 -62 93 -62q78 0 94 75
q6 26 28 26q12 0 20.5 -10t8.5 -23q0 -49 -43 -92t-107 -43q-67 0 -111 43t-44 92q0 12 9 22.5t21 10.5z" />
    <glyph glyph-name="obreve" unicode="&#x14f;" horiz-adv-x="604" 
d="M302 530q122 0 194 -76t72 -195t-72.5 -195t-190.5 -76q-126 0 -197.5 75.5t-71.5 195.5q0 119 72 195t194 76zM302 87q60 0 95.5 46t35.5 126t-35.5 126t-95.5 46t-95.5 -46t-35.5 -126t35.5 -126t95.5 -46zM176 756q22 0 31 -39q20 -62 93 -62q78 0 94 75q6 26 28 26
q12 0 20.5 -10t8.5 -23q0 -49 -43 -92t-107 -43q-67 0 -111 43t-44 92q0 12 9 22.5t21 10.5z" />
    <glyph glyph-name="Ohungarumlaut" unicode="&#x150;" horiz-adv-x="792" 
d="M46 355q0 171 92.5 272t254.5 101q169 0 261 -101t92 -268t-91 -269t-258 -102t-259 100.5t-92 266.5zM599 358q0 118 -54 186.5t-149 68.5q-92 0 -147.5 -66t-55.5 -189t56.5 -189t145.5 -66t146.5 66t57.5 189zM461 824l18 34q21 39 35 47t59 8h49q24 0 24 -7
q0 -8 -51 -55q-58 -52 -76.5 -63.5t-55.5 -11.5q-19 0 -19 12q0 4 17 36zM287 824l18 34q21 39 35 47t59 8h49q24 0 24 -7q0 -8 -51 -55q-58 -52 -76.5 -63.5t-55.5 -11.5q-19 0 -19 12q0 4 17 36z" />
    <glyph glyph-name="ohungarumlaut" unicode="&#x151;" horiz-adv-x="604" 
d="M302 530q122 0 194 -76t72 -195t-72.5 -195t-190.5 -76q-126 0 -197.5 75.5t-71.5 195.5q0 119 72 195t194 76zM302 87q60 0 95.5 46t35.5 126t-35.5 126t-95.5 46t-95.5 -46t-35.5 -126t35.5 -126t95.5 -46zM367 632l18 34q21 39 35 47t59 8h49q24 0 24 -7q0 -8 -51 -55
q-58 -52 -76.5 -63.5t-55.5 -11.5q-19 0 -19 12q0 4 17 36zM193 632l18 34q21 39 35 47t59 8h49q24 0 24 -7q0 -8 -51 -55q-58 -52 -76.5 -63.5t-55.5 -11.5q-19 0 -19 12q0 4 17 36z" />
    <glyph glyph-name="OE" unicode="&#x152;" horiz-adv-x="1031" 
d="M659 317v-205h258q50 0 72.5 -12t22.5 -43q0 -33 -21 -45t-74 -12h-266q-28 0 -41 0.5t-31.5 5t-26.5 13.5t-14 25.5t-6 42.5q-13 -19 -23.5 -30.5t-34.5 -30t-59 -28.5t-80 -10q-80 0 -140 32.5t-92.5 87.5t-48 117.5t-15.5 132.5q0 74 16.5 138.5t50 117.5t90.5 83.5
t133 30.5q43 0 78 -9t60.5 -27t36.5 -28.5t28 -29.5q0 24 6.5 40t15 24.5t27 12.5t31.5 4.5t41 0.5h247q97 0 97 -55q0 -33 -21 -45t-76 -12h-241v-175h216q52 0 74 -13t22 -42q0 -31 -21.5 -44t-74.5 -13h-216zM520 344v45q0 22 -1 40t-10 55.5t-24.5 62.5t-49 45.5
t-80.5 20.5q-40 0 -70.5 -14.5t-48 -40t-28.5 -51t-15.5 -58t-5.5 -49t-1 -36.5q0 -261 170 -261q81 0 122.5 65t41.5 176z" />
    <glyph glyph-name="oe" unicode="&#x153;" horiz-adv-x="958" 
d="M799 226h-246q4 -76 40.5 -112.5t91.5 -36.5q81 0 129 59q17 21 28 29.5t27 8.5q19 0 31.5 -14t12.5 -32q0 -34 -38 -72q-68 -68 -185 -68q-58 0 -102 14.5t-62 28.5t-40 38q-73 -81 -188 -81q-120 0 -190 78.5t-70 192.5q0 35 7.5 69.5t26 71.5t47 65.5t74.5 46.5
t103 18q109 0 187 -78q20 21 35.5 33.5t57.5 28.5t94 16q57 0 102 -17t72 -42t45 -57t24.5 -59.5t6.5 -51.5q0 -42 -24.5 -59.5t-96.5 -17.5zM553 303h241q-11 135 -120 135q-57 0 -89 -40.5t-32 -94.5zM299 87q52 0 91 41t39 131q0 27 -5.5 53.5t-18.5 55t-40.5 46
t-65.5 17.5q-65 0 -98.5 -51t-33.5 -125q0 -68 33 -118t99 -50z" />
    <glyph glyph-name="Racute" unicode="&#x154;" horiz-adv-x="719" 
d="M272 306h-51v-198q0 -65 -13.5 -92.5t-60.5 -27.5q-37 0 -53.5 23.5t-16.5 96.5v486q0 45 2 64.5t15 35t35.5 19t68.5 3.5h203q121 0 190 -47.5t69 -150.5q0 -159 -182 -195q72 -41 133 -143q62 -103 62 -134q0 -24 -20.5 -41t-50.5 -17q-26 0 -45 15.5t-56 76.5l-59 97
q-50 82 -82.5 105.5t-87.5 23.5zM356 604h-135v-195h130q87 0 124.5 25.5t37.5 75.5q0 58 -36.5 76t-120.5 18zM305 824l18 34q21 39 35 47t59 8h49q24 0 24 -7q0 -8 -51 -55q-58 -52 -76.5 -63.5t-55.5 -11.5q-19 0 -19 12q0 4 17 36z" />
    <glyph glyph-name="racute" unicode="&#x155;" horiz-adv-x="438" 
d="M68 98v342q0 90 66 90q62 0 64 -83q42 83 115 83q41 0 81 -21.5t40 -54.5q0 -23 -16 -39.5t-36 -16.5q-4 0 -39 8.5t-47 8.5q-50 0 -72.5 -49.5t-22.5 -185.5v-77q0 -61 -12 -88t-54 -27q-40 0 -53.5 25t-13.5 85zM187 632l18 34q21 39 35 47t59 8h49q24 0 24 -7
q0 -8 -51 -55q-58 -52 -76.5 -63.5t-55.5 -11.5q-19 0 -19 12q0 4 17 36z" />
    <glyph glyph-name="Rcommaaccent" unicode="&#x156;" horiz-adv-x="719" 
d="M273 306h-51v-198q0 -65 -13.5 -92.5t-60.5 -27.5q-37 0 -53.5 23.5t-16.5 96.5v486q0 45 2 64.5t15 35t35.5 19t68.5 3.5h203q121 0 190 -47.5t69 -150.5q0 -159 -182 -195q72 -41 133 -143q62 -103 62 -134q0 -24 -20.5 -41t-50.5 -17q-26 0 -45 15.5t-56 76.5l-59 97
q-50 82 -82.5 105.5t-87.5 23.5zM357 604h-135v-195h130q87 0 124.5 25.5t37.5 75.5q0 58 -36.5 76t-120.5 18zM365 -53q54 0 92 -30t38 -68q0 -39 -40.5 -64.5t-115.5 -25.5q-97 0 -97 32q0 24 25 24q10 0 33.5 -2t36.5 -2q32 0 51 11t19 29q0 35 -55 35q-9 0 -22.5 -2.5
t-14.5 -2.5q-9 0 -15 7.5t-6 16.5q0 42 71 42z" />
    <glyph glyph-name="rcommaaccent" unicode="&#x157;" horiz-adv-x="438" 
d="M68 98v342q0 90 66 90q62 0 64 -83q42 83 115 83q41 0 81 -21.5t40 -54.5q0 -23 -16 -39.5t-36 -16.5q-4 0 -39 8.5t-47 8.5q-50 0 -72.5 -49.5t-22.5 -185.5v-77q0 -61 -12 -88t-54 -27q-40 0 -53.5 25t-13.5 85zM126 -52q54 0 92 -30t38 -68q0 -39 -40.5 -64.5
t-115.5 -25.5q-97 0 -97 32q0 24 25 24q10 0 33.5 -2t36.5 -2q32 0 51 11t19 29q0 35 -55 35q-9 0 -22.5 -2.5t-14.5 -2.5q-9 0 -15 7.5t-6 16.5q0 42 71 42z" />
    <glyph glyph-name="Rcaron" unicode="&#x158;" horiz-adv-x="719" 
d="M272 306h-51v-198q0 -65 -13.5 -92.5t-60.5 -27.5q-37 0 -53.5 23.5t-16.5 96.5v486q0 45 2 64.5t15 35t35.5 19t68.5 3.5h203q121 0 190 -47.5t69 -150.5q0 -159 -182 -195q72 -41 133 -143q62 -103 62 -134q0 -24 -20.5 -41t-50.5 -17q-26 0 -45 15.5t-56 76.5l-59 97
q-50 82 -82.5 105.5t-87.5 23.5zM356 604h-135v-195h130q87 0 124.5 25.5t37.5 75.5q0 58 -36.5 76t-120.5 18zM254 910l72 -83l49 57q5 6 12 15t9.5 10.5t6 5t10.5 3.5t11.5 0.5t20.5 0.5h24q20 0 20 -7q0 -6 -15 -24l-54 -65q-27 -32 -37.5 -38.5t-41.5 -6.5h-28
q-32 0 -41 5.5t-38 39.5l-56 66q-14 17 -14 23q0 7 21 7h20q42 0 49 -9z" />
    <glyph glyph-name="rcaron" unicode="&#x159;" horiz-adv-x="438" 
d="M68 98v342q0 90 66 90q62 0 64 -83q42 83 115 83q41 0 81 -21.5t40 -54.5q0 -23 -16 -39.5t-36 -16.5q-4 0 -39 8.5t-47 8.5q-50 0 -72.5 -49.5t-22.5 -185.5v-77q0 -61 -12 -88t-54 -27q-40 0 -53.5 25t-13.5 85zM146 748l72 -83l49 57q5 6 12 15t9.5 10.5t6 5t10.5 3.5
t11.5 0.5t20.5 0.5h24q20 0 20 -7q0 -6 -15 -24l-54 -65q-27 -32 -37.5 -38.5t-41.5 -6.5h-28q-32 0 -41 5.5t-38 39.5l-56 66q-14 17 -14 23q0 7 21 7h20q41 0 49 -9z" />
    <glyph glyph-name="Sacute" unicode="&#x15a;" horiz-adv-x="667" 
d="M202 541q0 -23 9 -37t45 -31t107 -34q148 -35 203.5 -85.5t55.5 -138.5q0 -101 -77 -164t-206 -63q-136 0 -211 65t-75 146q0 25 18.5 44t47.5 19q26 0 39 -14.5t33 -60.5q41 -93 143 -93q63 0 104.5 29t41.5 76q0 27 -10 45t-47 36.5t-106 34.5q-106 25 -146 46
q-104 54 -104 167q0 91 73 145.5t196 54.5q118 0 187 -55.5t69 -119.5q0 -25 -19 -46t-47 -21q-25 0 -39 13.5t-32 51.5q-38 74 -128 74q-54 0 -89.5 -23t-35.5 -61zM279 824l18 34q21 39 35 47t59 8h49q24 0 24 -7q0 -8 -51 -55q-58 -52 -76.5 -63.5t-55.5 -11.5
q-19 0 -19 12q0 4 17 36z" />
    <glyph glyph-name="sacute" unicode="&#x15b;" horiz-adv-x="542" 
d="M170 391q0 -26 26.5 -40.5t120.5 -37.5q181 -43 181 -151q0 -84 -60.5 -129t-171.5 -45q-105 0 -164.5 43.5t-59.5 99.5q0 22 15.5 37.5t38.5 15.5q31 0 55 -39q44 -71 126 -71q39 0 64.5 18t25.5 45q0 19 -7 30.5t-37.5 25t-92.5 27.5q-182 40 -182 155q0 65 55 110
t157 45q91 0 151.5 -38.5t60.5 -83.5q0 -23 -15 -38t-40 -15q-38 0 -70 44q-31 45 -93 45q-36 0 -60 -14t-24 -39zM216 632l18 34q21 39 35 47t59 8h49q24 0 24 -7q0 -8 -51 -55q-58 -52 -76.5 -63.5t-55.5 -11.5q-19 0 -19 12q0 4 17 36z" />
    <glyph glyph-name="Scircumflex" unicode="&#x15c;" horiz-adv-x="667" 
d="M202 541q0 -23 9 -37t45 -31t107 -34q148 -35 203.5 -85.5t55.5 -138.5q0 -101 -77 -164t-206 -63q-136 0 -211 65t-75 146q0 25 18.5 44t47.5 19q26 0 39 -14.5t33 -60.5q41 -93 143 -93q63 0 104.5 29t41.5 76q0 27 -10 45t-47 36.5t-106 34.5q-106 25 -146 46
q-104 54 -104 167q0 91 73 145.5t196 54.5q118 0 187 -55.5t69 -119.5q0 -25 -19 -46t-47 -21q-25 0 -39 13.5t-32 51.5q-38 74 -128 74q-54 0 -89.5 -23t-35.5 -61zM410 783l-72 83l-49 -57q-4 -5 -9 -11t-7 -8.5t-5.5 -6.5t-5.5 -4.5t-6.5 -3t-8.5 -1.5t-12 0t-16 0h-24
q-20 0 -20 7q0 6 15 24l54 65q26 32 37.5 38.5t41.5 6.5h28q29 0 41 -7t38 -38l56 -66q14 -17 14 -23q0 -7 -21 -7h-20q-41 0 -49 9z" />
    <glyph glyph-name="scircumflex" unicode="&#x15d;" horiz-adv-x="542" 
d="M170 391q0 -26 26.5 -40.5t120.5 -37.5q181 -43 181 -151q0 -84 -60.5 -129t-171.5 -45q-105 0 -164.5 43.5t-59.5 99.5q0 22 15.5 37.5t38.5 15.5q31 0 55 -39q44 -71 126 -71q39 0 64.5 18t25.5 45q0 19 -7 30.5t-37.5 25t-92.5 27.5q-182 40 -182 155q0 65 55 110
t157 45q91 0 151.5 -38.5t60.5 -83.5q0 -23 -15 -38t-40 -15q-38 0 -70 44q-31 45 -93 45q-36 0 -60 -14t-24 -39zM336 595l-72 83l-49 -57q-4 -5 -9 -11t-7 -8.5t-5.5 -6.5t-5.5 -4.5t-6.5 -3t-8.5 -1.5t-12 0t-16 0h-24q-20 0 -20 7q0 6 15 24l54 65q26 32 37.5 38.5
t41.5 6.5h28q29 0 41 -7t38 -38l56 -66q14 -17 14 -23q0 -7 -21 -7h-20q-41 0 -49 9z" />
    <glyph glyph-name="Scedilla" unicode="&#x15e;" horiz-adv-x="667" 
d="M353 -12q48 -6 79.5 -34.5t31.5 -62.5q0 -40 -40.5 -65.5t-114.5 -25.5q-98 0 -98 32q0 24 26 24q10 0 33.5 -2t35.5 -2q33 0 51.5 11t18.5 29q0 35 -55 35q-9 0 -22.5 -2.5t-15.5 -2.5q-7 0 -13 7t-6 16q0 39 55 43q-126 6 -196 70t-70 141q0 25 18.5 44t47.5 19
q40 0 62 -51l11 -26q39 -91 141 -91q65 0 105.5 29t40.5 76q0 49 -37.5 72t-132.5 45q-125 29 -184 75t-59 137t73.5 145.5t196.5 54.5q117 0 186.5 -55.5t69.5 -119.5q0 -26 -19 -46.5t-47 -20.5q-22 0 -36 11.5t-29 41.5q-24 48 -53 67t-80 19q-56 0 -91 -23.5t-35 -59.5
q0 -34 28.5 -56t125.5 -45q148 -35 207 -83t59 -143q0 -97 -71 -160t-198 -67z" />
    <glyph glyph-name="scedilla" unicode="&#x15f;" horiz-adv-x="542" 
d="M279 -12q50 -3 83.5 -32.5t33.5 -64.5q0 -40 -40 -65.5t-115 -25.5q-97 0 -97 32q0 24 25 24q10 0 33.5 -2t35.5 -2q32 0 51.5 11t19.5 29q0 35 -55 35q-12 0 -24.5 -2.5t-13.5 -2.5q-20 0 -20 24q0 19 12 29t47 13q-99 0 -156 45.5t-57 97.5q0 22 15.5 38t39.5 16
q30 0 53 -39q24 -43 55 -57.5t71 -14.5q41 0 66.5 18t25.5 45q0 17 -4.5 26.5t-31 24t-78.5 27.5q-117 29 -161.5 64.5t-44.5 95.5q0 65 56 110t156 45q90 0 151 -38t61 -85q0 -22 -15.5 -37.5t-39.5 -15.5q-20 0 -35 10t-37 38q-34 43 -90 43q-35 0 -60 -15t-25 -39
q0 -26 25 -40t122 -38q96 -23 139 -60.5t43 -95.5q0 -76 -58 -121t-162 -48z" />
    <glyph glyph-name="Scaron" unicode="&#x160;" horiz-adv-x="667" 
d="M622 215q0 -98 -74.5 -162.5t-208.5 -64.5q-70 0 -124.5 18.5t-84 44t-48 57t-24 53.5t-5.5 38q0 24 18 43.5t48 19.5q19 0 32.5 -10.5t20 -23t20.5 -44.5q37 -90 142 -90q58 0 102 27t44 78q0 23 -10.5 40.5t-23 28t-40.5 21t-44 14.5t-53 13q-124 28 -172 67
q-70 56 -70 145q0 91 72 145.5t197 54.5q75 0 129.5 -21.5t79.5 -52.5t36 -56.5t11 -44.5q0 -23 -18 -45t-48 -22q-26 0 -40 14.5t-31 50.5q-7 14 -13 22.5t-20.5 22.5t-38.5 21.5t-56 7.5q-50 0 -87.5 -22t-37.5 -62q0 -18 10 -33t22 -24t37.5 -18.5t39.5 -13l46 -11.5
q85 -20 127 -37t72 -41q66 -52 66 -148zM333 814l49 57q12 15 18.5 21.5t13.5 10.5t9 4t12 -0.5t17 -0.5h24q20 0 20 -7q0 -6 -15 -24l-54 -65q-25 -30 -36.5 -37.5t-42.5 -7.5h-28q-31 0 -41.5 7t-37.5 38l-56 66q-14 17 -14 23q0 7 21 7h20q39 0 49 -9z" />
    <glyph glyph-name="scaron" unicode="&#x161;" horiz-adv-x="542" 
d="M498 162q0 -89 -64 -131.5t-168 -42.5q-53 0 -95 11.5t-65 28t-38.5 37.5t-20.5 37t-5 29q0 22 15.5 37.5t38.5 15.5q21 0 33.5 -11.5t21.5 -27.5t20.5 -32t38.5 -27.5t67 -11.5t65 18t25 45q0 32 -33 50.5t-80 29t-93.5 24.5t-79.5 47.5t-33 86.5q0 20 8 42.5t28.5 50
t66 45t109.5 17.5q100 0 156 -40.5t56 -81.5q0 -21 -14 -37t-41 -16q-12 0 -19.5 2t-21.5 13t-31 32q-33 42 -91 42q-29 0 -56.5 -12t-27.5 -41q0 -27 29 -41.5t118 -36.5q181 -44 181 -151zM271 635l49 57q12 15 18.5 21.5t13.5 10.5t9 4t12 -0.5t17 -0.5h24q20 0 20 -7
q0 -6 -15 -24l-54 -65q-25 -30 -36.5 -37.5t-42.5 -7.5h-28q-31 0 -41.5 7t-37.5 38l-56 66q-14 17 -14 23q0 7 21 7h20q39 0 49 -9z" />
    <glyph glyph-name="Tcedilla" unicode="&#x162;" horiz-adv-x="625" 
d="M516 604h-131v-496q0 -65 -16 -92.5t-56 -27.5q-45 0 -58.5 28t-13.5 92v496h-132q-59 0 -79.5 13t-20.5 43q0 31 18.5 43.5t81.5 12.5h407q57 0 78.5 -11t21.5 -45q0 -30 -19 -43t-81 -13zM309 -52q54 0 92 -30t38 -68q0 -39 -40.5 -64.5t-115.5 -25.5q-97 0 -97 32
q0 24 25 24q10 0 33.5 -2t36.5 -2q32 0 51 11t19 29q0 35 -55 35q-9 0 -22.5 -2.5t-14.5 -2.5q-9 0 -15 7.5t-6 16.5q0 42 71 42z" />
    <glyph glyph-name="tcedilla" unicode="&#x163;" horiz-adv-x="354" 
d="M76 518h15v80q0 62 13.5 87.5t52.5 25.5q37 0 52 -25.5t15 -76.5v-91h26q47 0 64 -11t17 -36q0 -49 -82 -49h-25v-246q0 -53 7.5 -69.5t37.5 -16.5q11 0 33 4t27 4q20 0 32.5 -13t12.5 -32q0 -65 -138 -65q-41 0 -69 10t-43 24t-22.5 40.5t-9 47t-1.5 56.5v256h-18
q-59 0 -59 48t62 48zM216 -51q54 0 92 -30t38 -68q0 -39 -40.5 -64.5t-115.5 -25.5q-97 0 -97 32q0 24 25 24q10 0 33.5 -2t36.5 -2q32 0 51 11t19 29q0 35 -55 35q-9 0 -22.5 -2.5t-14.5 -2.5q-9 0 -15 7.5t-6 16.5q0 42 71 42z" />
    <glyph glyph-name="Tcaron" unicode="&#x164;" horiz-adv-x="625" 
d="M516 604h-131v-496q0 -65 -16 -92.5t-56 -27.5q-45 0 -58.5 28t-13.5 92v496h-132q-59 0 -79.5 13t-20.5 43q0 31 18.5 43.5t81.5 12.5h407q57 0 78.5 -11t21.5 -45q0 -30 -19 -43t-81 -13zM240 910l72 -83l49 57q5 6 12 15t9.5 10.5t6 5t10.5 3.5t11.5 0.5t20.5 0.5h24
q20 0 20 -7q0 -6 -15 -24l-54 -65q-27 -32 -37.5 -38.5t-41.5 -6.5h-28q-32 0 -41 5.5t-38 39.5l-56 66q-14 17 -14 23q0 7 21 7h20q41 0 49 -9z" />
    <glyph glyph-name="tcaron" unicode="&#x165;" horiz-adv-x="354" 
d="M324 637q-26 0 -42.5 13t-16.5 32q0 20 17 33t41 13q28 0 45 -17.5t17 -49.5q0 -43 -31.5 -78t-62.5 -35q-25 0 -25 20q0 12 19 21q36 15 39 48zM75 519h16v79q0 60 12.5 86t54.5 26q34 0 50 -22.5t16 -79.5v-89h26q47 0 64.5 -11.5t17.5 -36.5q0 -49 -82 -49h-26v-245
q0 -51 9 -68.5t36 -17.5q10 0 34 4t27 4q19 0 31.5 -13.5t12.5 -32.5q0 -65 -139 -65q-89 0 -116.5 40t-27.5 139v255h-16q-30 0 -45.5 14t-15.5 34q0 49 61 49z" />
    <glyph glyph-name="Tbar" unicode="&#x166;" horiz-adv-x="625" 
d="M444 270h-59v-162q0 -30 -2 -48t-9 -36.5t-22 -27t-40 -8.5q-43 0 -57.5 28t-14.5 92v162h-61q-53 0 -75 9.5t-22 35.5q0 23 21 34t76 11h61v244h-131q-59 0 -79.5 13t-20.5 43t20.5 43t79.5 13h408q58 0 78.5 -13.5t20.5 -42.5q0 -30 -20.5 -43t-78.5 -13h-132v-244h59
q58 0 77.5 -12t19.5 -33q0 -23 -21 -34t-76 -11z" />
    <glyph glyph-name="tbar" unicode="&#x167;" horiz-adv-x="354" 
d="M224 422v-88h49q34 0 46.5 -8t12.5 -26q0 -37 -59 -37h-49v-86q0 -40 7 -60t14.5 -23t23.5 -3q10 0 34 4t27 4q19 0 31.5 -13.5t12.5 -32.5q0 -65 -139 -65q-84 0 -114 38t-30 141v96h-28q-49 0 -49 36q0 35 49 35h28v88h-16q-31 0 -46 14t-15 34q0 49 61 49h16v79
q0 60 12.5 86t54.5 26q40 0 53 -24t13 -78v-89h26q47 0 64.5 -11.5t17.5 -36.5q0 -49 -82 -49h-26z" />
    <glyph glyph-name="Utilde" unicode="&#x168;" horiz-adv-x="760" 
d="M223 608v-320q0 -103 40.5 -144t118.5 -41q77 0 116 41.5t39 140.5v323q0 63 13 91.5t58 28.5q44 0 58.5 -27.5t14.5 -92.5v-312q0 -163 -70 -235.5t-219 -72.5q-166 0 -239.5 70.5t-73.5 237.5v312q0 48 3 68q3 19 24 35.5t45 16.5q45 0 58.5 -27.5t13.5 -92.5zM302 832
q-14 0 -23.5 -15.5t-18 -31t-17.5 -15.5q-28 0 -28 37q0 38 23.5 68t57.5 30q36 0 80 -23q65 -28 79 -28q17 0 24.5 7.5t13.5 30.5q6 24 25 24q11 0 19.5 -10t8.5 -24q0 -36 -23 -68t-60 -32q-23 0 -87 25t-74 25z" />
    <glyph glyph-name="utilde" unicode="&#x169;" horiz-adv-x="604" 
d="M65 186v234q0 60 13.5 85t52.5 25q40 0 53.5 -26.5t13.5 -86.5v-183q0 -84 25 -112.5t65 -28.5q38 0 67.5 21t39.5 52q11 33 11 121v133q0 61 14.5 85.5t52.5 24.5q40 0 53 -25.5t13 -84.5v-329q0 -57 -14 -80t-48 -23q-62 0 -62 92q-68 -92 -176 -92q-78 0 -126 46
t-48 152zM223 640q-14 0 -23.5 -15.5t-18 -31t-17.5 -15.5q-28 0 -28 37q0 38 23.5 68t57.5 30q36 0 80 -23q65 -28 79 -28q17 0 24.5 7.5t13.5 30.5q6 24 25 24q11 0 19.5 -10t8.5 -24q0 -36 -23 -68t-60 -32q-23 0 -87 25t-74 25z" />
    <glyph glyph-name="Umacron" unicode="&#x16a;" horiz-adv-x="760" 
d="M223 608v-320q0 -103 40.5 -144t118.5 -41q77 0 116 41.5t39 140.5v323q0 63 13 91.5t58 28.5q44 0 58.5 -27.5t14.5 -92.5v-312q0 -163 -70 -235.5t-219 -72.5q-166 0 -239.5 70.5t-73.5 237.5v312q0 48 3 68q3 19 24 35.5t45 16.5q45 0 58.5 -27.5t13.5 -92.5zM499 808
h-213q-58 0 -76.5 7.5t-18.5 28.5t18 28t77 7h213q73 0 73 -35q0 -10 -3.5 -16.5t-20.5 -13t-49 -6.5z" />
    <glyph glyph-name="umacron" unicode="&#x16b;" horiz-adv-x="604" 
d="M65 186v234q0 60 13.5 85t52.5 25q40 0 53.5 -26.5t13.5 -86.5v-183q0 -84 25 -112.5t65 -28.5q38 0 67.5 21t39.5 52q11 33 11 121v133q0 61 14.5 85.5t52.5 24.5q40 0 53 -25.5t13 -84.5v-329q0 -57 -14 -80t-48 -23q-62 0 -62 92q-68 -92 -176 -92q-78 0 -126 46
t-48 152zM417 613h-213q-58 0 -76.5 7.5t-18.5 28.5t18 28t77 7h213q73 0 73 -35q0 -10 -3.5 -16.5t-20.5 -13t-49 -6.5z" />
    <glyph glyph-name="Ubreve" unicode="&#x16c;" horiz-adv-x="760" 
d="M223 608v-320q0 -103 40.5 -144t118.5 -41q77 0 116 41.5t39 140.5v323q0 63 13 91.5t58 28.5q44 0 58.5 -27.5t14.5 -92.5v-312q0 -163 -70 -235.5t-219 -72.5q-166 0 -239.5 70.5t-73.5 237.5v312q0 48 3 68q4 19 24.5 35.5t44.5 16.5q45 0 58.5 -27.5t13.5 -92.5z
M257 945q22 0 31 -39q20 -62 93 -62q78 0 94 75q6 26 28 26q12 0 20.5 -10t8.5 -23q0 -49 -43 -92t-107 -43q-67 0 -111 43t-44 92q0 12 9 22.5t21 10.5z" />
    <glyph glyph-name="ubreve" unicode="&#x16d;" horiz-adv-x="604" 
d="M65 186v234q0 60 13.5 85t52.5 25q40 0 53.5 -26.5t13.5 -86.5v-183q0 -84 25 -112.5t65 -28.5q38 0 67.5 21t39.5 52q11 33 11 121v133q0 61 14.5 85.5t52.5 24.5q40 0 53 -25.5t13 -84.5v-329q0 -57 -14 -80t-48 -23q-62 0 -62 92q-68 -92 -176 -92q-78 0 -126 46
t-48 152zM188 756q22 0 31 -39q20 -62 93 -62q78 0 94 75q6 26 28 26q12 0 20.5 -10t8.5 -23q0 -49 -43 -92t-107 -43q-67 0 -111 43t-44 92q0 12 9 22.5t21 10.5z" />
    <glyph glyph-name="Uring" unicode="&#x16e;" horiz-adv-x="760" 
d="M223 608v-320q0 -103 40.5 -144t118.5 -41q77 0 116 41.5t39 140.5v323q0 63 13 91.5t58 28.5q44 0 58.5 -27.5t14.5 -92.5v-312q0 -163 -70 -235.5t-219 -72.5q-166 0 -239.5 70.5t-73.5 237.5v312q0 48 3 68q4 19 24.5 35.5t44.5 16.5q45 0 58.5 -27.5t13.5 -92.5z
M381 957q41 0 70.5 -29.5t29.5 -71.5q0 -41 -29.5 -70.5t-70.5 -29.5q-42 0 -71.5 29.5t-29.5 70.5q0 42 29.5 71.5t71.5 29.5zM381 807q20 0 34.5 14.5t14.5 34.5q0 21 -14.5 35.5t-34.5 14.5q-21 0 -35.5 -14.5t-14.5 -35.5q0 -20 14.5 -34.5t35.5 -14.5z" />
    <glyph glyph-name="uring" unicode="&#x16f;" horiz-adv-x="604" 
d="M65 186v234q0 60 13.5 85t52.5 25q40 0 53.5 -26.5t13.5 -86.5v-183q0 -84 25 -112.5t65 -28.5q38 0 67.5 21t39.5 52q11 33 11 121v133q0 61 14.5 85.5t52.5 24.5q40 0 53 -25.5t13 -84.5v-329q0 -57 -14 -80t-48 -23q-62 0 -62 92q-68 -92 -176 -92q-78 0 -126 46
t-48 152zM302 765q41 0 70.5 -29.5t29.5 -71.5q0 -41 -29.5 -70.5t-70.5 -29.5q-42 0 -71.5 29.5t-29.5 70.5q0 42 29.5 71.5t71.5 29.5zM302 615q20 0 34.5 14.5t14.5 34.5q0 21 -14.5 35.5t-34.5 14.5q-21 0 -35.5 -14.5t-14.5 -35.5q0 -20 14.5 -34.5t35.5 -14.5z" />
    <glyph glyph-name="Uhungarumlaut" unicode="&#x170;" horiz-adv-x="760" 
d="M223 608v-320q0 -103 40.5 -144t118.5 -41q77 0 116 41.5t39 140.5v323q0 63 13 91.5t58 28.5q44 0 58.5 -27.5t14.5 -92.5v-312q0 -163 -70 -235.5t-219 -72.5q-166 0 -239.5 70.5t-73.5 237.5v312q0 48 3 68q4 19 24.5 35.5t44.5 16.5q45 0 58.5 -27.5t13.5 -92.5z
M446 824l18 34q21 39 35 47t59 8h49q24 0 24 -7q0 -8 -51 -55q-58 -52 -76.5 -63.5t-55.5 -11.5q-19 0 -19 12q0 4 17 36zM272 824l18 34q21 39 35 47t59 8h49q24 0 24 -7q0 -8 -51 -55q-58 -52 -76.5 -63.5t-55.5 -11.5q-19 0 -19 12q0 4 17 36z" />
    <glyph glyph-name="uhungarumlaut" unicode="&#x171;" horiz-adv-x="604" 
d="M65 186v234q0 60 13.5 85t52.5 25q40 0 53.5 -26.5t13.5 -86.5v-183q0 -84 25 -112.5t65 -28.5q38 0 67.5 21t39.5 52q11 33 11 121v133q0 61 14.5 85.5t52.5 24.5q40 0 53 -25.5t13 -84.5v-329q0 -57 -14 -80t-48 -23q-62 0 -62 92q-68 -92 -176 -92q-78 0 -126 46
t-48 152zM367 632l18 34q21 39 35 47t59 8h49q24 0 24 -7q0 -8 -51 -55q-58 -52 -76.5 -63.5t-55.5 -11.5q-19 0 -19 12q0 4 17 36zM193 632l18 34q21 39 35 47t59 8h49q24 0 24 -7q0 -8 -51 -55q-58 -52 -76.5 -63.5t-55.5 -11.5q-19 0 -19 12q0 4 17 36z" />
    <glyph glyph-name="Uogonek" unicode="&#x172;" horiz-adv-x="760" 
d="M409 -11q-6 -29 -6 -49q0 -34 18.5 -54.5t49.5 -20.5q9 0 35.5 6.5t31.5 6.5q28 0 28 -32q0 -28 -43.5 -42t-85.5 -14q-48 0 -81 31t-33 85q0 32 12 83q-125 8 -190 78t-65 229v311q0 64 14 92.5t58 28.5t58 -28t14 -93v-319v-12q0 -85 36 -127t122 -46q76 0 115.5 40
t39.5 142v322q0 65 13.5 93t58.5 28q43 0 57.5 -28.5t14.5 -92.5v-311q0 -165 -72.5 -235t-199.5 -72z" />
    <glyph glyph-name="uogonek" unicode="&#x173;" horiz-adv-x="604" 
d="M512 -12q-7 -18 -7 -47q0 -35 18.5 -55.5t48.5 -20.5q10 0 36 6.5t31 6.5q28 0 28 -32q0 -28 -43.5 -42t-85.5 -14q-46 0 -80 30t-34 86q0 36 15 82q-24 17 -24 92q-68 -92 -176 -92q-175 0 -175 199v233q0 61 14.5 85.5t52.5 24.5q40 0 53 -26t13 -84v-183
q0 -82 23.5 -113t67.5 -31q36 0 65.5 20.5t41.5 52.5t12 122v132q0 61 14 85.5t52 24.5q40 0 53 -26t13 -84v-329q0 -86 -27 -103z" />
    <glyph glyph-name="Wcircumflex" unicode="&#x174;" horiz-adv-x="938" 
d="M585 112l-116 430l-117 -430q-20 -74 -39 -99t-64 -25t-63.5 25.5t-37.5 102.5l-119 482q-11 35 -11 66q0 25 20 44.5t47 19.5q36 0 49 -19t28 -80l95 -418l105 391q21 79 43 102.5t64 23.5t64 -23t43 -103l105 -391l95 418q12 59 27.5 79t48.5 20q28 0 48 -20t20 -45
q0 -18 -11 -65l-119 -482q-19 -77 -37.5 -102.5t-63.5 -25.5q-26 0 -40.5 6t-31.5 33.5t-32 84.5zM542 783l-72 83l-49 -57q-4 -5 -9 -11t-7 -8.5t-5.5 -6.5t-5.5 -4.5t-6.5 -3t-8.5 -1.5t-12 0t-16 0h-24q-20 0 -20 7q0 6 15 24l54 65q26 32 37.5 38.5t41.5 6.5h28
q29 0 41 -7t38 -38l56 -66q14 -17 14 -23q0 -7 -21 -7h-20q-41 0 -49 9z" />
    <glyph glyph-name="wcircumflex" unicode="&#x175;" horiz-adv-x="813" 
d="M151 447l88 -298l79 276q18 63 33.5 84t54.5 21q35 0 51.5 -18.5t36.5 -86.5l80 -276l87 298q14 50 27 66.5t43 16.5q23 0 41 -17t18 -39q0 -18 -15 -62l-109 -319q-22 -63 -38.5 -84t-53.5 -21q-39 0 -57 22.5t-36 86.5l-75 260l-74 -260q-18 -63 -35.5 -86t-56.5 -23
q-38 0 -54.5 20.5t-38.5 84.5l-109 319q-15 44 -15 62q0 22 17.5 39t41.5 17q30 0 42 -16.5t27 -66.5zM487 595l-72 83l-49 -57q-4 -5 -9 -11t-7 -8.5t-5.5 -6.5t-5.5 -4.5t-6.5 -3t-8.5 -1.5t-12 0t-16 0h-24q-20 0 -20 7q0 6 15 24l54 65q26 32 37.5 38.5t41.5 6.5h28
q29 0 41 -7t38 -38l56 -66q14 -17 14 -23q0 -7 -21 -7h-20q-42 0 -49 9z" />
    <glyph glyph-name="Ycircumflex" unicode="&#x176;" horiz-adv-x="625" 
d="M239 108v195l-175 271q-43 65 -43 92q0 26 20 44t48 18q27 0 40.5 -13t49.5 -71l134 -217l135 217q34 57 49.5 70.5t42.5 13.5q26 0 45 -18t19 -43t-42 -89l-179 -275v-195q0 -67 -15.5 -93.5t-56.5 -26.5q-44 0 -58 28t-14 92zM385 783l-72 83l-49 -57q-4 -5 -9 -11
t-7 -8.5t-5.5 -6.5t-5.5 -4.5t-6.5 -3t-8.5 -1.5t-12 0t-16 0h-24q-20 0 -20 7q0 6 15 24l54 65q26 32 37.5 38.5t41.5 6.5h28q29 0 41 -7t38 -38l56 -66q14 -17 14 -23q0 -7 -21 -7h-20q-42 0 -49 9z" />
    <glyph glyph-name="ycircumflex" unicode="&#x177;" horiz-adv-x="542" 
d="M192 -29l12 30l-163 413q-15 37 -15 55q0 24 19 42.5t45 18.5q23 0 39 -15t30 -56l113 -328l107 304q23 65 34.5 80t41.5 15q25 0 42 -18t17 -38q0 -23 -16 -64l-174 -455q-37 -97 -74.5 -131t-123.5 -34q-116 0 -116 59q0 20 13 33t35 13l45 -3q35 0 53 17t36 62z
M346 595l-72 83l-49 -57q-4 -5 -9 -11t-7 -8.5t-5.5 -6.5t-5.5 -4.5t-6.5 -3t-8.5 -1.5t-12 0t-16 0h-24q-20 0 -20 7q0 6 15 24l54 65q26 32 37.5 38.5t41.5 6.5h28q29 0 41 -7t38 -38l56 -66q14 -17 14 -23q0 -7 -21 -7h-20q-41 0 -49 9z" />
    <glyph glyph-name="Ydieresis" unicode="&#x178;" horiz-adv-x="625" 
d="M239 303l-175 271q-43 66 -43 92t20 44t48 18q27 0 42 -15.5t48 -68.5l134 -217l135 217q21 33 31 47t26 25.5t35 11.5q27 0 45.5 -18t18.5 -43q0 -24 -42 -89l-179 -275v-195q0 -66 -15.5 -93t-56.5 -27t-56.5 27.5t-15.5 92.5v195zM273 829q0 -23 -16 -39t-39 -16
t-39 16t-16 39t16 39t39 16q22 0 38.5 -16t16.5 -39zM462 829q0 -23 -16 -39t-39 -16t-39 16t-16 39t16 39t39 16t39 -16t16 -39z" />
    <glyph glyph-name="Zacute" unicode="&#x179;" horiz-adv-x="646" 
d="M59 167l369 437h-292q-52 0 -72 13.5t-20 42.5q0 34 21.5 45t70.5 11h367q56 0 75.5 -19t19.5 -57q0 -31 -11.5 -51t-55.5 -72l-343 -405h353q49 0 71 -13t22 -43q0 -34 -21.5 -45t-71.5 -11h-405q-69 0 -99.5 14.5t-30.5 62.5q0 21 7 33t46 57zM268 824l18 34
q21 39 35 47t59 8h49q24 0 24 -7q0 -8 -51 -55q-58 -52 -76.5 -63.5t-55.5 -11.5q-19 0 -19 12q0 4 17 36z" />
    <glyph glyph-name="zacute" unicode="&#x17a;" horiz-adv-x="521" 
d="M431 377l-245 -275h239q48 0 67 -9.5t19 -40.5q0 -32 -19.5 -42t-66.5 -10h-311q-56 0 -79.5 13t-23.5 47q0 23 44 72q243 264 253 287h-197q-48 0 -65.5 12t-17.5 37q0 29 17 39.5t66 10.5h251q61 0 77 -3t30 -19t14 -37q0 -20 -5.5 -28t-46.5 -54zM206 632l18 34
q21 39 35 47t59 8h49q24 0 24 -7q0 -8 -51 -55q-58 -52 -76.5 -63.5t-55.5 -11.5q-19 0 -19 12q0 4 17 36z" />
    <glyph glyph-name="Zdotaccent" unicode="&#x17b;" horiz-adv-x="646" 
d="M59 167l369 437h-292q-52 0 -72 13.5t-20 42.5q0 34 21.5 45t70.5 11h367q56 0 75.5 -19t19.5 -57q0 -31 -11.5 -51t-55.5 -72l-343 -405h353q49 0 71 -13t22 -43q0 -34 -21.5 -45t-71.5 -11h-405q-69 0 -99.5 14.5t-30.5 62.5q0 21 7 33t46 57zM323 897q22 0 38.5 -16.5
t16.5 -38.5q0 -23 -16.5 -39t-38.5 -16q-23 0 -39 16t-16 39t16 39t39 16z" />
    <glyph glyph-name="zdotaccent" unicode="&#x17c;" horiz-adv-x="521" 
d="M431 377l-245 -275h239q48 0 67 -9.5t19 -40.5q0 -32 -19.5 -42t-66.5 -10h-311q-56 0 -79.5 13t-23.5 47q0 23 44 72q243 264 253 287h-197q-48 0 -65.5 12t-17.5 37q0 29 17 39.5t66 10.5h251q61 0 77 -3t30 -19t14 -37q0 -20 -5.5 -28t-46.5 -54zM261 735
q22 0 38.5 -16.5t16.5 -38.5q0 -23 -16.5 -39t-38.5 -16q-23 0 -39 16t-16 39t16 39t39 16z" />
    <glyph glyph-name="Zcaron" unicode="&#x17d;" horiz-adv-x="646" 
d="M428 604h-292q-49 0 -70.5 11.5t-21.5 44.5q0 31 21 43.5t71 12.5h367q17 0 26 -0.5t24.5 -4.5t23.5 -11.5t14.5 -22.5t6.5 -37q0 -30 -12.5 -52t-54.5 -71l-343 -405h353q50 0 71.5 -13t21.5 -43q0 -33 -22 -44.5t-71 -11.5h-405q-69 0 -90 10q-15 7 -27.5 26t-12.5 41
q0 20 8 33t45 57zM323 814l49 57q12 15 18.5 21.5t13.5 10.5t9 4t12 -0.5t17 -0.5h24q20 0 20 -7q0 -6 -15 -24l-54 -65q-25 -30 -36.5 -37.5t-42.5 -7.5h-28q-31 0 -41.5 7t-37.5 38l-56 66q-14 17 -14 23q0 7 21 7h20q39 0 49 -9z" />
    <glyph glyph-name="zcaron" unicode="&#x17e;" horiz-adv-x="521" 
d="M186 102h239h24.5t21.5 -2.5t21.5 -7.5t12.5 -15t6 -25q0 -16 -6.5 -26.5t-12.5 -15.5t-22.5 -7.5t-21.5 -2.5h-23h-311q-61 0 -82 15.5t-21 44.5q0 15 9 29.5t35 42.5q179 195 237 265q10 11 16 22h-197q-18 0 -29 1t-25.5 5.5t-21.5 15t-7 27.5q0 29 19.5 39.5
t63.5 10.5h251q52 0 67.5 -1.5t26.5 -8.5q27 -17 27 -49q0 -17 -7.5 -29t-44.5 -53zM260 635l49 57q12 15 18.5 21.5t13.5 10.5t9 4t12 -0.5t17 -0.5h24q20 0 20 -7q0 -6 -15 -24l-54 -65q-25 -30 -36.5 -37.5t-42.5 -7.5h-28q-31 0 -41.5 7t-37.5 38l-56 66q-14 17 -14 23
q0 7 21 7h20q39 0 49 -9z" />
    <glyph glyph-name="florin" unicode="&#x192;" 
d="M240 380l27 154q7 40 12 60t18 50.5t30.5 45.5t49.5 26.5t76 11.5q125 0 125 -62q0 -17 -11 -30t-37 -13q-5 0 -33.5 4.5t-32.5 4.5q-25 0 -41 -14t-25 -53q-7 -29 -18 -98t-15 -87h19q22 0 33 -1t25.5 -5t20.5 -14t6 -27q0 -18 -8 -28.5t-25 -14.5t-27.5 -5t-30.5 -1
h-30l-54 -306q-6 -36 -10.5 -54t-17.5 -48t-30.5 -45.5t-50.5 -28t-77 -12.5q-26 0 -50.5 3.5t-48.5 18t-24 38.5q0 18 13 31t34 13q5 0 30 -4t29 -4q41 0 55 20t23 70l54 308q-23 0 -35 0.5t-28.5 4t-23.5 13.5t-7 27q0 24 17 36t33.5 13.5t46.5 1.5h14z" />
    <glyph glyph-name="AEacute" unicode="&#x1fc;" horiz-adv-x="990" 
d="M449 172h-255l-43 -101q-20 -48 -41.5 -65.5t-50.5 -17.5q-62 0 -62 61q0 20 19 59l240 521q31 67 47 77t88 10h461q40 0 55.5 -4t26.5 -19q11 -16 11 -33q0 -14 -8 -29t-22 -21q-15 -6 -63 -6h-259v-175h234q40 0 54.5 -3.5t25.5 -17.5q11 -16 11 -35q0 -17 -14 -37
q-13 -19 -77 -19h-234v-205h268q40 0 55.5 -3.5t26.5 -17.5q13 -13 13 -34q0 -19 -11.5 -34.5t-28.5 -19.5q-16 -3 -55 -3h-291q-57 0 -75 5q-15 4 -31 23q-14 19 -14 58zM383 610l-142 -323h208v323h-66zM554 828l18 34q20 39 35 47q18 8 59 8h49q24 0 24 -7q0 -8 -51 -55
q-55 -50 -73 -61q-23 -14 -59 -14q-19 0 -19 12q0 4 17 36z" />
    <glyph glyph-name="aeacute" unicode="&#x1fd;" horiz-adv-x="927" 
d="M196 288l128 27q53 11 68 20q0 61 -21 82.5t-75 21.5q-60 0 -83 -19q-10 -8 -24.5 -33.5t-32 -43.5t-41.5 -18t-38.5 14.5t-14.5 38.5q0 67 61 109.5t176 42.5q119 0 171 -57q70 57 164 57q114 0 182 -69t68 -153q0 -57 -45 -76q-15 -5 -76 -5h-245q3 -71 37.5 -110
t92.5 -39q78 0 129 60q21 24 31.5 31.5t25.5 7.5q19 0 32.5 -13t13.5 -32q0 -46 -61 -95t-166 -49q-147 0 -212 84q-101 -84 -220 -84q-85 0 -132 42.5t-47 106.5q0 118 154 151zM518 303h240q-10 136 -119 136q-54 0 -87.5 -40.5t-33.5 -95.5zM392 219v36q-28 -11 -123 -30
q-94 -19 -94 -78q0 -31 23.5 -52t63.5 -21q55 0 92.5 34t37.5 111zM395 632l18 34q21 39 35 47t59 8h49q24 0 24 -7q0 -8 -51 -55q-58 -52 -76.5 -63.5t-55.5 -11.5q-19 0 -19 12q0 4 17 36z" />
    <glyph glyph-name="Oslashacute" unicode="&#x1fe;" horiz-adv-x="792" 
d="M619 660q37 37 54 51t22.5 16t18.5 2q17 0 27 -11t10 -24q0 -21 -10 -36t-59 -64q64 -98 64 -230q0 -171 -90.5 -273.5t-258.5 -102.5q-138 0 -224 68q-32 -35 -49 -49.5t-23.5 -16.5t-20.5 -2q-15 0 -24.5 11t-9.5 29q0 20 14 39.5t51 55.5q-65 95 -65 232
q0 171 92.5 272t254.5 101q138 0 226 -68zM213 231l315 333q-55 49 -133 49q-92 0 -147 -66.5t-55 -187.5q0 -70 20 -128zM579 484l-314 -331q56 -50 130 -50q90 0 147 66.5t57 189.5q0 73 -20 125zM351 828l18 34q21 39 35 47t59 8h49q24 0 24 -7q0 -8 -51 -55
q-58 -52 -76.5 -63.5t-55.5 -11.5q-19 0 -19 12q0 4 17 36z" />
    <glyph glyph-name="oslashacute" unicode="&#x1ff;" horiz-adv-x="604" 
d="M132 41q-41 -41 -51.5 -49t-22.5 -8q-13 0 -21.5 9.5t-8.5 23.5q0 20 34 54l22 22q-48 72 -48 169q0 117 72 192.5t192 75.5q101 0 171 -52l25 25q30 30 48 30q12 0 22 -9.5t10 -22.5q0 -19 -31 -49l-26 -25q49 -73 49 -170q0 -117 -72.5 -193t-191.5 -76q-99 0 -172 53z
M180 188l208 208q-35 35 -86 35q-60 0 -95.5 -46t-35.5 -125q0 -44 9 -72zM424 332l-210 -209q34 -36 88 -36q60 0 95.5 46t35.5 126q0 33 -9 73zM269 632l18 34q21 39 35 47t59 8h49q24 0 24 -7q0 -8 -51 -55q-58 -52 -76.5 -63.5t-55.5 -11.5q-19 0 -19 12q0 4 17 36z" />
    <glyph glyph-name="Scommaaccent" unicode="&#x218;" horiz-adv-x="667" 
d="M622 215q0 -98 -74.5 -162.5t-208.5 -64.5q-70 0 -124.5 18.5t-84 44t-48 57t-24 53.5t-5.5 38q0 24 18 43.5t48 19.5q19 0 32.5 -10.5t20 -23t20.5 -44.5q37 -90 142 -90q58 0 102 27t44 78q0 23 -10.5 40.5t-23 28t-40.5 21t-44 14.5t-53 13q-124 28 -172 67
q-70 56 -70 145q0 91 72 145.5t197 54.5q75 0 129.5 -21.5t79.5 -52.5t36 -56.5t11 -44.5q0 -23 -18 -45t-48 -22q-26 0 -40 14.5t-31 50.5q-7 14 -13 22.5t-20.5 22.5t-38.5 21.5t-56 7.5q-50 0 -87.5 -22t-37.5 -62q0 -18 10 -33t22 -24t37.5 -18.5t39.5 -13l46 -11.5
q85 -20 127 -37t72 -41q66 -52 66 -148zM341 -53q54 0 92 -30t38 -68q0 -39 -40.5 -64.5t-115.5 -25.5q-97 0 -97 32q0 24 25 24q10 0 33.5 -2t36.5 -2q32 0 51 11t19 29q0 35 -55 35q-9 0 -22.5 -2.5t-14.5 -2.5q-9 0 -15 7.5t-6 16.5q0 42 71 42z" />
    <glyph glyph-name="scommaaccent" unicode="&#x219;" horiz-adv-x="542" 
d="M498 162q0 -89 -64 -131.5t-168 -42.5q-53 0 -95 11.5t-65 28t-38.5 37.5t-20.5 37t-5 29q0 22 15.5 37.5t38.5 15.5q21 0 33.5 -11.5t21.5 -27.5t20.5 -32t38.5 -27.5t67 -11.5t65 18t25 45q0 32 -33 50.5t-80 29t-93.5 24.5t-79.5 47.5t-33 86.5q0 20 8 42.5t28.5 50
t66 45t109.5 17.5q100 0 156 -40.5t56 -81.5q0 -21 -14 -37t-41 -16q-12 0 -19.5 2t-21.5 13t-31 32q-33 42 -91 42q-29 0 -56.5 -12t-27.5 -41q0 -27 29 -41.5t118 -36.5q181 -44 181 -151zM261 -53q54 0 92 -30t38 -68q0 -39 -40.5 -64.5t-115.5 -25.5q-97 0 -97 32
q0 24 25 24q10 0 33.5 -2t36.5 -2q32 0 51 11t19 29q0 35 -55 35q-9 0 -22.5 -2.5t-14.5 -2.5q-9 0 -15 7.5t-6 16.5q0 42 71 42z" />
    <glyph glyph-name="Tcommaaccent" unicode="&#x21a;" horiz-adv-x="625" 
d="M516 604h-131v-496q0 -65 -16 -92.5t-56 -27.5q-45 0 -58.5 28t-13.5 92v496h-132q-59 0 -79.5 13t-20.5 43q0 31 18.5 43.5t81.5 12.5h407q57 0 78.5 -11t21.5 -45q0 -30 -19 -43t-81 -13zM309 -52q54 0 92 -30t38 -68q0 -39 -40.5 -64.5t-115.5 -25.5q-97 0 -97 32
q0 24 25 24q10 0 33.5 -2t36.5 -2q32 0 51 11t19 29q0 35 -55 35q-9 0 -22.5 -2.5t-14.5 -2.5q-9 0 -15 7.5t-6 16.5q0 42 71 42z" />
    <glyph glyph-name="tcommaaccent" unicode="&#x21b;" horiz-adv-x="354" 
d="M76 518h15v80q0 62 13.5 87.5t52.5 25.5q37 0 52 -25.5t15 -76.5v-91h26q47 0 64 -11t17 -36q0 -49 -82 -49h-25v-246q0 -53 7.5 -69.5t37.5 -16.5q11 0 33 4t27 4q20 0 32.5 -13t12.5 -32q0 -65 -138 -65q-41 0 -69 10t-43 24t-22.5 40.5t-9 47t-1.5 56.5v256h-18
q-59 0 -59 48t62 48zM216 -51q54 0 92 -30t38 -68q0 -39 -40.5 -64.5t-115.5 -25.5q-97 0 -97 32q0 24 25 24q10 0 33.5 -2t36.5 -2q32 0 51 11t19 29q0 35 -55 35q-9 0 -22.5 -2.5t-14.5 -2.5q-9 0 -15 7.5t-6 16.5q0 42 71 42z" />
    <glyph glyph-name="circumflex" unicode="&#x2c6;" horiz-adv-x="333" 
d="M167 678l-49 -57q-27 -32 -36.5 -35.5t-33.5 0.5h-24q-20 0 -20 7q0 6 15 24l54 65q25 30 36.5 37.5t42.5 7.5h28q30 0 41 -7t38 -38l56 -66q14 -17 14 -23q0 -7 -21 -7h-20q-39 0 -49 9z" />
    <glyph glyph-name="caron" unicode="&#x2c7;" horiz-adv-x="333" 
d="M166 635l49 57q12 15 18.5 21.5t13.5 10.5t9 4t12 -0.5t17 -0.5h24q20 0 20 -7q0 -6 -15 -24l-54 -65q-25 -30 -36.5 -37.5t-42.5 -7.5h-28q-31 0 -41.5 7t-37.5 38l-56 66q-14 17 -14 23q0 7 21 7h20q39 0 49 -9z" />
    <glyph glyph-name="uni02C9" unicode="&#x2c9;" horiz-adv-x="333" 
d="M287 615h-213q-58 0 -76.5 7.5t-18.5 28.5t18 28t77 7h213q73 0 73 -35q0 -10 -3.5 -16.5t-20.5 -13t-49 -6.5z" />
    <glyph glyph-name="breve" unicode="&#x2d8;" horiz-adv-x="333" 
d="M168 655q41 0 62.5 16t25 34.5t11 34.5t23.5 16q12 0 20.5 -9.5t8.5 -23.5q0 -45 -40.5 -90t-109.5 -45q-73 0 -114 45.5t-41 89.5q0 12 8.5 22.5t21.5 10.5q10 0 16.5 -6t9 -13t5.5 -20q2 -7 6 -14.5t14 -19.5t29 -20t44 -8z" />
    <glyph glyph-name="dotaccent" unicode="&#x2d9;" horiz-adv-x="333" 
d="M222 650q0 -23 -16 -39t-39 -16t-39 16t-16 39t16 39t39 16t39 -16.5t16 -38.5z" />
    <glyph glyph-name="ring" unicode="&#x2da;" horiz-adv-x="333" 
d="M267 664q0 -41 -29.5 -70.5t-70.5 -29.5q-42 0 -71.5 29.5t-29.5 70.5q0 42 29.5 71.5t71.5 29.5q41 0 70.5 -29.5t29.5 -71.5zM216 664q0 21 -14.5 35.5t-34.5 14.5q-21 0 -35.5 -14.5t-14.5 -35.5q0 -20 14.5 -34.5t35.5 -14.5q20 0 34.5 14.5t14.5 34.5z" />
    <glyph glyph-name="ogonek" unicode="&#x2db;" horiz-adv-x="333" 
d="M46 -93q0 39 37.5 79.5t65.5 40.5q12 0 23.5 -12.5t11.5 -24.5q0 -11 -4.5 -17.5t-22.5 -26.5q-15 -17 -15 -28q0 -23 34 -23q3 0 39 8.5t38 8.5q16 0 25 -10.5t9 -23.5q0 -29 -45.5 -44t-84.5 -15q-24 0 -47.5 7t-43.5 28t-20 53z" />
    <glyph glyph-name="tilde" unicode="&#x2dc;" horiz-adv-x="333" 
d="M29 578q-28 0 -28 37q0 36 22.5 67t58.5 31q26 0 80 -23q56 -28 79 -28q17 0 24.5 8t13.5 31t25 23q11 0 19.5 -10t8.5 -24q0 -31 -21 -65.5t-62 -34.5q-35 0 -85.5 25t-75.5 25q-12 0 -20 -9.5t-11.5 -21.5t-10.5 -21.5t-17 -9.5z" />
    <glyph glyph-name="hungarumlaut" unicode="&#x2dd;" horiz-adv-x="333" 
d="M232 632l18 34q21 40 36 47.5t58 7.5h49q24 0 24 -7q0 -10 -60 -63q-5 -5 -18.5 -16.5t-17 -14.5t-13.5 -11t-14 -10t-12 -6.5t-14.5 -5.5t-15 -2t-18.5 -1q-19 0 -19 12q0 5 17 36zM58 632l18 34q21 40 36 47.5t58 7.5h49q24 0 24 -7q0 -10 -60 -63q-5 -5 -18.5 -16.5
t-17 -14.5t-13.5 -11t-14 -10t-12 -6.5t-14.5 -5.5t-15 -2t-18.5 -1q-19 0 -19 12q0 5 17 36z" />
    <glyph glyph-name="uni03A9" unicode="&#x3a9;" horiz-adv-x="802" 
d="M110 112h85q-136 137 -136 297q0 137 93.5 228t248.5 91q154 0 248 -91t94 -228q0 -158 -137 -297h86q74 0 74 -57q0 -23 -18 -39t-56 -16h-267v106q171 74 171 268q0 102 -52.5 170.5t-142.5 68.5q-89 0 -142 -68.5t-53 -171.5q0 -95 46.5 -168.5t123.5 -98.5v-106h-266
q-74 0 -74 57q0 23 18 39t56 16z" />
    <glyph glyph-name="uni03BC" unicode="&#x3bc;" horiz-adv-x="615" 
d="M206 70v-170q0 -28 -0.5 -40.5t-4.5 -27t-13 -22.5q-22 -20 -47 -20q-27 0 -49 19q-19 19 -19 91v520q0 59 11 81q6 11 21.5 20t34.5 9q27 0 48 -19q12 -12 15 -31t3 -60v-136q0 -63 8 -102q6 -29 30.5 -56.5t62.5 -27.5q52 0 81 52q19 35 19 132v138q0 28 0.5 41
t4.5 27.5t13 22.5q21 19 48 19q17 0 33 -9t23 -21q11 -19 11 -80v-329q0 -55 -11 -75q-6 -10 -20.5 -19t-31.5 -9q-57 0 -62 70q-20 -37 -49 -54q-28 -16 -54 -16q-23 0 -40.5 7t-30.5 22t-19 24.5t-16 28.5z" />
    <glyph glyph-name="pi" unicode="&#x3c0;" horiz-adv-x="727" 
d="M654 422h-69v-351q0 -44 -19.5 -63.5t-47.5 -19.5q-27 0 -46 20.5t-19 62.5v351h-179v-351q0 -44 -19 -63.5t-47 -19.5q-27 0 -46.5 20.5t-19.5 62.5v351h-69q-69 0 -69 49q0 20 17 34t52 14h581q70 0 70 -50q0 -19 -17.5 -33t-52.5 -14z" />
    <glyph glyph-name="afii10023" unicode="&#x401;" horiz-adv-x="667" 
d="M525 604h-302v-175h277q48 0 69.5 -12t21.5 -43q0 -57 -91 -57h-277v-205h313q56 0 75.5 -12.5t19.5 -42.5q0 -34 -22.5 -45.5t-72.5 -11.5h-336q-76 0 -90 11q-2 2 -7 5.5t-7 5.5t-5.5 7t-5 12t-3.5 17.5t-2.5 26t-0.5 36.5v473q0 78 11 89q1 1 8 9.5t11 10t15 6t29.5 6
t46.5 1.5h325q52 0 72.5 -12t20.5 -44q0 -35 -22 -45.5t-71 -10.5zM239 897q22 0 38.5 -16.5t16.5 -38.5q0 -23 -16 -39t-39 -16t-39 16t-16 39t16 39t39 16zM428 897q23 0 39 -16t16 -39t-16 -39t-39 -16t-39 16t-16 39q0 22 16.5 38.5t38.5 16.5z" />
    <glyph glyph-name="afii10051" unicode="&#x402;" horiz-adv-x="887" 
d="M527 604h-150v-170q108 49 201 49q120 0 193 -68t73 -177t-68 -176.5t-181 -67.5q-116 0 -116 68q0 24 17 41.5t39 17.5q6 0 30.5 -4t32.5 -4q38 0 69.5 31.5t31.5 84.5q0 59 -35.5 99t-98.5 40q-81 0 -188 -58v-234q0 -45 -20 -66.5t-52 -21.5q-72 0 -72 88v528h-150
q-74 0 -74 57q0 23 18 39t56 16h444q74 0 74 -57q0 -23 -18 -39t-56 -16z" />
    <glyph glyph-name="afii10052" unicode="&#x403;" horiz-adv-x="592" 
d="M502 604h-278v-528q0 -88 -74 -88q-31 0 -51 22.5t-20 65.5v549q0 48 22 69.5t68 21.5h333q74 0 74 -57q0 -23 -18.5 -39t-55.5 -16zM301 824l18 34q21 39 35 47t59 8h49q24 0 24 -7q0 -8 -51 -55q-58 -52 -76.5 -63.5t-55.5 -11.5q-19 0 -19 12q0 4 17 36z" />
    <glyph glyph-name="afii10053" unicode="&#x404;" horiz-adv-x="740" 
d="M369 301h-168q10 -103 60.5 -151t128.5 -48q124 0 169 124q12 36 26.5 50t39.5 14t44.5 -18.5t19.5 -45.5q0 -38 -19.5 -78.5t-55 -76.5t-93 -59.5t-126.5 -23.5q-159 0 -252 97t-93 271q0 168 95.5 270t245.5 102q170 0 254 -116q41 -58 41 -102q0 -24 -18 -43t-46 -19
q-24 0 -37 11.5t-32 47.5q-59 106 -161 106q-159 0 -191 -200h168q73 0 73 -57q0 -23 -17.5 -39t-55.5 -16z" />
    <glyph glyph-name="afii10054" unicode="&#x405;" horiz-adv-x="667" 
d="M202 541q0 -23 9 -37t45 -31t107 -34q148 -35 203.5 -85.5t55.5 -138.5q0 -101 -77 -164t-206 -63q-136 0 -211 65t-75 146q0 25 18.5 44t47.5 19q26 0 39 -14.5t33 -60.5q41 -93 143 -93q63 0 104.5 29t41.5 76q0 27 -10 45t-47 36.5t-106 34.5q-106 25 -146 46
q-104 54 -104 167q0 91 73 145.5t196 54.5q118 0 187 -55.5t69 -119.5q0 -25 -19 -46t-47 -21q-25 0 -39 13.5t-32 51.5q-38 74 -128 74q-54 0 -89.5 -23t-35.5 -61z" />
    <glyph glyph-name="afii10055" unicode="&#x406;" horiz-adv-x="313" 
d="M228 608v-500q0 -26 -1 -41t-4.5 -32.5t-11 -26t-21 -14.5t-33.5 -6q-46 0 -59.5 28t-13.5 92v500q0 64 13.5 92t58.5 28q44 0 58 -28t14 -92z" />
    <glyph glyph-name="afii10056" unicode="&#x407;" horiz-adv-x="313" 
d="M228 608v-500q0 -26 -1 -41t-4.5 -32.5t-11 -26t-21 -14.5t-33.5 -6q-46 0 -59.5 28t-13.5 92v500q0 64 13.5 92t58.5 28q44 0 58 -28t14 -92zM61 897q22 0 38.5 -16.5t16.5 -38.5q0 -23 -16 -39t-39 -16t-39 16t-16 39t16 39t39 16zM250 897q23 0 39 -16t16 -39t-16 -39
t-39 -16t-39 16t-16 39q0 22 16.5 38.5t38.5 16.5z" />
    <glyph glyph-name="afii10057" unicode="&#x408;" horiz-adv-x="573" 
d="M349 244v364q0 66 15.5 93t56.5 27q43 0 57.5 -28.5t14.5 -91.5v-343q0 -151 -61.5 -214t-177.5 -63q-114 0 -174.5 64t-60.5 164q0 34 19.5 52t48.5 18t41 -15.5t25 -60.5q9 -31 13.5 -43.5t15.5 -31t27.5 -25.5t42.5 -7q97 0 97 141z" />
    <glyph glyph-name="afii10058" unicode="&#x409;" horiz-adv-x="1124" 
d="M627 625v-201h194q118 0 189 -52t71 -158q0 -71 -38 -124t-85 -71.5t-137 -18.5h-248q-48 0 -69 21t-21 69v514h-213v-315q0 -161 -13 -201q-16 -50 -51.5 -71.5t-119.5 -21.5q-54 0 -77.5 13.5t-25.5 46.5q0 24 16.5 40.5t42.5 16.5h16q16 0 27 2t19 4.5t12.5 11t7 15.5
t3 23.5t0 30t-1 41t-0.5 49.5v336q0 49 21.5 70t68.5 21h322q48 0 69 -21.5t21 -69.5zM627 315v-206h141q69 0 99 8q29 8 49.5 35t20.5 63q0 53 -37.5 76.5t-125.5 23.5h-147z" />
    <glyph glyph-name="afii10059" unicode="&#x40a;" horiz-adv-x="1076" 
d="M434 90v225h-210v-207q0 -30 -2 -48t-9 -36.5t-22 -27t-40 -8.5q-45 0 -58.5 27t-13.5 93v500q0 67 16.5 93.5t55.5 26.5q44 0 58.5 -28t14.5 -92v-184h210v215q0 47 20.5 68t53.5 21q29 0 49.5 -22t20.5 -67v-215h194q118 0 189 -52t71 -158q0 -71 -38 -124t-85 -71.5
t-137 -18.5h-248q-47 0 -68.5 22t-21.5 68zM578 315v-206h141q69 0 99 8q29 8 49.5 35t20.5 63q0 53 -37.5 76.5t-125.5 23.5h-147z" />
    <glyph glyph-name="afii10060" unicode="&#x40b;" horiz-adv-x="846" 
d="M527 604h-150v-156q96 35 177 35q133 0 199 -81q30 -37 37 -67t7 -115v-144q0 -46 -20.5 -67t-52.5 -21q-30 0 -51 21.5t-21 66.5v75q0 74 -2 108q-3 47 -37 78t-92 31q-76 0 -144 -37v-255q0 -45 -20.5 -66.5t-52.5 -21.5q-31 0 -51 22.5t-20 65.5v528h-150
q-74 0 -74 57q0 23 18 39t56 16h444q74 0 74 -57q0 -23 -18 -39t-56 -16z" />
    <glyph glyph-name="afii10061" unicode="&#x40c;" horiz-adv-x="602" 
d="M224 313v-238q0 -45 -21 -66t-53 -21q-29 0 -50 21t-21 66v566q0 45 21 66t52 21q30 0 51 -21.5t21 -65.5v-230q28 0 48 21q15 16 55.5 110.5t44.5 100.5q21 35 62 56t88 21q28 0 44.5 -14.5t16.5 -38.5q0 -21 -14 -37t-40 -20q-42 -6 -57.5 -26.5t-45.5 -105.5
q-14 -41 -31 -65t-53 -44q47 -15 83 -60.5t74 -123.5l33 -69q23 -49 23 -72q0 -24 -23 -40t-52 -16q-33 0 -46 13t-38 68l-47 104l-3 6t-5.5 10t-6.5 11l-19 34q-27 49 -45.5 64t-45.5 15zM434 859l-51 -56q-33 -36 -63 -36h-10q-32 0 -32 25q0 6 6 20l22 47
q16 33 33.5 43.5t54.5 10.5h40q31 0 31 -9q0 -11 -31 -45z" />
    <glyph glyph-name="afii10062" unicode="&#x40e;" horiz-adv-x="611" 
d="M185 667l138 -310l116 305q25 66 78 66q29 0 46.5 -15.5t17.5 -38.5q0 -24 -13 -54l-187 -437q-41 -100 -85.5 -147.5t-117.5 -47.5q-90 0 -90 62q0 22 15 37t39 15h21q17 0 24 1.5t21.5 9.5t27 31t26.5 62l-211 417q-11 21 -11 37q0 31 20.5 49.5t48.5 18.5
q27 0 43.5 -12.5t32.5 -48.5zM186 921q22 0 31 -39q20 -62 93 -62q78 0 94 75q6 26 28 26q12 0 20.5 -10t8.5 -23q0 -49 -43 -92t-107 -43q-67 0 -111 43t-44 92q0 12 9 22.5t21 10.5z" />
    <glyph glyph-name="afii10145" unicode="&#x40f;" horiz-adv-x="730" 
d="M561 0h-140v-136q0 -73 -57 -73q-23 0 -39 17.5t-16 55.5v136h-140q-48 0 -69 21.5t-21 68.5v549q0 45 20.5 67t52.5 22t52 -23t20 -66v-527h283v527q0 47 21 68t52 21t51 -23t20 -66v-549q0 -48 -21.5 -69t-68.5 -21z" />
    <glyph glyph-name="afii10017" unicode="&#x410;" horiz-adv-x="719" 
d="M537 81l-35 88h-290l-34 -90q-23 -59 -36.5 -75t-44.5 -16q-29 0 -49 19.5t-20 44.5q0 24 20 75l184 465q31 83 53 109.5t71 26.5q72 0 102 -74l212 -523q21 -53 21 -77q0 -25 -21 -45.5t-50 -20.5q-32 0 -46 16.5t-37 76.5zM355 575l-106 -294h215z" />
    <glyph glyph-name="afii10018" unicode="&#x411;" horiz-adv-x="725" 
d="M552 607h-328v-183h193q119 0 189.5 -52t70.5 -158q0 -71 -38 -124t-85 -71.5t-137 -18.5h-248q-48 0 -69 21.5t-21 68.5v535q0 48 22 69.5t68 21.5h383q74 0 74 -56q0 -22 -18 -37.5t-56 -15.5zM224 315v-206h140q69 0 99 8q29 8 49.5 35t20.5 63q0 47 -33.5 73.5
t-128.5 26.5h-147z" />
    <glyph glyph-name="afii10019" unicode="&#x412;" horiz-adv-x="719" 
d="M384 0h-186q-31 0 -51.5 1.5t-34.5 8t-21 11.5t-10.5 21t-4 26.5t-0.5 36.5v8.5v7.5v473q0 83 18.5 102.5t103.5 19.5h199q118 0 179.5 -47t61.5 -133q0 -107 -107 -157q140 -41 140 -175q0 -65 -36 -115.5t-93 -69.5q-56 -19 -158 -19zM340 604h-120v-179h135
q82 0 111.5 23.5t29.5 68.5q0 44 -31 65.5t-125 21.5zM373 313h-153v-201h158q78 0 112 26t34 76q0 48 -35 73.5t-116 25.5z" />
    <glyph glyph-name="afii10020" unicode="&#x413;" horiz-adv-x="592" 
d="M502 604h-278v-528q0 -88 -74 -88q-31 0 -51 22.5t-20 65.5v549q0 48 22 69.5t68 21.5h333q74 0 74 -57q0 -23 -18.5 -39t-55.5 -16z" />
    <glyph glyph-name="afii10021" unicode="&#x414;" horiz-adv-x="718" 
d="M579 0h-467v-95q0 -73 -57 -73q-24 0 -39.5 19t-15.5 54v116q0 48 13 67t48 24q30 67 44 130q11 50 19.5 162t8.5 144v73q0 54 22 74.5t69 20.5h314q48 0 69 -21.5t21 -69.5v-513q36 -5 49.5 -24t13.5 -67v-116q0 -73 -57 -73q-23 0 -39 18t-16 55v95zM484 604h-213
q0 -335 -59 -492h272v492z" />
    <glyph glyph-name="afii10022" unicode="&#x415;" horiz-adv-x="667" 
d="M525 604h-302v-175h277q48 0 69.5 -12t21.5 -43q0 -57 -91 -57h-277v-205h313q56 0 75.5 -12.5t19.5 -42.5q0 -34 -22.5 -45.5t-72.5 -11.5h-336q-76 0 -90 11q-2 2 -7 5.5t-7 5.5t-5.5 7t-5 12t-3.5 17.5t-2.5 26t-0.5 36.5v473q0 78 11 89q1 1 8 9.5t11 10t15 6t29.5 6
t46.5 1.5h325q52 0 72.5 -12t20.5 -44q0 -35 -22 -45.5t-71 -10.5z" />
    <glyph glyph-name="afii10024" unicode="&#x416;" horiz-adv-x="901" 
d="M378 75v238q-28 0 -47 -15t-44 -64l-19 -34q-6 -9 -16 -27l-45 -104q-22 -52 -37.5 -66.5t-47.5 -14.5q-29 0 -52 16t-23 38q0 26 23 74l33 69q37 78 74 124.5t83 59.5q-37 20 -53.5 44t-30.5 65q-30 84 -45.5 104.5t-57.5 27.5q-54 7 -54 57q0 22 15.5 37.5t45.5 15.5
q49 0 88 -20.5t60 -54.5q24 -40 56 -124q25 -66 43 -86.5t51 -23.5v230q0 45 21.5 66t52.5 21q32 0 51.5 -22t19.5 -65v-230q29 0 48 21q15 16 56.5 111.5t44.5 100.5q20 35 60.5 55.5t89.5 20.5q27 0 43.5 -14.5t16.5 -38.5q0 -22 -13.5 -38t-39.5 -19q-43 -6 -59 -27
t-45 -105q-10 -28 -17 -43t-24 -33.5t-42 -32.5q47 -14 81.5 -59t74.5 -125l34 -69q22 -44 22 -72q0 -24 -23 -40t-52 -16q-32 0 -46 13t-38 68l-47 104q-2 7 -15 27l-18 34q-26 49 -45 63.5t-47 15.5v-238q0 -45 -21 -66t-52 -21q-30 0 -51 21t-21 66z" />
    <glyph glyph-name="afii10025" unicode="&#x417;" horiz-adv-x="632" 
d="M453 379q132 -41 132 -173q0 -98 -69 -158t-212 -60q-117 0 -191.5 57.5t-74.5 121.5q0 26 20 46t48 20q40 0 64 -46q44 -84 136 -84q59 0 95.5 30t36.5 76q0 51 -40.5 80t-102.5 27l-32 -1q-23 -1 -39 15.5t-16 39.5t16 38.5t38 15.5q6 0 16 -1h19q48 0 82 25t34 67
t-32.5 70t-79.5 28q-74 0 -109 -74q-26 -55 -69 -55q-29 0 -50 21t-21 51q0 12 3 18l3 9q22 69 89 107t154 38q113 0 184 -52.5t71 -141.5q0 -109 -103 -155z" />
    <glyph glyph-name="afii10026" unicode="&#x418;" horiz-adv-x="728" 
d="M214 645v-420l261 442q22 38 40.5 50t45.5 12q42 0 64.5 -28.5t22.5 -81.5v-548q0 -44 -19 -63.5t-49 -19.5q-29 0 -48 21.5t-19 61.5v408l-260 -430q-23 -38 -41 -50t-45 -12q-88 0 -88 110v548q0 43 19.5 63t49.5 20q27 0 46.5 -20.5t19.5 -62.5z" />
    <glyph glyph-name="afii10027" unicode="&#x419;" horiz-adv-x="728" 
d="M214 645v-420l261 442q22 38 40.5 50t45.5 12q42 0 64.5 -28.5t22.5 -81.5v-548q0 -44 -19 -63.5t-49 -19.5q-29 0 -48 21.5t-19 61.5v408l-260 -430q-23 -38 -41 -50t-45 -12q-88 0 -88 110v548q0 43 19.5 63t49.5 20q27 0 46.5 -20.5t19.5 -62.5zM241 921q22 0 31 -39
q20 -62 93 -62q77 0 94 75q6 26 28 26q12 0 20.5 -10t8.5 -23q0 -49 -43 -92t-107 -43q-67 0 -111 43t-44 92q0 12 9 22.5t21 10.5z" />
    <glyph glyph-name="afii10028" unicode="&#x41a;" horiz-adv-x="602" 
d="M224 313v-238q0 -45 -21 -66t-53 -21q-29 0 -50 21t-21 66v566q0 45 21 66t52 21q30 0 51 -21.5t21 -65.5v-230q28 0 48 21q15 16 55.5 110.5t44.5 100.5q21 35 62 56t88 21q28 0 44.5 -14.5t16.5 -38.5q0 -21 -14 -37t-40 -20q-42 -6 -57.5 -26.5t-45.5 -105.5
q-14 -41 -31 -65t-53 -44q47 -15 83 -60.5t74 -123.5l33 -69q23 -49 23 -72q0 -24 -23 -40t-52 -16q-33 0 -46 13t-38 68l-47 104l-3 6t-5.5 10t-6.5 11l-19 34q-27 49 -45.5 64t-45.5 15z" />
    <glyph glyph-name="afii10029" unicode="&#x41b;" horiz-adv-x="706" 
d="M483 76v528h-213v-315q0 -132 -5.5 -173t-21.5 -69q-12 -19 -22 -29.5t-40 -20.5t-76 -10q-42 0 -68.5 5t-37.5 15t-13.5 18t-2.5 22q0 35 27.5 46t61.5 13t42 13q1 1 2 3q9 14 10 36v43q-1 50 -1 88v336q0 49 21.5 70t68.5 21h322q48 0 69 -21.5t21 -69.5v-549
q0 -46 -20.5 -67t-52.5 -21q-30 0 -50.5 21.5t-20.5 66.5z" />
    <glyph glyph-name="afii10030" unicode="&#x41c;" horiz-adv-x="833" 
d="M319 108l-113 456v-464q0 -61 -15 -86.5t-53 -25.5q-42 0 -54.5 26t-12.5 86v519q0 52 18.5 74.5t72.5 22.5h44q58 0 73.5 -15t33.5 -81l104 -392l103 392q17 66 33 81t74 15h44q52 0 71.5 -20.5t19.5 -76.5v-519q0 -23 -1 -37t-4.5 -30t-10.5 -24.5t-20 -14.5t-31 -6
q-40 0 -54 25.5t-14 86.5v464l-113 -456q-19 -78 -39 -99t-58 -21q-42 0 -61 23t-37 97z" />
    <glyph glyph-name="afii10031" unicode="&#x41d;" horiz-adv-x="760" 
d="M223 608v-176h314v176q0 61 13.5 90.5t57.5 29.5q45 0 59 -27.5t14 -92.5v-500q0 -32 -2 -49.5t-8.5 -36t-21.5 -26.5t-40 -8q-45 0 -58.5 28t-13.5 92v212h-314v-212q0 -63 -13 -91.5t-58 -28.5q-46 0 -59.5 27.5t-13.5 92.5v500q0 62 13.5 91t58.5 29q44 0 58 -28
t14 -92z" />
    <glyph glyph-name="afii10032" unicode="&#x41e;" horiz-adv-x="792" 
d="M46 355q0 171 92.5 272t254.5 101q169 0 261 -101t92 -268t-91 -269t-258 -102t-259 100.5t-92 266.5zM599 358q0 118 -54 186.5t-149 68.5q-92 0 -147.5 -66t-55.5 -189t56.5 -189t145.5 -66t146.5 66t57.5 189z" />
    <glyph glyph-name="afii10033" unicode="&#x41f;" horiz-adv-x="730" 
d="M507 76v528h-283v-528q0 -88 -74 -88q-31 0 -51 22.5t-20 65.5v549q0 48 22 69.5t68 21.5h392q48 0 69 -21.5t21 -69.5v-549q0 -46 -20.5 -67t-52.5 -21q-31 0 -51 22.5t-20 65.5z" />
    <glyph glyph-name="afii10034" unicode="&#x420;" horiz-adv-x="667" 
d="M357 279h-134v-171q0 -75 -18 -97.5t-55 -22.5q-43 0 -57 26t-14 94v486q0 81 18.5 101.5t84.5 20.5h175q267 0 267 -211q0 -226 -267 -226zM322 604h-99v-213h99q85 0 120 27.5t35 79.5q0 59 -37.5 82.5t-117.5 23.5z" />
    <glyph glyph-name="afii10035" unicode="&#x421;" horiz-adv-x="740" 
d="M625 289q26 0 45 -18t19 -45q0 -38 -19.5 -78.5t-55 -76.5t-93.5 -59.5t-127 -23.5q-167 0 -255.5 104t-88.5 265q0 166 95.5 268.5t248.5 102.5q124 0 208 -71.5t84 -146.5q0 -24 -18 -43t-46 -19q-25 0 -38.5 13.5t-38.5 59.5q-24 44 -64 68t-88 24q-91 0 -143.5 -68.5
t-52.5 -193.5q0 -123 51 -185.5t141 -62.5q125 0 169 122q14 38 29 51t38 13z" />
    <glyph glyph-name="afii10036" unicode="&#x422;" horiz-adv-x="625" 
d="M516 604h-131v-496q0 -65 -16 -92.5t-56 -27.5q-45 0 -58.5 28t-13.5 92v496h-132q-59 0 -79.5 13t-20.5 43q0 31 18.5 43.5t81.5 12.5h407q57 0 78.5 -11t21.5 -45q0 -30 -19 -43t-81 -13z" />
    <glyph glyph-name="afii10037" unicode="&#x423;" horiz-adv-x="611" 
d="M185 667l138 -310l116 305q25 66 78 66q29 0 46.5 -15.5t17.5 -38.5q0 -24 -13 -54l-187 -437q-41 -100 -85.5 -147.5t-117.5 -47.5q-90 0 -90 62q0 22 15 37t39 15h21q17 0 24 1.5t21.5 9.5t27 31t26.5 62l-211 417q-11 21 -11 37q0 31 20.5 49.5t48.5 18.5
q27 0 43.5 -12.5t32.5 -48.5z" />
    <glyph glyph-name="afii10038" unicode="&#x424;" horiz-adv-x="857" 
d="M500 656v-11q163 -7 237.5 -82.5t74.5 -198.5t-74 -198.5t-238 -82.5v-16q0 -37 -21 -58t-52 -21q-28 0 -48.5 21t-20.5 58v16q-165 7 -239 82.5t-74 198.5q0 124 74 199t239 82v11q0 31 21 51.5t51 20.5q28 0 49 -21t21 -51zM358 199v330q-77 0 -122.5 -37t-45.5 -132
q0 -161 168 -161zM500 529v-330q167 0 167 164q0 166 -167 166z" />
    <glyph glyph-name="afii10039" unicode="&#x425;" horiz-adv-x="604" 
d="M57 138l158 231l-138 212q-38 58 -38 90q0 25 18.5 41t45.5 16q26 0 43 -16.5t49 -67.5l108 -174l114 174q9 14 16.5 24.5t13 19.5t11 15t8.5 10.5t7.5 7t6.5 4.5t7 2.5t6 0.5h8h9q26 0 43.5 -16.5t17.5 -39.5q0 -32 -38 -88l-141 -211l152 -234q38 -59 38 -89
q0 -27 -18 -44.5t-48 -17.5q-29 0 -43 13t-47 66l-126 198l-135 -204q-30 -48 -44.5 -60.5t-43.5 -12.5q-56 0 -56 60q0 38 36 90z" />
    <glyph glyph-name="afii10040" unicode="&#x426;" horiz-adv-x="738" 
d="M651 639v-527q34 -5 47 -24t13 -67v-116q0 -73 -57 -73q-24 0 -39.5 19t-15.5 54v95h-430q-48 0 -69 21.5t-21 68.5v549q0 45 20.5 67t52.5 22t52 -23t20 -66v-527h283v527q0 47 21 68t52 21q30 0 50.5 -22t20.5 -67z" />
    <glyph glyph-name="afii10041" unicode="&#x427;" horiz-adv-x="694" 
d="M470 404v235q0 47 21 68t52 21q30 0 51 -22t21 -67v-562q0 -47 -21 -68t-53 -21q-31 0 -51 23t-20 66v211q-88 -39 -170 -39q-251 0 -251 225v165q0 47 20.5 68t53.5 21q31 0 51 -23t20 -66v-94q0 -86 1 -98q2 -34 36 -58.5t94 -24.5q93 0 145 40z" />
    <glyph glyph-name="afii10042" unicode="&#x428;" horiz-adv-x="1013" 
d="M224 639v-527h207v527q0 47 21 68t52 21t51 -23t20 -66v-527h214v527q0 89 73 89q31 0 51 -23t20 -66v-549q0 -48 -21.5 -69t-68.5 -21h-674q-47 0 -68.5 22t-21.5 68v549q0 45 20.5 67t52.5 22q30 0 51 -22t21 -67z" />
    <glyph glyph-name="afii10043" unicode="&#x429;" horiz-adv-x="1024" 
d="M933 639v-527q36 -5 50 -24t14 -67v-116q0 -73 -57 -73q-24 0 -39.5 19t-15.5 54v95h-716q-48 0 -69 21.5t-21 68.5v549q0 45 20.5 67t52.5 22t52 -23t20 -66v-527h207v527q0 47 21 68t52 21q30 0 50.5 -22t20.5 -67v-527h214v527q0 89 73 89q30 0 50.5 -22t20.5 -67z
" />
    <glyph glyph-name="afii10044" unicode="&#x42a;" horiz-adv-x="875" 
d="M378 625v-201h194q124 0 191.5 -56.5t67.5 -151.5q0 -74 -38 -127t-83.5 -71t-137.5 -18h-248q-48 0 -69 21t-21 69v517h-152q-73 0 -73 55q0 23 18 38.5t55 15.5h207q47 0 68 -21.5t21 -69.5zM378 315v-206h142q86 0 126.5 21.5t40.5 83.5q0 49 -33.5 75t-127.5 26h-148
z" />
    <glyph glyph-name="afii10045" unicode="&#x42b;" horiz-adv-x="986" 
d="M224 639v-215h193q119 0 189.5 -52t70.5 -158q0 -71 -38 -124t-85 -71.5t-137 -18.5h-248q-48 0 -69 21.5t-21 68.5v549q0 45 20.5 67t53.5 22q30 0 50.5 -22t20.5 -67zM224 315v-206h140q69 0 99 8q29 8 49.5 35t20.5 63q0 47 -33.5 73.5t-128.5 26.5h-147zM906 608
v-500q0 -26 -1 -41t-4.5 -32.5t-11 -26t-21 -14.5t-33.5 -6q-46 0 -59.5 28t-13.5 92v500q0 64 13.5 92t58.5 28q44 0 58 -28t14 -92z" />
    <glyph glyph-name="afii10046" unicode="&#x42c;" horiz-adv-x="721" 
d="M224 639v-215h193q119 0 189.5 -52t70.5 -158q0 -71 -38 -124t-85 -71.5t-137 -18.5h-248q-48 0 -69 21.5t-21 68.5v549q0 45 20.5 67t53.5 22q30 0 50.5 -22t20.5 -67zM224 315v-206h140q69 0 99 8q29 8 49.5 35t20.5 63q0 47 -33.5 73.5t-128.5 26.5h-147z" />
    <glyph glyph-name="afii10047" unicode="&#x42d;" horiz-adv-x="740" 
d="M538 301h-167q-74 0 -74 57q0 23 18 39t56 16h167q-32 200 -191 200q-104 0 -160 -106q-18 -34 -32.5 -46.5t-37.5 -12.5q-29 0 -46 19t-17 44q0 76 84 146.5t211 70.5q149 0 244.5 -102.5t95.5 -269.5q0 -161 -88.5 -264.5t-255.5 -103.5q-69 0 -127 23t-93 59t-54.5 77
t-19.5 79q0 27 19 45.5t44 18.5q26 0 40 -14t27 -50q45 -124 169 -124q164 0 188 199z" />
    <glyph glyph-name="afii10048" unicode="&#x42e;" horiz-adv-x="1080" 
d="M335 320h-111v-212q0 -30 -2 -48t-9 -36.5t-22 -27t-40 -8.5q-45 0 -58.5 27t-13.5 93v500q0 67 16.5 93.5t55.5 26.5q44 0 58.5 -28t14.5 -92v-176h116q21 140 110 218t232 78q167 0 260 -100t93 -269q0 -167 -92 -269t-258 -102q-157 0 -247.5 90t-102.5 242zM888 358
q0 121 -55.5 187.5t-154.5 66.5q-85 0 -141 -65t-56 -189q0 -121 56.5 -188t145.5 -67q88 0 146.5 66t58.5 189z" />
    <glyph glyph-name="afii10049" unicode="&#x42f;" horiz-adv-x="719" 
d="M497 306h-51q-55 0 -87.5 -23.5t-82.5 -105.5l-59 -97q-37 -61 -56 -76.5t-45 -15.5q-30 0 -50.5 17t-20.5 41q0 31 61 134q60 102 134 143q-182 36 -182 195q0 103 69 150.5t190 47.5h203q56 0 80 -8q23 -8 32 -29.5t9 -84.5v-486q0 -72 -16.5 -96t-53.5 -24
q-47 0 -60.5 27t-13.5 93v198zM497 604h-135q-66 0 -92 -6t-45.5 -30t-19.5 -58q0 -50 37.5 -75.5t124.5 -25.5h130v195z" />
    <glyph glyph-name="afii10065" unicode="&#x430;" 
d="M406 63q-94 -75 -187 -75q-84 0 -131.5 43t-47.5 108q0 45 19 75.5t58.5 48t77 27t100 22t101.5 24.5q0 58 -22.5 80.5t-72.5 22.5q-92 0 -119 -51q-17 -31 -29 -42t-34 -11t-38.5 14.5t-16.5 35.5q0 56 60 100.5t173 44.5q128 0 180 -44t52 -169l-3 -125q0 -44 13 -94
t13 -57q0 -21 -18.5 -37t-42.5 -16q-40 0 -85 75zM397 256q-32 -13 -99 -26q-70 -14 -97.5 -31t-27.5 -51q0 -31 23.5 -52t63.5 -21q44 0 81 24t46.5 54.5t9.5 102.5z" />
    <glyph glyph-name="afii10066" unicode="&#x431;" horiz-adv-x="603" 
d="M141 423q70 94 181 94q107 0 176 -75t69 -185q0 -115 -75.5 -192t-193.5 -77q-129 0 -195.5 92t-66.5 271q0 181 61 269t198 88h14l56 -1h14q34 0 45 4q5 1 32.5 18.5t46.5 17.5q38 0 38 -41q0 -63 -40 -80t-146 -19q-62 -1 -94.5 -6.5t-61 -24.5t-40.5 -55t-18 -98z
M304 417q-55 0 -94 -44.5t-39 -117.5q0 -75 37.5 -121.5t93.5 -46.5q58 0 94 48t36 119q0 72 -37.5 117.5t-90.5 45.5z" />
    <glyph glyph-name="afii10067" unicode="&#x432;" horiz-adv-x="611" 
d="M460 265q52 -14 79.5 -49t27.5 -80q0 -60 -44.5 -98t-131.5 -38h-246q-42 0 -61.5 19.5t-19.5 61.5v356q0 82 81 82h220q184 0 184 -136q0 -45 -27 -78t-62 -40zM197 422v-119h94q77 0 103.5 16.5t26.5 45.5q0 27 -25 42t-105 15h-94zM197 220v-123h114q68 0 94.5 14
t26.5 44q0 38 -35.5 51.5t-123.5 13.5h-76z" />
    <glyph glyph-name="afii10068" unicode="&#x433;" horiz-adv-x="430" 
d="M358 422h-161v-350q0 -44 -19 -64t-48 -20q-28 0 -47 20t-19 64v365q0 82 81 82h213q68 0 68 -50q0 -20 -16.5 -33.5t-51.5 -13.5z" />
    <glyph glyph-name="afii10069" unicode="&#x434;" horiz-adv-x="638" 
d="M519 -80v80h-422v-80q0 -68 -49 -68q-21 0 -34.5 17t-13.5 51v97v15q0 49 4 57t28 8h12q91 110 94 319q0 50 7 64q18 39 75 39h259q42 0 61.5 -20t19.5 -62v-340h24h5q19 0 23 -9t4 -57v-111q0 -68 -50 -68q-20 0 -33.5 16.5t-13.5 51.5zM181 97h247v325h-169
q-3 -117 -19.5 -191.5t-58.5 -133.5z" />
    <glyph glyph-name="afii10070" unicode="&#x435;" 
d="M441 226h-262q2 -72 39.5 -111t94.5 -39q67 0 126 59q23 23 34.5 29.5t26.5 6.5q18 0 31 -11.5t13 -27.5q0 -49 -65 -96.5t-163 -47.5q-132 0 -202 74t-70 197q0 122 70 196.5t191 74.5q112 0 179 -69t67 -156q0 -39 -23.5 -59t-86.5 -20zM179 302h243q-3 64 -36 100
t-85 36q-106 0 -122 -136z" />
    <glyph glyph-name="afii10072" unicode="&#x436;" horiz-adv-x="792" 
d="M328 72v149q-8 0 -15.5 -2.5t-13 -5t-11 -9t-9 -9.5t-8.5 -11.5t-6.5 -11t-6 -12t-5.5 -10.5l-43 -97q-19 -43 -34.5 -54.5t-48.5 -11.5q-59 0 -59 43q0 24 18 59l22 42q37 71 61 98t60 37q-45 17 -69 88q-19 52 -28 61q-9 10 -27.5 13.5t-35 4t-29.5 10.5t-13 31
q0 23 18 35.5t68 12.5q54 0 83.5 -22.5t56.5 -97.5q23 -64 34.5 -79t40.5 -16v140q0 83 69 83q29 0 48.5 -20t19.5 -63v-140q26 0 39 16.5t36 78.5q27 75 57 97.5t80 22.5q55 0 72 -12.5t17 -35.5q0 -44 -58 -45q-36 -1 -47.5 -13t-28.5 -62q-15 -44 -30 -61t-39 -27
q37 -12 61 -38t61 -97l22 -42q18 -35 18 -57q0 -44 -58 -44q-27 0 -42.5 7.5t-22 18t-19.5 39.5l-43 97q-25 48 -45 61q-14 9 -30 10v-149q0 -84 -69 -84q-29 0 -48.5 20t-19.5 64z" />
    <glyph glyph-name="afii10073" unicode="&#x437;" horiz-adv-x="529" 
d="M371 263q114 -31 114 -127q0 -62 -58 -105t-161 -43q-99 0 -160.5 44.5t-61.5 99.5q0 25 18.5 43.5t44.5 18.5q23 0 36.5 -11.5t30.5 -42.5q27 -53 91 -53q38 0 62 18t24 44q0 28 -22.5 45.5t-65.5 18.5q-55 1 -55 44t50 45q37 1 57 21t20 47q0 25 -18.5 43t-52.5 18
t-52 -13.5t-33 -44.5q-22 -46 -60 -46q-24 0 -41.5 16.5t-17.5 41.5q0 54 60 99.5t146 45.5q92 0 144.5 -42t52.5 -109q0 -75 -92 -116z" />
    <glyph glyph-name="afii10074" unicode="&#x438;" horiz-adv-x="601" 
d="M197 449v-256l178 282q22 34 40 44.5t40 10.5q81 0 81 -102v-359q0 -43 -19 -62t-48 -19q-27 0 -46 19.5t-19 61.5v262l-181 -289q-21 -33 -37.5 -44t-39.5 -11q-34 0 -58 24t-24 77v361q0 43 19 62t48 19q28 0 47 -20t19 -61z" />
    <glyph glyph-name="afii10075" unicode="&#x439;" horiz-adv-x="601" 
d="M197 449v-256l178 282q22 34 40 44.5t40 10.5q81 0 81 -102v-359q0 -43 -19 -62t-48 -19q-27 0 -46 19.5t-19 61.5v262l-181 -289q-21 -33 -37.5 -44t-39.5 -11q-34 0 -58 24t-24 77v361q0 43 19 62t48 19q28 0 47 -20t19 -61zM178 756q22 0 31 -39q20 -62 93 -62
q78 0 94 75q6 26 28 26q12 0 20.5 -10t8.5 -23q0 -49 -43 -92t-107 -43q-67 0 -111 43t-44 92q0 12 9 22.5t21 10.5z" />
    <glyph glyph-name="afii10076" unicode="&#x43a;" horiz-adv-x="518" 
d="M64 72v375q0 83 68 83q27 0 46 -20.5t19 -62.5v-140q27 0 40.5 16.5t35.5 78.5q27 75 58.5 97.5t82.5 22.5q33 0 51 -8t22 -17t4 -23q0 -44 -55 -45q-34 -1 -44.5 -13.5t-26.5 -61.5q-23 -72 -65 -88q62 -18 112 -116l29 -57q17 -32 17 -51q0 -24 -17.5 -39t-44.5 -15
q-28 0 -45 15t-34 54l-41 93q-18 41 -35 55.5t-44 15.5v-149q0 -84 -67 -84q-29 0 -47.5 21.5t-18.5 62.5z" />
    <glyph glyph-name="afii10077" unicode="&#x43b;" horiz-adv-x="638" 
d="M440 422h-194v-245q0 -102 -34 -144t-106 -42q-56 0 -82.5 15.5t-26.5 51.5q0 46 50 46q6 0 17 -1t13 -1q21 0 29 13.5t8 51.5v271q0 42 19 61.5t61 19.5h299q42 0 61 -19.5t19 -62.5v-365q0 -84 -68 -84q-27 0 -46 20t-19 64v350z" />
    <glyph glyph-name="afii10078" unicode="&#x43c;" horiz-adv-x="727" 
d="M255 461l108 -304l110 304q12 35 28.5 46.5t50.5 11.5h38q73 0 73 -82v-377q0 -72 -60 -72q-25 0 -41.5 18.5t-16.5 53.5v281l-105 -285q-16 -41 -35 -54.5t-44 -13.5q-29 0 -47 16t-32 56l-100 281v-281q0 -72 -60 -72q-24 0 -41 17.5t-17 54.5v377q0 82 73 82h38
q35 0 51.5 -12t28.5 -46z" />
    <glyph glyph-name="afii10079" unicode="&#x43d;" horiz-adv-x="600" 
d="M197 446v-124h206v124q0 44 19 64t48 20q28 0 47 -20t19 -64v-374q0 -44 -19.5 -64t-48.5 -20t-47 21.5t-18 62.5v153h-206v-153q0 -44 -19 -64t-48 -20q-28 0 -47 20t-19 64v374q0 43 19 63.5t49 20.5q27 0 46 -20.5t19 -63.5z" />
    <glyph glyph-name="afii10080" unicode="&#x43e;" horiz-adv-x="604" 
d="M302 530q122 0 194 -76t72 -195t-72.5 -195t-190.5 -76q-126 0 -197.5 75.5t-71.5 195.5q0 119 72 195t194 76zM302 87q60 0 95.5 46t35.5 126t-35.5 126t-95.5 46t-95.5 -46t-35.5 -126t35.5 -126t95.5 -46z" />
    <glyph glyph-name="afii10081" unicode="&#x43f;" horiz-adv-x="589" 
d="M393 72v350h-196v-350q0 -84 -66 -84q-29 0 -48 22t-19 62v365q0 44 19.5 63t61.5 19h299q44 0 62.5 -19.5t18.5 -62.5v-365q0 -44 -19.5 -64t-49.5 -20q-27 0 -45 20t-18 64z" />
    <glyph glyph-name="afii10082" unicode="&#x440;" horiz-adv-x="625" 
d="M188 455v-14q71 89 174 89q101 0 162 -77.5t61 -199.5q0 -116 -59.5 -190.5t-162.5 -74.5q-100 0 -175 83v-174q0 -69 -16 -88t-50 -19q-37 0 -52 24.5t-15 86.5v526q0 58 13.5 80.5t53.5 22.5q66 0 66 -75zM450 256q0 83 -35.5 127.5t-87.5 44.5q-58 0 -94.5 -43.5
t-36.5 -119.5q0 -80 36 -127.5t96 -47.5q55 0 88.5 44.5t33.5 121.5z" />
    <glyph glyph-name="afii10083" unicode="&#x441;" 
d="M490 211q24 0 40.5 -18.5t16.5 -39.5q0 -58 -68 -111.5t-171 -53.5q-128 0 -196.5 73t-68.5 195q0 123 71 198.5t196 75.5q95 0 162.5 -50.5t67.5 -104.5q0 -24 -17.5 -40.5t-41.5 -16.5q-30 0 -46 25q-35 52 -62 68.5t-64 16.5q-62 0 -97.5 -48t-35.5 -123t36.5 -122.5
t96.5 -47.5q72 0 114 66q22 35 35 46.5t32 11.5z" />
    <glyph glyph-name="afii10084" unicode="&#x442;" horiz-adv-x="500" 
d="M429 422h-113v-350q0 -44 -19 -64t-48 -20q-27 0 -46 20.5t-19 63.5v350h-112q-68 0 -68 49q0 20 16.5 34t51.5 14h357q68 0 68 -50q0 -19 -17 -33t-51 -14z" />
    <glyph glyph-name="afii10085" unicode="&#x443;" horiz-adv-x="542" 
d="M192 -29l12 30l-163 413q-15 37 -15 55q0 24 19 42.5t45 18.5q23 0 39 -15t30 -56l113 -328l107 304q23 65 34.5 80t41.5 15q25 0 42 -18t17 -38q0 -23 -16 -64l-174 -455q-37 -97 -74.5 -131t-123.5 -34q-116 0 -116 59q0 20 13 33t35 13l45 -3q35 0 53 17t36 62z" />
    <glyph glyph-name="afii10086" unicode="&#x444;" horiz-adv-x="866" 
d="M500 644v-191q51 77 140 77q82 0 136 -80.5t54 -193.5q0 -110 -59 -189t-141 -79q-75 0 -130 73v-188q0 -43 -19.5 -62.5t-48.5 -19.5t-47 21t-18 61v188q-61 -73 -138 -73q-83 0 -138 78t-55 195q0 112 61.5 190.5t136.5 78.5q79 0 133 -74v188q0 84 68 84
q29 0 47 -21.5t18 -62.5zM367 263q0 77 -27.5 121t-66.5 44q-42 0 -72 -47.5t-30 -122.5q0 -70 28.5 -119.5t71.5 -49.5q42 0 69 48t27 126zM695 257q0 72 -27.5 121.5t-73.5 49.5q-40 0 -67 -49t-27 -126q0 -72 27 -118t68 -46q39 0 69.5 50t30.5 118z" />
    <glyph glyph-name="afii10087" unicode="&#x445;" horiz-adv-x="521" 
d="M358 43l-98 141l-98 -141q-23 -34 -39.5 -44.5t-35.5 -10.5q-25 0 -42.5 15.5t-17.5 35.5q0 22 27 61l121 173l-107 144q-28 37 -28 60t17 38t44 15q22 0 36.5 -11.5t37.5 -43.5l85 -118l85 118q25 34 40.5 44.5t35.5 10.5q26 0 43 -14.5t17 -35.5q0 -25 -29 -63
l-107 -144l120 -173q29 -41 29 -60q0 -21 -17.5 -36.5t-39.5 -15.5q-42 0 -79 55z" />
    <glyph glyph-name="afii10088" unicode="&#x446;" horiz-adv-x="611" 
d="M197 446v-349h205v349q0 84 68 84q29 0 47 -21.5t18 -62.5v-349h19q25 0 30 -7.5t5 -46.5v-124q0 -67 -49 -67q-20 0 -34 16.5t-14 50.5v81h-347q-42 0 -61.5 19.5t-19.5 61.5v365q0 84 68 84q27 0 46 -20t19 -64z" />
    <glyph glyph-name="afii10089" unicode="&#x447;" horiz-adv-x="566" 
d="M369 302v144q0 44 19.5 64t48.5 20q26 0 45.5 -21t19.5 -63v-374q0 -44 -19.5 -64t-47.5 -20q-27 0 -46.5 20t-19.5 64v135q-83 -21 -126 -21q-63 0 -114 26.5t-69 68.5q-18 39 -18 114v51q0 44 19.5 64t49.5 20q27 0 45 -20t18 -64v-51q0 -57 24 -83.5t85 -26.5
q38 0 86 17z" />
    <glyph glyph-name="afii10090" unicode="&#x448;" horiz-adv-x="826" 
d="M197 446v-349h150v349q0 44 19 64t48 20q27 0 46 -20.5t19 -63.5v-349h149v349q0 44 19.5 64t48.5 20q27 0 46 -20t19 -64v-365q0 -44 -19 -62.5t-62 -18.5h-535q-42 0 -61.5 19.5t-19.5 61.5v365q0 43 19 63.5t49 20.5q27 0 46 -20t19 -64z" />
    <glyph glyph-name="afii10091" unicode="&#x449;" horiz-adv-x="839" 
d="M761 446v-349h21q25 0 30 -7.5t5 -46.5v-124q0 -67 -49 -67q-20 0 -33.5 17t-13.5 50v81h-576q-42 0 -61.5 19.5t-19.5 61.5v365q0 43 19.5 63.5t51.5 20.5q27 0 44.5 -20t17.5 -64v-349h150v349q0 44 19 64t48 20q27 0 46 -20.5t19 -63.5v-349h150v349q0 44 19.5 64
t48.5 20t46.5 -21.5t17.5 -62.5z" />
    <glyph glyph-name="afii10092" unicode="&#x44a;" horiz-adv-x="713" 
d="M190 81v341h-118q-68 0 -68 49q0 20 16.5 34t51.5 14h171q42 0 61 -19.5t19 -62.5v-116h138q108 0 165 -40t57 -118q0 -71 -52.5 -117t-169.5 -46h-190q-43 0 -62 19.5t-19 61.5zM323 224v-127h123q102 0 102 64q0 63 -102 63h-123z" />
    <glyph glyph-name="afii10093" unicode="&#x44b;" horiz-adv-x="836" 
d="M197 446v-125h138q108 0 165 -40.5t57 -117.5q0 -71 -52.5 -117t-169.5 -46h-190q-42 0 -61.5 19.5t-19.5 61.5v365q0 42 19.5 63t49.5 21q27 0 45.5 -20t18.5 -64zM197 224v-127h123q102 0 102 64q0 63 -102 63h-123zM772 421v-323q0 -58 -13.5 -84t-52.5 -26t-53 26
t-14 84v322q0 62 15 86t51 24q40 0 53.5 -25.5t13.5 -83.5z" />
    <glyph glyph-name="afii10094" unicode="&#x44c;" horiz-adv-x="587" 
d="M197 446v-125h138q108 0 165 -40.5t57 -117.5q0 -71 -52.5 -117t-169.5 -46h-190q-42 0 -61.5 19.5t-19.5 61.5v365q0 42 19.5 63t49.5 21q27 0 45.5 -20t18.5 -64zM197 224v-127h123q102 0 102 64q0 63 -102 63h-123z" />
    <glyph glyph-name="afii10095" unicode="&#x44d;" 
d="M414 224h-133q-51 0 -51 37q0 39 51 39h133q-4 58 -41 93t-88 35q-33 0 -60 -15t-58 -59q-25 -36 -53 -36q-25 0 -42 16.5t-17 40.5q0 49 63.5 102t156.5 53q130 0 203 -74.5t73 -201.5q0 -120 -69.5 -193t-191.5 -73q-107 0 -175 53.5t-68 109.5q0 24 16.5 42t40.5 18
q20 0 31.5 -9.5t29.5 -38.5q25 -40 50.5 -58t68.5 -18q110 0 130 137z" />
    <glyph glyph-name="afii10096" unicode="&#x44e;" horiz-adv-x="879" 
d="M197 311h118q18 105 87.5 162t174.5 57q121 0 193.5 -76t72.5 -195q0 -120 -72 -195.5t-194 -75.5q-107 0 -176.5 58.5t-86.5 167.5h-117v-143q0 -83 -67 -83q-29 0 -47.5 21.5t-18.5 61.5v376q0 83 68 83q27 0 46 -20.5t19 -62.5v-136zM577 87q60 0 95.5 46t35.5 126
t-35.5 126t-95.5 46t-95.5 -46t-35.5 -126t35.5 -126t95.5 -46z" />
    <glyph glyph-name="afii10097" unicode="&#x44f;" horiz-adv-x="580" 
d="M171 225q-57 3 -93 43.5t-36 102.5q0 83 49 115.5t155 32.5h189q42 0 61.5 -20t19.5 -62v-366q0 -44 -19.5 -63.5t-49.5 -19.5q-29 0 -46.5 21t-17.5 62v144h-21q-48 0 -70 -12.5t-50 -57.5l-58 -89q-28 -43 -43 -55.5t-38 -12.5q-27 0 -46 16t-19 37q0 22 22 56l35 53
q42 65 76 75zM383 299v123h-102q-68 0 -90 -15.5t-22 -42.5q0 -31 24 -48t97 -17h93z" />
    <glyph glyph-name="afii10071" unicode="&#x451;" 
d="M441 226h-262q2 -72 39.5 -111t94.5 -39q67 0 126 59q23 23 34.5 29.5t26.5 6.5q18 0 31 -11.5t13 -27.5q0 -49 -65 -96.5t-163 -47.5q-132 0 -202 74t-70 197q0 122 70 196.5t191 74.5q112 0 179 -69t67 -156q0 -39 -23.5 -59t-86.5 -20zM179 302h243q-3 64 -36 100
t-85 36q-106 0 -122 -136zM218 705q22 0 38.5 -16.5t16.5 -38.5q0 -23 -16 -39t-39 -16t-39 16t-16 39t16 39t39 16zM407 705q23 0 39 -16t16 -39t-16 -39t-39 -16t-39 16t-16 39q0 22 16.5 38.5t38.5 16.5z" />
    <glyph glyph-name="afii10099" unicode="&#x452;" horiz-adv-x="604" 
d="M541 324v-324q0 -116 -31.5 -163t-127.5 -47q-117 0 -117 64q0 24 14 39t36 15q6 0 24 -1.5t25 -1.5q28 0 36 23.5t8 71.5v293q0 81 -25.5 107t-65.5 26q-64 0 -91.5 -43.5t-27.5 -137.5v-155q0 -57 -15 -79.5t-51 -22.5q-40 0 -53 24.5t-13 77.5v494h-31q-43 0 -43 36
q0 35 43 35h31q3 73 66 73q28 0 46.5 -18t19.5 -55h131q44 0 44 -35q0 -36 -44 -36h-131v-135q69 81 164 81q86 0 132.5 -51.5t46.5 -154.5z" />
    <glyph glyph-name="afii10100" unicode="&#x453;" horiz-adv-x="430" 
d="M358 422h-161v-350q0 -44 -19 -64t-48 -20q-28 0 -47 20t-19 64v365q0 82 81 82h213q68 0 68 -50q0 -20 -16.5 -33.5t-51.5 -13.5zM211 632l18 34q21 39 35 47t59 8h49q24 0 24 -7q0 -8 -51 -55q-58 -52 -76.5 -63.5t-55.5 -11.5q-19 0 -19 12q0 4 17 36z" />
    <glyph glyph-name="afii10101" unicode="&#x454;" 
d="M181 294h132q51 0 51 -37q0 -39 -51 -39h-132q3 -58 40 -93t89 -35q32 0 59 15t58 59q25 36 53 36q25 0 42.5 -16.5t17.5 -39.5q0 -50 -64.5 -103t-157.5 -53q-131 0 -203 73.5t-72 202.5q0 120 69.5 193t192.5 73q106 0 174 -53.5t68 -109.5q0 -24 -16.5 -42t-40.5 -18
q-20 0 -31.5 9.5t-29.5 38.5q-24 39 -50.5 57.5t-67.5 18.5q-110 0 -130 -137z" />
    <glyph glyph-name="afii10102" unicode="&#x455;" horiz-adv-x="542" 
d="M170 391q0 -26 26.5 -40.5t120.5 -37.5q181 -43 181 -151q0 -84 -60.5 -129t-171.5 -45q-105 0 -164.5 43.5t-59.5 99.5q0 22 15.5 37.5t38.5 15.5q31 0 55 -39q44 -71 126 -71q39 0 64.5 18t25.5 45q0 19 -7 30.5t-37.5 25t-92.5 27.5q-182 40 -182 155q0 65 55 110
t157 45q91 0 151.5 -38.5t60.5 -83.5q0 -23 -15 -38t-40 -15q-38 0 -70 44q-31 45 -93 45q-36 0 -60 -14t-24 -39z" />
    <glyph glyph-name="afii10103" unicode="&#x456;" horiz-adv-x="271" 
d="M136 722q26 0 45 -19.5t19 -45.5q0 -27 -19 -46t-45 -19q-27 0 -46 19t-19 46t19 46t46 19zM202 421v-323q0 -58 -13.5 -84t-52.5 -26t-53 26t-14 84v322q0 62 15 86t51 24q40 0 53.5 -25.5t13.5 -83.5z" />
    <glyph glyph-name="afii10104" unicode="&#x457;" horiz-adv-x="271" 
d="M202 421v-323q0 -58 -13.5 -84t-52.5 -26t-53 26t-14 84v322q0 62 15 86t51 24q40 0 53.5 -25.5t13.5 -83.5zM42 705q22 0 38.5 -16.5t16.5 -38.5q0 -23 -16 -39t-39 -16t-39 16t-16 39t16 39t39 16zM231 705q23 0 39 -16t16 -39t-16 -39t-39 -16t-39 16t-16 39
q0 22 16.5 38.5t38.5 16.5z" />
    <glyph glyph-name="afii10105" unicode="&#x458;" horiz-adv-x="271" 
d="M136 722q26 0 45 -19.5t19 -45.5q0 -27 -19 -46t-45 -19q-27 0 -46 19t-19 46t19 46t46 19zM71 2v418q0 60 12.5 85t52.5 25q39 0 52.5 -25t13.5 -85v-418q0 -37 -0.5 -54.5t-4.5 -47.5t-13.5 -45.5t-26 -33t-43.5 -24.5t-64 -7q-123 0 -123 65q0 23 14 38.5t36 15.5
l49 -3q25 0 35 19t10 77z" />
    <glyph glyph-name="afii10106" unicode="&#x459;" horiz-adv-x="958" 
d="M436 81v341h-190v-245q0 -102 -34 -144t-106 -42q-56 0 -82.5 15.5t-26.5 51.5q0 46 48 46h14q16 -2 18 -2q21 0 29 14t8 51v270q0 44 19 63t61 19h294q44 0 62 -19.5t18 -62.5v-116h139q108 0 164.5 -40t56.5 -118q0 -73 -55 -118t-134 -45h-222q-44 0 -62.5 19
t-18.5 62zM568 224v-127h124q94 0 94 64q0 63 -94 63h-124z" />
    <glyph glyph-name="afii10107" unicode="&#x45a;" horiz-adv-x="883" 
d="M361 81v143h-164v-153q0 -83 -66 -83q-29 0 -48 21.5t-19 61.5v376q0 44 19.5 63.5t49.5 19.5q28 0 46 -21.5t18 -61.5v-126h164v126q0 43 19.5 63t48.5 20q28 0 46 -20t18 -63v-126h138q114 0 168 -42.5t54 -115.5t-55 -118t-134 -45h-223q-42 0 -61 19.5t-19 61.5z
M493 224v-127h124q55 0 74 17.5t19 46.5q0 63 -93 63h-124z" />
    <glyph glyph-name="afii10108" unicode="&#x45b;" horiz-adv-x="604" 
d="M66 655q4 73 65 73q63 0 67 -73h100q75 0 75 -35q0 -36 -64 -36h-111v-135q68 81 164 81q81 0 130 -50t49 -156v-242q0 -49 -16 -71.5t-52 -22.5q-35 0 -50 22.5t-15 71.5v211q0 72 -22 102.5t-70 30.5q-62 0 -90 -43.5t-28 -137.5v-155q0 -57 -15 -79.5t-51 -22.5
q-41 0 -54 24.5t-13 77.5v494q-74 0 -74 36q0 35 75 35z" />
    <glyph glyph-name="afii10109" unicode="&#x45c;" horiz-adv-x="518" 
d="M64 72v375q0 83 68 83q27 0 46 -20.5t19 -62.5v-140q27 0 40.5 16.5t35.5 78.5q27 75 58.5 97.5t82.5 22.5q33 0 51 -8t22 -17t4 -23q0 -44 -55 -45q-34 -1 -44.5 -13.5t-26.5 -61.5q-23 -72 -65 -88q62 -18 112 -116l29 -57q17 -32 17 -51q0 -24 -17.5 -39t-44.5 -15
q-28 0 -45 15t-34 54l-41 93q-18 41 -35 55.5t-44 15.5v-149q0 -84 -67 -84q-29 0 -47.5 21.5t-18.5 62.5zM217 632l18 34q21 39 35 47t59 8h49q24 0 24 -7q0 -8 -51 -55q-58 -52 -76.5 -63.5t-55.5 -11.5q-19 0 -19 12q0 4 17 36z" />
    <glyph glyph-name="afii10110" unicode="&#x45e;" horiz-adv-x="542" 
d="M192 -29l12 30l-163 413q-15 37 -15 55q0 24 19 42.5t45 18.5q23 0 39 -15t30 -56l113 -328l107 304q23 65 34.5 80t41.5 15q25 0 42 -18t17 -38q0 -23 -16 -64l-174 -455q-37 -97 -74.5 -131t-123.5 -34q-116 0 -116 59q0 20 13 33t35 13l45 -3q35 0 53 17t36 62z
M140 756q22 0 31 -39q20 -62 93 -62q78 0 94 75q6 26 28 26q12 0 20.5 -10t8.5 -23q0 -49 -43 -92t-107 -43q-67 0 -111 43t-44 92q0 12 9 22.5t21 10.5z" />
    <glyph glyph-name="afii10193" unicode="&#x45f;" horiz-adv-x="600" 
d="M455 0h-107v-143q0 -66 -49 -66q-20 0 -34 16t-14 50v143h-106q-42 0 -61.5 19.5t-19.5 61.5v366q0 42 19 62.5t49 20.5q27 0 46 -20.5t19 -62.5v-350h206v350q0 83 67 83q27 0 46 -20.5t19 -62.5v-366q0 -44 -19 -62.5t-61 -18.5z" />
    <glyph glyph-name="afii10146" unicode="&#x462;" horiz-adv-x="721" 
d="M306 521h-82v-97h193q119 0 189.5 -52t70.5 -158q0 -71 -38 -124t-85 -71.5t-137 -18.5h-248q-48 0 -69 21.5t-21 68.5v431h-21q-58 0 -58 46q0 45 58 45h21v27q0 45 20.5 67t53.5 22q30 0 50.5 -22t20.5 -67v-27h82h25t20 -2.5t18 -7t9.5 -13.5t4.5 -22q0 -22 -12 -32.5
t-25 -12t-40 -1.5zM224 315v-206h140q69 0 99 8q29 8 49.5 35t20.5 63q0 47 -33.5 73.5t-128.5 26.5h-147z" />
    <glyph glyph-name="afii10194" unicode="&#x463;" horiz-adv-x="587" 
d="M313 498h-116v-177h138q108 0 165 -40.5t57 -117.5q0 -71 -52.5 -117t-169.5 -46h-190q-42 0 -61.5 19.5t-19.5 61.5v417q-73 0 -73 46q0 44 73 45v55q0 42 19.5 63t49.5 21q27 0 45.5 -20t18.5 -64v-55h105q71 0 71 -42q0 -49 -60 -49zM197 224v-127h123q102 0 102 64
q0 63 -102 63h-123z" />
    <glyph glyph-name="afii10147" unicode="&#x472;" horiz-adv-x="792" 
d="M503 352q22 0 93 55q-12 100 -65 153t-134 53q-75 0 -126.5 -44t-68.5 -121q59 35 101 35q29 0 54.5 -14.5t71.5 -60.5q36 -37 48.5 -46.5t25.5 -9.5zM396 103q71 0 124.5 45.5t69.5 120.5q-61 -36 -102 -36q-28 0 -53.5 14.5t-74.5 60.5q-58 56 -71 56q-25 0 -94 -54
q7 -96 63.5 -151.5t137.5 -55.5zM393 728q83 0 148 -25t102.5 -63t61.5 -89t32.5 -97.5t8.5 -94.5q0 -52 -9.5 -101t-34.5 -99t-63 -87t-100.5 -60.5t-141.5 -23.5t-141.5 23t-101 60t-63.5 86.5t-35 98t-10 99.5q0 164 88 268.5t259 104.5z" />
    <glyph glyph-name="afii10195" unicode="&#x473;" horiz-adv-x="604" 
d="M302 530q122 0 194 -76t72 -195t-72.5 -195t-190.5 -76q-126 0 -197.5 75.5t-71.5 195.5q0 119 72 195t194 76zM302 87q46 0 78 27.5t45 77.5q-35 -24 -61 -24q-28 0 -75 54q-41 46 -61 46q-19 0 -56 -35q5 -69 39.5 -107.5t90.5 -38.5zM302 431q-45 0 -77 -27t-46 -76
q37 32 58 32q28 0 75 -54q41 -47 62 -47q26 0 58 18q-4 72 -38.5 113t-91.5 41z" />
    <glyph glyph-name="afii10148" unicode="&#x474;" horiz-adv-x="720" 
d="M346 153q106 325 132 404q60 171 188 171q81 0 81 -55q0 -25 -11.5 -38.5t-43.5 -25.5q-60 -21 -100 -133l-126 -353q-33 -88 -56.5 -111.5t-65.5 -23.5q-43 0 -67 23.5t-56 111.5l-172 469q-19 51 -19 69q0 25 20 46t51 21q19 0 31.5 -5.5t22.5 -21.5t14.5 -27t14.5 -41
z" />
    <glyph glyph-name="afii10196" unicode="&#x475;" horiz-adv-x="574" 
d="M271 143l100 267q45 120 149 120q36 0 53.5 -12.5t17.5 -31.5q0 -21 -9.5 -34t-38.5 -21q-43 -12 -68 -75l-109 -266q-24 -64 -40.5 -83t-54.5 -19q-21 0 -34.5 5.5t-25 21.5t-18 29.5t-19.5 45.5l-127 314q-2 5 -8 18t-9 23.5t-3 21.5q0 22 16.5 42.5t47.5 20.5
q21 0 35 -12t19.5 -25t17.5 -46z" />
    <glyph glyph-name="afii10050" unicode="&#x490;" horiz-adv-x="466" 
d="M169 716h157v95q0 73 57 73q24 0 39.5 -19t15.5 -54v-117q0 -48 -21 -69t-69 -21h-124v-528q0 -88 -74 -88q-31 0 -51 22.5t-20 65.5v549q0 48 22 69.5t68 21.5z" />
    <glyph glyph-name="afii10098" unicode="&#x491;" horiz-adv-x="389" 
d="M145 519h132v80q0 68 49 68q20 0 33.5 -16.5t13.5 -51.5v-97q0 -43 -19 -61.5t-62 -18.5h-95v-350q0 -44 -19 -64t-48 -20q-28 0 -47 20t-19 64v365q0 82 81 82z" />
    <glyph glyph-name="uni0492" unicode="&#x492;" horiz-adv-x="592" 
d="M79 404v221q0 48 22 69.5t68 21.5h333q74 0 74 -57q0 -23 -18.5 -39t-55.5 -16h-278v-200h87q20 0 30.5 -1t23 -5t18 -14t5.5 -26q0 -22 -12 -32.5t-25 -12t-40 -1.5h-87v-236q0 -88 -74 -88q-31 0 -51 22.5t-20 65.5v236h-21q-58 0 -58 46t58 46h21z" />
    <glyph glyph-name="uni0493" unicode="&#x493;" horiz-adv-x="430" 
d="M273 229h-76v-157q0 -44 -19 -64t-48 -20q-28 0 -47 20t-19 64v157q-66 0 -66 46q0 43 66 45v117q0 82 81 82h213q68 0 68 -50q0 -20 -16.5 -33.5t-51.5 -13.5h-161v-102h65q75 0 75 -45q0 -19 -16.5 -32.5t-47.5 -13.5z" />
    <glyph glyph-name="uni0496" unicode="&#x496;" horiz-adv-x="901" 
d="M893 -50v-80q0 -16 -1 -24.5t-6 -20.5t-18 -18t-34 -6t-34 5.5t-18 18t-6 21t-1 24.5v80q0 26 4 38q-32 0 -46 13t-38 68l-80 165q-26 49 -45 63.5t-47 15.5v-238q0 -45 -21 -66t-52 -21q-30 0 -51 21t-21 66v238q-27 0 -45.5 -15t-45.5 -64l-80 -165
q-22 -52 -37.5 -66.5t-47.5 -14.5q-29 0 -52 16t-23 38q0 26 23 74l33 69q37 78 74 124.5t83 59.5q-27 14 -44 33t-23 32.5t-17 43.5q-28 82 -45 103.5t-58 28.5q-54 9 -54 57q0 22 15.5 37.5t45.5 15.5q49 0 88 -20.5t60 -54.5q24 -40 56 -124q25 -66 43 -86.5t51 -23.5
v230q0 45 21.5 66t52.5 21q32 0 51.5 -22t19.5 -65v-230q29 0 48 21q15 16 56.5 111.5t44.5 100.5q20 35 60.5 55.5t89.5 20.5q27 0 43.5 -14.5t16.5 -38.5q0 -51 -53 -57q-43 -6 -58.5 -27t-45.5 -105q-10 -28 -17 -43t-24 -33.5t-42 -32.5q47 -14 81.5 -59t74.5 -125
l34 -69q22 -44 22 -72q0 -14 -9 -26q22 -2 33.5 -14t13 -23t1.5 -31z" />
    <glyph glyph-name="uni0497" unicode="&#x497;" horiz-adv-x="792" 
d="M780 -50v-80q0 -16 -1 -24.5t-6 -20.5t-18 -18t-34 -6t-34 5.5t-18 18t-6 21t-1 24.5v80q0 26 4 38q-27 0 -42 7.5t-21.5 18t-19.5 39.5l-43 97q-25 48 -45 61q-14 9 -30 10v-149q0 -84 -69 -84q-29 0 -48.5 20t-19.5 64v149q-8 0 -15.5 -2.5t-13 -5t-11 -9t-9 -9.5
t-8.5 -11.5t-6.5 -11t-6 -12t-5.5 -10.5l-43 -97q-19 -43 -34.5 -54.5t-48.5 -11.5q-59 0 -59 43q0 24 18 59l22 42q37 71 61 98t60 37q-45 17 -69 88q-19 52 -28 61q-9 10 -27.5 13.5t-35 4t-29.5 10.5t-13 31q0 23 18 35.5t68 12.5q54 0 83.5 -22.5t56.5 -97.5
q23 -64 34.5 -79t40.5 -16v140q0 83 69 83q29 0 48.5 -20t19.5 -63v-140q26 0 39 16.5t36 78.5q27 75 57 97.5t80 22.5q55 0 72 -12.5t17 -35.5q0 -44 -58 -45q-36 -1 -47.5 -13t-28.5 -62q-15 -44 -30 -61t-39 -27q37 -12 61 -38t61 -97l22 -42q18 -35 18 -57q0 -5 -2 -13
q20 0 32.5 -6t17.5 -18t6 -20.5t1 -24.5z" />
    <glyph glyph-name="uni049A" unicode="&#x49a;" horiz-adv-x="602" 
d="M592 -50v-80q0 -16 -1 -24.5t-6 -20.5t-18 -18t-34 -6t-34 5.5t-18 18t-6 21t-1 24.5v80q0 26 4 38q-31 1 -44.5 14t-37.5 67l-47 104l-3 6t-5.5 10t-6.5 11l-19 34q-27 49 -45.5 64t-45.5 15v-238q0 -45 -21 -66t-53 -21q-29 0 -50 21t-21 66v566q0 45 21 66t52 21
q30 0 51 -21.5t21 -65.5v-230q28 0 48 21q15 16 55.5 110.5t44.5 100.5q21 35 62 56t88 21q28 0 44.5 -14.5t16.5 -38.5q0 -21 -14 -37t-40 -20q-42 -6 -57.5 -26.5t-45.5 -105.5q-14 -41 -31 -65t-53 -44q47 -15 83 -60.5t74 -123.5l33 -69q23 -49 23 -72q0 -14 -9 -26
q21 -2 32 -14.5t12.5 -23t1.5 -30.5z" />
    </font>
</defs>
</svg>
